G04 #@! TF.FileFunction,Legend,Top*
%FSLAX46Y46*%
G04 Gerber Fmt 4.6, Leading zero omitted, Abs format (unit mm)*
G04 Created by KiCad (PCBNEW 4.0.0-2.201512072331+6194~38~ubuntu14.04.1-stable) date Mon 04 Jan 2016 09:00:13 PM CET*
%MOMM*%
G01*
G04 APERTURE LIST*
%ADD10C,0.100000*%
%ADD11C,0.127000*%
%ADD12C,0.200000*%
%ADD13C,0.152400*%
%ADD14C,0.150000*%
%ADD15C,0.500000*%
%ADD16C,0.300000*%
%ADD17C,0.010000*%
G04 APERTURE END LIST*
D10*
D11*
X89326357Y-86098743D02*
X89290071Y-86135029D01*
X89181214Y-86171314D01*
X89108643Y-86171314D01*
X88999786Y-86135029D01*
X88927214Y-86062457D01*
X88890929Y-85989886D01*
X88854643Y-85844743D01*
X88854643Y-85735886D01*
X88890929Y-85590743D01*
X88927214Y-85518171D01*
X88999786Y-85445600D01*
X89108643Y-85409314D01*
X89181214Y-85409314D01*
X89290071Y-85445600D01*
X89326357Y-85481886D01*
X89943214Y-86135029D02*
X89870643Y-86171314D01*
X89725500Y-86171314D01*
X89652929Y-86135029D01*
X89616643Y-86062457D01*
X89616643Y-85772171D01*
X89652929Y-85699600D01*
X89725500Y-85663314D01*
X89870643Y-85663314D01*
X89943214Y-85699600D01*
X89979500Y-85772171D01*
X89979500Y-85844743D01*
X89616643Y-85917314D01*
X90306072Y-85663314D02*
X90306072Y-86171314D01*
X90306072Y-85735886D02*
X90342357Y-85699600D01*
X90414929Y-85663314D01*
X90523786Y-85663314D01*
X90596357Y-85699600D01*
X90632643Y-85772171D01*
X90632643Y-86171314D01*
X90886643Y-85663314D02*
X91176929Y-85663314D01*
X90995501Y-85409314D02*
X90995501Y-86062457D01*
X91031786Y-86135029D01*
X91104358Y-86171314D01*
X91176929Y-86171314D01*
X91430930Y-86171314D02*
X91430930Y-85663314D01*
X91430930Y-85808457D02*
X91467215Y-85735886D01*
X91503501Y-85699600D01*
X91576072Y-85663314D01*
X91648644Y-85663314D01*
X92229215Y-86171314D02*
X92229215Y-85772171D01*
X92192929Y-85699600D01*
X92120358Y-85663314D01*
X91975215Y-85663314D01*
X91902644Y-85699600D01*
X92229215Y-86135029D02*
X92156644Y-86171314D01*
X91975215Y-86171314D01*
X91902644Y-86135029D01*
X91866358Y-86062457D01*
X91866358Y-85989886D01*
X91902644Y-85917314D01*
X91975215Y-85881029D01*
X92156644Y-85881029D01*
X92229215Y-85844743D01*
X92700930Y-86171314D02*
X92628358Y-86135029D01*
X92592073Y-86062457D01*
X92592073Y-85409314D01*
X94007215Y-86098743D02*
X93970929Y-86135029D01*
X93862072Y-86171314D01*
X93789501Y-86171314D01*
X93680644Y-86135029D01*
X93608072Y-86062457D01*
X93571787Y-85989886D01*
X93535501Y-85844743D01*
X93535501Y-85735886D01*
X93571787Y-85590743D01*
X93608072Y-85518171D01*
X93680644Y-85445600D01*
X93789501Y-85409314D01*
X93862072Y-85409314D01*
X93970929Y-85445600D01*
X94007215Y-85481886D01*
X94442644Y-86171314D02*
X94370072Y-86135029D01*
X94333787Y-86098743D01*
X94297501Y-86026171D01*
X94297501Y-85808457D01*
X94333787Y-85735886D01*
X94370072Y-85699600D01*
X94442644Y-85663314D01*
X94551501Y-85663314D01*
X94624072Y-85699600D01*
X94660358Y-85735886D01*
X94696644Y-85808457D01*
X94696644Y-86026171D01*
X94660358Y-86098743D01*
X94624072Y-86135029D01*
X94551501Y-86171314D01*
X94442644Y-86171314D01*
X95023216Y-86171314D02*
X95023216Y-85663314D01*
X95023216Y-85735886D02*
X95059501Y-85699600D01*
X95132073Y-85663314D01*
X95240930Y-85663314D01*
X95313501Y-85699600D01*
X95349787Y-85772171D01*
X95349787Y-86171314D01*
X95349787Y-85772171D02*
X95386073Y-85699600D01*
X95458644Y-85663314D01*
X95567501Y-85663314D01*
X95640073Y-85699600D01*
X95676358Y-85772171D01*
X95676358Y-86171314D01*
X96039216Y-86171314D02*
X96039216Y-85663314D01*
X96039216Y-85735886D02*
X96075501Y-85699600D01*
X96148073Y-85663314D01*
X96256930Y-85663314D01*
X96329501Y-85699600D01*
X96365787Y-85772171D01*
X96365787Y-86171314D01*
X96365787Y-85772171D02*
X96402073Y-85699600D01*
X96474644Y-85663314D01*
X96583501Y-85663314D01*
X96656073Y-85699600D01*
X96692358Y-85772171D01*
X96692358Y-86171314D01*
X97381787Y-86171314D02*
X97381787Y-85772171D01*
X97345501Y-85699600D01*
X97272930Y-85663314D01*
X97127787Y-85663314D01*
X97055216Y-85699600D01*
X97381787Y-86135029D02*
X97309216Y-86171314D01*
X97127787Y-86171314D01*
X97055216Y-86135029D01*
X97018930Y-86062457D01*
X97018930Y-85989886D01*
X97055216Y-85917314D01*
X97127787Y-85881029D01*
X97309216Y-85881029D01*
X97381787Y-85844743D01*
X97744645Y-85663314D02*
X97744645Y-86171314D01*
X97744645Y-85735886D02*
X97780930Y-85699600D01*
X97853502Y-85663314D01*
X97962359Y-85663314D01*
X98034930Y-85699600D01*
X98071216Y-85772171D01*
X98071216Y-86171314D01*
X98760645Y-86171314D02*
X98760645Y-85409314D01*
X98760645Y-86135029D02*
X98688074Y-86171314D01*
X98542931Y-86171314D01*
X98470359Y-86135029D01*
X98434074Y-86098743D01*
X98397788Y-86026171D01*
X98397788Y-85808457D01*
X98434074Y-85735886D01*
X98470359Y-85699600D01*
X98542931Y-85663314D01*
X98688074Y-85663314D01*
X98760645Y-85699600D01*
X99704074Y-86171314D02*
X99704074Y-85409314D01*
X99958074Y-85953600D01*
X100212074Y-85409314D01*
X100212074Y-86171314D01*
X100683788Y-86171314D02*
X100611216Y-86135029D01*
X100574931Y-86098743D01*
X100538645Y-86026171D01*
X100538645Y-85808457D01*
X100574931Y-85735886D01*
X100611216Y-85699600D01*
X100683788Y-85663314D01*
X100792645Y-85663314D01*
X100865216Y-85699600D01*
X100901502Y-85735886D01*
X100937788Y-85808457D01*
X100937788Y-86026171D01*
X100901502Y-86098743D01*
X100865216Y-86135029D01*
X100792645Y-86171314D01*
X100683788Y-86171314D01*
X101590931Y-86171314D02*
X101590931Y-85409314D01*
X101590931Y-86135029D02*
X101518360Y-86171314D01*
X101373217Y-86171314D01*
X101300645Y-86135029D01*
X101264360Y-86098743D01*
X101228074Y-86026171D01*
X101228074Y-85808457D01*
X101264360Y-85735886D01*
X101300645Y-85699600D01*
X101373217Y-85663314D01*
X101518360Y-85663314D01*
X101590931Y-85699600D01*
X102280360Y-85663314D02*
X102280360Y-86171314D01*
X101953789Y-85663314D02*
X101953789Y-86062457D01*
X101990074Y-86135029D01*
X102062646Y-86171314D01*
X102171503Y-86171314D01*
X102244074Y-86135029D01*
X102280360Y-86098743D01*
X102752075Y-86171314D02*
X102679503Y-86135029D01*
X102643218Y-86062457D01*
X102643218Y-85409314D01*
X103332646Y-86135029D02*
X103260075Y-86171314D01*
X103114932Y-86171314D01*
X103042361Y-86135029D01*
X103006075Y-86062457D01*
X103006075Y-85772171D01*
X103042361Y-85699600D01*
X103114932Y-85663314D01*
X103260075Y-85663314D01*
X103332646Y-85699600D01*
X103368932Y-85772171D01*
X103368932Y-85844743D01*
X103006075Y-85917314D01*
X89326357Y-87365114D02*
X89072357Y-87002257D01*
X88890929Y-87365114D02*
X88890929Y-86603114D01*
X89181214Y-86603114D01*
X89253786Y-86639400D01*
X89290071Y-86675686D01*
X89326357Y-86748257D01*
X89326357Y-86857114D01*
X89290071Y-86929686D01*
X89253786Y-86965971D01*
X89181214Y-87002257D01*
X88890929Y-87002257D01*
X89943214Y-87328829D02*
X89870643Y-87365114D01*
X89725500Y-87365114D01*
X89652929Y-87328829D01*
X89616643Y-87256257D01*
X89616643Y-86965971D01*
X89652929Y-86893400D01*
X89725500Y-86857114D01*
X89870643Y-86857114D01*
X89943214Y-86893400D01*
X89979500Y-86965971D01*
X89979500Y-87038543D01*
X89616643Y-87111114D01*
X90233500Y-86857114D02*
X90414929Y-87365114D01*
X90596357Y-86857114D01*
X91793785Y-86857114D02*
X91793785Y-87365114D01*
X91612356Y-86566829D02*
X91430928Y-87111114D01*
X91902642Y-87111114D01*
X92555785Y-87365114D02*
X92192928Y-87365114D01*
X92192928Y-86603114D01*
X92809785Y-87292543D02*
X92846070Y-87328829D01*
X92809785Y-87365114D01*
X92773499Y-87328829D01*
X92809785Y-87292543D01*
X92809785Y-87365114D01*
X93571784Y-87365114D02*
X93136356Y-87365114D01*
X93354070Y-87365114D02*
X93354070Y-86603114D01*
X93281499Y-86711971D01*
X93208927Y-86784543D01*
X93136356Y-86820829D01*
D12*
X108521500Y-106616500D02*
X111823500Y-104711500D01*
X110680500Y-94107000D02*
X108648500Y-93345000D01*
D13*
X87212714Y-82767714D02*
X87212714Y-82005714D01*
X87502999Y-82005714D01*
X87575571Y-82042000D01*
X87611856Y-82078286D01*
X87648142Y-82150857D01*
X87648142Y-82259714D01*
X87611856Y-82332286D01*
X87575571Y-82368571D01*
X87502999Y-82404857D01*
X87212714Y-82404857D01*
X87974714Y-82767714D02*
X87974714Y-82259714D01*
X87974714Y-82404857D02*
X88010999Y-82332286D01*
X88047285Y-82296000D01*
X88119856Y-82259714D01*
X88192428Y-82259714D01*
X88555285Y-82767714D02*
X88482713Y-82731429D01*
X88446428Y-82695143D01*
X88410142Y-82622571D01*
X88410142Y-82404857D01*
X88446428Y-82332286D01*
X88482713Y-82296000D01*
X88555285Y-82259714D01*
X88664142Y-82259714D01*
X88736713Y-82296000D01*
X88772999Y-82332286D01*
X88809285Y-82404857D01*
X88809285Y-82622571D01*
X88772999Y-82695143D01*
X88736713Y-82731429D01*
X88664142Y-82767714D01*
X88555285Y-82767714D01*
X89462428Y-82259714D02*
X89462428Y-82876571D01*
X89426142Y-82949143D01*
X89389857Y-82985429D01*
X89317285Y-83021714D01*
X89208428Y-83021714D01*
X89135857Y-82985429D01*
X89462428Y-82731429D02*
X89389857Y-82767714D01*
X89244714Y-82767714D01*
X89172142Y-82731429D01*
X89135857Y-82695143D01*
X89099571Y-82622571D01*
X89099571Y-82404857D01*
X89135857Y-82332286D01*
X89172142Y-82296000D01*
X89244714Y-82259714D01*
X89389857Y-82259714D01*
X89462428Y-82296000D01*
X89825286Y-82767714D02*
X89825286Y-82259714D01*
X89825286Y-82404857D02*
X89861571Y-82332286D01*
X89897857Y-82296000D01*
X89970428Y-82259714D01*
X90043000Y-82259714D01*
X90623571Y-82767714D02*
X90623571Y-82368571D01*
X90587285Y-82296000D01*
X90514714Y-82259714D01*
X90369571Y-82259714D01*
X90297000Y-82296000D01*
X90623571Y-82731429D02*
X90551000Y-82767714D01*
X90369571Y-82767714D01*
X90297000Y-82731429D01*
X90260714Y-82658857D01*
X90260714Y-82586286D01*
X90297000Y-82513714D01*
X90369571Y-82477429D01*
X90551000Y-82477429D01*
X90623571Y-82441143D01*
X90986429Y-82767714D02*
X90986429Y-82259714D01*
X90986429Y-82332286D02*
X91022714Y-82296000D01*
X91095286Y-82259714D01*
X91204143Y-82259714D01*
X91276714Y-82296000D01*
X91313000Y-82368571D01*
X91313000Y-82767714D01*
X91313000Y-82368571D02*
X91349286Y-82296000D01*
X91421857Y-82259714D01*
X91530714Y-82259714D01*
X91603286Y-82296000D01*
X91639571Y-82368571D01*
X91639571Y-82767714D01*
X92002429Y-82767714D02*
X92002429Y-82259714D01*
X92002429Y-82332286D02*
X92038714Y-82296000D01*
X92111286Y-82259714D01*
X92220143Y-82259714D01*
X92292714Y-82296000D01*
X92329000Y-82368571D01*
X92329000Y-82767714D01*
X92329000Y-82368571D02*
X92365286Y-82296000D01*
X92437857Y-82259714D01*
X92546714Y-82259714D01*
X92619286Y-82296000D01*
X92655571Y-82368571D01*
X92655571Y-82767714D01*
X93018429Y-82767714D02*
X93018429Y-82259714D01*
X93018429Y-82005714D02*
X92982143Y-82042000D01*
X93018429Y-82078286D01*
X93054714Y-82042000D01*
X93018429Y-82005714D01*
X93018429Y-82078286D01*
X93381286Y-82259714D02*
X93381286Y-82767714D01*
X93381286Y-82332286D02*
X93417571Y-82296000D01*
X93490143Y-82259714D01*
X93599000Y-82259714D01*
X93671571Y-82296000D01*
X93707857Y-82368571D01*
X93707857Y-82767714D01*
X94397286Y-82259714D02*
X94397286Y-82876571D01*
X94361000Y-82949143D01*
X94324715Y-82985429D01*
X94252143Y-83021714D01*
X94143286Y-83021714D01*
X94070715Y-82985429D01*
X94397286Y-82731429D02*
X94324715Y-82767714D01*
X94179572Y-82767714D01*
X94107000Y-82731429D01*
X94070715Y-82695143D01*
X94034429Y-82622571D01*
X94034429Y-82404857D01*
X94070715Y-82332286D01*
X94107000Y-82296000D01*
X94179572Y-82259714D01*
X94324715Y-82259714D01*
X94397286Y-82296000D01*
D11*
X106601265Y-91677334D02*
X106292837Y-92211548D01*
X106287974Y-92292540D01*
X106301256Y-92342107D01*
X106345962Y-92409817D01*
X106471659Y-92482388D01*
X106552651Y-92487250D01*
X106602218Y-92473968D01*
X106669928Y-92429262D01*
X106978357Y-91895048D01*
X106989033Y-92529700D02*
X107303277Y-92711128D01*
X106817327Y-92681960D02*
X107418298Y-92149048D01*
X107257268Y-92935960D01*
X107854331Y-93280674D02*
X107815789Y-92839431D01*
X107477240Y-93062960D02*
X107858240Y-92403049D01*
X108109634Y-92548191D01*
X108154340Y-92615902D01*
X108167621Y-92665469D01*
X108162760Y-92746460D01*
X108108331Y-92840733D01*
X108040621Y-92885439D01*
X107991054Y-92898721D01*
X107910062Y-92893859D01*
X107658668Y-92748717D01*
X108423877Y-92729620D02*
X108800970Y-92947334D01*
X108231424Y-93498389D02*
X108612424Y-92838477D01*
X105200962Y-108326105D02*
X105313377Y-108303100D01*
X105470500Y-108212386D01*
X105515205Y-108144676D01*
X105528487Y-108095109D01*
X105523625Y-108014117D01*
X105487339Y-107951269D01*
X105419630Y-107906563D01*
X105370062Y-107893281D01*
X105289071Y-107898142D01*
X105145231Y-107939289D01*
X105064239Y-107944151D01*
X105014672Y-107930869D01*
X104946962Y-107886164D01*
X104910676Y-107823315D01*
X104905815Y-107742323D01*
X104919096Y-107692756D01*
X104963802Y-107625046D01*
X105120923Y-107534332D01*
X105233339Y-107511328D01*
X106112268Y-107799962D02*
X106067562Y-107867672D01*
X105941864Y-107940243D01*
X105860873Y-107945105D01*
X105793163Y-107900399D01*
X105648020Y-107649004D01*
X105643159Y-107568012D01*
X105687864Y-107500302D01*
X105813562Y-107427731D01*
X105894553Y-107422870D01*
X105962263Y-107467575D01*
X105998549Y-107530424D01*
X105720591Y-107774701D01*
X106190654Y-107210016D02*
X106444654Y-107649957D01*
X106226940Y-107272865D02*
X106240221Y-107223298D01*
X106284927Y-107155588D01*
X106379200Y-107101159D01*
X106460191Y-107096298D01*
X106527902Y-107141004D01*
X106727473Y-107486672D01*
X106992150Y-107291962D02*
X107073141Y-107287100D01*
X107198839Y-107214529D01*
X107243545Y-107146819D01*
X107238683Y-107065827D01*
X107220540Y-107034403D01*
X107152831Y-106989697D01*
X107071839Y-106994558D01*
X106977566Y-107048987D01*
X106896575Y-107053848D01*
X106828864Y-107009142D01*
X106810721Y-106977718D01*
X106805860Y-106896726D01*
X106850566Y-106829016D01*
X106944839Y-106774588D01*
X107025831Y-106769726D01*
X107670204Y-106942386D02*
X107589212Y-106947248D01*
X107539646Y-106933966D01*
X107471935Y-106889260D01*
X107363078Y-106700714D01*
X107358217Y-106619722D01*
X107371498Y-106570155D01*
X107416204Y-106502445D01*
X107510477Y-106448016D01*
X107591468Y-106443155D01*
X107641036Y-106456437D01*
X107708746Y-106501142D01*
X107817603Y-106689688D01*
X107822464Y-106770680D01*
X107809183Y-106820248D01*
X107764477Y-106887957D01*
X107670204Y-106942386D01*
X108172994Y-106652100D02*
X107918994Y-106212159D01*
X107991566Y-106337856D02*
X107986704Y-106256865D01*
X107999986Y-106207298D01*
X108044691Y-106139588D01*
X108107540Y-106103302D01*
X105847429Y-109373247D02*
X105466429Y-108713335D01*
X105785534Y-108612899D02*
X105798816Y-108563331D01*
X105843521Y-108495621D01*
X106000643Y-108404907D01*
X106081634Y-108400046D01*
X106131202Y-108413327D01*
X106198911Y-108458033D01*
X106235197Y-108520882D01*
X106258202Y-108633298D01*
X106098823Y-109228104D01*
X106507340Y-108992247D01*
X107130965Y-108548399D02*
X107117684Y-108597966D01*
X107041553Y-108683819D01*
X106978705Y-108720104D01*
X106866290Y-108743109D01*
X106767154Y-108716546D01*
X106699445Y-108671840D01*
X106595449Y-108564285D01*
X106541021Y-108470012D01*
X106499874Y-108326172D01*
X106495011Y-108245180D01*
X106521575Y-108146046D01*
X106597705Y-108060193D01*
X106660553Y-108023907D01*
X106772969Y-108000903D01*
X106822537Y-108014185D01*
D13*
X83883500Y-103251000D02*
X83919786Y-103178429D01*
X83919786Y-103069572D01*
X83883500Y-102960715D01*
X83810929Y-102888143D01*
X83738357Y-102851858D01*
X83593214Y-102815572D01*
X83484357Y-102815572D01*
X83339214Y-102851858D01*
X83266643Y-102888143D01*
X83194071Y-102960715D01*
X83157786Y-103069572D01*
X83157786Y-103142143D01*
X83194071Y-103251000D01*
X83230357Y-103287286D01*
X83484357Y-103287286D01*
X83484357Y-103142143D01*
X83157786Y-103613858D02*
X83919786Y-103613858D01*
X83919786Y-103904143D01*
X83883500Y-103976715D01*
X83847214Y-104013000D01*
X83774643Y-104049286D01*
X83665786Y-104049286D01*
X83593214Y-104013000D01*
X83556929Y-103976715D01*
X83520643Y-103904143D01*
X83520643Y-103613858D01*
X83157786Y-104375858D02*
X83919786Y-104375858D01*
X83919786Y-104883857D02*
X83919786Y-105029000D01*
X83883500Y-105101572D01*
X83810929Y-105174143D01*
X83665786Y-105210429D01*
X83411786Y-105210429D01*
X83266643Y-105174143D01*
X83194071Y-105101572D01*
X83157786Y-105029000D01*
X83157786Y-104883857D01*
X83194071Y-104811286D01*
X83266643Y-104738715D01*
X83411786Y-104702429D01*
X83665786Y-104702429D01*
X83810929Y-104738715D01*
X83883500Y-104811286D01*
X83919786Y-104883857D01*
X83157786Y-106117572D02*
X83919786Y-106117572D01*
X83556929Y-106117572D02*
X83556929Y-106553000D01*
X83157786Y-106553000D02*
X83919786Y-106553000D01*
X83194071Y-107206143D02*
X83157786Y-107133572D01*
X83157786Y-106988429D01*
X83194071Y-106915858D01*
X83266643Y-106879572D01*
X83556929Y-106879572D01*
X83629500Y-106915858D01*
X83665786Y-106988429D01*
X83665786Y-107133572D01*
X83629500Y-107206143D01*
X83556929Y-107242429D01*
X83484357Y-107242429D01*
X83411786Y-106879572D01*
X83157786Y-107895572D02*
X83556929Y-107895572D01*
X83629500Y-107859286D01*
X83665786Y-107786715D01*
X83665786Y-107641572D01*
X83629500Y-107569001D01*
X83194071Y-107895572D02*
X83157786Y-107823001D01*
X83157786Y-107641572D01*
X83194071Y-107569001D01*
X83266643Y-107532715D01*
X83339214Y-107532715D01*
X83411786Y-107569001D01*
X83448071Y-107641572D01*
X83448071Y-107823001D01*
X83484357Y-107895572D01*
X83157786Y-108585001D02*
X83919786Y-108585001D01*
X83194071Y-108585001D02*
X83157786Y-108512430D01*
X83157786Y-108367287D01*
X83194071Y-108294715D01*
X83230357Y-108258430D01*
X83302929Y-108222144D01*
X83520643Y-108222144D01*
X83593214Y-108258430D01*
X83629500Y-108294715D01*
X83665786Y-108367287D01*
X83665786Y-108512430D01*
X83629500Y-108585001D01*
X83194071Y-109238144D02*
X83157786Y-109165573D01*
X83157786Y-109020430D01*
X83194071Y-108947859D01*
X83266643Y-108911573D01*
X83556929Y-108911573D01*
X83629500Y-108947859D01*
X83665786Y-109020430D01*
X83665786Y-109165573D01*
X83629500Y-109238144D01*
X83556929Y-109274430D01*
X83484357Y-109274430D01*
X83411786Y-108911573D01*
X83157786Y-109601002D02*
X83665786Y-109601002D01*
X83520643Y-109601002D02*
X83593214Y-109637287D01*
X83629500Y-109673573D01*
X83665786Y-109746144D01*
X83665786Y-109818716D01*
X83157786Y-111052429D02*
X83157786Y-110617001D01*
X83157786Y-110834715D02*
X83919786Y-110834715D01*
X83810929Y-110762144D01*
X83738357Y-110689572D01*
X83702071Y-110617001D01*
X105918000Y-122110500D02*
X105881714Y-122183071D01*
X105881714Y-122291928D01*
X105918000Y-122400785D01*
X105990571Y-122473357D01*
X106063143Y-122509642D01*
X106208286Y-122545928D01*
X106317143Y-122545928D01*
X106462286Y-122509642D01*
X106534857Y-122473357D01*
X106607429Y-122400785D01*
X106643714Y-122291928D01*
X106643714Y-122219357D01*
X106607429Y-122110500D01*
X106571143Y-122074214D01*
X106317143Y-122074214D01*
X106317143Y-122219357D01*
X106643714Y-121747642D02*
X105881714Y-121747642D01*
X105881714Y-121457357D01*
X105918000Y-121384785D01*
X105954286Y-121348500D01*
X106026857Y-121312214D01*
X106135714Y-121312214D01*
X106208286Y-121348500D01*
X106244571Y-121384785D01*
X106280857Y-121457357D01*
X106280857Y-121747642D01*
X106643714Y-120985642D02*
X105881714Y-120985642D01*
X105881714Y-120477643D02*
X105881714Y-120332500D01*
X105918000Y-120259928D01*
X105990571Y-120187357D01*
X106135714Y-120151071D01*
X106389714Y-120151071D01*
X106534857Y-120187357D01*
X106607429Y-120259928D01*
X106643714Y-120332500D01*
X106643714Y-120477643D01*
X106607429Y-120550214D01*
X106534857Y-120622785D01*
X106389714Y-120659071D01*
X106135714Y-120659071D01*
X105990571Y-120622785D01*
X105918000Y-120550214D01*
X105881714Y-120477643D01*
X106643714Y-119243928D02*
X105881714Y-119243928D01*
X106244571Y-119243928D02*
X106244571Y-118808500D01*
X106643714Y-118808500D02*
X105881714Y-118808500D01*
X106607429Y-118155357D02*
X106643714Y-118227928D01*
X106643714Y-118373071D01*
X106607429Y-118445642D01*
X106534857Y-118481928D01*
X106244571Y-118481928D01*
X106172000Y-118445642D01*
X106135714Y-118373071D01*
X106135714Y-118227928D01*
X106172000Y-118155357D01*
X106244571Y-118119071D01*
X106317143Y-118119071D01*
X106389714Y-118481928D01*
X106643714Y-117465928D02*
X106244571Y-117465928D01*
X106172000Y-117502214D01*
X106135714Y-117574785D01*
X106135714Y-117719928D01*
X106172000Y-117792499D01*
X106607429Y-117465928D02*
X106643714Y-117538499D01*
X106643714Y-117719928D01*
X106607429Y-117792499D01*
X106534857Y-117828785D01*
X106462286Y-117828785D01*
X106389714Y-117792499D01*
X106353429Y-117719928D01*
X106353429Y-117538499D01*
X106317143Y-117465928D01*
X106643714Y-116776499D02*
X105881714Y-116776499D01*
X106607429Y-116776499D02*
X106643714Y-116849070D01*
X106643714Y-116994213D01*
X106607429Y-117066785D01*
X106571143Y-117103070D01*
X106498571Y-117139356D01*
X106280857Y-117139356D01*
X106208286Y-117103070D01*
X106172000Y-117066785D01*
X106135714Y-116994213D01*
X106135714Y-116849070D01*
X106172000Y-116776499D01*
X106607429Y-116123356D02*
X106643714Y-116195927D01*
X106643714Y-116341070D01*
X106607429Y-116413641D01*
X106534857Y-116449927D01*
X106244571Y-116449927D01*
X106172000Y-116413641D01*
X106135714Y-116341070D01*
X106135714Y-116195927D01*
X106172000Y-116123356D01*
X106244571Y-116087070D01*
X106317143Y-116087070D01*
X106389714Y-116449927D01*
X106643714Y-115760498D02*
X106135714Y-115760498D01*
X106280857Y-115760498D02*
X106208286Y-115724213D01*
X106172000Y-115687927D01*
X106135714Y-115615356D01*
X106135714Y-115542784D01*
X105954286Y-114744499D02*
X105918000Y-114708213D01*
X105881714Y-114635642D01*
X105881714Y-114454213D01*
X105918000Y-114381642D01*
X105954286Y-114345356D01*
X106026857Y-114309071D01*
X106099429Y-114309071D01*
X106208286Y-114345356D01*
X106643714Y-114780785D01*
X106643714Y-114309071D01*
X105600501Y-94923429D02*
X105709358Y-94959714D01*
X105890787Y-94959714D01*
X105963358Y-94923429D01*
X105999644Y-94887143D01*
X106035929Y-94814571D01*
X106035929Y-94742000D01*
X105999644Y-94669429D01*
X105963358Y-94633143D01*
X105890787Y-94596857D01*
X105745644Y-94560571D01*
X105673072Y-94524286D01*
X105636787Y-94488000D01*
X105600501Y-94415429D01*
X105600501Y-94342857D01*
X105636787Y-94270286D01*
X105673072Y-94234000D01*
X105745644Y-94197714D01*
X105927072Y-94197714D01*
X106035929Y-94234000D01*
X106362501Y-94959714D02*
X106362501Y-94197714D01*
X106652786Y-94197714D01*
X106725358Y-94234000D01*
X106761643Y-94270286D01*
X106797929Y-94342857D01*
X106797929Y-94451714D01*
X106761643Y-94524286D01*
X106725358Y-94560571D01*
X106652786Y-94596857D01*
X106362501Y-94596857D01*
X107124501Y-94959714D02*
X107124501Y-94197714D01*
X107886500Y-94959714D02*
X107451072Y-94959714D01*
X107668786Y-94959714D02*
X107668786Y-94197714D01*
X107596215Y-94306571D01*
X107523643Y-94379143D01*
X107451072Y-94415429D01*
D11*
X97263857Y-125820714D02*
X97009857Y-125457857D01*
X96828429Y-125820714D02*
X96828429Y-125058714D01*
X97118714Y-125058714D01*
X97191286Y-125095000D01*
X97227571Y-125131286D01*
X97263857Y-125203857D01*
X97263857Y-125312714D01*
X97227571Y-125385286D01*
X97191286Y-125421571D01*
X97118714Y-125457857D01*
X96828429Y-125457857D01*
X97517857Y-125820714D02*
X97917000Y-125312714D01*
X97517857Y-125312714D02*
X97917000Y-125820714D01*
X96719571Y-122772714D02*
X97155000Y-122772714D01*
X96937286Y-123534714D02*
X96937286Y-122772714D01*
X97336428Y-123534714D02*
X97735571Y-123026714D01*
X97336428Y-123026714D02*
X97735571Y-123534714D01*
D12*
X97976961Y-96901000D02*
G75*
G03X97976961Y-96901000I-567961J0D01*
G01*
X85340461Y-122110500D02*
G75*
G03X85340461Y-122110500I-567961J0D01*
G01*
D11*
X82740503Y-81497714D02*
X82740503Y-80735714D01*
X83030788Y-80735714D01*
X83103360Y-80772000D01*
X83139645Y-80808286D01*
X83175931Y-80880857D01*
X83175931Y-80989714D01*
X83139645Y-81062286D01*
X83103360Y-81098571D01*
X83030788Y-81134857D01*
X82740503Y-81134857D01*
X83429931Y-80735714D02*
X83611360Y-81497714D01*
X83756503Y-80953429D01*
X83901645Y-81497714D01*
X84083074Y-80735714D01*
X84808788Y-81497714D02*
X84554788Y-81134857D01*
X84373360Y-81497714D02*
X84373360Y-80735714D01*
X84663645Y-80735714D01*
X84736217Y-80772000D01*
X84772502Y-80808286D01*
X84808788Y-80880857D01*
X84808788Y-80989714D01*
X84772502Y-81062286D01*
X84736217Y-81098571D01*
X84663645Y-81134857D01*
X84373360Y-81134857D01*
X85679645Y-81461429D02*
X85788502Y-81497714D01*
X85969931Y-81497714D01*
X86042502Y-81461429D01*
X86078788Y-81425143D01*
X86115073Y-81352571D01*
X86115073Y-81280000D01*
X86078788Y-81207429D01*
X86042502Y-81171143D01*
X85969931Y-81134857D01*
X85824788Y-81098571D01*
X85752216Y-81062286D01*
X85715931Y-81026000D01*
X85679645Y-80953429D01*
X85679645Y-80880857D01*
X85715931Y-80808286D01*
X85752216Y-80772000D01*
X85824788Y-80735714D01*
X86006216Y-80735714D01*
X86115073Y-80772000D01*
X86369073Y-80735714D02*
X86550502Y-81497714D01*
X86695645Y-80953429D01*
X86840787Y-81497714D01*
X87022216Y-80735714D01*
X87747930Y-81425143D02*
X87711644Y-81461429D01*
X87602787Y-81497714D01*
X87530216Y-81497714D01*
X87421359Y-81461429D01*
X87348787Y-81388857D01*
X87312502Y-81316286D01*
X87276216Y-81171143D01*
X87276216Y-81062286D01*
X87312502Y-80917143D01*
X87348787Y-80844571D01*
X87421359Y-80772000D01*
X87530216Y-80735714D01*
X87602787Y-80735714D01*
X87711644Y-80772000D01*
X87747930Y-80808286D01*
X89054215Y-80772000D02*
X88981644Y-80735714D01*
X88872787Y-80735714D01*
X88763930Y-80772000D01*
X88691358Y-80844571D01*
X88655073Y-80917143D01*
X88618787Y-81062286D01*
X88618787Y-81171143D01*
X88655073Y-81316286D01*
X88691358Y-81388857D01*
X88763930Y-81461429D01*
X88872787Y-81497714D01*
X88945358Y-81497714D01*
X89054215Y-81461429D01*
X89090501Y-81425143D01*
X89090501Y-81171143D01*
X88945358Y-81171143D01*
X89417073Y-81497714D02*
X89417073Y-80735714D01*
X89852501Y-81497714D01*
X89852501Y-80735714D01*
X90215359Y-81497714D02*
X90215359Y-80735714D01*
X90396787Y-80735714D01*
X90505644Y-80772000D01*
X90578216Y-80844571D01*
X90614501Y-80917143D01*
X90650787Y-81062286D01*
X90650787Y-81171143D01*
X90614501Y-81316286D01*
X90578216Y-81388857D01*
X90505644Y-81461429D01*
X90396787Y-81497714D01*
X90215359Y-81497714D01*
X91521644Y-81461429D02*
X91630501Y-81497714D01*
X91811930Y-81497714D01*
X91884501Y-81461429D01*
X91920787Y-81425143D01*
X91957072Y-81352571D01*
X91957072Y-81280000D01*
X91920787Y-81207429D01*
X91884501Y-81171143D01*
X91811930Y-81134857D01*
X91666787Y-81098571D01*
X91594215Y-81062286D01*
X91557930Y-81026000D01*
X91521644Y-80953429D01*
X91521644Y-80880857D01*
X91557930Y-80808286D01*
X91594215Y-80772000D01*
X91666787Y-80735714D01*
X91848215Y-80735714D01*
X91957072Y-80772000D01*
X92211072Y-80735714D02*
X92392501Y-81497714D01*
X92537644Y-80953429D01*
X92682786Y-81497714D01*
X92864215Y-80735714D01*
X93154501Y-81497714D02*
X93154501Y-80735714D01*
X94533357Y-81497714D02*
X94279357Y-81134857D01*
X94097929Y-81497714D02*
X94097929Y-80735714D01*
X94388214Y-80735714D01*
X94460786Y-80772000D01*
X94497071Y-80808286D01*
X94533357Y-80880857D01*
X94533357Y-80989714D01*
X94497071Y-81062286D01*
X94460786Y-81098571D01*
X94388214Y-81134857D01*
X94097929Y-81134857D01*
X94823643Y-81461429D02*
X94932500Y-81497714D01*
X95113929Y-81497714D01*
X95186500Y-81461429D01*
X95222786Y-81425143D01*
X95259071Y-81352571D01*
X95259071Y-81280000D01*
X95222786Y-81207429D01*
X95186500Y-81171143D01*
X95113929Y-81134857D01*
X94968786Y-81098571D01*
X94896214Y-81062286D01*
X94859929Y-81026000D01*
X94823643Y-80953429D01*
X94823643Y-80880857D01*
X94859929Y-80808286D01*
X94896214Y-80772000D01*
X94968786Y-80735714D01*
X95150214Y-80735714D01*
X95259071Y-80772000D01*
X95476785Y-80735714D02*
X95912214Y-80735714D01*
X95694500Y-81497714D02*
X95694500Y-80735714D01*
X93916500Y-80604360D02*
X95984785Y-80604360D01*
X96637927Y-80735714D02*
X97073356Y-80735714D01*
X96855642Y-81497714D02*
X96855642Y-80735714D01*
X97762784Y-81497714D02*
X97508784Y-81134857D01*
X97327356Y-81497714D02*
X97327356Y-80735714D01*
X97617641Y-80735714D01*
X97690213Y-80772000D01*
X97726498Y-80808286D01*
X97762784Y-80880857D01*
X97762784Y-80989714D01*
X97726498Y-81062286D01*
X97690213Y-81098571D01*
X97617641Y-81134857D01*
X97327356Y-81134857D01*
X98524784Y-81425143D02*
X98488498Y-81461429D01*
X98379641Y-81497714D01*
X98307070Y-81497714D01*
X98198213Y-81461429D01*
X98125641Y-81388857D01*
X98089356Y-81316286D01*
X98053070Y-81171143D01*
X98053070Y-81062286D01*
X98089356Y-80917143D01*
X98125641Y-80844571D01*
X98198213Y-80772000D01*
X98307070Y-80735714D01*
X98379641Y-80735714D01*
X98488498Y-80772000D01*
X98524784Y-80808286D01*
X109673571Y-99840143D02*
X109637286Y-99949000D01*
X109637286Y-100130429D01*
X109673571Y-100203000D01*
X109709857Y-100239286D01*
X109782429Y-100275571D01*
X109855000Y-100275571D01*
X109927571Y-100239286D01*
X109963857Y-100203000D01*
X110000143Y-100130429D01*
X110036429Y-99985286D01*
X110072714Y-99912714D01*
X110109000Y-99876429D01*
X110181571Y-99840143D01*
X110254143Y-99840143D01*
X110326714Y-99876429D01*
X110363000Y-99912714D01*
X110399286Y-99985286D01*
X110399286Y-100166714D01*
X110363000Y-100275571D01*
X109637286Y-100602143D02*
X110399286Y-100602143D01*
X110399286Y-100783571D01*
X110363000Y-100892428D01*
X110290429Y-100965000D01*
X110217857Y-101001285D01*
X110072714Y-101037571D01*
X109963857Y-101037571D01*
X109818714Y-101001285D01*
X109746143Y-100965000D01*
X109673571Y-100892428D01*
X109637286Y-100783571D01*
X109637286Y-100602143D01*
X109855000Y-101327857D02*
X109855000Y-101690714D01*
X109637286Y-101255285D02*
X110399286Y-101509285D01*
X109637286Y-101763285D01*
X109673571Y-102561571D02*
X109637286Y-102670428D01*
X109637286Y-102851857D01*
X109673571Y-102924428D01*
X109709857Y-102960714D01*
X109782429Y-102996999D01*
X109855000Y-102996999D01*
X109927571Y-102960714D01*
X109963857Y-102924428D01*
X110000143Y-102851857D01*
X110036429Y-102706714D01*
X110072714Y-102634142D01*
X110109000Y-102597857D01*
X110181571Y-102561571D01*
X110254143Y-102561571D01*
X110326714Y-102597857D01*
X110363000Y-102634142D01*
X110399286Y-102706714D01*
X110399286Y-102888142D01*
X110363000Y-102996999D01*
X109709857Y-103758999D02*
X109673571Y-103722713D01*
X109637286Y-103613856D01*
X109637286Y-103541285D01*
X109673571Y-103432428D01*
X109746143Y-103359856D01*
X109818714Y-103323571D01*
X109963857Y-103287285D01*
X110072714Y-103287285D01*
X110217857Y-103323571D01*
X110290429Y-103359856D01*
X110363000Y-103432428D01*
X110399286Y-103541285D01*
X110399286Y-103613856D01*
X110363000Y-103722713D01*
X110326714Y-103758999D01*
X109637286Y-104085571D02*
X110399286Y-104085571D01*
X109637286Y-104520999D02*
X110072714Y-104194428D01*
X110399286Y-104520999D02*
X109963857Y-104085571D01*
X109383286Y-94723857D02*
X109746143Y-94469857D01*
X109383286Y-94288429D02*
X110145286Y-94288429D01*
X110145286Y-94578714D01*
X110109000Y-94651286D01*
X110072714Y-94687571D01*
X110000143Y-94723857D01*
X109891286Y-94723857D01*
X109818714Y-94687571D01*
X109782429Y-94651286D01*
X109746143Y-94578714D01*
X109746143Y-94288429D01*
X109383286Y-94977857D02*
X109891286Y-95377000D01*
X109891286Y-94977857D02*
X109383286Y-95377000D01*
X110145286Y-96138999D02*
X110145286Y-96574428D01*
X109383286Y-96356714D02*
X110145286Y-96356714D01*
X109383286Y-96755856D02*
X109891286Y-97154999D01*
X109891286Y-96755856D02*
X109383286Y-97154999D01*
X81388857Y-95572943D02*
X81352571Y-95609229D01*
X81243714Y-95645514D01*
X81171143Y-95645514D01*
X81062286Y-95609229D01*
X80989714Y-95536657D01*
X80953429Y-95464086D01*
X80917143Y-95318943D01*
X80917143Y-95210086D01*
X80953429Y-95064943D01*
X80989714Y-94992371D01*
X81062286Y-94919800D01*
X81171143Y-94883514D01*
X81243714Y-94883514D01*
X81352571Y-94919800D01*
X81388857Y-94956086D01*
X82114571Y-95645514D02*
X81679143Y-95645514D01*
X81896857Y-95645514D02*
X81896857Y-94883514D01*
X81824286Y-94992371D01*
X81751714Y-95064943D01*
X81679143Y-95101229D01*
X82368571Y-94883514D02*
X82840285Y-94883514D01*
X82586285Y-95173800D01*
X82695143Y-95173800D01*
X82767714Y-95210086D01*
X82804000Y-95246371D01*
X82840285Y-95318943D01*
X82840285Y-95500371D01*
X82804000Y-95572943D01*
X82767714Y-95609229D01*
X82695143Y-95645514D01*
X82477428Y-95645514D01*
X82404857Y-95609229D01*
X82368571Y-95572943D01*
X81388857Y-97960543D02*
X81352571Y-97996829D01*
X81243714Y-98033114D01*
X81171143Y-98033114D01*
X81062286Y-97996829D01*
X80989714Y-97924257D01*
X80953429Y-97851686D01*
X80917143Y-97706543D01*
X80917143Y-97597686D01*
X80953429Y-97452543D01*
X80989714Y-97379971D01*
X81062286Y-97307400D01*
X81171143Y-97271114D01*
X81243714Y-97271114D01*
X81352571Y-97307400D01*
X81388857Y-97343686D01*
X82114571Y-98033114D02*
X81679143Y-98033114D01*
X81896857Y-98033114D02*
X81896857Y-97271114D01*
X81824286Y-97379971D01*
X81751714Y-97452543D01*
X81679143Y-97488829D01*
X82767714Y-97525114D02*
X82767714Y-98033114D01*
X82586285Y-97234829D02*
X82404857Y-97779114D01*
X82876571Y-97779114D01*
X81388857Y-100348143D02*
X81352571Y-100384429D01*
X81243714Y-100420714D01*
X81171143Y-100420714D01*
X81062286Y-100384429D01*
X80989714Y-100311857D01*
X80953429Y-100239286D01*
X80917143Y-100094143D01*
X80917143Y-99985286D01*
X80953429Y-99840143D01*
X80989714Y-99767571D01*
X81062286Y-99695000D01*
X81171143Y-99658714D01*
X81243714Y-99658714D01*
X81352571Y-99695000D01*
X81388857Y-99731286D01*
X82114571Y-100420714D02*
X81679143Y-100420714D01*
X81896857Y-100420714D02*
X81896857Y-99658714D01*
X81824286Y-99767571D01*
X81751714Y-99840143D01*
X81679143Y-99876429D01*
X82804000Y-99658714D02*
X82441143Y-99658714D01*
X82404857Y-100021571D01*
X82441143Y-99985286D01*
X82513714Y-99949000D01*
X82695143Y-99949000D01*
X82767714Y-99985286D01*
X82804000Y-100021571D01*
X82840285Y-100094143D01*
X82840285Y-100275571D01*
X82804000Y-100348143D01*
X82767714Y-100384429D01*
X82695143Y-100420714D01*
X82513714Y-100420714D01*
X82441143Y-100384429D01*
X82404857Y-100348143D01*
X81207429Y-102409171D02*
X81316286Y-102445457D01*
X81352571Y-102481743D01*
X81388857Y-102554314D01*
X81388857Y-102663171D01*
X81352571Y-102735743D01*
X81316286Y-102772029D01*
X81243714Y-102808314D01*
X80953429Y-102808314D01*
X80953429Y-102046314D01*
X81207429Y-102046314D01*
X81280000Y-102082600D01*
X81316286Y-102118886D01*
X81352571Y-102191457D01*
X81352571Y-102264029D01*
X81316286Y-102336600D01*
X81280000Y-102372886D01*
X81207429Y-102409171D01*
X80953429Y-102409171D01*
X81751714Y-102808314D02*
X81896857Y-102808314D01*
X81969429Y-102772029D01*
X82005714Y-102735743D01*
X82078286Y-102626886D01*
X82114571Y-102481743D01*
X82114571Y-102191457D01*
X82078286Y-102118886D01*
X82042000Y-102082600D01*
X81969429Y-102046314D01*
X81824286Y-102046314D01*
X81751714Y-102082600D01*
X81715429Y-102118886D01*
X81679143Y-102191457D01*
X81679143Y-102372886D01*
X81715429Y-102445457D01*
X81751714Y-102481743D01*
X81824286Y-102518029D01*
X81969429Y-102518029D01*
X82042000Y-102481743D01*
X82078286Y-102445457D01*
X82114571Y-102372886D01*
X81207429Y-104796771D02*
X81316286Y-104833057D01*
X81352571Y-104869343D01*
X81388857Y-104941914D01*
X81388857Y-105050771D01*
X81352571Y-105123343D01*
X81316286Y-105159629D01*
X81243714Y-105195914D01*
X80953429Y-105195914D01*
X80953429Y-104433914D01*
X81207429Y-104433914D01*
X81280000Y-104470200D01*
X81316286Y-104506486D01*
X81352571Y-104579057D01*
X81352571Y-104651629D01*
X81316286Y-104724200D01*
X81280000Y-104760486D01*
X81207429Y-104796771D01*
X80953429Y-104796771D01*
X81824286Y-104760486D02*
X81751714Y-104724200D01*
X81715429Y-104687914D01*
X81679143Y-104615343D01*
X81679143Y-104579057D01*
X81715429Y-104506486D01*
X81751714Y-104470200D01*
X81824286Y-104433914D01*
X81969429Y-104433914D01*
X82042000Y-104470200D01*
X82078286Y-104506486D01*
X82114571Y-104579057D01*
X82114571Y-104615343D01*
X82078286Y-104687914D01*
X82042000Y-104724200D01*
X81969429Y-104760486D01*
X81824286Y-104760486D01*
X81751714Y-104796771D01*
X81715429Y-104833057D01*
X81679143Y-104905629D01*
X81679143Y-105050771D01*
X81715429Y-105123343D01*
X81751714Y-105159629D01*
X81824286Y-105195914D01*
X81969429Y-105195914D01*
X82042000Y-105159629D01*
X82078286Y-105123343D01*
X82114571Y-105050771D01*
X82114571Y-104905629D01*
X82078286Y-104833057D01*
X82042000Y-104796771D01*
X81969429Y-104760486D01*
X80917143Y-107365800D02*
X81280000Y-107365800D01*
X80844571Y-107583514D02*
X81098571Y-106821514D01*
X81352571Y-107583514D01*
X81751714Y-106821514D02*
X81824286Y-106821514D01*
X81896857Y-106857800D01*
X81933143Y-106894086D01*
X81969429Y-106966657D01*
X82005714Y-107111800D01*
X82005714Y-107293229D01*
X81969429Y-107438371D01*
X81933143Y-107510943D01*
X81896857Y-107547229D01*
X81824286Y-107583514D01*
X81751714Y-107583514D01*
X81679143Y-107547229D01*
X81642857Y-107510943D01*
X81606572Y-107438371D01*
X81570286Y-107293229D01*
X81570286Y-107111800D01*
X81606572Y-106966657D01*
X81642857Y-106894086D01*
X81679143Y-106857800D01*
X81751714Y-106821514D01*
X80917143Y-109753400D02*
X81280000Y-109753400D01*
X80844571Y-109971114D02*
X81098571Y-109209114D01*
X81352571Y-109971114D01*
X81933143Y-109463114D02*
X81933143Y-109971114D01*
X81751714Y-109172829D02*
X81570286Y-109717114D01*
X82042000Y-109717114D01*
X80917143Y-112141000D02*
X81280000Y-112141000D01*
X80844571Y-112358714D02*
X81098571Y-111596714D01*
X81352571Y-112358714D01*
X81969429Y-111596714D02*
X81606572Y-111596714D01*
X81570286Y-111959571D01*
X81606572Y-111923286D01*
X81679143Y-111887000D01*
X81860572Y-111887000D01*
X81933143Y-111923286D01*
X81969429Y-111959571D01*
X82005714Y-112032143D01*
X82005714Y-112213571D01*
X81969429Y-112286143D01*
X81933143Y-112322429D01*
X81860572Y-112358714D01*
X81679143Y-112358714D01*
X81606572Y-112322429D01*
X81570286Y-112286143D01*
X80917143Y-114528600D02*
X81280000Y-114528600D01*
X80844571Y-114746314D02*
X81098571Y-113984314D01*
X81352571Y-114746314D01*
X81933143Y-113984314D02*
X81788000Y-113984314D01*
X81715429Y-114020600D01*
X81679143Y-114056886D01*
X81606572Y-114165743D01*
X81570286Y-114310886D01*
X81570286Y-114601171D01*
X81606572Y-114673743D01*
X81642857Y-114710029D01*
X81715429Y-114746314D01*
X81860572Y-114746314D01*
X81933143Y-114710029D01*
X81969429Y-114673743D01*
X82005714Y-114601171D01*
X82005714Y-114419743D01*
X81969429Y-114347171D01*
X81933143Y-114310886D01*
X81860572Y-114274600D01*
X81715429Y-114274600D01*
X81642857Y-114310886D01*
X81606572Y-114347171D01*
X81570286Y-114419743D01*
X80917143Y-116916200D02*
X81280000Y-116916200D01*
X80844571Y-117133914D02*
X81098571Y-116371914D01*
X81352571Y-117133914D01*
X81534000Y-116371914D02*
X82042000Y-116371914D01*
X81715429Y-117133914D01*
X107768572Y-107873800D02*
X108131429Y-107873800D01*
X107696000Y-108091514D02*
X107950000Y-107329514D01*
X108204000Y-108091514D01*
X108857143Y-108091514D02*
X108421715Y-108091514D01*
X108639429Y-108091514D02*
X108639429Y-107329514D01*
X108566858Y-107438371D01*
X108494286Y-107510943D01*
X108421715Y-107547229D01*
X109328857Y-107329514D02*
X109401429Y-107329514D01*
X109474000Y-107365800D01*
X109510286Y-107402086D01*
X109546572Y-107474657D01*
X109582857Y-107619800D01*
X109582857Y-107801229D01*
X109546572Y-107946371D01*
X109510286Y-108018943D01*
X109474000Y-108055229D01*
X109401429Y-108091514D01*
X109328857Y-108091514D01*
X109256286Y-108055229D01*
X109220000Y-108018943D01*
X109183715Y-107946371D01*
X109147429Y-107801229D01*
X109147429Y-107619800D01*
X109183715Y-107474657D01*
X109220000Y-107402086D01*
X109256286Y-107365800D01*
X109328857Y-107329514D01*
X108494286Y-110261400D02*
X108857143Y-110261400D01*
X108421714Y-110479114D02*
X108675714Y-109717114D01*
X108929714Y-110479114D01*
X109220000Y-110479114D02*
X109365143Y-110479114D01*
X109437715Y-110442829D01*
X109474000Y-110406543D01*
X109546572Y-110297686D01*
X109582857Y-110152543D01*
X109582857Y-109862257D01*
X109546572Y-109789686D01*
X109510286Y-109753400D01*
X109437715Y-109717114D01*
X109292572Y-109717114D01*
X109220000Y-109753400D01*
X109183715Y-109789686D01*
X109147429Y-109862257D01*
X109147429Y-110043686D01*
X109183715Y-110116257D01*
X109220000Y-110152543D01*
X109292572Y-110188829D01*
X109437715Y-110188829D01*
X109510286Y-110152543D01*
X109546572Y-110116257D01*
X109582857Y-110043686D01*
X107478286Y-112866714D02*
X107478286Y-112104714D01*
X107732286Y-112649000D01*
X107986286Y-112104714D01*
X107986286Y-112866714D01*
X108784571Y-112794143D02*
X108748285Y-112830429D01*
X108639428Y-112866714D01*
X108566857Y-112866714D01*
X108458000Y-112830429D01*
X108385428Y-112757857D01*
X108349143Y-112685286D01*
X108312857Y-112540143D01*
X108312857Y-112431286D01*
X108349143Y-112286143D01*
X108385428Y-112213571D01*
X108458000Y-112141000D01*
X108566857Y-112104714D01*
X108639428Y-112104714D01*
X108748285Y-112141000D01*
X108784571Y-112177286D01*
X109256285Y-112104714D02*
X109401428Y-112104714D01*
X109474000Y-112141000D01*
X109546571Y-112213571D01*
X109582857Y-112358714D01*
X109582857Y-112612714D01*
X109546571Y-112757857D01*
X109474000Y-112830429D01*
X109401428Y-112866714D01*
X109256285Y-112866714D01*
X109183714Y-112830429D01*
X109111143Y-112757857D01*
X109074857Y-112612714D01*
X109074857Y-112358714D01*
X109111143Y-112213571D01*
X109183714Y-112141000D01*
X109256285Y-112104714D01*
X107950001Y-114855171D02*
X108058858Y-114891457D01*
X108095143Y-114927743D01*
X108131429Y-115000314D01*
X108131429Y-115109171D01*
X108095143Y-115181743D01*
X108058858Y-115218029D01*
X107986286Y-115254314D01*
X107696001Y-115254314D01*
X107696001Y-114492314D01*
X107950001Y-114492314D01*
X108022572Y-114528600D01*
X108058858Y-114564886D01*
X108095143Y-114637457D01*
X108095143Y-114710029D01*
X108058858Y-114782600D01*
X108022572Y-114818886D01*
X107950001Y-114855171D01*
X107696001Y-114855171D01*
X108857143Y-115254314D02*
X108421715Y-115254314D01*
X108639429Y-115254314D02*
X108639429Y-114492314D01*
X108566858Y-114601171D01*
X108494286Y-114673743D01*
X108421715Y-114710029D01*
X109546572Y-114492314D02*
X109183715Y-114492314D01*
X109147429Y-114855171D01*
X109183715Y-114818886D01*
X109256286Y-114782600D01*
X109437715Y-114782600D01*
X109510286Y-114818886D01*
X109546572Y-114855171D01*
X109582857Y-114927743D01*
X109582857Y-115109171D01*
X109546572Y-115181743D01*
X109510286Y-115218029D01*
X109437715Y-115254314D01*
X109256286Y-115254314D01*
X109183715Y-115218029D01*
X109147429Y-115181743D01*
X107950001Y-117242771D02*
X108058858Y-117279057D01*
X108095143Y-117315343D01*
X108131429Y-117387914D01*
X108131429Y-117496771D01*
X108095143Y-117569343D01*
X108058858Y-117605629D01*
X107986286Y-117641914D01*
X107696001Y-117641914D01*
X107696001Y-116879914D01*
X107950001Y-116879914D01*
X108022572Y-116916200D01*
X108058858Y-116952486D01*
X108095143Y-117025057D01*
X108095143Y-117097629D01*
X108058858Y-117170200D01*
X108022572Y-117206486D01*
X107950001Y-117242771D01*
X107696001Y-117242771D01*
X108857143Y-117641914D02*
X108421715Y-117641914D01*
X108639429Y-117641914D02*
X108639429Y-116879914D01*
X108566858Y-116988771D01*
X108494286Y-117061343D01*
X108421715Y-117097629D01*
X109510286Y-117133914D02*
X109510286Y-117641914D01*
X109328857Y-116843629D02*
X109147429Y-117387914D01*
X109619143Y-117387914D01*
X107950001Y-119630371D02*
X108058858Y-119666657D01*
X108095143Y-119702943D01*
X108131429Y-119775514D01*
X108131429Y-119884371D01*
X108095143Y-119956943D01*
X108058858Y-119993229D01*
X107986286Y-120029514D01*
X107696001Y-120029514D01*
X107696001Y-119267514D01*
X107950001Y-119267514D01*
X108022572Y-119303800D01*
X108058858Y-119340086D01*
X108095143Y-119412657D01*
X108095143Y-119485229D01*
X108058858Y-119557800D01*
X108022572Y-119594086D01*
X107950001Y-119630371D01*
X107696001Y-119630371D01*
X108857143Y-120029514D02*
X108421715Y-120029514D01*
X108639429Y-120029514D02*
X108639429Y-119267514D01*
X108566858Y-119376371D01*
X108494286Y-119448943D01*
X108421715Y-119485229D01*
X109111143Y-119267514D02*
X109582857Y-119267514D01*
X109328857Y-119557800D01*
X109437715Y-119557800D01*
X109510286Y-119594086D01*
X109546572Y-119630371D01*
X109582857Y-119702943D01*
X109582857Y-119884371D01*
X109546572Y-119956943D01*
X109510286Y-119993229D01*
X109437715Y-120029514D01*
X109220000Y-120029514D01*
X109147429Y-119993229D01*
X109111143Y-119956943D01*
X107950001Y-122017971D02*
X108058858Y-122054257D01*
X108095143Y-122090543D01*
X108131429Y-122163114D01*
X108131429Y-122271971D01*
X108095143Y-122344543D01*
X108058858Y-122380829D01*
X107986286Y-122417114D01*
X107696001Y-122417114D01*
X107696001Y-121655114D01*
X107950001Y-121655114D01*
X108022572Y-121691400D01*
X108058858Y-121727686D01*
X108095143Y-121800257D01*
X108095143Y-121872829D01*
X108058858Y-121945400D01*
X108022572Y-121981686D01*
X107950001Y-122017971D01*
X107696001Y-122017971D01*
X108857143Y-122417114D02*
X108421715Y-122417114D01*
X108639429Y-122417114D02*
X108639429Y-121655114D01*
X108566858Y-121763971D01*
X108494286Y-121836543D01*
X108421715Y-121872829D01*
X109147429Y-121727686D02*
X109183715Y-121691400D01*
X109256286Y-121655114D01*
X109437715Y-121655114D01*
X109510286Y-121691400D01*
X109546572Y-121727686D01*
X109582857Y-121800257D01*
X109582857Y-121872829D01*
X109546572Y-121981686D01*
X109111143Y-122417114D01*
X109582857Y-122417114D01*
X107950001Y-124405571D02*
X108058858Y-124441857D01*
X108095143Y-124478143D01*
X108131429Y-124550714D01*
X108131429Y-124659571D01*
X108095143Y-124732143D01*
X108058858Y-124768429D01*
X107986286Y-124804714D01*
X107696001Y-124804714D01*
X107696001Y-124042714D01*
X107950001Y-124042714D01*
X108022572Y-124079000D01*
X108058858Y-124115286D01*
X108095143Y-124187857D01*
X108095143Y-124260429D01*
X108058858Y-124333000D01*
X108022572Y-124369286D01*
X107950001Y-124405571D01*
X107696001Y-124405571D01*
X108857143Y-124804714D02*
X108421715Y-124804714D01*
X108639429Y-124804714D02*
X108639429Y-124042714D01*
X108566858Y-124151571D01*
X108494286Y-124224143D01*
X108421715Y-124260429D01*
X109582857Y-124804714D02*
X109147429Y-124804714D01*
X109365143Y-124804714D02*
X109365143Y-124042714D01*
X109292572Y-124151571D01*
X109220000Y-124224143D01*
X109147429Y-124260429D01*
X107950001Y-126793171D02*
X108058858Y-126829457D01*
X108095143Y-126865743D01*
X108131429Y-126938314D01*
X108131429Y-127047171D01*
X108095143Y-127119743D01*
X108058858Y-127156029D01*
X107986286Y-127192314D01*
X107696001Y-127192314D01*
X107696001Y-126430314D01*
X107950001Y-126430314D01*
X108022572Y-126466600D01*
X108058858Y-126502886D01*
X108095143Y-126575457D01*
X108095143Y-126648029D01*
X108058858Y-126720600D01*
X108022572Y-126756886D01*
X107950001Y-126793171D01*
X107696001Y-126793171D01*
X108857143Y-127192314D02*
X108421715Y-127192314D01*
X108639429Y-127192314D02*
X108639429Y-126430314D01*
X108566858Y-126539171D01*
X108494286Y-126611743D01*
X108421715Y-126648029D01*
X109328857Y-126430314D02*
X109401429Y-126430314D01*
X109474000Y-126466600D01*
X109510286Y-126502886D01*
X109546572Y-126575457D01*
X109582857Y-126720600D01*
X109582857Y-126902029D01*
X109546572Y-127047171D01*
X109510286Y-127119743D01*
X109474000Y-127156029D01*
X109401429Y-127192314D01*
X109328857Y-127192314D01*
X109256286Y-127156029D01*
X109220000Y-127119743D01*
X109183715Y-127047171D01*
X109147429Y-126902029D01*
X109147429Y-126720600D01*
X109183715Y-126575457D01*
X109220000Y-126502886D01*
X109256286Y-126466600D01*
X109328857Y-126430314D01*
X108675715Y-129180771D02*
X108784572Y-129217057D01*
X108820857Y-129253343D01*
X108857143Y-129325914D01*
X108857143Y-129434771D01*
X108820857Y-129507343D01*
X108784572Y-129543629D01*
X108712000Y-129579914D01*
X108421715Y-129579914D01*
X108421715Y-128817914D01*
X108675715Y-128817914D01*
X108748286Y-128854200D01*
X108784572Y-128890486D01*
X108820857Y-128963057D01*
X108820857Y-129035629D01*
X108784572Y-129108200D01*
X108748286Y-129144486D01*
X108675715Y-129180771D01*
X108421715Y-129180771D01*
X109147429Y-128890486D02*
X109183715Y-128854200D01*
X109256286Y-128817914D01*
X109437715Y-128817914D01*
X109510286Y-128854200D01*
X109546572Y-128890486D01*
X109582857Y-128963057D01*
X109582857Y-129035629D01*
X109546572Y-129144486D01*
X109111143Y-129579914D01*
X109582857Y-129579914D01*
X95776143Y-124714000D02*
X96139000Y-124714000D01*
X95703571Y-124931714D02*
X95957571Y-124169714D01*
X96211571Y-124931714D01*
X95776143Y-122555000D02*
X96139000Y-122555000D01*
X95703571Y-122772714D02*
X95957571Y-122010714D01*
X96211571Y-122772714D01*
X80946171Y-121158000D02*
X80873600Y-121121714D01*
X80764743Y-121121714D01*
X80655886Y-121158000D01*
X80583314Y-121230571D01*
X80547029Y-121303143D01*
X80510743Y-121448286D01*
X80510743Y-121557143D01*
X80547029Y-121702286D01*
X80583314Y-121774857D01*
X80655886Y-121847429D01*
X80764743Y-121883714D01*
X80837314Y-121883714D01*
X80946171Y-121847429D01*
X80982457Y-121811143D01*
X80982457Y-121557143D01*
X80837314Y-121557143D01*
X81309029Y-121883714D02*
X81309029Y-121121714D01*
X81744457Y-121883714D01*
X81744457Y-121121714D01*
X82107315Y-121883714D02*
X82107315Y-121121714D01*
X82288743Y-121121714D01*
X82397600Y-121158000D01*
X82470172Y-121230571D01*
X82506457Y-121303143D01*
X82542743Y-121448286D01*
X82542743Y-121557143D01*
X82506457Y-121702286D01*
X82470172Y-121774857D01*
X82397600Y-121847429D01*
X82288743Y-121883714D01*
X82107315Y-121883714D01*
X80510743Y-124053600D02*
X80873600Y-124053600D01*
X80438171Y-124271314D02*
X80692171Y-123509314D01*
X80946171Y-124271314D01*
X81200172Y-123981029D02*
X81780743Y-123981029D01*
X82143601Y-124271314D02*
X82143601Y-123509314D01*
X82506458Y-124271314D02*
X82506458Y-123509314D01*
X82941886Y-124271314D01*
X82941886Y-123509314D01*
X83341029Y-124271314D02*
X83486172Y-124271314D01*
X83558744Y-124235029D01*
X83595029Y-124198743D01*
X83667601Y-124089886D01*
X83703886Y-123944743D01*
X83703886Y-123654457D01*
X83667601Y-123581886D01*
X83631315Y-123545600D01*
X83558744Y-123509314D01*
X83413601Y-123509314D01*
X83341029Y-123545600D01*
X83304744Y-123581886D01*
X83268458Y-123654457D01*
X83268458Y-123835886D01*
X83304744Y-123908457D01*
X83341029Y-123944743D01*
X83413601Y-123981029D01*
X83558744Y-123981029D01*
X83631315Y-123944743D01*
X83667601Y-123908457D01*
X83703886Y-123835886D01*
X80510743Y-126441200D02*
X80873600Y-126441200D01*
X80438171Y-126658914D02*
X80692171Y-125896914D01*
X80946171Y-126658914D01*
X81200172Y-126368629D02*
X81780743Y-126368629D01*
X82143601Y-126658914D02*
X82143601Y-125896914D01*
X82506458Y-126658914D02*
X82506458Y-125896914D01*
X82941886Y-126658914D01*
X82941886Y-125896914D01*
X83413601Y-126223486D02*
X83341029Y-126187200D01*
X83304744Y-126150914D01*
X83268458Y-126078343D01*
X83268458Y-126042057D01*
X83304744Y-125969486D01*
X83341029Y-125933200D01*
X83413601Y-125896914D01*
X83558744Y-125896914D01*
X83631315Y-125933200D01*
X83667601Y-125969486D01*
X83703886Y-126042057D01*
X83703886Y-126078343D01*
X83667601Y-126150914D01*
X83631315Y-126187200D01*
X83558744Y-126223486D01*
X83413601Y-126223486D01*
X83341029Y-126259771D01*
X83304744Y-126296057D01*
X83268458Y-126368629D01*
X83268458Y-126513771D01*
X83304744Y-126586343D01*
X83341029Y-126622629D01*
X83413601Y-126658914D01*
X83558744Y-126658914D01*
X83631315Y-126622629D01*
X83667601Y-126586343D01*
X83703886Y-126513771D01*
X83703886Y-126368629D01*
X83667601Y-126296057D01*
X83631315Y-126259771D01*
X83558744Y-126223486D01*
X80510743Y-128828800D02*
X80873600Y-128828800D01*
X80438171Y-129046514D02*
X80692171Y-128284514D01*
X80946171Y-129046514D01*
X81200172Y-128756229D02*
X81780743Y-128756229D01*
X82143601Y-129046514D02*
X82143601Y-128284514D01*
X82506458Y-129046514D02*
X82506458Y-128284514D01*
X82941886Y-129046514D01*
X82941886Y-128284514D01*
X83703886Y-129046514D02*
X83268458Y-129046514D01*
X83486172Y-129046514D02*
X83486172Y-128284514D01*
X83413601Y-128393371D01*
X83341029Y-128465943D01*
X83268458Y-128502229D01*
D13*
X91755686Y-114797114D02*
X91501686Y-114434257D01*
X91320258Y-114797114D02*
X91320258Y-114035114D01*
X91610543Y-114035114D01*
X91683115Y-114071400D01*
X91719400Y-114107686D01*
X91755686Y-114180257D01*
X91755686Y-114289114D01*
X91719400Y-114361686D01*
X91683115Y-114397971D01*
X91610543Y-114434257D01*
X91320258Y-114434257D01*
X92082258Y-114397971D02*
X92336258Y-114397971D01*
X92445115Y-114797114D02*
X92082258Y-114797114D01*
X92082258Y-114035114D01*
X92445115Y-114035114D01*
X92735401Y-114760829D02*
X92844258Y-114797114D01*
X93025687Y-114797114D01*
X93098258Y-114760829D01*
X93134544Y-114724543D01*
X93170829Y-114651971D01*
X93170829Y-114579400D01*
X93134544Y-114506829D01*
X93098258Y-114470543D01*
X93025687Y-114434257D01*
X92880544Y-114397971D01*
X92807972Y-114361686D01*
X92771687Y-114325400D01*
X92735401Y-114252829D01*
X92735401Y-114180257D01*
X92771687Y-114107686D01*
X92807972Y-114071400D01*
X92880544Y-114035114D01*
X93061972Y-114035114D01*
X93170829Y-114071400D01*
X93497401Y-114397971D02*
X93751401Y-114397971D01*
X93860258Y-114797114D02*
X93497401Y-114797114D01*
X93497401Y-114035114D01*
X93860258Y-114035114D01*
X94077972Y-114035114D02*
X94513401Y-114035114D01*
X94295687Y-114797114D02*
X94295687Y-114035114D01*
D11*
X103341715Y-97156814D02*
X103341715Y-96394814D01*
X103595715Y-96939100D01*
X103849715Y-96394814D01*
X103849715Y-97156814D01*
X104357714Y-96394814D02*
X104502857Y-96394814D01*
X104575429Y-96431100D01*
X104648000Y-96503671D01*
X104684286Y-96648814D01*
X104684286Y-96902814D01*
X104648000Y-97047957D01*
X104575429Y-97120529D01*
X104502857Y-97156814D01*
X104357714Y-97156814D01*
X104285143Y-97120529D01*
X104212572Y-97047957D01*
X104176286Y-96902814D01*
X104176286Y-96648814D01*
X104212572Y-96503671D01*
X104285143Y-96431100D01*
X104357714Y-96394814D01*
X104974572Y-97120529D02*
X105083429Y-97156814D01*
X105264858Y-97156814D01*
X105337429Y-97120529D01*
X105373715Y-97084243D01*
X105410000Y-97011671D01*
X105410000Y-96939100D01*
X105373715Y-96866529D01*
X105337429Y-96830243D01*
X105264858Y-96793957D01*
X105119715Y-96757671D01*
X105047143Y-96721386D01*
X105010858Y-96685100D01*
X104974572Y-96612529D01*
X104974572Y-96539957D01*
X105010858Y-96467386D01*
X105047143Y-96431100D01*
X105119715Y-96394814D01*
X105301143Y-96394814D01*
X105410000Y-96431100D01*
X105736572Y-97156814D02*
X105736572Y-96394814D01*
X103341715Y-99544414D02*
X103341715Y-98782414D01*
X103595715Y-99326700D01*
X103849715Y-98782414D01*
X103849715Y-99544414D01*
X104212572Y-99544414D02*
X104212572Y-98782414D01*
X104539143Y-99508129D02*
X104648000Y-99544414D01*
X104829429Y-99544414D01*
X104902000Y-99508129D01*
X104938286Y-99471843D01*
X104974571Y-99399271D01*
X104974571Y-99326700D01*
X104938286Y-99254129D01*
X104902000Y-99217843D01*
X104829429Y-99181557D01*
X104684286Y-99145271D01*
X104611714Y-99108986D01*
X104575429Y-99072700D01*
X104539143Y-99000129D01*
X104539143Y-98927557D01*
X104575429Y-98854986D01*
X104611714Y-98818700D01*
X104684286Y-98782414D01*
X104865714Y-98782414D01*
X104974571Y-98818700D01*
X105446285Y-98782414D02*
X105591428Y-98782414D01*
X105664000Y-98818700D01*
X105736571Y-98891271D01*
X105772857Y-99036414D01*
X105772857Y-99290414D01*
X105736571Y-99435557D01*
X105664000Y-99508129D01*
X105591428Y-99544414D01*
X105446285Y-99544414D01*
X105373714Y-99508129D01*
X105301143Y-99435557D01*
X105264857Y-99290414D01*
X105264857Y-99036414D01*
X105301143Y-98891271D01*
X105373714Y-98818700D01*
X105446285Y-98782414D01*
X104285143Y-101859443D02*
X104248857Y-101895729D01*
X104140000Y-101932014D01*
X104067429Y-101932014D01*
X103958572Y-101895729D01*
X103886000Y-101823157D01*
X103849715Y-101750586D01*
X103813429Y-101605443D01*
X103813429Y-101496586D01*
X103849715Y-101351443D01*
X103886000Y-101278871D01*
X103958572Y-101206300D01*
X104067429Y-101170014D01*
X104140000Y-101170014D01*
X104248857Y-101206300D01*
X104285143Y-101242586D01*
X104575429Y-101895729D02*
X104684286Y-101932014D01*
X104865715Y-101932014D01*
X104938286Y-101895729D01*
X104974572Y-101859443D01*
X105010857Y-101786871D01*
X105010857Y-101714300D01*
X104974572Y-101641729D01*
X104938286Y-101605443D01*
X104865715Y-101569157D01*
X104720572Y-101532871D01*
X104648000Y-101496586D01*
X104611715Y-101460300D01*
X104575429Y-101387729D01*
X104575429Y-101315157D01*
X104611715Y-101242586D01*
X104648000Y-101206300D01*
X104720572Y-101170014D01*
X104902000Y-101170014D01*
X105010857Y-101206300D01*
X105337429Y-101932014D02*
X105337429Y-101170014D01*
X105772857Y-101932014D02*
X105446286Y-101496586D01*
X105772857Y-101170014D02*
X105337429Y-101605443D01*
X104611715Y-104283329D02*
X104720572Y-104319614D01*
X104902001Y-104319614D01*
X104974572Y-104283329D01*
X105010858Y-104247043D01*
X105047143Y-104174471D01*
X105047143Y-104101900D01*
X105010858Y-104029329D01*
X104974572Y-103993043D01*
X104902001Y-103956757D01*
X104756858Y-103920471D01*
X104684286Y-103884186D01*
X104648001Y-103847900D01*
X104611715Y-103775329D01*
X104611715Y-103702757D01*
X104648001Y-103630186D01*
X104684286Y-103593900D01*
X104756858Y-103557614D01*
X104938286Y-103557614D01*
X105047143Y-103593900D01*
X105337429Y-104283329D02*
X105446286Y-104319614D01*
X105627715Y-104319614D01*
X105700286Y-104283329D01*
X105736572Y-104247043D01*
X105772857Y-104174471D01*
X105772857Y-104101900D01*
X105736572Y-104029329D01*
X105700286Y-103993043D01*
X105627715Y-103956757D01*
X105482572Y-103920471D01*
X105410000Y-103884186D01*
X105373715Y-103847900D01*
X105337429Y-103775329D01*
X105337429Y-103702757D01*
X105373715Y-103630186D01*
X105410000Y-103593900D01*
X105482572Y-103557614D01*
X105664000Y-103557614D01*
X105772857Y-103593900D01*
X104466572Y-103426260D02*
X105918000Y-103426260D01*
X99277715Y-81497714D02*
X99277715Y-80735714D01*
X99568000Y-80735714D01*
X99640572Y-80772000D01*
X99676857Y-80808286D01*
X99713143Y-80880857D01*
X99713143Y-80989714D01*
X99676857Y-81062286D01*
X99640572Y-81098571D01*
X99568000Y-81134857D01*
X99277715Y-81134857D01*
X99967143Y-80735714D02*
X100148572Y-81497714D01*
X100293715Y-80953429D01*
X100438857Y-81497714D01*
X100620286Y-80735714D01*
X101346000Y-81497714D02*
X101092000Y-81134857D01*
X100910572Y-81497714D02*
X100910572Y-80735714D01*
X101200857Y-80735714D01*
X101273429Y-80772000D01*
X101309714Y-80808286D01*
X101346000Y-80880857D01*
X101346000Y-80989714D01*
X101309714Y-81062286D01*
X101273429Y-81098571D01*
X101200857Y-81134857D01*
X100910572Y-81134857D01*
X102507143Y-81098571D02*
X102616000Y-81134857D01*
X102652285Y-81171143D01*
X102688571Y-81243714D01*
X102688571Y-81352571D01*
X102652285Y-81425143D01*
X102616000Y-81461429D01*
X102543428Y-81497714D01*
X102253143Y-81497714D01*
X102253143Y-80735714D01*
X102507143Y-80735714D01*
X102579714Y-80772000D01*
X102616000Y-80808286D01*
X102652285Y-80880857D01*
X102652285Y-80953429D01*
X102616000Y-81026000D01*
X102579714Y-81062286D01*
X102507143Y-81098571D01*
X102253143Y-81098571D01*
X103160285Y-80735714D02*
X103305428Y-80735714D01*
X103378000Y-80772000D01*
X103450571Y-80844571D01*
X103486857Y-80989714D01*
X103486857Y-81243714D01*
X103450571Y-81388857D01*
X103378000Y-81461429D01*
X103305428Y-81497714D01*
X103160285Y-81497714D01*
X103087714Y-81461429D01*
X103015143Y-81388857D01*
X102978857Y-81243714D01*
X102978857Y-80989714D01*
X103015143Y-80844571D01*
X103087714Y-80772000D01*
X103160285Y-80735714D01*
X103958571Y-80735714D02*
X104103714Y-80735714D01*
X104176286Y-80772000D01*
X104248857Y-80844571D01*
X104285143Y-80989714D01*
X104285143Y-81243714D01*
X104248857Y-81388857D01*
X104176286Y-81461429D01*
X104103714Y-81497714D01*
X103958571Y-81497714D01*
X103886000Y-81461429D01*
X103813429Y-81388857D01*
X103777143Y-81243714D01*
X103777143Y-80989714D01*
X103813429Y-80844571D01*
X103886000Y-80772000D01*
X103958571Y-80735714D01*
X104502857Y-80735714D02*
X104938286Y-80735714D01*
X104720572Y-81497714D02*
X104720572Y-80735714D01*
X106171999Y-80772000D02*
X106099428Y-80735714D01*
X105990571Y-80735714D01*
X105881714Y-80772000D01*
X105809142Y-80844571D01*
X105772857Y-80917143D01*
X105736571Y-81062286D01*
X105736571Y-81171143D01*
X105772857Y-81316286D01*
X105809142Y-81388857D01*
X105881714Y-81461429D01*
X105990571Y-81497714D01*
X106063142Y-81497714D01*
X106171999Y-81461429D01*
X106208285Y-81425143D01*
X106208285Y-81171143D01*
X106063142Y-81171143D01*
X106534857Y-81497714D02*
X106534857Y-80735714D01*
X106970285Y-81497714D01*
X106970285Y-80735714D01*
X107333143Y-81497714D02*
X107333143Y-80735714D01*
X107514571Y-80735714D01*
X107623428Y-80772000D01*
X107696000Y-80844571D01*
X107732285Y-80917143D01*
X107768571Y-81062286D01*
X107768571Y-81171143D01*
X107732285Y-81316286D01*
X107696000Y-81388857D01*
X107623428Y-81461429D01*
X107514571Y-81497714D01*
X107333143Y-81497714D01*
D13*
X106072214Y-88473643D02*
X105310214Y-88473643D01*
X105382786Y-88147072D02*
X105346500Y-88110786D01*
X105310214Y-88038215D01*
X105310214Y-87856786D01*
X105346500Y-87784215D01*
X105382786Y-87747929D01*
X105455357Y-87711644D01*
X105527929Y-87711644D01*
X105636786Y-87747929D01*
X106072214Y-88183358D01*
X106072214Y-87711644D01*
X105999643Y-86949644D02*
X106035929Y-86985930D01*
X106072214Y-87094787D01*
X106072214Y-87167358D01*
X106035929Y-87276215D01*
X105963357Y-87348787D01*
X105890786Y-87385072D01*
X105745643Y-87421358D01*
X105636786Y-87421358D01*
X105491643Y-87385072D01*
X105419071Y-87348787D01*
X105346500Y-87276215D01*
X105310214Y-87167358D01*
X105310214Y-87094787D01*
X105346500Y-86985930D01*
X105382786Y-86949644D01*
X105310214Y-85897359D02*
X105310214Y-85752216D01*
X105346500Y-85679644D01*
X105419071Y-85607073D01*
X105564214Y-85570787D01*
X105818214Y-85570787D01*
X105963357Y-85607073D01*
X106035929Y-85679644D01*
X106072214Y-85752216D01*
X106072214Y-85897359D01*
X106035929Y-85969930D01*
X105963357Y-86042501D01*
X105818214Y-86078787D01*
X105564214Y-86078787D01*
X105419071Y-86042501D01*
X105346500Y-85969930D01*
X105310214Y-85897359D01*
X105564214Y-84917644D02*
X106072214Y-84917644D01*
X105564214Y-85244215D02*
X105963357Y-85244215D01*
X106035929Y-85207930D01*
X106072214Y-85135358D01*
X106072214Y-85026501D01*
X106035929Y-84953930D01*
X105999643Y-84917644D01*
X105564214Y-84554786D02*
X106326214Y-84554786D01*
X105600500Y-84554786D02*
X105564214Y-84482215D01*
X105564214Y-84337072D01*
X105600500Y-84264501D01*
X105636786Y-84228215D01*
X105709357Y-84191929D01*
X105927071Y-84191929D01*
X105999643Y-84228215D01*
X106035929Y-84264501D01*
X106072214Y-84337072D01*
X106072214Y-84482215D01*
X106035929Y-84554786D01*
X105564214Y-83538786D02*
X106072214Y-83538786D01*
X105564214Y-83865357D02*
X105963357Y-83865357D01*
X106035929Y-83829072D01*
X106072214Y-83756500D01*
X106072214Y-83647643D01*
X106035929Y-83575072D01*
X105999643Y-83538786D01*
X105564214Y-83284786D02*
X105564214Y-82994500D01*
X105310214Y-83175928D02*
X105963357Y-83175928D01*
X106035929Y-83139643D01*
X106072214Y-83067071D01*
X106072214Y-82994500D01*
X94088857Y-137268857D02*
X95250000Y-137268857D01*
X94669429Y-137849429D02*
X94669429Y-136688286D01*
D11*
X102253143Y-138684000D02*
X102616000Y-138684000D01*
X102180571Y-138901714D02*
X102434571Y-138139714D01*
X102688571Y-138901714D01*
X103051429Y-138901714D02*
X102978857Y-138865429D01*
X102942572Y-138792857D01*
X102942572Y-138139714D01*
X103232857Y-138393714D02*
X103523143Y-138393714D01*
X103341715Y-138139714D02*
X103341715Y-138792857D01*
X103378000Y-138865429D01*
X103450572Y-138901714D01*
X103523143Y-138901714D01*
X104357715Y-138901714D02*
X104357715Y-138139714D01*
X104648000Y-138139714D01*
X104720572Y-138176000D01*
X104756857Y-138212286D01*
X104793143Y-138284857D01*
X104793143Y-138393714D01*
X104756857Y-138466286D01*
X104720572Y-138502571D01*
X104648000Y-138538857D01*
X104357715Y-138538857D01*
X105047143Y-138139714D02*
X105228572Y-138901714D01*
X105373715Y-138357429D01*
X105518857Y-138901714D01*
X105700286Y-138139714D01*
X106426000Y-138901714D02*
X106172000Y-138538857D01*
X105990572Y-138901714D02*
X105990572Y-138139714D01*
X106280857Y-138139714D01*
X106353429Y-138176000D01*
X106389714Y-138212286D01*
X106426000Y-138284857D01*
X106426000Y-138393714D01*
X106389714Y-138466286D01*
X106353429Y-138502571D01*
X106280857Y-138538857D01*
X105990572Y-138538857D01*
X82110943Y-84814229D02*
X82219800Y-84850514D01*
X82401229Y-84850514D01*
X82473800Y-84814229D01*
X82510086Y-84777943D01*
X82546371Y-84705371D01*
X82546371Y-84632800D01*
X82510086Y-84560229D01*
X82473800Y-84523943D01*
X82401229Y-84487657D01*
X82256086Y-84451371D01*
X82183514Y-84415086D01*
X82147229Y-84378800D01*
X82110943Y-84306229D01*
X82110943Y-84233657D01*
X82147229Y-84161086D01*
X82183514Y-84124800D01*
X82256086Y-84088514D01*
X82437514Y-84088514D01*
X82546371Y-84124800D01*
X82872943Y-84850514D02*
X82872943Y-84088514D01*
X83054371Y-84088514D01*
X83163228Y-84124800D01*
X83235800Y-84197371D01*
X83272085Y-84269943D01*
X83308371Y-84415086D01*
X83308371Y-84523943D01*
X83272085Y-84669086D01*
X83235800Y-84741657D01*
X83163228Y-84814229D01*
X83054371Y-84850514D01*
X82872943Y-84850514D01*
X83598657Y-84632800D02*
X83961514Y-84632800D01*
X83526085Y-84850514D02*
X83780085Y-84088514D01*
X84034085Y-84850514D01*
X82110943Y-87201829D02*
X82219800Y-87238114D01*
X82401229Y-87238114D01*
X82473800Y-87201829D01*
X82510086Y-87165543D01*
X82546371Y-87092971D01*
X82546371Y-87020400D01*
X82510086Y-86947829D01*
X82473800Y-86911543D01*
X82401229Y-86875257D01*
X82256086Y-86838971D01*
X82183514Y-86802686D01*
X82147229Y-86766400D01*
X82110943Y-86693829D01*
X82110943Y-86621257D01*
X82147229Y-86548686D01*
X82183514Y-86512400D01*
X82256086Y-86476114D01*
X82437514Y-86476114D01*
X82546371Y-86512400D01*
X83308371Y-87165543D02*
X83272085Y-87201829D01*
X83163228Y-87238114D01*
X83090657Y-87238114D01*
X82981800Y-87201829D01*
X82909228Y-87129257D01*
X82872943Y-87056686D01*
X82836657Y-86911543D01*
X82836657Y-86802686D01*
X82872943Y-86657543D01*
X82909228Y-86584971D01*
X82981800Y-86512400D01*
X83090657Y-86476114D01*
X83163228Y-86476114D01*
X83272085Y-86512400D01*
X83308371Y-86548686D01*
X83997800Y-87238114D02*
X83634943Y-87238114D01*
X83634943Y-86476114D01*
X82147229Y-89625714D02*
X82147229Y-88863714D01*
X82437514Y-88863714D01*
X82510086Y-88900000D01*
X82546371Y-88936286D01*
X82582657Y-89008857D01*
X82582657Y-89117714D01*
X82546371Y-89190286D01*
X82510086Y-89226571D01*
X82437514Y-89262857D01*
X82147229Y-89262857D01*
X82836657Y-88863714D02*
X83018086Y-89625714D01*
X83163229Y-89081429D01*
X83308371Y-89625714D01*
X83489800Y-88863714D01*
X84215514Y-89625714D02*
X83961514Y-89262857D01*
X83780086Y-89625714D02*
X83780086Y-88863714D01*
X84070371Y-88863714D01*
X84142943Y-88900000D01*
X84179228Y-88936286D01*
X84215514Y-89008857D01*
X84215514Y-89117714D01*
X84179228Y-89190286D01*
X84142943Y-89226571D01*
X84070371Y-89262857D01*
X83780086Y-89262857D01*
X82546371Y-91287600D02*
X82473800Y-91251314D01*
X82364943Y-91251314D01*
X82256086Y-91287600D01*
X82183514Y-91360171D01*
X82147229Y-91432743D01*
X82110943Y-91577886D01*
X82110943Y-91686743D01*
X82147229Y-91831886D01*
X82183514Y-91904457D01*
X82256086Y-91977029D01*
X82364943Y-92013314D01*
X82437514Y-92013314D01*
X82546371Y-91977029D01*
X82582657Y-91940743D01*
X82582657Y-91686743D01*
X82437514Y-91686743D01*
X82909229Y-92013314D02*
X82909229Y-91251314D01*
X83344657Y-92013314D01*
X83344657Y-91251314D01*
X83707515Y-92013314D02*
X83707515Y-91251314D01*
X83888943Y-91251314D01*
X83997800Y-91287600D01*
X84070372Y-91360171D01*
X84106657Y-91432743D01*
X84142943Y-91577886D01*
X84142943Y-91686743D01*
X84106657Y-91831886D01*
X84070372Y-91904457D01*
X83997800Y-91977029D01*
X83888943Y-92013314D01*
X83707515Y-92013314D01*
X106716286Y-83849029D02*
X106825143Y-83885314D01*
X107006572Y-83885314D01*
X107079143Y-83849029D01*
X107115429Y-83812743D01*
X107151714Y-83740171D01*
X107151714Y-83667600D01*
X107115429Y-83595029D01*
X107079143Y-83558743D01*
X107006572Y-83522457D01*
X106861429Y-83486171D01*
X106788857Y-83449886D01*
X106752572Y-83413600D01*
X106716286Y-83341029D01*
X106716286Y-83268457D01*
X106752572Y-83195886D01*
X106788857Y-83159600D01*
X106861429Y-83123314D01*
X107042857Y-83123314D01*
X107151714Y-83159600D01*
X107478286Y-83885314D02*
X107478286Y-83123314D01*
X107659714Y-83123314D01*
X107768571Y-83159600D01*
X107841143Y-83232171D01*
X107877428Y-83304743D01*
X107913714Y-83449886D01*
X107913714Y-83558743D01*
X107877428Y-83703886D01*
X107841143Y-83776457D01*
X107768571Y-83849029D01*
X107659714Y-83885314D01*
X107478286Y-83885314D01*
X108204000Y-83667600D02*
X108566857Y-83667600D01*
X108131428Y-83885314D02*
X108385428Y-83123314D01*
X108639428Y-83885314D01*
X106752572Y-86236629D02*
X106861429Y-86272914D01*
X107042858Y-86272914D01*
X107115429Y-86236629D01*
X107151715Y-86200343D01*
X107188000Y-86127771D01*
X107188000Y-86055200D01*
X107151715Y-85982629D01*
X107115429Y-85946343D01*
X107042858Y-85910057D01*
X106897715Y-85873771D01*
X106825143Y-85837486D01*
X106788858Y-85801200D01*
X106752572Y-85728629D01*
X106752572Y-85656057D01*
X106788858Y-85583486D01*
X106825143Y-85547200D01*
X106897715Y-85510914D01*
X107079143Y-85510914D01*
X107188000Y-85547200D01*
X107950000Y-86200343D02*
X107913714Y-86236629D01*
X107804857Y-86272914D01*
X107732286Y-86272914D01*
X107623429Y-86236629D01*
X107550857Y-86164057D01*
X107514572Y-86091486D01*
X107478286Y-85946343D01*
X107478286Y-85837486D01*
X107514572Y-85692343D01*
X107550857Y-85619771D01*
X107623429Y-85547200D01*
X107732286Y-85510914D01*
X107804857Y-85510914D01*
X107913714Y-85547200D01*
X107950000Y-85583486D01*
X108639429Y-86272914D02*
X108276572Y-86272914D01*
X108276572Y-85510914D01*
X106498572Y-88660514D02*
X106498572Y-87898514D01*
X106788857Y-87898514D01*
X106861429Y-87934800D01*
X106897714Y-87971086D01*
X106934000Y-88043657D01*
X106934000Y-88152514D01*
X106897714Y-88225086D01*
X106861429Y-88261371D01*
X106788857Y-88297657D01*
X106498572Y-88297657D01*
X107188000Y-87898514D02*
X107369429Y-88660514D01*
X107514572Y-88116229D01*
X107659714Y-88660514D01*
X107841143Y-87898514D01*
X108566857Y-88660514D02*
X108312857Y-88297657D01*
X108131429Y-88660514D02*
X108131429Y-87898514D01*
X108421714Y-87898514D01*
X108494286Y-87934800D01*
X108530571Y-87971086D01*
X108566857Y-88043657D01*
X108566857Y-88152514D01*
X108530571Y-88225086D01*
X108494286Y-88261371D01*
X108421714Y-88297657D01*
X108131429Y-88297657D01*
X106970285Y-90322400D02*
X106897714Y-90286114D01*
X106788857Y-90286114D01*
X106680000Y-90322400D01*
X106607428Y-90394971D01*
X106571143Y-90467543D01*
X106534857Y-90612686D01*
X106534857Y-90721543D01*
X106571143Y-90866686D01*
X106607428Y-90939257D01*
X106680000Y-91011829D01*
X106788857Y-91048114D01*
X106861428Y-91048114D01*
X106970285Y-91011829D01*
X107006571Y-90975543D01*
X107006571Y-90721543D01*
X106861428Y-90721543D01*
X107333143Y-91048114D02*
X107333143Y-90286114D01*
X107768571Y-91048114D01*
X107768571Y-90286114D01*
X108131429Y-91048114D02*
X108131429Y-90286114D01*
X108312857Y-90286114D01*
X108421714Y-90322400D01*
X108494286Y-90394971D01*
X108530571Y-90467543D01*
X108566857Y-90612686D01*
X108566857Y-90721543D01*
X108530571Y-90866686D01*
X108494286Y-90939257D01*
X108421714Y-91011829D01*
X108312857Y-91048114D01*
X108131429Y-91048114D01*
D13*
X85371214Y-90478428D02*
X84609214Y-90478428D01*
X84681786Y-90151857D02*
X84645500Y-90115571D01*
X84609214Y-90043000D01*
X84609214Y-89861571D01*
X84645500Y-89789000D01*
X84681786Y-89752714D01*
X84754357Y-89716429D01*
X84826929Y-89716429D01*
X84935786Y-89752714D01*
X85371214Y-90188143D01*
X85371214Y-89716429D01*
X85298643Y-88954429D02*
X85334929Y-88990715D01*
X85371214Y-89099572D01*
X85371214Y-89172143D01*
X85334929Y-89281000D01*
X85262357Y-89353572D01*
X85189786Y-89389857D01*
X85044643Y-89426143D01*
X84935786Y-89426143D01*
X84790643Y-89389857D01*
X84718071Y-89353572D01*
X84645500Y-89281000D01*
X84609214Y-89172143D01*
X84609214Y-89099572D01*
X84645500Y-88990715D01*
X84681786Y-88954429D01*
X85371214Y-88047286D02*
X84609214Y-88047286D01*
X84863214Y-87684429D02*
X85371214Y-87684429D01*
X84935786Y-87684429D02*
X84899500Y-87648144D01*
X84863214Y-87575572D01*
X84863214Y-87466715D01*
X84899500Y-87394144D01*
X84972071Y-87357858D01*
X85371214Y-87357858D01*
X84863214Y-86995000D02*
X85625214Y-86995000D01*
X84899500Y-86995000D02*
X84863214Y-86922429D01*
X84863214Y-86777286D01*
X84899500Y-86704715D01*
X84935786Y-86668429D01*
X85008357Y-86632143D01*
X85226071Y-86632143D01*
X85298643Y-86668429D01*
X85334929Y-86704715D01*
X85371214Y-86777286D01*
X85371214Y-86922429D01*
X85334929Y-86995000D01*
X84863214Y-85979000D02*
X85371214Y-85979000D01*
X84863214Y-86305571D02*
X85262357Y-86305571D01*
X85334929Y-86269286D01*
X85371214Y-86196714D01*
X85371214Y-86087857D01*
X85334929Y-86015286D01*
X85298643Y-85979000D01*
X84863214Y-85725000D02*
X84863214Y-85434714D01*
X84609214Y-85616142D02*
X85262357Y-85616142D01*
X85334929Y-85579857D01*
X85371214Y-85507285D01*
X85371214Y-85434714D01*
D14*
X97790000Y-97794276D02*
X97418769Y-98165507D01*
X102916524Y-102920800D02*
X102545293Y-103292031D01*
X97790000Y-108047324D02*
X98161231Y-107676093D01*
X92663476Y-102920800D02*
X93034707Y-102549569D01*
X97790000Y-97794276D02*
X98161231Y-98165507D01*
X92663476Y-102920800D02*
X93034707Y-103292031D01*
X97790000Y-108047324D02*
X97418769Y-107676093D01*
X102916524Y-102920800D02*
X102545293Y-102549569D01*
X97418769Y-98165507D02*
X96446497Y-97193235D01*
X97006860Y-135100060D02*
X97006860Y-134749540D01*
X97006860Y-131599940D02*
X97006860Y-131950460D01*
X101056440Y-135100060D02*
X101056440Y-134749540D01*
X96555560Y-135100060D02*
X96555560Y-134749540D01*
X96555560Y-131599940D02*
X96555560Y-131950460D01*
X101056440Y-131599940D02*
X101056440Y-131950460D01*
X96555560Y-135100060D02*
X101056440Y-135100060D01*
X96555560Y-131599940D02*
X101056440Y-131599940D01*
X97006860Y-130782060D02*
X97006860Y-130431540D01*
X97006860Y-127281940D02*
X97006860Y-127632460D01*
X101056440Y-130782060D02*
X101056440Y-130431540D01*
X96555560Y-130782060D02*
X96555560Y-130431540D01*
X96555560Y-127281940D02*
X96555560Y-127632460D01*
X101056440Y-127281940D02*
X101056440Y-127632460D01*
X96555560Y-130782060D02*
X101056440Y-130782060D01*
X96555560Y-127281940D02*
X101056440Y-127281940D01*
X91872000Y-124067000D02*
X94572000Y-124067000D01*
X91872000Y-122567000D02*
X94572000Y-122567000D01*
X93372000Y-123467000D02*
X93372000Y-123217000D01*
X93372000Y-123217000D02*
X93222000Y-123367000D01*
X93122000Y-122967000D02*
X93122000Y-123667000D01*
X93472000Y-123317000D02*
X93822000Y-123317000D01*
X93122000Y-123317000D02*
X93472000Y-122967000D01*
X93472000Y-122967000D02*
X93472000Y-123667000D01*
X93472000Y-123667000D02*
X93122000Y-123317000D01*
X91872000Y-126226000D02*
X94572000Y-126226000D01*
X91872000Y-124726000D02*
X94572000Y-124726000D01*
X93372000Y-125626000D02*
X93372000Y-125376000D01*
X93372000Y-125376000D02*
X93222000Y-125526000D01*
X93122000Y-125126000D02*
X93122000Y-125826000D01*
X93472000Y-125476000D02*
X93822000Y-125476000D01*
X93122000Y-125476000D02*
X93472000Y-125126000D01*
X93472000Y-125126000D02*
X93472000Y-125826000D01*
X93472000Y-125826000D02*
X93122000Y-125476000D01*
X90433883Y-97532444D02*
X93544644Y-94421683D01*
X92129356Y-99227917D02*
X95170071Y-96187202D01*
X90718640Y-132516880D02*
X86319360Y-132516880D01*
X90718640Y-130119120D02*
X86418420Y-130119120D01*
X110744000Y-128651000D02*
X110744000Y-105791000D01*
X110744000Y-105791000D02*
X113284000Y-105791000D01*
X113284000Y-105791000D02*
X113284000Y-128651000D01*
X110464000Y-131471000D02*
X110464000Y-129921000D01*
X110744000Y-128651000D02*
X113284000Y-128651000D01*
X113564000Y-129921000D02*
X113564000Y-131471000D01*
X113564000Y-131471000D02*
X110464000Y-131471000D01*
X80010000Y-95885000D02*
X80010000Y-118745000D01*
X80010000Y-118745000D02*
X77470000Y-118745000D01*
X77470000Y-118745000D02*
X77470000Y-95885000D01*
X80290000Y-93065000D02*
X80290000Y-94615000D01*
X80010000Y-95885000D02*
X77470000Y-95885000D01*
X77190000Y-94615000D02*
X77190000Y-93065000D01*
X77190000Y-93065000D02*
X80290000Y-93065000D01*
X109016800Y-102895400D02*
X109016800Y-95275400D01*
X106476800Y-102895400D02*
X106476800Y-95275400D01*
X106196800Y-105715400D02*
X106196800Y-104165400D01*
X109016800Y-95275400D02*
X106476800Y-95275400D01*
X106476800Y-102895400D02*
X109016800Y-102895400D01*
X109296800Y-104165400D02*
X109296800Y-105715400D01*
X109296800Y-105715400D02*
X106196800Y-105715400D01*
X113284000Y-101981000D02*
X113284000Y-104521000D01*
X113564000Y-99161000D02*
X113564000Y-100711000D01*
X113284000Y-101981000D02*
X110744000Y-101981000D01*
X110464000Y-100711000D02*
X110464000Y-99161000D01*
X110464000Y-99161000D02*
X113564000Y-99161000D01*
X110744000Y-101981000D02*
X110744000Y-104521000D01*
X110744000Y-104521000D02*
X113284000Y-104521000D01*
X80010000Y-127635000D02*
X80010000Y-120015000D01*
X77470000Y-127635000D02*
X77470000Y-120015000D01*
X77190000Y-130455000D02*
X77190000Y-128905000D01*
X80010000Y-120015000D02*
X77470000Y-120015000D01*
X77470000Y-127635000D02*
X80010000Y-127635000D01*
X80290000Y-128905000D02*
X80290000Y-130455000D01*
X80290000Y-130455000D02*
X77190000Y-130455000D01*
X110744000Y-95758000D02*
X110744000Y-93218000D01*
X110464000Y-98578000D02*
X110464000Y-97028000D01*
X110744000Y-95758000D02*
X113284000Y-95758000D01*
X113564000Y-97028000D02*
X113564000Y-98578000D01*
X113564000Y-98578000D02*
X110464000Y-98578000D01*
X113284000Y-95758000D02*
X113284000Y-93218000D01*
X113284000Y-93218000D02*
X110744000Y-93218000D01*
X85598000Y-77470000D02*
X98298000Y-77470000D01*
X98298000Y-77470000D02*
X98298000Y-80010000D01*
X98298000Y-80010000D02*
X85598000Y-80010000D01*
X82778000Y-77190000D02*
X84328000Y-77190000D01*
X85598000Y-77470000D02*
X85598000Y-80010000D01*
X84328000Y-80290000D02*
X82778000Y-80290000D01*
X82778000Y-80290000D02*
X82778000Y-77190000D01*
D15*
X113434500Y-88306500D02*
X113434500Y-91706500D01*
X113434500Y-91706500D02*
X109534500Y-91706500D01*
X109534500Y-91706500D02*
X109534500Y-82306500D01*
X109534500Y-82306500D02*
X113434500Y-82306500D01*
X113434500Y-82306500D02*
X113434500Y-85806500D01*
D16*
X113734500Y-92006500D02*
X109234500Y-92006500D01*
X109234500Y-92006500D02*
X109234500Y-82006500D01*
X109234500Y-82006500D02*
X113734500Y-82006500D01*
X113734500Y-82006500D02*
X113734500Y-92006500D01*
D15*
X77192500Y-86001000D02*
X77192500Y-82601000D01*
X77192500Y-82601000D02*
X81092500Y-82601000D01*
X81092500Y-82601000D02*
X81092500Y-92001000D01*
X81092500Y-92001000D02*
X77192500Y-92001000D01*
X77192500Y-92001000D02*
X77192500Y-88501000D01*
D16*
X76892500Y-82301000D02*
X81392500Y-82301000D01*
X81392500Y-82301000D02*
X81392500Y-92301000D01*
X81392500Y-92301000D02*
X76892500Y-92301000D01*
X76892500Y-92301000D02*
X76892500Y-82301000D01*
D14*
X102235000Y-80010000D02*
X107315000Y-80010000D01*
X107315000Y-80010000D02*
X107315000Y-77470000D01*
X107315000Y-77470000D02*
X102235000Y-77470000D01*
X99415000Y-77190000D02*
X100965000Y-77190000D01*
X102235000Y-77470000D02*
X102235000Y-80010000D01*
X100965000Y-80290000D02*
X99415000Y-80290000D01*
X99415000Y-80290000D02*
X99415000Y-77190000D01*
X98552000Y-136017000D02*
X101092000Y-136017000D01*
X95732000Y-135737000D02*
X97282000Y-135737000D01*
X98552000Y-136017000D02*
X98552000Y-138557000D01*
X97282000Y-138837000D02*
X95732000Y-138837000D01*
X95732000Y-138837000D02*
X95732000Y-135737000D01*
X98552000Y-138557000D02*
X101092000Y-138557000D01*
X101092000Y-138557000D02*
X101092000Y-136017000D01*
X90509000Y-122597000D02*
X90509000Y-123122000D01*
X85259000Y-127847000D02*
X85259000Y-127322000D01*
X90509000Y-127847000D02*
X90509000Y-127322000D01*
X85259000Y-122597000D02*
X85784000Y-122597000D01*
X85259000Y-127847000D02*
X85784000Y-127847000D01*
X90509000Y-127847000D02*
X89984000Y-127847000D01*
X90509000Y-122597000D02*
X89984000Y-122597000D01*
X105693160Y-130413760D02*
X105644900Y-130413760D01*
X102894180Y-131114800D02*
X102894180Y-130413760D01*
X102894180Y-130413760D02*
X103143100Y-130413760D01*
X105693160Y-130413760D02*
X105893820Y-130413760D01*
X105893820Y-130413760D02*
X105893820Y-131114800D01*
X85268949Y-99839139D02*
X84843285Y-99697251D01*
X84843285Y-99697251D02*
X84347575Y-99345225D01*
X84347575Y-99345225D02*
X84065595Y-98919561D01*
X84065595Y-98919561D02*
X83853661Y-98143667D01*
X83853661Y-98143667D02*
X83995549Y-97434226D01*
X83995549Y-97434226D02*
X84277529Y-96868470D01*
X84277529Y-96868470D02*
X88943670Y-92202329D01*
X88943670Y-92202329D02*
X89581268Y-91848507D01*
X89581268Y-91848507D02*
X90075182Y-91778461D01*
X90075182Y-91778461D02*
X90712781Y-91848507D01*
X90712781Y-91848507D02*
X91278537Y-92130487D01*
X91278537Y-92130487D02*
X91632359Y-92484309D01*
X91632359Y-92484309D02*
X91844293Y-92980019D01*
X91844293Y-92980019D02*
X91914339Y-93757710D01*
X91914339Y-93757710D02*
X91772451Y-94323466D01*
X91772451Y-94323466D02*
X91490471Y-94749130D01*
X91420425Y-94819176D02*
X86752488Y-99487113D01*
X86752488Y-99487113D02*
X86398666Y-99697251D01*
X86398666Y-99697251D02*
X85832910Y-99839139D01*
X85832910Y-99839139D02*
X85125265Y-99839139D01*
X91786819Y-95199939D02*
X92077780Y-94840728D01*
X92077780Y-94840728D02*
X92280733Y-94479722D01*
X92280733Y-94479722D02*
X92431602Y-94019933D01*
X92431602Y-94019933D02*
X92472911Y-93651742D01*
X92472911Y-93651742D02*
X92458542Y-93170401D01*
X92458542Y-93170401D02*
X92282529Y-92584888D01*
X92282529Y-92584888D02*
X91950260Y-92069421D01*
X91950260Y-92069421D02*
X91589254Y-91708415D01*
X91589254Y-91708415D02*
X90973208Y-91333040D01*
X90973208Y-91333040D02*
X90274544Y-91198337D01*
X90274544Y-91198337D02*
X89687235Y-91261198D01*
X89687235Y-91261198D02*
X89241815Y-91412067D01*
X89241815Y-91412067D02*
X88810762Y-91616816D01*
X88810762Y-91616816D02*
X88478493Y-91905981D01*
X83442365Y-97251029D02*
X83331010Y-97674897D01*
X83331010Y-97674897D02*
X83302273Y-98098765D01*
X83302273Y-98098765D02*
X83357951Y-98510061D01*
X83357951Y-98510061D02*
X83535760Y-99111738D01*
X83535760Y-99111738D02*
X83790799Y-99521238D01*
X83790799Y-99521238D02*
X84101516Y-99860692D01*
X84101516Y-99860692D02*
X84489463Y-100122915D01*
X84489463Y-100122915D02*
X84942068Y-100306112D01*
X84942068Y-100306112D02*
X85529377Y-100383342D01*
X85529377Y-100383342D02*
X86003534Y-100361790D01*
X86003534Y-100361790D02*
X86441771Y-100250435D01*
X86441771Y-100250435D02*
X86844086Y-100045685D01*
X86844086Y-100045685D02*
X87205093Y-99781665D01*
X88500046Y-91898796D02*
X83938075Y-96460767D01*
X83938075Y-96460767D02*
X83668668Y-96784056D01*
X83668668Y-96784056D02*
X83442365Y-97251029D01*
X91794004Y-95192754D02*
X87232033Y-99754725D01*
X97370452Y-118110000D02*
G75*
G03X97370452Y-118110000I-1612452J0D01*
G01*
X94158000Y-115210000D02*
X91358000Y-115210000D01*
X91358000Y-115210000D02*
X91358000Y-117210000D01*
X95758000Y-120010000D02*
X95758000Y-119010000D01*
X95758000Y-116210000D02*
X95758000Y-117310000D01*
X94058000Y-120010000D02*
X97458000Y-120010000D01*
X93958000Y-116210000D02*
X97558000Y-116210000D01*
D17*
G36*
X101804173Y-87960199D02*
X101805147Y-89344500D01*
X102314068Y-89877899D01*
X102433164Y-90002740D01*
X102555291Y-90130788D01*
X102676208Y-90257595D01*
X102791676Y-90378714D01*
X102897452Y-90489695D01*
X102989298Y-90586090D01*
X103062971Y-90663451D01*
X103076819Y-90678000D01*
X103330648Y-90944700D01*
X95822245Y-90944700D01*
X95883379Y-90876966D01*
X95975365Y-90876966D01*
X103162207Y-90876966D01*
X103121937Y-90827058D01*
X103102877Y-90805587D01*
X103062742Y-90762029D01*
X103003818Y-90698814D01*
X102928391Y-90618373D01*
X102838748Y-90523137D01*
X102737175Y-90415537D01*
X102625959Y-90298004D01*
X102507386Y-90172969D01*
X102438200Y-90100133D01*
X101794733Y-89423116D01*
X99576466Y-89422964D01*
X97358200Y-89422812D01*
X96841733Y-89964834D01*
X96726129Y-90086193D01*
X96611122Y-90206988D01*
X96500255Y-90323493D01*
X96397072Y-90431984D01*
X96305115Y-90528735D01*
X96227925Y-90610021D01*
X96169047Y-90672116D01*
X96150316Y-90691911D01*
X95975365Y-90876966D01*
X95883379Y-90876966D01*
X95925408Y-90830400D01*
X95956638Y-90796604D01*
X96008812Y-90741113D01*
X96079370Y-90666615D01*
X96165751Y-90575795D01*
X96265392Y-90471339D01*
X96375733Y-90355936D01*
X96494212Y-90232270D01*
X96618270Y-90103029D01*
X96688184Y-90030299D01*
X97347799Y-89344500D01*
X97348766Y-87960199D01*
X97349685Y-86643633D01*
X97417466Y-86643633D01*
X97417466Y-89319100D01*
X101735467Y-89319100D01*
X101735467Y-86643633D01*
X97417466Y-86643633D01*
X97349685Y-86643633D01*
X97349733Y-86575900D01*
X101803200Y-86575900D01*
X101804173Y-87960199D01*
X101804173Y-87960199D01*
G37*
X101804173Y-87960199D02*
X101805147Y-89344500D01*
X102314068Y-89877899D01*
X102433164Y-90002740D01*
X102555291Y-90130788D01*
X102676208Y-90257595D01*
X102791676Y-90378714D01*
X102897452Y-90489695D01*
X102989298Y-90586090D01*
X103062971Y-90663451D01*
X103076819Y-90678000D01*
X103330648Y-90944700D01*
X95822245Y-90944700D01*
X95883379Y-90876966D01*
X95975365Y-90876966D01*
X103162207Y-90876966D01*
X103121937Y-90827058D01*
X103102877Y-90805587D01*
X103062742Y-90762029D01*
X103003818Y-90698814D01*
X102928391Y-90618373D01*
X102838748Y-90523137D01*
X102737175Y-90415537D01*
X102625959Y-90298004D01*
X102507386Y-90172969D01*
X102438200Y-90100133D01*
X101794733Y-89423116D01*
X99576466Y-89422964D01*
X97358200Y-89422812D01*
X96841733Y-89964834D01*
X96726129Y-90086193D01*
X96611122Y-90206988D01*
X96500255Y-90323493D01*
X96397072Y-90431984D01*
X96305115Y-90528735D01*
X96227925Y-90610021D01*
X96169047Y-90672116D01*
X96150316Y-90691911D01*
X95975365Y-90876966D01*
X95883379Y-90876966D01*
X95925408Y-90830400D01*
X95956638Y-90796604D01*
X96008812Y-90741113D01*
X96079370Y-90666615D01*
X96165751Y-90575795D01*
X96265392Y-90471339D01*
X96375733Y-90355936D01*
X96494212Y-90232270D01*
X96618270Y-90103029D01*
X96688184Y-90030299D01*
X97347799Y-89344500D01*
X97348766Y-87960199D01*
X97349685Y-86643633D01*
X97417466Y-86643633D01*
X97417466Y-89319100D01*
X101735467Y-89319100D01*
X101735467Y-86643633D01*
X97417466Y-86643633D01*
X97349685Y-86643633D01*
X97349733Y-86575900D01*
X101803200Y-86575900D01*
X101804173Y-87960199D01*
G36*
X98399798Y-89755133D02*
X98398915Y-89785616D01*
X98396333Y-89844120D01*
X98392343Y-89924856D01*
X98387233Y-90022037D01*
X98381291Y-90129874D01*
X98379499Y-90161533D01*
X98359001Y-90521366D01*
X96946341Y-90521366D01*
X96936148Y-90335099D01*
X96960267Y-90335099D01*
X96960267Y-90504433D01*
X98331867Y-90504433D01*
X98332098Y-90457866D01*
X98336136Y-90407081D01*
X98342539Y-90373200D01*
X98352750Y-90335099D01*
X96960267Y-90335099D01*
X96936148Y-90335099D01*
X96934867Y-90311696D01*
X96943541Y-90301233D01*
X96990054Y-90301233D01*
X98327263Y-90301233D01*
X98338768Y-90102266D01*
X98344311Y-90014319D01*
X98350409Y-89930282D01*
X98356245Y-89860830D01*
X98360184Y-89822866D01*
X98370096Y-89742433D01*
X97453086Y-89742433D01*
X97286532Y-89941399D01*
X97222232Y-90018403D01*
X97159868Y-90093427D01*
X97105378Y-90159304D01*
X97064700Y-90208868D01*
X97055016Y-90220799D01*
X96990054Y-90301233D01*
X96943541Y-90301233D01*
X97184884Y-90010131D01*
X97434902Y-89708566D01*
X98399600Y-89708566D01*
X98399798Y-89755133D01*
X98399798Y-89755133D01*
G37*
X98399798Y-89755133D02*
X98398915Y-89785616D01*
X98396333Y-89844120D01*
X98392343Y-89924856D01*
X98387233Y-90022037D01*
X98381291Y-90129874D01*
X98379499Y-90161533D01*
X98359001Y-90521366D01*
X96946341Y-90521366D01*
X96936148Y-90335099D01*
X96960267Y-90335099D01*
X96960267Y-90504433D01*
X98331867Y-90504433D01*
X98332098Y-90457866D01*
X98336136Y-90407081D01*
X98342539Y-90373200D01*
X98352750Y-90335099D01*
X96960267Y-90335099D01*
X96936148Y-90335099D01*
X96934867Y-90311696D01*
X96943541Y-90301233D01*
X96990054Y-90301233D01*
X98327263Y-90301233D01*
X98338768Y-90102266D01*
X98344311Y-90014319D01*
X98350409Y-89930282D01*
X98356245Y-89860830D01*
X98360184Y-89822866D01*
X98370096Y-89742433D01*
X97453086Y-89742433D01*
X97286532Y-89941399D01*
X97222232Y-90018403D01*
X97159868Y-90093427D01*
X97105378Y-90159304D01*
X97064700Y-90208868D01*
X97055016Y-90220799D01*
X96990054Y-90301233D01*
X96943541Y-90301233D01*
X97184884Y-90010131D01*
X97434902Y-89708566D01*
X98399600Y-89708566D01*
X98399798Y-89755133D01*
G36*
X102057200Y-90322022D02*
X102057200Y-90521366D01*
X100624304Y-90521366D01*
X100614032Y-90335099D01*
X100651733Y-90335099D01*
X100651733Y-90504433D01*
X102040267Y-90504433D01*
X102040267Y-90335099D01*
X100651733Y-90335099D01*
X100614032Y-90335099D01*
X100603992Y-90153066D01*
X100598004Y-90042676D01*
X100592731Y-89941938D01*
X100588447Y-89856393D01*
X100585426Y-89791581D01*
X100583944Y-89753044D01*
X100583839Y-89746666D01*
X100583856Y-89742433D01*
X100613503Y-89742433D01*
X100623415Y-89822866D01*
X100628449Y-89872903D01*
X100634402Y-89946088D01*
X100640455Y-90031745D01*
X100644832Y-90102266D01*
X100656337Y-90301233D01*
X101993546Y-90301233D01*
X101928584Y-90220799D01*
X101893997Y-90178464D01*
X101843566Y-90117364D01*
X101783229Y-90044664D01*
X101718923Y-89967532D01*
X101697068Y-89941399D01*
X101530514Y-89742433D01*
X100613503Y-89742433D01*
X100583856Y-89742433D01*
X100584000Y-89708566D01*
X101548698Y-89708566D01*
X102057200Y-90322022D01*
X102057200Y-90322022D01*
G37*
X102057200Y-90322022D02*
X102057200Y-90521366D01*
X100624304Y-90521366D01*
X100614032Y-90335099D01*
X100651733Y-90335099D01*
X100651733Y-90504433D01*
X102040267Y-90504433D01*
X102040267Y-90335099D01*
X100651733Y-90335099D01*
X100614032Y-90335099D01*
X100603992Y-90153066D01*
X100598004Y-90042676D01*
X100592731Y-89941938D01*
X100588447Y-89856393D01*
X100585426Y-89791581D01*
X100583944Y-89753044D01*
X100583839Y-89746666D01*
X100583856Y-89742433D01*
X100613503Y-89742433D01*
X100623415Y-89822866D01*
X100628449Y-89872903D01*
X100634402Y-89946088D01*
X100640455Y-90031745D01*
X100644832Y-90102266D01*
X100656337Y-90301233D01*
X101993546Y-90301233D01*
X101928584Y-90220799D01*
X101893997Y-90178464D01*
X101843566Y-90117364D01*
X101783229Y-90044664D01*
X101718923Y-89967532D01*
X101697068Y-89941399D01*
X101530514Y-89742433D01*
X100613503Y-89742433D01*
X100583856Y-89742433D01*
X100584000Y-89708566D01*
X101548698Y-89708566D01*
X102057200Y-90322022D01*
G36*
X101295200Y-89065100D02*
X97857733Y-89065100D01*
X97857733Y-86965366D01*
X97925467Y-86965366D01*
X97925467Y-88235366D01*
X97972033Y-88235738D01*
X98048513Y-88250942D01*
X98126906Y-88290582D01*
X98197108Y-88347432D01*
X98249016Y-88414267D01*
X98263056Y-88443902D01*
X98269802Y-88478406D01*
X98275397Y-88538737D01*
X98279315Y-88616862D01*
X98281031Y-88704747D01*
X98281067Y-88719069D01*
X98281067Y-88946566D01*
X98103267Y-88946566D01*
X98022073Y-88947345D01*
X97969255Y-88950202D01*
X97939344Y-88955918D01*
X97926874Y-88965274D01*
X97925467Y-88971966D01*
X97928400Y-88976206D01*
X97938476Y-88979955D01*
X97957612Y-88983242D01*
X97987722Y-88986096D01*
X98030722Y-88988546D01*
X98088529Y-88990624D01*
X98163057Y-88992357D01*
X98256223Y-88993775D01*
X98369941Y-88994908D01*
X98506128Y-88995785D01*
X98666699Y-88996436D01*
X98853570Y-88996890D01*
X99068656Y-88997177D01*
X99313874Y-88997326D01*
X99576466Y-88997366D01*
X101227467Y-88997366D01*
X101227467Y-86965366D01*
X97925467Y-86965366D01*
X97857733Y-86965366D01*
X97857733Y-86897633D01*
X101295200Y-86897633D01*
X101295200Y-89065100D01*
X101295200Y-89065100D01*
G37*
X101295200Y-89065100D02*
X97857733Y-89065100D01*
X97857733Y-86965366D01*
X97925467Y-86965366D01*
X97925467Y-88235366D01*
X97972033Y-88235738D01*
X98048513Y-88250942D01*
X98126906Y-88290582D01*
X98197108Y-88347432D01*
X98249016Y-88414267D01*
X98263056Y-88443902D01*
X98269802Y-88478406D01*
X98275397Y-88538737D01*
X98279315Y-88616862D01*
X98281031Y-88704747D01*
X98281067Y-88719069D01*
X98281067Y-88946566D01*
X98103267Y-88946566D01*
X98022073Y-88947345D01*
X97969255Y-88950202D01*
X97939344Y-88955918D01*
X97926874Y-88965274D01*
X97925467Y-88971966D01*
X97928400Y-88976206D01*
X97938476Y-88979955D01*
X97957612Y-88983242D01*
X97987722Y-88986096D01*
X98030722Y-88988546D01*
X98088529Y-88990624D01*
X98163057Y-88992357D01*
X98256223Y-88993775D01*
X98369941Y-88994908D01*
X98506128Y-88995785D01*
X98666699Y-88996436D01*
X98853570Y-88996890D01*
X99068656Y-88997177D01*
X99313874Y-88997326D01*
X99576466Y-88997366D01*
X101227467Y-88997366D01*
X101227467Y-86965366D01*
X97925467Y-86965366D01*
X97857733Y-86965366D01*
X97857733Y-86897633D01*
X101295200Y-86897633D01*
X101295200Y-89065100D01*
G36*
X97887265Y-89799729D02*
X97943541Y-89824520D01*
X97981085Y-89860842D01*
X97990208Y-89883927D01*
X97985252Y-89907029D01*
X97962731Y-89909250D01*
X97931112Y-89891374D01*
X97916256Y-89877078D01*
X97872290Y-89848358D01*
X97824485Y-89847726D01*
X97779023Y-89870920D01*
X97742084Y-89913675D01*
X97719849Y-89971729D01*
X97716193Y-90015050D01*
X97729522Y-90079605D01*
X97761307Y-90128543D01*
X97804849Y-90158278D01*
X97853446Y-90165222D01*
X97900398Y-90145787D01*
X97921317Y-90124862D01*
X97951107Y-90099977D01*
X97976251Y-90097824D01*
X97987517Y-90116428D01*
X97983255Y-90138113D01*
X97952100Y-90176150D01*
X97898680Y-90202168D01*
X97832874Y-90214806D01*
X97764563Y-90212704D01*
X97703625Y-90194500D01*
X97680165Y-90179856D01*
X97625406Y-90117568D01*
X97598274Y-90043858D01*
X97598383Y-89966345D01*
X97625353Y-89892646D01*
X97678801Y-89830380D01*
X97698437Y-89816046D01*
X97755474Y-89793343D01*
X97821496Y-89788621D01*
X97887265Y-89799729D01*
X97887265Y-89799729D01*
G37*
X97887265Y-89799729D02*
X97943541Y-89824520D01*
X97981085Y-89860842D01*
X97990208Y-89883927D01*
X97985252Y-89907029D01*
X97962731Y-89909250D01*
X97931112Y-89891374D01*
X97916256Y-89877078D01*
X97872290Y-89848358D01*
X97824485Y-89847726D01*
X97779023Y-89870920D01*
X97742084Y-89913675D01*
X97719849Y-89971729D01*
X97716193Y-90015050D01*
X97729522Y-90079605D01*
X97761307Y-90128543D01*
X97804849Y-90158278D01*
X97853446Y-90165222D01*
X97900398Y-90145787D01*
X97921317Y-90124862D01*
X97951107Y-90099977D01*
X97976251Y-90097824D01*
X97987517Y-90116428D01*
X97983255Y-90138113D01*
X97952100Y-90176150D01*
X97898680Y-90202168D01*
X97832874Y-90214806D01*
X97764563Y-90212704D01*
X97703625Y-90194500D01*
X97680165Y-90179856D01*
X97625406Y-90117568D01*
X97598274Y-90043858D01*
X97598383Y-89966345D01*
X97625353Y-89892646D01*
X97678801Y-89830380D01*
X97698437Y-89816046D01*
X97755474Y-89793343D01*
X97821496Y-89788621D01*
X97887265Y-89799729D01*
G36*
X101307798Y-89799729D02*
X101364074Y-89824520D01*
X101401618Y-89860842D01*
X101410741Y-89883927D01*
X101405785Y-89907029D01*
X101383264Y-89909250D01*
X101351645Y-89891374D01*
X101336790Y-89877078D01*
X101292824Y-89848358D01*
X101245019Y-89847726D01*
X101199556Y-89870920D01*
X101162617Y-89913675D01*
X101140383Y-89971729D01*
X101136727Y-90015050D01*
X101150055Y-90079605D01*
X101181840Y-90128543D01*
X101225382Y-90158278D01*
X101273979Y-90165222D01*
X101320931Y-90145787D01*
X101341850Y-90124862D01*
X101371640Y-90099977D01*
X101396785Y-90097824D01*
X101408050Y-90116428D01*
X101403788Y-90138113D01*
X101372634Y-90176150D01*
X101319214Y-90202168D01*
X101253408Y-90214806D01*
X101185096Y-90212704D01*
X101124159Y-90194500D01*
X101100698Y-90179856D01*
X101045940Y-90117568D01*
X101018807Y-90043858D01*
X101018917Y-89966345D01*
X101045887Y-89892646D01*
X101099334Y-89830380D01*
X101118971Y-89816046D01*
X101176007Y-89793343D01*
X101242030Y-89788621D01*
X101307798Y-89799729D01*
X101307798Y-89799729D01*
G37*
X101307798Y-89799729D02*
X101364074Y-89824520D01*
X101401618Y-89860842D01*
X101410741Y-89883927D01*
X101405785Y-89907029D01*
X101383264Y-89909250D01*
X101351645Y-89891374D01*
X101336790Y-89877078D01*
X101292824Y-89848358D01*
X101245019Y-89847726D01*
X101199556Y-89870920D01*
X101162617Y-89913675D01*
X101140383Y-89971729D01*
X101136727Y-90015050D01*
X101150055Y-90079605D01*
X101181840Y-90128543D01*
X101225382Y-90158278D01*
X101273979Y-90165222D01*
X101320931Y-90145787D01*
X101341850Y-90124862D01*
X101371640Y-90099977D01*
X101396785Y-90097824D01*
X101408050Y-90116428D01*
X101403788Y-90138113D01*
X101372634Y-90176150D01*
X101319214Y-90202168D01*
X101253408Y-90214806D01*
X101185096Y-90212704D01*
X101124159Y-90194500D01*
X101100698Y-90179856D01*
X101045940Y-90117568D01*
X101018807Y-90043858D01*
X101018917Y-89966345D01*
X101045887Y-89892646D01*
X101099334Y-89830380D01*
X101118971Y-89816046D01*
X101176007Y-89793343D01*
X101242030Y-89788621D01*
X101307798Y-89799729D01*
G36*
X100903877Y-87897502D02*
X100929594Y-87922099D01*
X100963905Y-87950668D01*
X100991610Y-87964342D01*
X100993863Y-87964540D01*
X101018205Y-87979466D01*
X101049593Y-88024630D01*
X101088551Y-88100914D01*
X101128902Y-88193033D01*
X101171468Y-88304389D01*
X101194888Y-88388297D01*
X101199127Y-88444600D01*
X101190552Y-88467639D01*
X101172143Y-88484547D01*
X101152906Y-88484438D01*
X101126081Y-88464250D01*
X101084908Y-88420923D01*
X101083202Y-88419037D01*
X101046155Y-88374229D01*
X101003146Y-88316377D01*
X100958061Y-88251507D01*
X100914783Y-88185649D01*
X100899416Y-88160783D01*
X100939600Y-88160783D01*
X100949711Y-88184845D01*
X100976256Y-88225999D01*
X101013549Y-88277084D01*
X101055906Y-88330939D01*
X101097641Y-88380404D01*
X101133070Y-88418318D01*
X101156508Y-88437518D01*
X101160122Y-88438566D01*
X101164904Y-88424264D01*
X101159898Y-88388601D01*
X101156499Y-88375066D01*
X101141521Y-88327074D01*
X101120794Y-88268735D01*
X101097659Y-88208451D01*
X101075460Y-88154621D01*
X101057537Y-88115645D01*
X101047234Y-88099926D01*
X101047025Y-88099899D01*
X101025495Y-88107333D01*
X100991741Y-88124638D01*
X100958988Y-88144317D01*
X100940460Y-88158876D01*
X100939600Y-88160783D01*
X100899416Y-88160783D01*
X100877197Y-88124833D01*
X100849188Y-88075086D01*
X100834639Y-88042438D01*
X100834496Y-88033020D01*
X100843837Y-88010596D01*
X100845039Y-87985599D01*
X100847043Y-87953420D01*
X100860138Y-87952793D01*
X100881315Y-87977106D01*
X100903232Y-87998223D01*
X100914156Y-87992581D01*
X100911866Y-87966134D01*
X100898080Y-87932140D01*
X100880532Y-87893722D01*
X100882192Y-87882263D01*
X100903877Y-87897502D01*
X100903877Y-87897502D01*
G37*
X100903877Y-87897502D02*
X100929594Y-87922099D01*
X100963905Y-87950668D01*
X100991610Y-87964342D01*
X100993863Y-87964540D01*
X101018205Y-87979466D01*
X101049593Y-88024630D01*
X101088551Y-88100914D01*
X101128902Y-88193033D01*
X101171468Y-88304389D01*
X101194888Y-88388297D01*
X101199127Y-88444600D01*
X101190552Y-88467639D01*
X101172143Y-88484547D01*
X101152906Y-88484438D01*
X101126081Y-88464250D01*
X101084908Y-88420923D01*
X101083202Y-88419037D01*
X101046155Y-88374229D01*
X101003146Y-88316377D01*
X100958061Y-88251507D01*
X100914783Y-88185649D01*
X100899416Y-88160783D01*
X100939600Y-88160783D01*
X100949711Y-88184845D01*
X100976256Y-88225999D01*
X101013549Y-88277084D01*
X101055906Y-88330939D01*
X101097641Y-88380404D01*
X101133070Y-88418318D01*
X101156508Y-88437518D01*
X101160122Y-88438566D01*
X101164904Y-88424264D01*
X101159898Y-88388601D01*
X101156499Y-88375066D01*
X101141521Y-88327074D01*
X101120794Y-88268735D01*
X101097659Y-88208451D01*
X101075460Y-88154621D01*
X101057537Y-88115645D01*
X101047234Y-88099926D01*
X101047025Y-88099899D01*
X101025495Y-88107333D01*
X100991741Y-88124638D01*
X100958988Y-88144317D01*
X100940460Y-88158876D01*
X100939600Y-88160783D01*
X100899416Y-88160783D01*
X100877197Y-88124833D01*
X100849188Y-88075086D01*
X100834639Y-88042438D01*
X100834496Y-88033020D01*
X100843837Y-88010596D01*
X100845039Y-87985599D01*
X100847043Y-87953420D01*
X100860138Y-87952793D01*
X100881315Y-87977106D01*
X100903232Y-87998223D01*
X100914156Y-87992581D01*
X100911866Y-87966134D01*
X100898080Y-87932140D01*
X100880532Y-87893722D01*
X100882192Y-87882263D01*
X100903877Y-87897502D01*
G36*
X98363441Y-87868067D02*
X98299301Y-87962816D01*
X98261028Y-88021378D01*
X98226563Y-88077546D01*
X98206879Y-88112599D01*
X98184032Y-88151895D01*
X98163277Y-88164435D01*
X98132939Y-88154408D01*
X98115882Y-88145225D01*
X98077697Y-88124017D01*
X98153861Y-88000482D01*
X98193060Y-87938182D01*
X98229432Y-87882584D01*
X98256507Y-87843519D01*
X98261350Y-87837124D01*
X98292675Y-87797301D01*
X98363441Y-87868067D01*
X98363441Y-87868067D01*
G37*
X98363441Y-87868067D02*
X98299301Y-87962816D01*
X98261028Y-88021378D01*
X98226563Y-88077546D01*
X98206879Y-88112599D01*
X98184032Y-88151895D01*
X98163277Y-88164435D01*
X98132939Y-88154408D01*
X98115882Y-88145225D01*
X98077697Y-88124017D01*
X98153861Y-88000482D01*
X98193060Y-87938182D01*
X98229432Y-87882584D01*
X98256507Y-87843519D01*
X98261350Y-87837124D01*
X98292675Y-87797301D01*
X98363441Y-87868067D01*
G36*
X100735758Y-87621879D02*
X100762520Y-87654955D01*
X100794066Y-87698961D01*
X100824148Y-87744803D01*
X100846516Y-87783382D01*
X100854933Y-87805228D01*
X100841246Y-87825453D01*
X100816833Y-87840793D01*
X100794455Y-87847312D01*
X100774404Y-87840138D01*
X100749889Y-87814256D01*
X100714509Y-87765212D01*
X100680789Y-87715023D01*
X100664526Y-87683902D01*
X100663334Y-87663468D01*
X100674828Y-87645343D01*
X100679034Y-87640600D01*
X100705242Y-87616419D01*
X100720029Y-87608833D01*
X100735758Y-87621879D01*
X100735758Y-87621879D01*
G37*
X100735758Y-87621879D02*
X100762520Y-87654955D01*
X100794066Y-87698961D01*
X100824148Y-87744803D01*
X100846516Y-87783382D01*
X100854933Y-87805228D01*
X100841246Y-87825453D01*
X100816833Y-87840793D01*
X100794455Y-87847312D01*
X100774404Y-87840138D01*
X100749889Y-87814256D01*
X100714509Y-87765212D01*
X100680789Y-87715023D01*
X100664526Y-87683902D01*
X100663334Y-87663468D01*
X100674828Y-87645343D01*
X100679034Y-87640600D01*
X100705242Y-87616419D01*
X100720029Y-87608833D01*
X100735758Y-87621879D01*
G36*
X98813717Y-87388163D02*
X98819968Y-87404406D01*
X98827446Y-87431930D01*
X98823148Y-87452889D01*
X98801861Y-87474933D01*
X98758375Y-87505715D01*
X98744801Y-87514758D01*
X98683117Y-87558297D01*
X98621818Y-87605651D01*
X98587926Y-87634387D01*
X98523329Y-87692746D01*
X98487898Y-87655023D01*
X98452466Y-87617300D01*
X98522116Y-87558033D01*
X98579718Y-87510971D01*
X98644179Y-87461298D01*
X98706176Y-87415926D01*
X98756385Y-87381767D01*
X98774795Y-87370700D01*
X98797258Y-87366480D01*
X98813717Y-87388163D01*
X98813717Y-87388163D01*
G37*
X98813717Y-87388163D02*
X98819968Y-87404406D01*
X98827446Y-87431930D01*
X98823148Y-87452889D01*
X98801861Y-87474933D01*
X98758375Y-87505715D01*
X98744801Y-87514758D01*
X98683117Y-87558297D01*
X98621818Y-87605651D01*
X98587926Y-87634387D01*
X98523329Y-87692746D01*
X98487898Y-87655023D01*
X98452466Y-87617300D01*
X98522116Y-87558033D01*
X98579718Y-87510971D01*
X98644179Y-87461298D01*
X98706176Y-87415926D01*
X98756385Y-87381767D01*
X98774795Y-87370700D01*
X98797258Y-87366480D01*
X98813717Y-87388163D01*
G36*
X100270951Y-87276960D02*
X100308515Y-87294198D01*
X100358327Y-87320018D01*
X100412040Y-87349922D01*
X100461306Y-87379408D01*
X100497776Y-87403976D01*
X100498897Y-87404829D01*
X100526733Y-87428547D01*
X100529475Y-87446172D01*
X100509233Y-87471783D01*
X100508973Y-87472070D01*
X100477366Y-87501185D01*
X100454368Y-87503415D01*
X100435019Y-87486066D01*
X100411394Y-87467266D01*
X100367739Y-87439683D01*
X100322318Y-87414100D01*
X100270517Y-87384796D01*
X100243370Y-87363163D01*
X100234837Y-87342558D01*
X100237682Y-87321001D01*
X100247579Y-87287020D01*
X100253983Y-87272805D01*
X100270951Y-87276960D01*
X100270951Y-87276960D01*
G37*
X100270951Y-87276960D02*
X100308515Y-87294198D01*
X100358327Y-87320018D01*
X100412040Y-87349922D01*
X100461306Y-87379408D01*
X100497776Y-87403976D01*
X100498897Y-87404829D01*
X100526733Y-87428547D01*
X100529475Y-87446172D01*
X100509233Y-87471783D01*
X100508973Y-87472070D01*
X100477366Y-87501185D01*
X100454368Y-87503415D01*
X100435019Y-87486066D01*
X100411394Y-87467266D01*
X100367739Y-87439683D01*
X100322318Y-87414100D01*
X100270517Y-87384796D01*
X100243370Y-87363163D01*
X100234837Y-87342558D01*
X100237682Y-87321001D01*
X100247579Y-87287020D01*
X100253983Y-87272805D01*
X100270951Y-87276960D01*
G36*
X99415544Y-87212801D02*
X99414069Y-87236338D01*
X99405429Y-87252519D01*
X99383209Y-87264794D01*
X99340990Y-87276614D01*
X99272357Y-87291429D01*
X99267378Y-87292463D01*
X99196517Y-87307340D01*
X99135161Y-87320507D01*
X99093254Y-87329819D01*
X99084494Y-87331901D01*
X99053030Y-87328840D01*
X99030051Y-87297402D01*
X99021155Y-87274290D01*
X99024309Y-87258592D01*
X99045362Y-87245366D01*
X99090165Y-87229670D01*
X99121963Y-87219765D01*
X99196505Y-87199503D01*
X99274374Y-87182600D01*
X99324573Y-87174602D01*
X99415600Y-87163903D01*
X99415544Y-87212801D01*
X99415544Y-87212801D01*
G37*
X99415544Y-87212801D02*
X99414069Y-87236338D01*
X99405429Y-87252519D01*
X99383209Y-87264794D01*
X99340990Y-87276614D01*
X99272357Y-87291429D01*
X99267378Y-87292463D01*
X99196517Y-87307340D01*
X99135161Y-87320507D01*
X99093254Y-87329819D01*
X99084494Y-87331901D01*
X99053030Y-87328840D01*
X99030051Y-87297402D01*
X99021155Y-87274290D01*
X99024309Y-87258592D01*
X99045362Y-87245366D01*
X99090165Y-87229670D01*
X99121963Y-87219765D01*
X99196505Y-87199503D01*
X99274374Y-87182600D01*
X99324573Y-87174602D01*
X99415600Y-87163903D01*
X99415544Y-87212801D01*
G36*
X99778024Y-87154391D02*
X99844237Y-87161666D01*
X99910475Y-87171956D01*
X99968322Y-87183762D01*
X100009368Y-87195582D01*
X100025197Y-87205915D01*
X100025200Y-87206028D01*
X100012394Y-87251683D01*
X99980133Y-87278484D01*
X99937655Y-87279379D01*
X99931900Y-87277241D01*
X99907674Y-87272173D01*
X99859497Y-87265424D01*
X99797149Y-87258340D01*
X99787967Y-87257411D01*
X99723355Y-87250296D01*
X99685079Y-87242741D01*
X99665733Y-87231427D01*
X99657909Y-87213038D01*
X99655775Y-87198199D01*
X99654946Y-87168702D01*
X99667442Y-87155331D01*
X99702039Y-87151748D01*
X99720247Y-87151633D01*
X99778024Y-87154391D01*
X99778024Y-87154391D01*
G37*
X99778024Y-87154391D02*
X99844237Y-87161666D01*
X99910475Y-87171956D01*
X99968322Y-87183762D01*
X100009368Y-87195582D01*
X100025197Y-87205915D01*
X100025200Y-87206028D01*
X100012394Y-87251683D01*
X99980133Y-87278484D01*
X99937655Y-87279379D01*
X99931900Y-87277241D01*
X99907674Y-87272173D01*
X99859497Y-87265424D01*
X99797149Y-87258340D01*
X99787967Y-87257411D01*
X99723355Y-87250296D01*
X99685079Y-87242741D01*
X99665733Y-87231427D01*
X99657909Y-87213038D01*
X99655775Y-87198199D01*
X99654946Y-87168702D01*
X99667442Y-87155331D01*
X99702039Y-87151748D01*
X99720247Y-87151633D01*
X99778024Y-87154391D01*
D11*
X98349251Y-110356617D02*
X98785435Y-110792801D01*
X98862409Y-110818460D01*
X98913725Y-110818460D01*
X98990698Y-110792802D01*
X99093329Y-110690170D01*
X99118988Y-110613197D01*
X99118987Y-110561881D01*
X99093329Y-110484907D01*
X98657145Y-110048723D01*
X99734776Y-110048723D02*
X99426882Y-110356617D01*
X99580829Y-110202670D02*
X99042014Y-109663855D01*
X99067672Y-109792144D01*
X99067672Y-109894776D01*
X99042014Y-109971750D01*
X99529513Y-109176356D02*
X99580829Y-109125039D01*
X99657803Y-109099382D01*
X99709119Y-109099382D01*
X99786092Y-109125039D01*
X99914381Y-109202014D01*
X100042671Y-109330303D01*
X100119644Y-109458592D01*
X100145302Y-109535566D01*
X100145302Y-109586882D01*
X100119644Y-109663855D01*
X100068328Y-109715171D01*
X99991355Y-109740829D01*
X99940039Y-109740829D01*
X99863066Y-109715170D01*
X99734777Y-109638197D01*
X99606487Y-109509908D01*
X99529514Y-109381618D01*
X99503856Y-109304645D01*
X99503856Y-109253329D01*
X99529513Y-109176356D01*
X100761091Y-109022409D02*
X100453197Y-109330303D01*
X100607144Y-109176356D02*
X100068328Y-108637540D01*
X100093986Y-108765829D01*
X100093986Y-108868462D01*
X100068329Y-108945435D01*
X94134214Y-135336642D02*
X93372214Y-135336642D01*
X93372214Y-135155214D01*
X93408500Y-135046357D01*
X93481071Y-134973785D01*
X93553643Y-134937500D01*
X93698786Y-134901214D01*
X93807643Y-134901214D01*
X93952786Y-134937500D01*
X94025357Y-134973785D01*
X94097929Y-135046357D01*
X94134214Y-135155214D01*
X94134214Y-135336642D01*
X93372214Y-134647214D02*
X93372214Y-134175500D01*
X93662500Y-134429500D01*
X93662500Y-134320642D01*
X93698786Y-134248071D01*
X93735071Y-134211785D01*
X93807643Y-134175500D01*
X93989071Y-134175500D01*
X94061643Y-134211785D01*
X94097929Y-134248071D01*
X94134214Y-134320642D01*
X94134214Y-134538357D01*
X94097929Y-134610928D01*
X94061643Y-134647214D01*
X93372214Y-133703786D02*
X93372214Y-133631214D01*
X93408500Y-133558643D01*
X93444786Y-133522357D01*
X93517357Y-133486071D01*
X93662500Y-133449786D01*
X93843929Y-133449786D01*
X93989071Y-133486071D01*
X94061643Y-133522357D01*
X94097929Y-133558643D01*
X94134214Y-133631214D01*
X94134214Y-133703786D01*
X94097929Y-133776357D01*
X94061643Y-133812643D01*
X93989071Y-133848928D01*
X93843929Y-133885214D01*
X93662500Y-133885214D01*
X93517357Y-133848928D01*
X93444786Y-133812643D01*
X93408500Y-133776357D01*
X93372214Y-133703786D01*
X94134214Y-132724072D02*
X94134214Y-133159500D01*
X94134214Y-132941786D02*
X93372214Y-132941786D01*
X93481071Y-133014357D01*
X93553643Y-133086929D01*
X93589929Y-133159500D01*
X94542429Y-133694714D02*
X94542429Y-132932714D01*
X94977857Y-133694714D02*
X94651286Y-133259286D01*
X94977857Y-132932714D02*
X94542429Y-133368143D01*
X102625072Y-133477000D02*
X102987929Y-133477000D01*
X102552500Y-133694714D02*
X102806500Y-132932714D01*
X103060500Y-133694714D01*
X94134214Y-130955142D02*
X93372214Y-130955142D01*
X93372214Y-130773714D01*
X93408500Y-130664857D01*
X93481071Y-130592285D01*
X93553643Y-130556000D01*
X93698786Y-130519714D01*
X93807643Y-130519714D01*
X93952786Y-130556000D01*
X94025357Y-130592285D01*
X94097929Y-130664857D01*
X94134214Y-130773714D01*
X94134214Y-130955142D01*
X93372214Y-130265714D02*
X93372214Y-129794000D01*
X93662500Y-130048000D01*
X93662500Y-129939142D01*
X93698786Y-129866571D01*
X93735071Y-129830285D01*
X93807643Y-129794000D01*
X93989071Y-129794000D01*
X94061643Y-129830285D01*
X94097929Y-129866571D01*
X94134214Y-129939142D01*
X94134214Y-130156857D01*
X94097929Y-130229428D01*
X94061643Y-130265714D01*
X93372214Y-129322286D02*
X93372214Y-129249714D01*
X93408500Y-129177143D01*
X93444786Y-129140857D01*
X93517357Y-129104571D01*
X93662500Y-129068286D01*
X93843929Y-129068286D01*
X93989071Y-129104571D01*
X94061643Y-129140857D01*
X94097929Y-129177143D01*
X94134214Y-129249714D01*
X94134214Y-129322286D01*
X94097929Y-129394857D01*
X94061643Y-129431143D01*
X93989071Y-129467428D01*
X93843929Y-129503714D01*
X93662500Y-129503714D01*
X93517357Y-129467428D01*
X93444786Y-129431143D01*
X93408500Y-129394857D01*
X93372214Y-129322286D01*
X93444786Y-128778000D02*
X93408500Y-128741714D01*
X93372214Y-128669143D01*
X93372214Y-128487714D01*
X93408500Y-128415143D01*
X93444786Y-128378857D01*
X93517357Y-128342572D01*
X93589929Y-128342572D01*
X93698786Y-128378857D01*
X94134214Y-128814286D01*
X94134214Y-128342572D01*
X94542429Y-129313214D02*
X94542429Y-128551214D01*
X94977857Y-129313214D02*
X94651286Y-128877786D01*
X94977857Y-128551214D02*
X94542429Y-128986643D01*
X102815572Y-129032000D02*
X103178429Y-129032000D01*
X102743000Y-129249714D02*
X102997000Y-128487714D01*
X103251000Y-129249714D01*
X93009358Y-122137714D02*
X93009358Y-121375714D01*
X93190786Y-121375714D01*
X93299643Y-121412000D01*
X93372215Y-121484571D01*
X93408500Y-121557143D01*
X93444786Y-121702286D01*
X93444786Y-121811143D01*
X93408500Y-121956286D01*
X93372215Y-122028857D01*
X93299643Y-122101429D01*
X93190786Y-122137714D01*
X93009358Y-122137714D01*
X93698786Y-121375714D02*
X94170500Y-121375714D01*
X93916500Y-121666000D01*
X94025358Y-121666000D01*
X94097929Y-121702286D01*
X94134215Y-121738571D01*
X94170500Y-121811143D01*
X94170500Y-121992571D01*
X94134215Y-122065143D01*
X94097929Y-122101429D01*
X94025358Y-122137714D01*
X93807643Y-122137714D01*
X93735072Y-122101429D01*
X93698786Y-122065143D01*
X94642214Y-121375714D02*
X94714786Y-121375714D01*
X94787357Y-121412000D01*
X94823643Y-121448286D01*
X94859929Y-121520857D01*
X94896214Y-121666000D01*
X94896214Y-121847429D01*
X94859929Y-121992571D01*
X94823643Y-122065143D01*
X94787357Y-122101429D01*
X94714786Y-122137714D01*
X94642214Y-122137714D01*
X94569643Y-122101429D01*
X94533357Y-122065143D01*
X94497072Y-121992571D01*
X94460786Y-121847429D01*
X94460786Y-121666000D01*
X94497072Y-121520857D01*
X94533357Y-121448286D01*
X94569643Y-121412000D01*
X94642214Y-121375714D01*
X95150214Y-121375714D02*
X95621928Y-121375714D01*
X95367928Y-121666000D01*
X95476786Y-121666000D01*
X95549357Y-121702286D01*
X95585643Y-121738571D01*
X95621928Y-121811143D01*
X95621928Y-121992571D01*
X95585643Y-122065143D01*
X95549357Y-122101429D01*
X95476786Y-122137714D01*
X95259071Y-122137714D01*
X95186500Y-122101429D01*
X95150214Y-122065143D01*
X92310858Y-127598714D02*
X92310858Y-126836714D01*
X92492286Y-126836714D01*
X92601143Y-126873000D01*
X92673715Y-126945571D01*
X92710000Y-127018143D01*
X92746286Y-127163286D01*
X92746286Y-127272143D01*
X92710000Y-127417286D01*
X92673715Y-127489857D01*
X92601143Y-127562429D01*
X92492286Y-127598714D01*
X92310858Y-127598714D01*
X93000286Y-126836714D02*
X93472000Y-126836714D01*
X93218000Y-127127000D01*
X93326858Y-127127000D01*
X93399429Y-127163286D01*
X93435715Y-127199571D01*
X93472000Y-127272143D01*
X93472000Y-127453571D01*
X93435715Y-127526143D01*
X93399429Y-127562429D01*
X93326858Y-127598714D01*
X93109143Y-127598714D01*
X93036572Y-127562429D01*
X93000286Y-127526143D01*
X93943714Y-126836714D02*
X94016286Y-126836714D01*
X94088857Y-126873000D01*
X94125143Y-126909286D01*
X94161429Y-126981857D01*
X94197714Y-127127000D01*
X94197714Y-127308429D01*
X94161429Y-127453571D01*
X94125143Y-127526143D01*
X94088857Y-127562429D01*
X94016286Y-127598714D01*
X93943714Y-127598714D01*
X93871143Y-127562429D01*
X93834857Y-127526143D01*
X93798572Y-127453571D01*
X93762286Y-127308429D01*
X93762286Y-127127000D01*
X93798572Y-126981857D01*
X93834857Y-126909286D01*
X93871143Y-126873000D01*
X93943714Y-126836714D01*
X94850857Y-127090714D02*
X94850857Y-127598714D01*
X94669428Y-126800429D02*
X94488000Y-127344714D01*
X94959714Y-127344714D01*
X92541290Y-100287709D02*
X92284712Y-100544287D01*
X91745896Y-100005472D01*
X93003132Y-99825868D02*
X92695238Y-100133762D01*
X92849185Y-99979815D02*
X92310369Y-99440999D01*
X92336027Y-99569288D01*
X92336027Y-99671921D01*
X92310370Y-99748894D01*
X92797868Y-98953500D02*
X92849185Y-98902184D01*
X92926158Y-98876527D01*
X92977474Y-98876527D01*
X93054448Y-98902184D01*
X93182737Y-98979158D01*
X93311026Y-99107448D01*
X93388000Y-99235736D01*
X93413658Y-99312710D01*
X93413658Y-99364026D01*
X93388000Y-99440999D01*
X93336684Y-99492315D01*
X93259711Y-99517974D01*
X93208395Y-99517974D01*
X93131421Y-99492315D01*
X93003132Y-99415342D01*
X92874843Y-99287052D01*
X92797869Y-99158763D01*
X92772211Y-99081790D01*
X92772211Y-99030474D01*
X92797868Y-98953500D01*
X94029446Y-98799553D02*
X93721552Y-99107447D01*
X93875499Y-98953500D02*
X93336684Y-98414685D01*
X93362342Y-98542974D01*
X93362342Y-98645606D01*
X93336684Y-98722580D01*
X87475787Y-129821214D02*
X87112930Y-129821214D01*
X87112930Y-129059214D01*
X87657215Y-129059214D02*
X88128929Y-129059214D01*
X87874929Y-129349500D01*
X87983787Y-129349500D01*
X88056358Y-129385786D01*
X88092644Y-129422071D01*
X88128929Y-129494643D01*
X88128929Y-129676071D01*
X88092644Y-129748643D01*
X88056358Y-129784929D01*
X87983787Y-129821214D01*
X87766072Y-129821214D01*
X87693501Y-129784929D01*
X87657215Y-129748643D01*
X88600643Y-129059214D02*
X88673215Y-129059214D01*
X88745786Y-129095500D01*
X88782072Y-129131786D01*
X88818358Y-129204357D01*
X88854643Y-129349500D01*
X88854643Y-129530929D01*
X88818358Y-129676071D01*
X88782072Y-129748643D01*
X88745786Y-129784929D01*
X88673215Y-129821214D01*
X88600643Y-129821214D01*
X88528072Y-129784929D01*
X88491786Y-129748643D01*
X88455501Y-129676071D01*
X88419215Y-129530929D01*
X88419215Y-129349500D01*
X88455501Y-129204357D01*
X88491786Y-129131786D01*
X88528072Y-129095500D01*
X88600643Y-129059214D01*
X89580357Y-129821214D02*
X89144929Y-129821214D01*
X89362643Y-129821214D02*
X89362643Y-129059214D01*
X89290072Y-129168071D01*
X89217500Y-129240643D01*
X89144929Y-129276929D01*
X110725858Y-132869214D02*
X110725858Y-132107214D01*
X111016143Y-132107214D01*
X111088715Y-132143500D01*
X111125000Y-132179786D01*
X111161286Y-132252357D01*
X111161286Y-132361214D01*
X111125000Y-132433786D01*
X111088715Y-132470071D01*
X111016143Y-132506357D01*
X110725858Y-132506357D01*
X111887000Y-132869214D02*
X111451572Y-132869214D01*
X111669286Y-132869214D02*
X111669286Y-132107214D01*
X111596715Y-132216071D01*
X111524143Y-132288643D01*
X111451572Y-132324929D01*
X112358714Y-132107214D02*
X112431286Y-132107214D01*
X112503857Y-132143500D01*
X112540143Y-132179786D01*
X112576429Y-132252357D01*
X112612714Y-132397500D01*
X112612714Y-132578929D01*
X112576429Y-132724071D01*
X112540143Y-132796643D01*
X112503857Y-132832929D01*
X112431286Y-132869214D01*
X112358714Y-132869214D01*
X112286143Y-132832929D01*
X112249857Y-132796643D01*
X112213572Y-132724071D01*
X112177286Y-132578929D01*
X112177286Y-132397500D01*
X112213572Y-132252357D01*
X112249857Y-132179786D01*
X112286143Y-132143500D01*
X112358714Y-132107214D01*
X113338428Y-132869214D02*
X112903000Y-132869214D01*
X113120714Y-132869214D02*
X113120714Y-132107214D01*
X113048143Y-132216071D01*
X112975571Y-132288643D01*
X112903000Y-132324929D01*
X80880858Y-93880214D02*
X80880858Y-93118214D01*
X81171143Y-93118214D01*
X81243715Y-93154500D01*
X81280000Y-93190786D01*
X81316286Y-93263357D01*
X81316286Y-93372214D01*
X81280000Y-93444786D01*
X81243715Y-93481071D01*
X81171143Y-93517357D01*
X80880858Y-93517357D01*
X82042000Y-93880214D02*
X81606572Y-93880214D01*
X81824286Y-93880214D02*
X81824286Y-93118214D01*
X81751715Y-93227071D01*
X81679143Y-93299643D01*
X81606572Y-93335929D01*
X82513714Y-93118214D02*
X82586286Y-93118214D01*
X82658857Y-93154500D01*
X82695143Y-93190786D01*
X82731429Y-93263357D01*
X82767714Y-93408500D01*
X82767714Y-93589929D01*
X82731429Y-93735071D01*
X82695143Y-93807643D01*
X82658857Y-93843929D01*
X82586286Y-93880214D01*
X82513714Y-93880214D01*
X82441143Y-93843929D01*
X82404857Y-93807643D01*
X82368572Y-93735071D01*
X82332286Y-93589929D01*
X82332286Y-93408500D01*
X82368572Y-93263357D01*
X82404857Y-93190786D01*
X82441143Y-93154500D01*
X82513714Y-93118214D01*
X83058000Y-93190786D02*
X83094286Y-93154500D01*
X83166857Y-93118214D01*
X83348286Y-93118214D01*
X83420857Y-93154500D01*
X83457143Y-93190786D01*
X83493428Y-93263357D01*
X83493428Y-93335929D01*
X83457143Y-93444786D01*
X83021714Y-93880214D01*
X83493428Y-93880214D01*
X77451858Y-131726214D02*
X77451858Y-130964214D01*
X77742143Y-130964214D01*
X77814715Y-131000500D01*
X77851000Y-131036786D01*
X77887286Y-131109357D01*
X77887286Y-131218214D01*
X77851000Y-131290786D01*
X77814715Y-131327071D01*
X77742143Y-131363357D01*
X77451858Y-131363357D01*
X78613000Y-131726214D02*
X78177572Y-131726214D01*
X78395286Y-131726214D02*
X78395286Y-130964214D01*
X78322715Y-131073071D01*
X78250143Y-131145643D01*
X78177572Y-131181929D01*
X79084714Y-130964214D02*
X79157286Y-130964214D01*
X79229857Y-131000500D01*
X79266143Y-131036786D01*
X79302429Y-131109357D01*
X79338714Y-131254500D01*
X79338714Y-131435929D01*
X79302429Y-131581071D01*
X79266143Y-131653643D01*
X79229857Y-131689929D01*
X79157286Y-131726214D01*
X79084714Y-131726214D01*
X79012143Y-131689929D01*
X78975857Y-131653643D01*
X78939572Y-131581071D01*
X78903286Y-131435929D01*
X78903286Y-131254500D01*
X78939572Y-131109357D01*
X78975857Y-131036786D01*
X79012143Y-131000500D01*
X79084714Y-130964214D01*
X80028143Y-130964214D02*
X79665286Y-130964214D01*
X79629000Y-131327071D01*
X79665286Y-131290786D01*
X79737857Y-131254500D01*
X79919286Y-131254500D01*
X79991857Y-131290786D01*
X80028143Y-131327071D01*
X80064428Y-131399643D01*
X80064428Y-131581071D01*
X80028143Y-131653643D01*
X79991857Y-131689929D01*
X79919286Y-131726214D01*
X79737857Y-131726214D01*
X79665286Y-131689929D01*
X79629000Y-131653643D01*
X89117715Y-121248714D02*
X89117715Y-121865571D01*
X89154000Y-121938143D01*
X89190286Y-121974429D01*
X89262857Y-122010714D01*
X89408000Y-122010714D01*
X89480572Y-121974429D01*
X89516857Y-121938143D01*
X89553143Y-121865571D01*
X89553143Y-121248714D01*
X89843429Y-121248714D02*
X90315143Y-121248714D01*
X90061143Y-121539000D01*
X90170001Y-121539000D01*
X90242572Y-121575286D01*
X90278858Y-121611571D01*
X90315143Y-121684143D01*
X90315143Y-121865571D01*
X90278858Y-121938143D01*
X90242572Y-121974429D01*
X90170001Y-122010714D01*
X89952286Y-122010714D01*
X89879715Y-121974429D01*
X89843429Y-121938143D01*
X90786857Y-121248714D02*
X90859429Y-121248714D01*
X90932000Y-121285000D01*
X90968286Y-121321286D01*
X91004572Y-121393857D01*
X91040857Y-121539000D01*
X91040857Y-121720429D01*
X91004572Y-121865571D01*
X90968286Y-121938143D01*
X90932000Y-121974429D01*
X90859429Y-122010714D01*
X90786857Y-122010714D01*
X90714286Y-121974429D01*
X90678000Y-121938143D01*
X90641715Y-121865571D01*
X90605429Y-121720429D01*
X90605429Y-121539000D01*
X90641715Y-121393857D01*
X90678000Y-121321286D01*
X90714286Y-121285000D01*
X90786857Y-121248714D01*
X91766571Y-122010714D02*
X91331143Y-122010714D01*
X91548857Y-122010714D02*
X91548857Y-121248714D01*
X91476286Y-121357571D01*
X91403714Y-121430143D01*
X91331143Y-121466429D01*
X106262714Y-134402285D02*
X106879571Y-134402285D01*
X106952143Y-134366000D01*
X106988429Y-134329714D01*
X107024714Y-134257143D01*
X107024714Y-134112000D01*
X106988429Y-134039428D01*
X106952143Y-134003143D01*
X106879571Y-133966857D01*
X106262714Y-133966857D01*
X106262714Y-133676571D02*
X106262714Y-133204857D01*
X106553000Y-133458857D01*
X106553000Y-133349999D01*
X106589286Y-133277428D01*
X106625571Y-133241142D01*
X106698143Y-133204857D01*
X106879571Y-133204857D01*
X106952143Y-133241142D01*
X106988429Y-133277428D01*
X107024714Y-133349999D01*
X107024714Y-133567714D01*
X106988429Y-133640285D01*
X106952143Y-133676571D01*
X106262714Y-132733143D02*
X106262714Y-132660571D01*
X106299000Y-132588000D01*
X106335286Y-132551714D01*
X106407857Y-132515428D01*
X106553000Y-132479143D01*
X106734429Y-132479143D01*
X106879571Y-132515428D01*
X106952143Y-132551714D01*
X106988429Y-132588000D01*
X107024714Y-132660571D01*
X107024714Y-132733143D01*
X106988429Y-132805714D01*
X106952143Y-132842000D01*
X106879571Y-132878285D01*
X106734429Y-132914571D01*
X106553000Y-132914571D01*
X106407857Y-132878285D01*
X106335286Y-132842000D01*
X106299000Y-132805714D01*
X106262714Y-132733143D01*
X106335286Y-132188857D02*
X106299000Y-132152571D01*
X106262714Y-132080000D01*
X106262714Y-131898571D01*
X106299000Y-131826000D01*
X106335286Y-131789714D01*
X106407857Y-131753429D01*
X106480429Y-131753429D01*
X106589286Y-131789714D01*
X107024714Y-132225143D01*
X107024714Y-131753429D01*
X84688435Y-94279707D02*
X84945014Y-94536286D01*
X84226593Y-94177075D02*
X84688435Y-94279707D01*
X84585803Y-93817865D01*
X85586461Y-93894839D02*
X85278567Y-94202733D01*
X85432514Y-94048786D02*
X84893698Y-93509970D01*
X84919356Y-93638259D01*
X84919356Y-93740892D01*
X84893699Y-93817865D01*
X85381197Y-93022471D02*
X85432514Y-92971155D01*
X85509487Y-92945498D01*
X85560803Y-92945498D01*
X85637777Y-92971155D01*
X85766066Y-93048129D01*
X85894355Y-93176419D01*
X85971329Y-93304707D01*
X85996987Y-93381681D01*
X85996987Y-93432997D01*
X85971329Y-93509970D01*
X85920013Y-93561286D01*
X85843040Y-93586944D01*
X85791724Y-93586944D01*
X85714750Y-93561286D01*
X85586461Y-93484313D01*
X85458172Y-93356023D01*
X85381198Y-93227734D01*
X85355540Y-93150761D01*
X85355540Y-93099445D01*
X85381197Y-93022471D01*
X86612775Y-92868524D02*
X86304881Y-93176418D01*
X86458828Y-93022471D02*
X85920013Y-92483656D01*
X85945671Y-92611945D01*
X85945671Y-92714577D01*
X85920014Y-92791550D01*
M02*
