M48
;DRILL file {KiCad 4.0.1-2.201512121406+6195~38~ubuntu14.04.1-stable} date Sun 27 Dec 2015 07:04:47 PM CET
;FORMAT={2:4/ absolute / inch / suppress leading zeros}
FMAT,2
INCH,TZ
T1C0.013
T2C0.030
T3C0.032
T4C0.040
T5C0.118
T6C0.047
%
G90
G05
M72
T1
X32600Y-50450
X32600Y-53400
X32850Y-48800
X33150Y-50450
X33170Y-48600
X33200Y-33350
X33250Y-49280
X34000Y-52700
X34050Y-47800
X34150Y-33350
X34330Y-35670
X34400Y-47800
X34540Y-34880
X34600Y-37470
X34600Y-39877
X34950Y-52800
X35100Y-47950
X35150Y-38670
X35310Y-50710
X35868Y-40327
X35950Y-49600
X36050Y-50050
X36168Y-40652
X36223Y-40327
X36550Y-53400
X36606Y-37273
X36800Y-32850
X36890Y-42330
X36950Y-34800
X36950Y-35200
X36980Y-38590
X37150Y-46100
X37160Y-40400
X37200Y-47150
X37500Y-50100
X37510Y-40030
X37740Y-43800
X37810Y-48550
X37820Y-49390
X37840Y-41050
X37910Y-39540
X37960Y-40110
X38200Y-41820
X38300Y-47300
X38350Y-37070
X38450Y-38190
X38530Y-39010
X38540Y-42010
X38630Y-39970
X39380Y-40700
X39390Y-41040
X39440Y-37010
X39500Y-38270
X39500Y-44720
X39650Y-50000
X40040Y-42280
X40370Y-42120
X40370Y-38301
X40600Y-53900
X40650Y-49650
X40940Y-40530
X41340Y-52860
X41650Y-53900
X41900Y-50700
X42450Y-52600
T2
X31450Y-33270
X31450Y-34057
X31450Y-34844
X31450Y-35632
X43850Y-33268
X43850Y-34056
X43850Y-34843
X43850Y-35630
T3
X33920Y-38400
X35280Y-37040
T4
X31000Y-37250
X31000Y-38250
X31000Y-39250
X31000Y-40250
X31000Y-41250
X31000Y-42250
X31000Y-43250
X31000Y-44250
X31000Y-45250
X31000Y-46250
X31000Y-47750
X31000Y-48750
X31000Y-49750
X31000Y-50750
X33200Y-31000
X33690Y-41870
X34200Y-31000
X34397Y-41163
X35200Y-31000
X36200Y-31000
X37200Y-31000
X38200Y-31000
X38300Y-54050
X39300Y-54050
X39750Y-31000
X40750Y-31000
X41750Y-31000
X42420Y-38010
X42420Y-39010
X42420Y-40010
X42420Y-41010
X44100Y-37200
X44100Y-38200
X44100Y-39650
X44100Y-40650
X44100Y-42150
X44100Y-43150
X44100Y-44150
X44100Y-45150
X44100Y-46150
X44100Y-47150
X44100Y-48150
X44100Y-49150
X44100Y-50150
X44100Y-51150
T5
X31300Y-31300
X31300Y-53700
X43700Y-31300
X43700Y-53700
T6
X33201Y-54400
X35799Y-54400
T0
M30
