G04 #@! TF.FileFunction,Paste,Top*
%FSLAX46Y46*%
G04 Gerber Fmt 4.6, Leading zero omitted, Abs format (unit mm)*
G04 Created by KiCad (PCBNEW 4.0.0-2.201512072331+6194~38~ubuntu14.04.1-stable) date Mon 28 Dec 2015 11:05:04 AM CET*
%MOMM*%
G01*
G04 APERTURE LIST*
%ADD10C,0.100000*%
%ADD11R,2.550160X1.851660*%
%ADD12R,1.249680X1.249680*%
%ADD13R,1.201420X1.450340*%
%ADD14R,0.450800X1.400800*%
%ADD15R,1.650800X1.450800*%
%ADD16R,1.950800X1.950800*%
%ADD17R,0.750800X0.300800*%
%ADD18R,0.300800X0.750800*%
%ADD19R,1.085800X1.085800*%
%ADD20R,0.850900X0.850900*%
%ADD21R,1.650800X1.050800*%
G04 APERTURE END LIST*
D10*
G36*
X96074700Y-97529111D02*
X96287398Y-97316413D01*
X97242558Y-98271573D01*
X97029860Y-98484271D01*
X96074700Y-97529111D01*
X96074700Y-97529111D01*
G37*
G36*
X95721147Y-97882664D02*
X95933845Y-97669966D01*
X96889005Y-98625126D01*
X96676307Y-98837824D01*
X95721147Y-97882664D01*
X95721147Y-97882664D01*
G37*
G36*
X95367593Y-98236218D02*
X95580291Y-98023520D01*
X96535451Y-98978680D01*
X96322753Y-99191378D01*
X95367593Y-98236218D01*
X95367593Y-98236218D01*
G37*
G36*
X95014040Y-98589771D02*
X95226738Y-98377073D01*
X96181898Y-99332233D01*
X95969200Y-99544931D01*
X95014040Y-98589771D01*
X95014040Y-98589771D01*
G37*
G36*
X94660487Y-98943324D02*
X94873185Y-98730626D01*
X95828345Y-99685786D01*
X95615647Y-99898484D01*
X94660487Y-98943324D01*
X94660487Y-98943324D01*
G37*
G36*
X94306933Y-99296878D02*
X94519631Y-99084180D01*
X95474791Y-100039340D01*
X95262093Y-100252038D01*
X94306933Y-99296878D01*
X94306933Y-99296878D01*
G37*
G36*
X93953380Y-99650431D02*
X94166078Y-99437733D01*
X95121238Y-100392893D01*
X94908540Y-100605591D01*
X93953380Y-99650431D01*
X93953380Y-99650431D01*
G37*
G36*
X93599826Y-100003985D02*
X93812524Y-99791287D01*
X94767684Y-100746447D01*
X94554986Y-100959145D01*
X93599826Y-100003985D01*
X93599826Y-100003985D01*
G37*
G36*
X93246273Y-100357538D02*
X93458971Y-100144840D01*
X94414131Y-101100000D01*
X94201433Y-101312698D01*
X93246273Y-100357538D01*
X93246273Y-100357538D01*
G37*
G36*
X92892720Y-100711091D02*
X93105418Y-100498393D01*
X94060578Y-101453553D01*
X93847880Y-101666251D01*
X92892720Y-100711091D01*
X92892720Y-100711091D01*
G37*
G36*
X92539166Y-101064645D02*
X92751864Y-100851947D01*
X93707024Y-101807107D01*
X93494326Y-102019805D01*
X92539166Y-101064645D01*
X92539166Y-101064645D01*
G37*
G36*
X92185613Y-101418198D02*
X92398311Y-101205500D01*
X93353471Y-102160660D01*
X93140773Y-102373358D01*
X92185613Y-101418198D01*
X92185613Y-101418198D01*
G37*
G36*
X92398311Y-104636100D02*
X92185613Y-104423402D01*
X93140773Y-103468242D01*
X93353471Y-103680940D01*
X92398311Y-104636100D01*
X92398311Y-104636100D01*
G37*
G36*
X92751864Y-104989653D02*
X92539166Y-104776955D01*
X93494326Y-103821795D01*
X93707024Y-104034493D01*
X92751864Y-104989653D01*
X92751864Y-104989653D01*
G37*
G36*
X93105418Y-105343207D02*
X92892720Y-105130509D01*
X93847880Y-104175349D01*
X94060578Y-104388047D01*
X93105418Y-105343207D01*
X93105418Y-105343207D01*
G37*
G36*
X93458971Y-105696760D02*
X93246273Y-105484062D01*
X94201433Y-104528902D01*
X94414131Y-104741600D01*
X93458971Y-105696760D01*
X93458971Y-105696760D01*
G37*
G36*
X93812524Y-106050313D02*
X93599826Y-105837615D01*
X94554986Y-104882455D01*
X94767684Y-105095153D01*
X93812524Y-106050313D01*
X93812524Y-106050313D01*
G37*
G36*
X94166078Y-106403867D02*
X93953380Y-106191169D01*
X94908540Y-105236009D01*
X95121238Y-105448707D01*
X94166078Y-106403867D01*
X94166078Y-106403867D01*
G37*
G36*
X94519631Y-106757420D02*
X94306933Y-106544722D01*
X95262093Y-105589562D01*
X95474791Y-105802260D01*
X94519631Y-106757420D01*
X94519631Y-106757420D01*
G37*
G36*
X94873185Y-107110974D02*
X94660487Y-106898276D01*
X95615647Y-105943116D01*
X95828345Y-106155814D01*
X94873185Y-107110974D01*
X94873185Y-107110974D01*
G37*
G36*
X95226738Y-107464527D02*
X95014040Y-107251829D01*
X95969200Y-106296669D01*
X96181898Y-106509367D01*
X95226738Y-107464527D01*
X95226738Y-107464527D01*
G37*
G36*
X95580291Y-107818080D02*
X95367593Y-107605382D01*
X96322753Y-106650222D01*
X96535451Y-106862920D01*
X95580291Y-107818080D01*
X95580291Y-107818080D01*
G37*
G36*
X95933845Y-108171634D02*
X95721147Y-107958936D01*
X96676307Y-107003776D01*
X96889005Y-107216474D01*
X95933845Y-108171634D01*
X95933845Y-108171634D01*
G37*
G36*
X96287398Y-108525187D02*
X96074700Y-108312489D01*
X97029860Y-107357329D01*
X97242558Y-107570027D01*
X96287398Y-108525187D01*
X96287398Y-108525187D01*
G37*
G36*
X98337442Y-107570027D02*
X98550140Y-107357329D01*
X99505300Y-108312489D01*
X99292602Y-108525187D01*
X98337442Y-107570027D01*
X98337442Y-107570027D01*
G37*
G36*
X98690995Y-107216474D02*
X98903693Y-107003776D01*
X99858853Y-107958936D01*
X99646155Y-108171634D01*
X98690995Y-107216474D01*
X98690995Y-107216474D01*
G37*
G36*
X99044549Y-106862920D02*
X99257247Y-106650222D01*
X100212407Y-107605382D01*
X99999709Y-107818080D01*
X99044549Y-106862920D01*
X99044549Y-106862920D01*
G37*
G36*
X99398102Y-106509367D02*
X99610800Y-106296669D01*
X100565960Y-107251829D01*
X100353262Y-107464527D01*
X99398102Y-106509367D01*
X99398102Y-106509367D01*
G37*
G36*
X99751655Y-106155814D02*
X99964353Y-105943116D01*
X100919513Y-106898276D01*
X100706815Y-107110974D01*
X99751655Y-106155814D01*
X99751655Y-106155814D01*
G37*
G36*
X100105209Y-105802260D02*
X100317907Y-105589562D01*
X101273067Y-106544722D01*
X101060369Y-106757420D01*
X100105209Y-105802260D01*
X100105209Y-105802260D01*
G37*
G36*
X100458762Y-105448707D02*
X100671460Y-105236009D01*
X101626620Y-106191169D01*
X101413922Y-106403867D01*
X100458762Y-105448707D01*
X100458762Y-105448707D01*
G37*
G36*
X100812316Y-105095153D02*
X101025014Y-104882455D01*
X101980174Y-105837615D01*
X101767476Y-106050313D01*
X100812316Y-105095153D01*
X100812316Y-105095153D01*
G37*
G36*
X101165869Y-104741600D02*
X101378567Y-104528902D01*
X102333727Y-105484062D01*
X102121029Y-105696760D01*
X101165869Y-104741600D01*
X101165869Y-104741600D01*
G37*
G36*
X101519422Y-104388047D02*
X101732120Y-104175349D01*
X102687280Y-105130509D01*
X102474582Y-105343207D01*
X101519422Y-104388047D01*
X101519422Y-104388047D01*
G37*
G36*
X101872976Y-104034493D02*
X102085674Y-103821795D01*
X103040834Y-104776955D01*
X102828136Y-104989653D01*
X101872976Y-104034493D01*
X101872976Y-104034493D01*
G37*
G36*
X102226529Y-103680940D02*
X102439227Y-103468242D01*
X103394387Y-104423402D01*
X103181689Y-104636100D01*
X102226529Y-103680940D01*
X102226529Y-103680940D01*
G37*
G36*
X102439227Y-102373358D02*
X102226529Y-102160660D01*
X103181689Y-101205500D01*
X103394387Y-101418198D01*
X102439227Y-102373358D01*
X102439227Y-102373358D01*
G37*
G36*
X102085674Y-102019805D02*
X101872976Y-101807107D01*
X102828136Y-100851947D01*
X103040834Y-101064645D01*
X102085674Y-102019805D01*
X102085674Y-102019805D01*
G37*
G36*
X101732120Y-101666251D02*
X101519422Y-101453553D01*
X102474582Y-100498393D01*
X102687280Y-100711091D01*
X101732120Y-101666251D01*
X101732120Y-101666251D01*
G37*
G36*
X101378567Y-101312698D02*
X101165869Y-101100000D01*
X102121029Y-100144840D01*
X102333727Y-100357538D01*
X101378567Y-101312698D01*
X101378567Y-101312698D01*
G37*
G36*
X101025014Y-100959145D02*
X100812316Y-100746447D01*
X101767476Y-99791287D01*
X101980174Y-100003985D01*
X101025014Y-100959145D01*
X101025014Y-100959145D01*
G37*
G36*
X100671460Y-100605591D02*
X100458762Y-100392893D01*
X101413922Y-99437733D01*
X101626620Y-99650431D01*
X100671460Y-100605591D01*
X100671460Y-100605591D01*
G37*
G36*
X100317907Y-100252038D02*
X100105209Y-100039340D01*
X101060369Y-99084180D01*
X101273067Y-99296878D01*
X100317907Y-100252038D01*
X100317907Y-100252038D01*
G37*
G36*
X99964353Y-99898484D02*
X99751655Y-99685786D01*
X100706815Y-98730626D01*
X100919513Y-98943324D01*
X99964353Y-99898484D01*
X99964353Y-99898484D01*
G37*
G36*
X99610800Y-99544931D02*
X99398102Y-99332233D01*
X100353262Y-98377073D01*
X100565960Y-98589771D01*
X99610800Y-99544931D01*
X99610800Y-99544931D01*
G37*
G36*
X99257247Y-99191378D02*
X99044549Y-98978680D01*
X99999709Y-98023520D01*
X100212407Y-98236218D01*
X99257247Y-99191378D01*
X99257247Y-99191378D01*
G37*
G36*
X98903693Y-98837824D02*
X98690995Y-98625126D01*
X99646155Y-97669966D01*
X99858853Y-97882664D01*
X98903693Y-98837824D01*
X98903693Y-98837824D01*
G37*
G36*
X98550140Y-98484271D02*
X98337442Y-98271573D01*
X99292602Y-97316413D01*
X99505300Y-97529111D01*
X98550140Y-98484271D01*
X98550140Y-98484271D01*
G37*
D11*
X96807020Y-133350000D03*
X100804980Y-133350000D03*
X96807020Y-129032000D03*
X100804980Y-129032000D03*
D12*
X94521020Y-123317000D03*
X92422980Y-123317000D03*
X94521020Y-125476000D03*
X92422980Y-125476000D03*
D10*
G36*
X91599520Y-97036734D02*
X92625066Y-98062280D01*
X91775534Y-98911812D01*
X90749988Y-97886266D01*
X91599520Y-97036734D01*
X91599520Y-97036734D01*
G37*
G36*
X93898466Y-94737788D02*
X94924012Y-95763334D01*
X94074480Y-96612866D01*
X93048934Y-95587320D01*
X93898466Y-94737788D01*
X93898466Y-94737788D01*
G37*
D13*
X90144600Y-131318000D03*
X86893400Y-131318000D03*
D14*
X86330000Y-135526000D03*
X88280000Y-135526000D03*
X87630000Y-135526000D03*
X86980000Y-135526000D03*
X88930000Y-135526000D03*
D15*
X84430000Y-135726000D03*
X90830000Y-135726000D03*
D16*
X86430000Y-138176000D03*
X88830000Y-138176000D03*
D17*
X85484000Y-123472000D03*
X85484000Y-123972000D03*
X85484000Y-124472000D03*
X85484000Y-124972000D03*
X85484000Y-125472000D03*
X85484000Y-125972000D03*
X85484000Y-126472000D03*
X85484000Y-126972000D03*
D18*
X86134000Y-127622000D03*
X86634000Y-127622000D03*
X87134000Y-127622000D03*
X87634000Y-127622000D03*
X88134000Y-127622000D03*
X88634000Y-127622000D03*
X89134000Y-127622000D03*
X89634000Y-127622000D03*
D17*
X90284000Y-126972000D03*
X90284000Y-126472000D03*
X90284000Y-125972000D03*
X90284000Y-125472000D03*
X90284000Y-124972000D03*
X90284000Y-124472000D03*
X90284000Y-123972000D03*
X90284000Y-123472000D03*
D18*
X89634000Y-122822000D03*
X89134000Y-122822000D03*
X88634000Y-122822000D03*
X88134000Y-122822000D03*
X87634000Y-122822000D03*
X87134000Y-122822000D03*
X86634000Y-122822000D03*
X86134000Y-122822000D03*
D19*
X88746500Y-126084500D03*
X88746500Y-124359500D03*
X87021500Y-126084500D03*
X87021500Y-124359500D03*
D20*
X103444000Y-132064760D03*
X105344000Y-132064760D03*
X104394000Y-130065780D03*
D21*
X92558000Y-116210000D03*
X98958000Y-116210000D03*
X92558000Y-120010000D03*
X98958000Y-120010000D03*
M02*
