G04 #@! TF.FileFunction,Legend,Bot*
%FSLAX46Y46*%
G04 Gerber Fmt 4.6, Leading zero omitted, Abs format (unit mm)*
G04 Created by KiCad (PCBNEW 4.0.1-2.201512121406+6195~38~ubuntu14.04.1-stable) date Sun 27 Dec 2015 07:04:44 PM CET*
%MOMM*%
G01*
G04 APERTURE LIST*
%ADD10C,0.100000*%
%ADD11C,0.200000*%
%ADD12C,0.127000*%
%ADD13C,0.300000*%
%ADD14C,0.150000*%
G04 APERTURE END LIST*
D10*
D11*
X110363000Y-102997000D02*
X110363000Y-103124000D01*
X106299000Y-102997000D02*
X110363000Y-102997000D01*
X109982000Y-100330000D02*
X110363000Y-100711000D01*
X106680000Y-100330000D02*
X109982000Y-100330000D01*
X106426000Y-100584000D02*
X106680000Y-100330000D01*
D12*
X106153857Y-100879729D02*
X106045000Y-100916014D01*
X105863571Y-100916014D01*
X105791000Y-100879729D01*
X105754714Y-100843443D01*
X105718429Y-100770871D01*
X105718429Y-100698300D01*
X105754714Y-100625729D01*
X105791000Y-100589443D01*
X105863571Y-100553157D01*
X106008714Y-100516871D01*
X106081286Y-100480586D01*
X106117571Y-100444300D01*
X106153857Y-100371729D01*
X106153857Y-100299157D01*
X106117571Y-100226586D01*
X106081286Y-100190300D01*
X106008714Y-100154014D01*
X105827286Y-100154014D01*
X105718429Y-100190300D01*
X105391857Y-100916014D02*
X105391857Y-100154014D01*
X105210429Y-100154014D01*
X105101572Y-100190300D01*
X105029000Y-100262871D01*
X104992715Y-100335443D01*
X104956429Y-100480586D01*
X104956429Y-100589443D01*
X104992715Y-100734586D01*
X105029000Y-100807157D01*
X105101572Y-100879729D01*
X105210429Y-100916014D01*
X105391857Y-100916014D01*
X104666143Y-100698300D02*
X104303286Y-100698300D01*
X104738715Y-100916014D02*
X104484715Y-100154014D01*
X104230715Y-100916014D01*
X106153857Y-103267329D02*
X106045000Y-103303614D01*
X105863571Y-103303614D01*
X105791000Y-103267329D01*
X105754714Y-103231043D01*
X105718429Y-103158471D01*
X105718429Y-103085900D01*
X105754714Y-103013329D01*
X105791000Y-102977043D01*
X105863571Y-102940757D01*
X106008714Y-102904471D01*
X106081286Y-102868186D01*
X106117571Y-102831900D01*
X106153857Y-102759329D01*
X106153857Y-102686757D01*
X106117571Y-102614186D01*
X106081286Y-102577900D01*
X106008714Y-102541614D01*
X105827286Y-102541614D01*
X105718429Y-102577900D01*
X104956429Y-103231043D02*
X104992715Y-103267329D01*
X105101572Y-103303614D01*
X105174143Y-103303614D01*
X105283000Y-103267329D01*
X105355572Y-103194757D01*
X105391857Y-103122186D01*
X105428143Y-102977043D01*
X105428143Y-102868186D01*
X105391857Y-102723043D01*
X105355572Y-102650471D01*
X105283000Y-102577900D01*
X105174143Y-102541614D01*
X105101572Y-102541614D01*
X104992715Y-102577900D01*
X104956429Y-102614186D01*
X104629857Y-103303614D02*
X104629857Y-102541614D01*
X104194429Y-103303614D02*
X104521000Y-102868186D01*
X104194429Y-102541614D02*
X104629857Y-102977043D01*
X106117571Y-104497414D02*
X106117571Y-103735414D01*
X105791000Y-103807986D02*
X105754714Y-103771700D01*
X105682143Y-103735414D01*
X105500714Y-103735414D01*
X105428143Y-103771700D01*
X105391857Y-103807986D01*
X105355572Y-103880557D01*
X105355572Y-103953129D01*
X105391857Y-104061986D01*
X105827286Y-104497414D01*
X105355572Y-104497414D01*
X104593572Y-104424843D02*
X104629858Y-104461129D01*
X104738715Y-104497414D01*
X104811286Y-104497414D01*
X104920143Y-104461129D01*
X104992715Y-104388557D01*
X105029000Y-104315986D01*
X105065286Y-104170843D01*
X105065286Y-104061986D01*
X105029000Y-103916843D01*
X104992715Y-103844271D01*
X104920143Y-103771700D01*
X104811286Y-103735414D01*
X104738715Y-103735414D01*
X104629858Y-103771700D01*
X104593572Y-103807986D01*
X103867858Y-104497414D02*
X104303286Y-104497414D01*
X104085572Y-104497414D02*
X104085572Y-103735414D01*
X104158143Y-103844271D01*
X104230715Y-103916843D01*
X104303286Y-103953129D01*
X109873143Y-94781914D02*
X110127143Y-94419057D01*
X110308571Y-94781914D02*
X110308571Y-94019914D01*
X110018286Y-94019914D01*
X109945714Y-94056200D01*
X109909429Y-94092486D01*
X109873143Y-94165057D01*
X109873143Y-94273914D01*
X109909429Y-94346486D01*
X109945714Y-94382771D01*
X110018286Y-94419057D01*
X110308571Y-94419057D01*
X109619143Y-94781914D02*
X109220000Y-94273914D01*
X109619143Y-94273914D02*
X109220000Y-94781914D01*
X110417429Y-96407514D02*
X109982000Y-96407514D01*
X110199714Y-97169514D02*
X110199714Y-96407514D01*
X109800572Y-97169514D02*
X109401429Y-96661514D01*
X109800572Y-96661514D02*
X109401429Y-97169514D01*
D13*
X103348714Y-84018286D02*
X103420143Y-83946857D01*
X103491571Y-83732571D01*
X103491571Y-83589714D01*
X103420143Y-83375429D01*
X103277286Y-83232571D01*
X103134429Y-83161143D01*
X102848714Y-83089714D01*
X102634429Y-83089714D01*
X102348714Y-83161143D01*
X102205857Y-83232571D01*
X102063000Y-83375429D01*
X101991571Y-83589714D01*
X101991571Y-83732571D01*
X102063000Y-83946857D01*
X102134429Y-84018286D01*
X103420143Y-85232571D02*
X103491571Y-85089714D01*
X103491571Y-84804000D01*
X103420143Y-84661143D01*
X103277286Y-84589714D01*
X102705857Y-84589714D01*
X102563000Y-84661143D01*
X102491571Y-84804000D01*
X102491571Y-85089714D01*
X102563000Y-85232571D01*
X102705857Y-85304000D01*
X102848714Y-85304000D01*
X102991571Y-84589714D01*
X102491571Y-85946857D02*
X103491571Y-85946857D01*
X102634429Y-85946857D02*
X102563000Y-86018285D01*
X102491571Y-86161143D01*
X102491571Y-86375428D01*
X102563000Y-86518285D01*
X102705857Y-86589714D01*
X103491571Y-86589714D01*
X102491571Y-87089714D02*
X102491571Y-87661143D01*
X101991571Y-87304000D02*
X103277286Y-87304000D01*
X103420143Y-87375428D01*
X103491571Y-87518286D01*
X103491571Y-87661143D01*
X103491571Y-88161143D02*
X102491571Y-88161143D01*
X102777286Y-88161143D02*
X102634429Y-88232571D01*
X102563000Y-88304000D01*
X102491571Y-88446857D01*
X102491571Y-88589714D01*
X103491571Y-89732571D02*
X102705857Y-89732571D01*
X102563000Y-89661142D01*
X102491571Y-89518285D01*
X102491571Y-89232571D01*
X102563000Y-89089714D01*
X103420143Y-89732571D02*
X103491571Y-89589714D01*
X103491571Y-89232571D01*
X103420143Y-89089714D01*
X103277286Y-89018285D01*
X103134429Y-89018285D01*
X102991571Y-89089714D01*
X102920143Y-89232571D01*
X102920143Y-89589714D01*
X102848714Y-89732571D01*
X103491571Y-90661143D02*
X103420143Y-90518285D01*
X103277286Y-90446857D01*
X101991571Y-90446857D01*
X103348714Y-93232571D02*
X103420143Y-93161142D01*
X103491571Y-92946856D01*
X103491571Y-92803999D01*
X103420143Y-92589714D01*
X103277286Y-92446856D01*
X103134429Y-92375428D01*
X102848714Y-92303999D01*
X102634429Y-92303999D01*
X102348714Y-92375428D01*
X102205857Y-92446856D01*
X102063000Y-92589714D01*
X101991571Y-92803999D01*
X101991571Y-92946856D01*
X102063000Y-93161142D01*
X102134429Y-93232571D01*
X103491571Y-94089714D02*
X103420143Y-93946856D01*
X103348714Y-93875428D01*
X103205857Y-93803999D01*
X102777286Y-93803999D01*
X102634429Y-93875428D01*
X102563000Y-93946856D01*
X102491571Y-94089714D01*
X102491571Y-94303999D01*
X102563000Y-94446856D01*
X102634429Y-94518285D01*
X102777286Y-94589714D01*
X103205857Y-94589714D01*
X103348714Y-94518285D01*
X103420143Y-94446856D01*
X103491571Y-94303999D01*
X103491571Y-94089714D01*
X103491571Y-95232571D02*
X102491571Y-95232571D01*
X102634429Y-95232571D02*
X102563000Y-95303999D01*
X102491571Y-95446857D01*
X102491571Y-95661142D01*
X102563000Y-95803999D01*
X102705857Y-95875428D01*
X103491571Y-95875428D01*
X102705857Y-95875428D02*
X102563000Y-95946857D01*
X102491571Y-96089714D01*
X102491571Y-96303999D01*
X102563000Y-96446857D01*
X102705857Y-96518285D01*
X103491571Y-96518285D01*
X103491571Y-97232571D02*
X102491571Y-97232571D01*
X102634429Y-97232571D02*
X102563000Y-97303999D01*
X102491571Y-97446857D01*
X102491571Y-97661142D01*
X102563000Y-97803999D01*
X102705857Y-97875428D01*
X103491571Y-97875428D01*
X102705857Y-97875428D02*
X102563000Y-97946857D01*
X102491571Y-98089714D01*
X102491571Y-98303999D01*
X102563000Y-98446857D01*
X102705857Y-98518285D01*
X103491571Y-98518285D01*
X103491571Y-99875428D02*
X102705857Y-99875428D01*
X102563000Y-99803999D01*
X102491571Y-99661142D01*
X102491571Y-99375428D01*
X102563000Y-99232571D01*
X103420143Y-99875428D02*
X103491571Y-99732571D01*
X103491571Y-99375428D01*
X103420143Y-99232571D01*
X103277286Y-99161142D01*
X103134429Y-99161142D01*
X102991571Y-99232571D01*
X102920143Y-99375428D01*
X102920143Y-99732571D01*
X102848714Y-99875428D01*
X102491571Y-100589714D02*
X103491571Y-100589714D01*
X102634429Y-100589714D02*
X102563000Y-100661142D01*
X102491571Y-100804000D01*
X102491571Y-101018285D01*
X102563000Y-101161142D01*
X102705857Y-101232571D01*
X103491571Y-101232571D01*
X103491571Y-102589714D02*
X101991571Y-102589714D01*
X103420143Y-102589714D02*
X103491571Y-102446857D01*
X103491571Y-102161143D01*
X103420143Y-102018285D01*
X103348714Y-101946857D01*
X103205857Y-101875428D01*
X102777286Y-101875428D01*
X102634429Y-101946857D01*
X102563000Y-102018285D01*
X102491571Y-102161143D01*
X102491571Y-102446857D01*
X102563000Y-102589714D01*
X103491571Y-104446857D02*
X101991571Y-104446857D01*
X103063000Y-104946857D01*
X101991571Y-105446857D01*
X103491571Y-105446857D01*
X103491571Y-106375429D02*
X103420143Y-106232571D01*
X103348714Y-106161143D01*
X103205857Y-106089714D01*
X102777286Y-106089714D01*
X102634429Y-106161143D01*
X102563000Y-106232571D01*
X102491571Y-106375429D01*
X102491571Y-106589714D01*
X102563000Y-106732571D01*
X102634429Y-106804000D01*
X102777286Y-106875429D01*
X103205857Y-106875429D01*
X103348714Y-106804000D01*
X103420143Y-106732571D01*
X103491571Y-106589714D01*
X103491571Y-106375429D01*
X103491571Y-108161143D02*
X101991571Y-108161143D01*
X103420143Y-108161143D02*
X103491571Y-108018286D01*
X103491571Y-107732572D01*
X103420143Y-107589714D01*
X103348714Y-107518286D01*
X103205857Y-107446857D01*
X102777286Y-107446857D01*
X102634429Y-107518286D01*
X102563000Y-107589714D01*
X102491571Y-107732572D01*
X102491571Y-108018286D01*
X102563000Y-108161143D01*
X102491571Y-109518286D02*
X103491571Y-109518286D01*
X102491571Y-108875429D02*
X103277286Y-108875429D01*
X103420143Y-108946857D01*
X103491571Y-109089715D01*
X103491571Y-109304000D01*
X103420143Y-109446857D01*
X103348714Y-109518286D01*
X103491571Y-110446858D02*
X103420143Y-110304000D01*
X103277286Y-110232572D01*
X101991571Y-110232572D01*
X103420143Y-111589714D02*
X103491571Y-111446857D01*
X103491571Y-111161143D01*
X103420143Y-111018286D01*
X103277286Y-110946857D01*
X102705857Y-110946857D01*
X102563000Y-111018286D01*
X102491571Y-111161143D01*
X102491571Y-111446857D01*
X102563000Y-111589714D01*
X102705857Y-111661143D01*
X102848714Y-111661143D01*
X102991571Y-110946857D01*
X105891571Y-84018286D02*
X105177286Y-83518286D01*
X105891571Y-83161143D02*
X104391571Y-83161143D01*
X104391571Y-83732571D01*
X104463000Y-83875429D01*
X104534429Y-83946857D01*
X104677286Y-84018286D01*
X104891571Y-84018286D01*
X105034429Y-83946857D01*
X105105857Y-83875429D01*
X105177286Y-83732571D01*
X105177286Y-83161143D01*
X105820143Y-85232571D02*
X105891571Y-85089714D01*
X105891571Y-84804000D01*
X105820143Y-84661143D01*
X105677286Y-84589714D01*
X105105857Y-84589714D01*
X104963000Y-84661143D01*
X104891571Y-84804000D01*
X104891571Y-85089714D01*
X104963000Y-85232571D01*
X105105857Y-85304000D01*
X105248714Y-85304000D01*
X105391571Y-84589714D01*
X104891571Y-85804000D02*
X105891571Y-86161143D01*
X104891571Y-86518285D01*
X104891571Y-88875428D02*
X105891571Y-88875428D01*
X104320143Y-88518285D02*
X105391571Y-88161142D01*
X105391571Y-89089714D01*
X105891571Y-90375428D02*
X105891571Y-89661142D01*
X104391571Y-89661142D01*
X105748714Y-90875428D02*
X105820143Y-90946856D01*
X105891571Y-90875428D01*
X105820143Y-90803999D01*
X105748714Y-90875428D01*
X105891571Y-90875428D01*
X105891571Y-92375428D02*
X105891571Y-91518285D01*
X105891571Y-91946857D02*
X104391571Y-91946857D01*
X104605857Y-91804000D01*
X104748714Y-91661142D01*
X104820143Y-91518285D01*
D14*
X101201790Y-110214023D02*
X101201790Y-111214023D01*
X99501790Y-111214023D02*
X99501790Y-110214023D01*
X98963790Y-110222024D02*
X98963790Y-112222024D01*
X96913790Y-112222024D02*
X96913790Y-110222024D01*
X96423790Y-110222023D02*
X96423790Y-112222023D01*
X94373790Y-112222023D02*
X94373790Y-110222023D01*
X88707406Y-99879313D02*
X89414513Y-99172206D01*
X90616594Y-100374287D02*
X89909487Y-101081394D01*
X91178000Y-97420800D02*
X90178000Y-97420800D01*
X90178000Y-95720800D02*
X91178000Y-95720800D01*
X85971000Y-96023800D02*
X84971000Y-96023800D01*
X84971000Y-94323800D02*
X85971000Y-94323800D01*
X91733000Y-119245000D02*
X91733000Y-118245000D01*
X93433000Y-118245000D02*
X93433000Y-119245000D01*
X84066000Y-132930000D02*
X83066000Y-132930000D01*
X83066000Y-131230000D02*
X84066000Y-131230000D01*
X100369000Y-131818000D02*
X100369000Y-130818000D01*
X102069000Y-130818000D02*
X102069000Y-131818000D01*
X98210000Y-131818000D02*
X98210000Y-130818000D01*
X99910000Y-130818000D02*
X99910000Y-131818000D01*
X86799800Y-126327800D02*
X87799800Y-126327800D01*
X87799800Y-128027800D02*
X86799800Y-128027800D01*
X102792000Y-130413000D02*
X102792000Y-128413000D01*
X105742000Y-128413000D02*
X105742000Y-130413000D01*
X104029000Y-133018000D02*
X106029000Y-133018000D01*
X106029000Y-135968000D02*
X104029000Y-135968000D01*
X92823000Y-83023000D02*
X92823000Y-81823000D01*
X91073000Y-81823000D02*
X91073000Y-83023000D01*
X85866000Y-81823000D02*
X85866000Y-83023000D01*
X87616000Y-83023000D02*
X87616000Y-81823000D01*
X85203000Y-83023000D02*
X85203000Y-81823000D01*
X83453000Y-81823000D02*
X83453000Y-83023000D01*
X96153000Y-81823000D02*
X96153000Y-83023000D01*
X97903000Y-83023000D02*
X97903000Y-81823000D01*
X82845200Y-104001600D02*
X81645200Y-104001600D01*
X81645200Y-105751600D02*
X82845200Y-105751600D01*
X89549000Y-118272000D02*
X89549000Y-119472000D01*
X91299000Y-119472000D02*
X91299000Y-118272000D01*
X89140000Y-119472000D02*
X89140000Y-118272000D01*
X87390000Y-118272000D02*
X87390000Y-119472000D01*
X86981000Y-119472000D02*
X86981000Y-118272000D01*
X85231000Y-118272000D02*
X85231000Y-119472000D01*
X85612000Y-123733000D02*
X85612000Y-124933000D01*
X87362000Y-124933000D02*
X87362000Y-123733000D01*
X83220000Y-130669000D02*
X84420000Y-130669000D01*
X84420000Y-128919000D02*
X83220000Y-128919000D01*
X93945000Y-122442000D02*
X92745000Y-122442000D01*
X92745000Y-124192000D02*
X93945000Y-124192000D01*
X93945000Y-124728000D02*
X92745000Y-124728000D01*
X92745000Y-126478000D02*
X93945000Y-126478000D01*
X94654000Y-95165800D02*
X94654000Y-94165800D01*
X96354000Y-94165800D02*
X96354000Y-95165800D01*
X85385200Y-89701400D02*
X84185200Y-89701400D01*
X84185200Y-91451400D02*
X85385200Y-91451400D01*
X85385200Y-87517000D02*
X84185200Y-87517000D01*
X84185200Y-89267000D02*
X85385200Y-89267000D01*
X96765000Y-95157800D02*
X96765000Y-93157800D01*
X98815000Y-93157800D02*
X98815000Y-95157800D01*
X99305000Y-95157800D02*
X99305000Y-93157800D01*
X101355000Y-93157800D02*
X101355000Y-95157800D01*
D12*
X100623933Y-106305309D02*
X100660219Y-106269023D01*
X100696504Y-106160166D01*
X100696504Y-106087595D01*
X100660219Y-105978738D01*
X100587647Y-105906166D01*
X100515076Y-105869881D01*
X100369933Y-105833595D01*
X100261076Y-105833595D01*
X100115933Y-105869881D01*
X100043361Y-105906166D01*
X99970790Y-105978738D01*
X99934504Y-106087595D01*
X99934504Y-106160166D01*
X99970790Y-106269023D01*
X100007076Y-106305309D01*
X100696504Y-107031023D02*
X100696504Y-106595595D01*
X100696504Y-106813309D02*
X99934504Y-106813309D01*
X100043361Y-106740738D01*
X100115933Y-106668166D01*
X100152219Y-106595595D01*
X99934504Y-107502737D02*
X99934504Y-107575309D01*
X99970790Y-107647880D01*
X100007076Y-107684166D01*
X100079647Y-107720452D01*
X100224790Y-107756737D01*
X100406219Y-107756737D01*
X100551361Y-107720452D01*
X100623933Y-107684166D01*
X100660219Y-107647880D01*
X100696504Y-107575309D01*
X100696504Y-107502737D01*
X100660219Y-107430166D01*
X100623933Y-107393880D01*
X100551361Y-107357595D01*
X100406219Y-107321309D01*
X100224790Y-107321309D01*
X100079647Y-107357595D01*
X100007076Y-107393880D01*
X99970790Y-107430166D01*
X99934504Y-107502737D01*
X99934504Y-108010737D02*
X99934504Y-108518737D01*
X100696504Y-108192166D01*
X98210933Y-106051310D02*
X98247219Y-106015024D01*
X98283504Y-105906167D01*
X98283504Y-105833596D01*
X98247219Y-105724739D01*
X98174647Y-105652167D01*
X98102076Y-105615882D01*
X97956933Y-105579596D01*
X97848076Y-105579596D01*
X97702933Y-105615882D01*
X97630361Y-105652167D01*
X97557790Y-105724739D01*
X97521504Y-105833596D01*
X97521504Y-105906167D01*
X97557790Y-106015024D01*
X97594076Y-106051310D01*
X98283504Y-106777024D02*
X98283504Y-106341596D01*
X98283504Y-106559310D02*
X97521504Y-106559310D01*
X97630361Y-106486739D01*
X97702933Y-106414167D01*
X97739219Y-106341596D01*
X97521504Y-107248738D02*
X97521504Y-107321310D01*
X97557790Y-107393881D01*
X97594076Y-107430167D01*
X97666647Y-107466453D01*
X97811790Y-107502738D01*
X97993219Y-107502738D01*
X98138361Y-107466453D01*
X98210933Y-107430167D01*
X98247219Y-107393881D01*
X98283504Y-107321310D01*
X98283504Y-107248738D01*
X98247219Y-107176167D01*
X98210933Y-107139881D01*
X98138361Y-107103596D01*
X97993219Y-107067310D01*
X97811790Y-107067310D01*
X97666647Y-107103596D01*
X97594076Y-107139881D01*
X97557790Y-107176167D01*
X97521504Y-107248738D01*
X97848076Y-107938167D02*
X97811790Y-107865595D01*
X97775504Y-107829310D01*
X97702933Y-107793024D01*
X97666647Y-107793024D01*
X97594076Y-107829310D01*
X97557790Y-107865595D01*
X97521504Y-107938167D01*
X97521504Y-108083310D01*
X97557790Y-108155881D01*
X97594076Y-108192167D01*
X97666647Y-108228452D01*
X97702933Y-108228452D01*
X97775504Y-108192167D01*
X97811790Y-108155881D01*
X97848076Y-108083310D01*
X97848076Y-107938167D01*
X97884361Y-107865595D01*
X97920647Y-107829310D01*
X97993219Y-107793024D01*
X98138361Y-107793024D01*
X98210933Y-107829310D01*
X98247219Y-107865595D01*
X98283504Y-107938167D01*
X98283504Y-108083310D01*
X98247219Y-108155881D01*
X98210933Y-108192167D01*
X98138361Y-108228452D01*
X97993219Y-108228452D01*
X97920647Y-108192167D01*
X97884361Y-108155881D01*
X97848076Y-108083310D01*
X95670933Y-106051309D02*
X95707219Y-106015023D01*
X95743504Y-105906166D01*
X95743504Y-105833595D01*
X95707219Y-105724738D01*
X95634647Y-105652166D01*
X95562076Y-105615881D01*
X95416933Y-105579595D01*
X95308076Y-105579595D01*
X95162933Y-105615881D01*
X95090361Y-105652166D01*
X95017790Y-105724738D01*
X94981504Y-105833595D01*
X94981504Y-105906166D01*
X95017790Y-106015023D01*
X95054076Y-106051309D01*
X95743504Y-106777023D02*
X95743504Y-106341595D01*
X95743504Y-106559309D02*
X94981504Y-106559309D01*
X95090361Y-106486738D01*
X95162933Y-106414166D01*
X95199219Y-106341595D01*
X94981504Y-107248737D02*
X94981504Y-107321309D01*
X95017790Y-107393880D01*
X95054076Y-107430166D01*
X95126647Y-107466452D01*
X95271790Y-107502737D01*
X95453219Y-107502737D01*
X95598361Y-107466452D01*
X95670933Y-107430166D01*
X95707219Y-107393880D01*
X95743504Y-107321309D01*
X95743504Y-107248737D01*
X95707219Y-107176166D01*
X95670933Y-107139880D01*
X95598361Y-107103595D01*
X95453219Y-107067309D01*
X95271790Y-107067309D01*
X95126647Y-107103595D01*
X95054076Y-107139880D01*
X95017790Y-107176166D01*
X94981504Y-107248737D01*
X95743504Y-107865594D02*
X95743504Y-108010737D01*
X95707219Y-108083309D01*
X95670933Y-108119594D01*
X95562076Y-108192166D01*
X95416933Y-108228451D01*
X95126647Y-108228451D01*
X95054076Y-108192166D01*
X95017790Y-108155880D01*
X94981504Y-108083309D01*
X94981504Y-107938166D01*
X95017790Y-107865594D01*
X95054076Y-107829309D01*
X95126647Y-107793023D01*
X95308076Y-107793023D01*
X95380647Y-107829309D01*
X95416933Y-107865594D01*
X95453219Y-107938166D01*
X95453219Y-108083309D01*
X95416933Y-108155880D01*
X95380647Y-108192166D01*
X95308076Y-108228451D01*
X88972470Y-98231350D02*
X89023786Y-98231350D01*
X89126417Y-98180034D01*
X89177733Y-98128719D01*
X89229049Y-98026088D01*
X89229049Y-97923456D01*
X89203391Y-97846483D01*
X89126417Y-97718193D01*
X89049444Y-97641219D01*
X88921154Y-97564246D01*
X88844180Y-97538587D01*
X88741549Y-97538588D01*
X88638917Y-97589903D01*
X88587602Y-97641219D01*
X88536286Y-97743850D01*
X88536286Y-97795167D01*
X88510628Y-98795823D02*
X88818522Y-98487929D01*
X88664575Y-98641876D02*
X88125760Y-98103061D01*
X88254049Y-98128719D01*
X88356681Y-98128719D01*
X88433655Y-98103061D01*
X87638261Y-98590560D02*
X87586944Y-98641876D01*
X87561287Y-98718850D01*
X87561287Y-98770166D01*
X87586944Y-98847139D01*
X87663919Y-98975428D01*
X87792208Y-99103718D01*
X87920497Y-99180691D01*
X87997471Y-99206349D01*
X88048787Y-99206349D01*
X88125760Y-99180691D01*
X88177076Y-99129375D01*
X88202734Y-99052402D01*
X88202734Y-99001086D01*
X88177075Y-98924113D01*
X88100102Y-98795824D01*
X87971813Y-98667534D01*
X87843523Y-98590561D01*
X87766550Y-98564902D01*
X87715234Y-98564902D01*
X87638261Y-98590560D01*
X87484314Y-99822138D02*
X87792208Y-99514244D01*
X87638261Y-99668191D02*
X87099445Y-99129375D01*
X87227734Y-99155033D01*
X87330367Y-99155033D01*
X87407340Y-99129376D01*
X91440911Y-98549192D02*
X91477197Y-98585478D01*
X91586054Y-98621763D01*
X91658625Y-98621763D01*
X91767482Y-98585478D01*
X91840054Y-98512906D01*
X91876339Y-98440335D01*
X91912625Y-98295192D01*
X91912625Y-98186335D01*
X91876339Y-98041192D01*
X91840054Y-97968620D01*
X91767482Y-97896049D01*
X91658625Y-97859763D01*
X91586054Y-97859763D01*
X91477197Y-97896049D01*
X91440911Y-97932335D01*
X90715197Y-98621763D02*
X91150625Y-98621763D01*
X90932911Y-98621763D02*
X90932911Y-97859763D01*
X91005482Y-97968620D01*
X91078054Y-98041192D01*
X91150625Y-98077478D01*
X90243483Y-97859763D02*
X90170911Y-97859763D01*
X90098340Y-97896049D01*
X90062054Y-97932335D01*
X90025768Y-98004906D01*
X89989483Y-98150049D01*
X89989483Y-98331478D01*
X90025768Y-98476620D01*
X90062054Y-98549192D01*
X90098340Y-98585478D01*
X90170911Y-98621763D01*
X90243483Y-98621763D01*
X90316054Y-98585478D01*
X90352340Y-98549192D01*
X90388625Y-98476620D01*
X90424911Y-98331478D01*
X90424911Y-98150049D01*
X90388625Y-98004906D01*
X90352340Y-97932335D01*
X90316054Y-97896049D01*
X90243483Y-97859763D01*
X89699197Y-97932335D02*
X89662911Y-97896049D01*
X89590340Y-97859763D01*
X89408911Y-97859763D01*
X89336340Y-97896049D01*
X89300054Y-97932335D01*
X89263769Y-98004906D01*
X89263769Y-98077478D01*
X89300054Y-98186335D01*
X89735483Y-98621763D01*
X89263769Y-98621763D01*
X86413517Y-93560089D02*
X86449803Y-93596375D01*
X86558660Y-93632660D01*
X86631231Y-93632660D01*
X86740088Y-93596375D01*
X86812660Y-93523803D01*
X86848945Y-93451232D01*
X86885231Y-93306089D01*
X86885231Y-93197232D01*
X86848945Y-93052089D01*
X86812660Y-92979517D01*
X86740088Y-92906946D01*
X86631231Y-92870660D01*
X86558660Y-92870660D01*
X86449803Y-92906946D01*
X86413517Y-92943232D01*
X85687803Y-93632660D02*
X86123231Y-93632660D01*
X85905517Y-93632660D02*
X85905517Y-92870660D01*
X85978088Y-92979517D01*
X86050660Y-93052089D01*
X86123231Y-93088375D01*
X85216089Y-92870660D02*
X85143517Y-92870660D01*
X85070946Y-92906946D01*
X85034660Y-92943232D01*
X84998374Y-93015803D01*
X84962089Y-93160946D01*
X84962089Y-93342375D01*
X84998374Y-93487517D01*
X85034660Y-93560089D01*
X85070946Y-93596375D01*
X85143517Y-93632660D01*
X85216089Y-93632660D01*
X85288660Y-93596375D01*
X85324946Y-93560089D01*
X85361231Y-93487517D01*
X85397517Y-93342375D01*
X85397517Y-93160946D01*
X85361231Y-93015803D01*
X85324946Y-92943232D01*
X85288660Y-92906946D01*
X85216089Y-92870660D01*
X84708089Y-92870660D02*
X84236375Y-92870660D01*
X84490375Y-93160946D01*
X84381517Y-93160946D01*
X84308946Y-93197232D01*
X84272660Y-93233517D01*
X84236375Y-93306089D01*
X84236375Y-93487517D01*
X84272660Y-93560089D01*
X84308946Y-93596375D01*
X84381517Y-93632660D01*
X84599232Y-93632660D01*
X84671803Y-93596375D01*
X84708089Y-93560089D01*
X90823143Y-117892286D02*
X90859429Y-117856000D01*
X90895714Y-117747143D01*
X90895714Y-117674572D01*
X90859429Y-117565715D01*
X90786857Y-117493143D01*
X90714286Y-117456858D01*
X90569143Y-117420572D01*
X90460286Y-117420572D01*
X90315143Y-117456858D01*
X90242571Y-117493143D01*
X90170000Y-117565715D01*
X90133714Y-117674572D01*
X90133714Y-117747143D01*
X90170000Y-117856000D01*
X90206286Y-117892286D01*
X90206286Y-118182572D02*
X90170000Y-118218858D01*
X90133714Y-118291429D01*
X90133714Y-118472858D01*
X90170000Y-118545429D01*
X90206286Y-118581715D01*
X90278857Y-118618000D01*
X90351429Y-118618000D01*
X90460286Y-118581715D01*
X90895714Y-118146286D01*
X90895714Y-118618000D01*
X90133714Y-119089714D02*
X90133714Y-119162286D01*
X90170000Y-119234857D01*
X90206286Y-119271143D01*
X90278857Y-119307429D01*
X90424000Y-119343714D01*
X90605429Y-119343714D01*
X90750571Y-119307429D01*
X90823143Y-119271143D01*
X90859429Y-119234857D01*
X90895714Y-119162286D01*
X90895714Y-119089714D01*
X90859429Y-119017143D01*
X90823143Y-118980857D01*
X90750571Y-118944572D01*
X90605429Y-118908286D01*
X90424000Y-118908286D01*
X90278857Y-118944572D01*
X90206286Y-118980857D01*
X90170000Y-119017143D01*
X90133714Y-119089714D01*
X90895714Y-120069428D02*
X90895714Y-119634000D01*
X90895714Y-119851714D02*
X90133714Y-119851714D01*
X90242571Y-119779143D01*
X90315143Y-119706571D01*
X90351429Y-119634000D01*
X81116714Y-132352143D02*
X81153000Y-132388429D01*
X81261857Y-132424714D01*
X81334428Y-132424714D01*
X81443285Y-132388429D01*
X81515857Y-132315857D01*
X81552142Y-132243286D01*
X81588428Y-132098143D01*
X81588428Y-131989286D01*
X81552142Y-131844143D01*
X81515857Y-131771571D01*
X81443285Y-131699000D01*
X81334428Y-131662714D01*
X81261857Y-131662714D01*
X81153000Y-131699000D01*
X81116714Y-131735286D01*
X80862714Y-131662714D02*
X80391000Y-131662714D01*
X80645000Y-131953000D01*
X80536142Y-131953000D01*
X80463571Y-131989286D01*
X80427285Y-132025571D01*
X80391000Y-132098143D01*
X80391000Y-132279571D01*
X80427285Y-132352143D01*
X80463571Y-132388429D01*
X80536142Y-132424714D01*
X80753857Y-132424714D01*
X80826428Y-132388429D01*
X80862714Y-132352143D01*
X79919286Y-131662714D02*
X79846714Y-131662714D01*
X79774143Y-131699000D01*
X79737857Y-131735286D01*
X79701571Y-131807857D01*
X79665286Y-131953000D01*
X79665286Y-132134429D01*
X79701571Y-132279571D01*
X79737857Y-132352143D01*
X79774143Y-132388429D01*
X79846714Y-132424714D01*
X79919286Y-132424714D01*
X79991857Y-132388429D01*
X80028143Y-132352143D01*
X80064428Y-132279571D01*
X80100714Y-132134429D01*
X80100714Y-131953000D01*
X80064428Y-131807857D01*
X80028143Y-131735286D01*
X79991857Y-131699000D01*
X79919286Y-131662714D01*
X78939572Y-132424714D02*
X79375000Y-132424714D01*
X79157286Y-132424714D02*
X79157286Y-131662714D01*
X79229857Y-131771571D01*
X79302429Y-131844143D01*
X79375000Y-131880429D01*
X101491143Y-133767286D02*
X101527429Y-133731000D01*
X101563714Y-133622143D01*
X101563714Y-133549572D01*
X101527429Y-133440715D01*
X101454857Y-133368143D01*
X101382286Y-133331858D01*
X101237143Y-133295572D01*
X101128286Y-133295572D01*
X100983143Y-133331858D01*
X100910571Y-133368143D01*
X100838000Y-133440715D01*
X100801714Y-133549572D01*
X100801714Y-133622143D01*
X100838000Y-133731000D01*
X100874286Y-133767286D01*
X100801714Y-134021286D02*
X100801714Y-134493000D01*
X101092000Y-134239000D01*
X101092000Y-134347858D01*
X101128286Y-134420429D01*
X101164571Y-134456715D01*
X101237143Y-134493000D01*
X101418571Y-134493000D01*
X101491143Y-134456715D01*
X101527429Y-134420429D01*
X101563714Y-134347858D01*
X101563714Y-134130143D01*
X101527429Y-134057572D01*
X101491143Y-134021286D01*
X100801714Y-134964714D02*
X100801714Y-135037286D01*
X100838000Y-135109857D01*
X100874286Y-135146143D01*
X100946857Y-135182429D01*
X101092000Y-135218714D01*
X101273429Y-135218714D01*
X101418571Y-135182429D01*
X101491143Y-135146143D01*
X101527429Y-135109857D01*
X101563714Y-135037286D01*
X101563714Y-134964714D01*
X101527429Y-134892143D01*
X101491143Y-134855857D01*
X101418571Y-134819572D01*
X101273429Y-134783286D01*
X101092000Y-134783286D01*
X100946857Y-134819572D01*
X100874286Y-134855857D01*
X100838000Y-134892143D01*
X100801714Y-134964714D01*
X100874286Y-135509000D02*
X100838000Y-135545286D01*
X100801714Y-135617857D01*
X100801714Y-135799286D01*
X100838000Y-135871857D01*
X100874286Y-135908143D01*
X100946857Y-135944428D01*
X101019429Y-135944428D01*
X101128286Y-135908143D01*
X101563714Y-135472714D01*
X101563714Y-135944428D01*
X99332143Y-134021286D02*
X99368429Y-133985000D01*
X99404714Y-133876143D01*
X99404714Y-133803572D01*
X99368429Y-133694715D01*
X99295857Y-133622143D01*
X99223286Y-133585858D01*
X99078143Y-133549572D01*
X98969286Y-133549572D01*
X98824143Y-133585858D01*
X98751571Y-133622143D01*
X98679000Y-133694715D01*
X98642714Y-133803572D01*
X98642714Y-133876143D01*
X98679000Y-133985000D01*
X98715286Y-134021286D01*
X98642714Y-134275286D02*
X98642714Y-134747000D01*
X98933000Y-134493000D01*
X98933000Y-134601858D01*
X98969286Y-134674429D01*
X99005571Y-134710715D01*
X99078143Y-134747000D01*
X99259571Y-134747000D01*
X99332143Y-134710715D01*
X99368429Y-134674429D01*
X99404714Y-134601858D01*
X99404714Y-134384143D01*
X99368429Y-134311572D01*
X99332143Y-134275286D01*
X98642714Y-135218714D02*
X98642714Y-135291286D01*
X98679000Y-135363857D01*
X98715286Y-135400143D01*
X98787857Y-135436429D01*
X98933000Y-135472714D01*
X99114429Y-135472714D01*
X99259571Y-135436429D01*
X99332143Y-135400143D01*
X99368429Y-135363857D01*
X99404714Y-135291286D01*
X99404714Y-135218714D01*
X99368429Y-135146143D01*
X99332143Y-135109857D01*
X99259571Y-135073572D01*
X99114429Y-135037286D01*
X98933000Y-135037286D01*
X98787857Y-135073572D01*
X98715286Y-135109857D01*
X98679000Y-135146143D01*
X98642714Y-135218714D01*
X98642714Y-135726714D02*
X98642714Y-136198428D01*
X98933000Y-135944428D01*
X98933000Y-136053286D01*
X98969286Y-136125857D01*
X99005571Y-136162143D01*
X99078143Y-136198428D01*
X99259571Y-136198428D01*
X99332143Y-136162143D01*
X99368429Y-136125857D01*
X99404714Y-136053286D01*
X99404714Y-135835571D01*
X99368429Y-135763000D01*
X99332143Y-135726714D01*
X91581514Y-127449943D02*
X91617800Y-127486229D01*
X91726657Y-127522514D01*
X91799228Y-127522514D01*
X91908085Y-127486229D01*
X91980657Y-127413657D01*
X92016942Y-127341086D01*
X92053228Y-127195943D01*
X92053228Y-127087086D01*
X92016942Y-126941943D01*
X91980657Y-126869371D01*
X91908085Y-126796800D01*
X91799228Y-126760514D01*
X91726657Y-126760514D01*
X91617800Y-126796800D01*
X91581514Y-126833086D01*
X91327514Y-126760514D02*
X90855800Y-126760514D01*
X91109800Y-127050800D01*
X91000942Y-127050800D01*
X90928371Y-127087086D01*
X90892085Y-127123371D01*
X90855800Y-127195943D01*
X90855800Y-127377371D01*
X90892085Y-127449943D01*
X90928371Y-127486229D01*
X91000942Y-127522514D01*
X91218657Y-127522514D01*
X91291228Y-127486229D01*
X91327514Y-127449943D01*
X90384086Y-126760514D02*
X90311514Y-126760514D01*
X90238943Y-126796800D01*
X90202657Y-126833086D01*
X90166371Y-126905657D01*
X90130086Y-127050800D01*
X90130086Y-127232229D01*
X90166371Y-127377371D01*
X90202657Y-127449943D01*
X90238943Y-127486229D01*
X90311514Y-127522514D01*
X90384086Y-127522514D01*
X90456657Y-127486229D01*
X90492943Y-127449943D01*
X90529228Y-127377371D01*
X90565514Y-127232229D01*
X90565514Y-127050800D01*
X90529228Y-126905657D01*
X90492943Y-126833086D01*
X90456657Y-126796800D01*
X90384086Y-126760514D01*
X89476943Y-127014514D02*
X89476943Y-127522514D01*
X89658372Y-126724229D02*
X89839800Y-127268514D01*
X89368086Y-127268514D01*
X106825143Y-128560286D02*
X106861429Y-128524000D01*
X106897714Y-128415143D01*
X106897714Y-128342572D01*
X106861429Y-128233715D01*
X106788857Y-128161143D01*
X106716286Y-128124858D01*
X106571143Y-128088572D01*
X106462286Y-128088572D01*
X106317143Y-128124858D01*
X106244571Y-128161143D01*
X106172000Y-128233715D01*
X106135714Y-128342572D01*
X106135714Y-128415143D01*
X106172000Y-128524000D01*
X106208286Y-128560286D01*
X106135714Y-128814286D02*
X106135714Y-129286000D01*
X106426000Y-129032000D01*
X106426000Y-129140858D01*
X106462286Y-129213429D01*
X106498571Y-129249715D01*
X106571143Y-129286000D01*
X106752571Y-129286000D01*
X106825143Y-129249715D01*
X106861429Y-129213429D01*
X106897714Y-129140858D01*
X106897714Y-128923143D01*
X106861429Y-128850572D01*
X106825143Y-128814286D01*
X106135714Y-129757714D02*
X106135714Y-129830286D01*
X106172000Y-129902857D01*
X106208286Y-129939143D01*
X106280857Y-129975429D01*
X106426000Y-130011714D01*
X106607429Y-130011714D01*
X106752571Y-129975429D01*
X106825143Y-129939143D01*
X106861429Y-129902857D01*
X106897714Y-129830286D01*
X106897714Y-129757714D01*
X106861429Y-129685143D01*
X106825143Y-129648857D01*
X106752571Y-129612572D01*
X106607429Y-129576286D01*
X106426000Y-129576286D01*
X106280857Y-129612572D01*
X106208286Y-129648857D01*
X106172000Y-129685143D01*
X106135714Y-129757714D01*
X106135714Y-130701143D02*
X106135714Y-130338286D01*
X106498571Y-130302000D01*
X106462286Y-130338286D01*
X106426000Y-130410857D01*
X106426000Y-130592286D01*
X106462286Y-130664857D01*
X106498571Y-130701143D01*
X106571143Y-130737428D01*
X106752571Y-130737428D01*
X106825143Y-130701143D01*
X106861429Y-130664857D01*
X106897714Y-130592286D01*
X106897714Y-130410857D01*
X106861429Y-130338286D01*
X106825143Y-130302000D01*
X105881714Y-132479143D02*
X105918000Y-132515429D01*
X106026857Y-132551714D01*
X106099428Y-132551714D01*
X106208285Y-132515429D01*
X106280857Y-132442857D01*
X106317142Y-132370286D01*
X106353428Y-132225143D01*
X106353428Y-132116286D01*
X106317142Y-131971143D01*
X106280857Y-131898571D01*
X106208285Y-131826000D01*
X106099428Y-131789714D01*
X106026857Y-131789714D01*
X105918000Y-131826000D01*
X105881714Y-131862286D01*
X105627714Y-131789714D02*
X105156000Y-131789714D01*
X105410000Y-132080000D01*
X105301142Y-132080000D01*
X105228571Y-132116286D01*
X105192285Y-132152571D01*
X105156000Y-132225143D01*
X105156000Y-132406571D01*
X105192285Y-132479143D01*
X105228571Y-132515429D01*
X105301142Y-132551714D01*
X105518857Y-132551714D01*
X105591428Y-132515429D01*
X105627714Y-132479143D01*
X104684286Y-131789714D02*
X104611714Y-131789714D01*
X104539143Y-131826000D01*
X104502857Y-131862286D01*
X104466571Y-131934857D01*
X104430286Y-132080000D01*
X104430286Y-132261429D01*
X104466571Y-132406571D01*
X104502857Y-132479143D01*
X104539143Y-132515429D01*
X104611714Y-132551714D01*
X104684286Y-132551714D01*
X104756857Y-132515429D01*
X104793143Y-132479143D01*
X104829428Y-132406571D01*
X104865714Y-132261429D01*
X104865714Y-132080000D01*
X104829428Y-131934857D01*
X104793143Y-131862286D01*
X104756857Y-131826000D01*
X104684286Y-131789714D01*
X103777143Y-131789714D02*
X103922286Y-131789714D01*
X103994857Y-131826000D01*
X104031143Y-131862286D01*
X104103714Y-131971143D01*
X104140000Y-132116286D01*
X104140000Y-132406571D01*
X104103714Y-132479143D01*
X104067429Y-132515429D01*
X103994857Y-132551714D01*
X103849714Y-132551714D01*
X103777143Y-132515429D01*
X103740857Y-132479143D01*
X103704572Y-132406571D01*
X103704572Y-132225143D01*
X103740857Y-132152571D01*
X103777143Y-132116286D01*
X103849714Y-132080000D01*
X103994857Y-132080000D01*
X104067429Y-132116286D01*
X104103714Y-132152571D01*
X104140000Y-132225143D01*
X93867514Y-81621086D02*
X93504657Y-81367086D01*
X93867514Y-81185658D02*
X93105514Y-81185658D01*
X93105514Y-81475943D01*
X93141800Y-81548515D01*
X93178086Y-81584800D01*
X93250657Y-81621086D01*
X93359514Y-81621086D01*
X93432086Y-81584800D01*
X93468371Y-81548515D01*
X93504657Y-81475943D01*
X93504657Y-81185658D01*
X93178086Y-81911372D02*
X93141800Y-81947658D01*
X93105514Y-82020229D01*
X93105514Y-82201658D01*
X93141800Y-82274229D01*
X93178086Y-82310515D01*
X93250657Y-82346800D01*
X93323229Y-82346800D01*
X93432086Y-82310515D01*
X93867514Y-81875086D01*
X93867514Y-82346800D01*
X93105514Y-82818514D02*
X93105514Y-82891086D01*
X93141800Y-82963657D01*
X93178086Y-82999943D01*
X93250657Y-83036229D01*
X93395800Y-83072514D01*
X93577229Y-83072514D01*
X93722371Y-83036229D01*
X93794943Y-82999943D01*
X93831229Y-82963657D01*
X93867514Y-82891086D01*
X93867514Y-82818514D01*
X93831229Y-82745943D01*
X93794943Y-82709657D01*
X93722371Y-82673372D01*
X93577229Y-82637086D01*
X93395800Y-82637086D01*
X93250657Y-82673372D01*
X93178086Y-82709657D01*
X93141800Y-82745943D01*
X93105514Y-82818514D01*
X93867514Y-83798228D02*
X93867514Y-83362800D01*
X93867514Y-83580514D02*
X93105514Y-83580514D01*
X93214371Y-83507943D01*
X93286943Y-83435371D01*
X93323229Y-83362800D01*
X88787514Y-81519486D02*
X88424657Y-81265486D01*
X88787514Y-81084058D02*
X88025514Y-81084058D01*
X88025514Y-81374343D01*
X88061800Y-81446915D01*
X88098086Y-81483200D01*
X88170657Y-81519486D01*
X88279514Y-81519486D01*
X88352086Y-81483200D01*
X88388371Y-81446915D01*
X88424657Y-81374343D01*
X88424657Y-81084058D01*
X88098086Y-81809772D02*
X88061800Y-81846058D01*
X88025514Y-81918629D01*
X88025514Y-82100058D01*
X88061800Y-82172629D01*
X88098086Y-82208915D01*
X88170657Y-82245200D01*
X88243229Y-82245200D01*
X88352086Y-82208915D01*
X88787514Y-81773486D01*
X88787514Y-82245200D01*
X88025514Y-82716914D02*
X88025514Y-82789486D01*
X88061800Y-82862057D01*
X88098086Y-82898343D01*
X88170657Y-82934629D01*
X88315800Y-82970914D01*
X88497229Y-82970914D01*
X88642371Y-82934629D01*
X88714943Y-82898343D01*
X88751229Y-82862057D01*
X88787514Y-82789486D01*
X88787514Y-82716914D01*
X88751229Y-82644343D01*
X88714943Y-82608057D01*
X88642371Y-82571772D01*
X88497229Y-82535486D01*
X88315800Y-82535486D01*
X88170657Y-82571772D01*
X88098086Y-82608057D01*
X88061800Y-82644343D01*
X88025514Y-82716914D01*
X88098086Y-83261200D02*
X88061800Y-83297486D01*
X88025514Y-83370057D01*
X88025514Y-83551486D01*
X88061800Y-83624057D01*
X88098086Y-83660343D01*
X88170657Y-83696628D01*
X88243229Y-83696628D01*
X88352086Y-83660343D01*
X88787514Y-83224914D01*
X88787514Y-83696628D01*
X83148714Y-81265486D02*
X82785857Y-81011486D01*
X83148714Y-80830058D02*
X82386714Y-80830058D01*
X82386714Y-81120343D01*
X82423000Y-81192915D01*
X82459286Y-81229200D01*
X82531857Y-81265486D01*
X82640714Y-81265486D01*
X82713286Y-81229200D01*
X82749571Y-81192915D01*
X82785857Y-81120343D01*
X82785857Y-80830058D01*
X82459286Y-81555772D02*
X82423000Y-81592058D01*
X82386714Y-81664629D01*
X82386714Y-81846058D01*
X82423000Y-81918629D01*
X82459286Y-81954915D01*
X82531857Y-81991200D01*
X82604429Y-81991200D01*
X82713286Y-81954915D01*
X83148714Y-81519486D01*
X83148714Y-81991200D01*
X82386714Y-82462914D02*
X82386714Y-82535486D01*
X82423000Y-82608057D01*
X82459286Y-82644343D01*
X82531857Y-82680629D01*
X82677000Y-82716914D01*
X82858429Y-82716914D01*
X83003571Y-82680629D01*
X83076143Y-82644343D01*
X83112429Y-82608057D01*
X83148714Y-82535486D01*
X83148714Y-82462914D01*
X83112429Y-82390343D01*
X83076143Y-82354057D01*
X83003571Y-82317772D01*
X82858429Y-82281486D01*
X82677000Y-82281486D01*
X82531857Y-82317772D01*
X82459286Y-82354057D01*
X82423000Y-82390343D01*
X82386714Y-82462914D01*
X82386714Y-82970914D02*
X82386714Y-83442628D01*
X82677000Y-83188628D01*
X82677000Y-83297486D01*
X82713286Y-83370057D01*
X82749571Y-83406343D01*
X82822143Y-83442628D01*
X83003571Y-83442628D01*
X83076143Y-83406343D01*
X83112429Y-83370057D01*
X83148714Y-83297486D01*
X83148714Y-83079771D01*
X83112429Y-83007200D01*
X83076143Y-82970914D01*
X98972914Y-81595686D02*
X98610057Y-81341686D01*
X98972914Y-81160258D02*
X98210914Y-81160258D01*
X98210914Y-81450543D01*
X98247200Y-81523115D01*
X98283486Y-81559400D01*
X98356057Y-81595686D01*
X98464914Y-81595686D01*
X98537486Y-81559400D01*
X98573771Y-81523115D01*
X98610057Y-81450543D01*
X98610057Y-81160258D01*
X98283486Y-81885972D02*
X98247200Y-81922258D01*
X98210914Y-81994829D01*
X98210914Y-82176258D01*
X98247200Y-82248829D01*
X98283486Y-82285115D01*
X98356057Y-82321400D01*
X98428629Y-82321400D01*
X98537486Y-82285115D01*
X98972914Y-81849686D01*
X98972914Y-82321400D01*
X98210914Y-82793114D02*
X98210914Y-82865686D01*
X98247200Y-82938257D01*
X98283486Y-82974543D01*
X98356057Y-83010829D01*
X98501200Y-83047114D01*
X98682629Y-83047114D01*
X98827771Y-83010829D01*
X98900343Y-82974543D01*
X98936629Y-82938257D01*
X98972914Y-82865686D01*
X98972914Y-82793114D01*
X98936629Y-82720543D01*
X98900343Y-82684257D01*
X98827771Y-82647972D01*
X98682629Y-82611686D01*
X98501200Y-82611686D01*
X98356057Y-82647972D01*
X98283486Y-82684257D01*
X98247200Y-82720543D01*
X98210914Y-82793114D01*
X98464914Y-83700257D02*
X98972914Y-83700257D01*
X98174629Y-83518828D02*
X98718914Y-83337400D01*
X98718914Y-83809114D01*
X83097914Y-107321314D02*
X83351914Y-106958457D01*
X83533342Y-107321314D02*
X83533342Y-106559314D01*
X83243057Y-106559314D01*
X83170485Y-106595600D01*
X83134200Y-106631886D01*
X83097914Y-106704457D01*
X83097914Y-106813314D01*
X83134200Y-106885886D01*
X83170485Y-106922171D01*
X83243057Y-106958457D01*
X83533342Y-106958457D01*
X82807628Y-106631886D02*
X82771342Y-106595600D01*
X82698771Y-106559314D01*
X82517342Y-106559314D01*
X82444771Y-106595600D01*
X82408485Y-106631886D01*
X82372200Y-106704457D01*
X82372200Y-106777029D01*
X82408485Y-106885886D01*
X82843914Y-107321314D01*
X82372200Y-107321314D01*
X81900486Y-106559314D02*
X81827914Y-106559314D01*
X81755343Y-106595600D01*
X81719057Y-106631886D01*
X81682771Y-106704457D01*
X81646486Y-106849600D01*
X81646486Y-107031029D01*
X81682771Y-107176171D01*
X81719057Y-107248743D01*
X81755343Y-107285029D01*
X81827914Y-107321314D01*
X81900486Y-107321314D01*
X81973057Y-107285029D01*
X82009343Y-107248743D01*
X82045628Y-107176171D01*
X82081914Y-107031029D01*
X82081914Y-106849600D01*
X82045628Y-106704457D01*
X82009343Y-106631886D01*
X81973057Y-106595600D01*
X81900486Y-106559314D01*
X80957057Y-106559314D02*
X81319914Y-106559314D01*
X81356200Y-106922171D01*
X81319914Y-106885886D01*
X81247343Y-106849600D01*
X81065914Y-106849600D01*
X80993343Y-106885886D01*
X80957057Y-106922171D01*
X80920772Y-106994743D01*
X80920772Y-107176171D01*
X80957057Y-107248743D01*
X80993343Y-107285029D01*
X81065914Y-107321314D01*
X81247343Y-107321314D01*
X81319914Y-107285029D01*
X81356200Y-107248743D01*
X90768714Y-121194286D02*
X90405857Y-120940286D01*
X90768714Y-120758858D02*
X90006714Y-120758858D01*
X90006714Y-121049143D01*
X90043000Y-121121715D01*
X90079286Y-121158000D01*
X90151857Y-121194286D01*
X90260714Y-121194286D01*
X90333286Y-121158000D01*
X90369571Y-121121715D01*
X90405857Y-121049143D01*
X90405857Y-120758858D01*
X90006714Y-121448286D02*
X90006714Y-121920000D01*
X90297000Y-121666000D01*
X90297000Y-121774858D01*
X90333286Y-121847429D01*
X90369571Y-121883715D01*
X90442143Y-121920000D01*
X90623571Y-121920000D01*
X90696143Y-121883715D01*
X90732429Y-121847429D01*
X90768714Y-121774858D01*
X90768714Y-121557143D01*
X90732429Y-121484572D01*
X90696143Y-121448286D01*
X90006714Y-122391714D02*
X90006714Y-122464286D01*
X90043000Y-122536857D01*
X90079286Y-122573143D01*
X90151857Y-122609429D01*
X90297000Y-122645714D01*
X90478429Y-122645714D01*
X90623571Y-122609429D01*
X90696143Y-122573143D01*
X90732429Y-122536857D01*
X90768714Y-122464286D01*
X90768714Y-122391714D01*
X90732429Y-122319143D01*
X90696143Y-122282857D01*
X90623571Y-122246572D01*
X90478429Y-122210286D01*
X90297000Y-122210286D01*
X90151857Y-122246572D01*
X90079286Y-122282857D01*
X90043000Y-122319143D01*
X90006714Y-122391714D01*
X90768714Y-123371428D02*
X90768714Y-122936000D01*
X90768714Y-123153714D02*
X90006714Y-123153714D01*
X90115571Y-123081143D01*
X90188143Y-123008571D01*
X90224429Y-122936000D01*
X88609714Y-121321287D02*
X88246857Y-121067287D01*
X88609714Y-120885859D02*
X87847714Y-120885859D01*
X87847714Y-121176144D01*
X87884000Y-121248716D01*
X87920286Y-121285001D01*
X87992857Y-121321287D01*
X88101714Y-121321287D01*
X88174286Y-121285001D01*
X88210571Y-121248716D01*
X88246857Y-121176144D01*
X88246857Y-120885859D01*
X87847714Y-121575287D02*
X87847714Y-122047001D01*
X88138000Y-121793001D01*
X88138000Y-121901859D01*
X88174286Y-121974430D01*
X88210571Y-122010716D01*
X88283143Y-122047001D01*
X88464571Y-122047001D01*
X88537143Y-122010716D01*
X88573429Y-121974430D01*
X88609714Y-121901859D01*
X88609714Y-121684144D01*
X88573429Y-121611573D01*
X88537143Y-121575287D01*
X87847714Y-122518715D02*
X87847714Y-122591287D01*
X87884000Y-122663858D01*
X87920286Y-122700144D01*
X87992857Y-122736430D01*
X88138000Y-122772715D01*
X88319429Y-122772715D01*
X88464571Y-122736430D01*
X88537143Y-122700144D01*
X88573429Y-122663858D01*
X88609714Y-122591287D01*
X88609714Y-122518715D01*
X88573429Y-122446144D01*
X88537143Y-122409858D01*
X88464571Y-122373573D01*
X88319429Y-122337287D01*
X88138000Y-122337287D01*
X87992857Y-122373573D01*
X87920286Y-122409858D01*
X87884000Y-122446144D01*
X87847714Y-122518715D01*
X87920286Y-123063001D02*
X87884000Y-123099287D01*
X87847714Y-123171858D01*
X87847714Y-123353287D01*
X87884000Y-123425858D01*
X87920286Y-123462144D01*
X87992857Y-123498429D01*
X88065429Y-123498429D01*
X88174286Y-123462144D01*
X88609714Y-123026715D01*
X88609714Y-123498429D01*
X86450714Y-121321286D02*
X86087857Y-121067286D01*
X86450714Y-120885858D02*
X85688714Y-120885858D01*
X85688714Y-121176143D01*
X85725000Y-121248715D01*
X85761286Y-121285000D01*
X85833857Y-121321286D01*
X85942714Y-121321286D01*
X86015286Y-121285000D01*
X86051571Y-121248715D01*
X86087857Y-121176143D01*
X86087857Y-120885858D01*
X85688714Y-121575286D02*
X85688714Y-122047000D01*
X85979000Y-121793000D01*
X85979000Y-121901858D01*
X86015286Y-121974429D01*
X86051571Y-122010715D01*
X86124143Y-122047000D01*
X86305571Y-122047000D01*
X86378143Y-122010715D01*
X86414429Y-121974429D01*
X86450714Y-121901858D01*
X86450714Y-121684143D01*
X86414429Y-121611572D01*
X86378143Y-121575286D01*
X85688714Y-122518714D02*
X85688714Y-122591286D01*
X85725000Y-122663857D01*
X85761286Y-122700143D01*
X85833857Y-122736429D01*
X85979000Y-122772714D01*
X86160429Y-122772714D01*
X86305571Y-122736429D01*
X86378143Y-122700143D01*
X86414429Y-122663857D01*
X86450714Y-122591286D01*
X86450714Y-122518714D01*
X86414429Y-122446143D01*
X86378143Y-122409857D01*
X86305571Y-122373572D01*
X86160429Y-122337286D01*
X85979000Y-122337286D01*
X85833857Y-122373572D01*
X85761286Y-122409857D01*
X85725000Y-122446143D01*
X85688714Y-122518714D01*
X85688714Y-123026714D02*
X85688714Y-123498428D01*
X85979000Y-123244428D01*
X85979000Y-123353286D01*
X86015286Y-123425857D01*
X86051571Y-123462143D01*
X86124143Y-123498428D01*
X86305571Y-123498428D01*
X86378143Y-123462143D01*
X86414429Y-123425857D01*
X86450714Y-123353286D01*
X86450714Y-123135571D01*
X86414429Y-123063000D01*
X86378143Y-123026714D01*
X88931714Y-123480286D02*
X88568857Y-123226286D01*
X88931714Y-123044858D02*
X88169714Y-123044858D01*
X88169714Y-123335143D01*
X88206000Y-123407715D01*
X88242286Y-123444000D01*
X88314857Y-123480286D01*
X88423714Y-123480286D01*
X88496286Y-123444000D01*
X88532571Y-123407715D01*
X88568857Y-123335143D01*
X88568857Y-123044858D01*
X88169714Y-123734286D02*
X88169714Y-124206000D01*
X88460000Y-123952000D01*
X88460000Y-124060858D01*
X88496286Y-124133429D01*
X88532571Y-124169715D01*
X88605143Y-124206000D01*
X88786571Y-124206000D01*
X88859143Y-124169715D01*
X88895429Y-124133429D01*
X88931714Y-124060858D01*
X88931714Y-123843143D01*
X88895429Y-123770572D01*
X88859143Y-123734286D01*
X88169714Y-124677714D02*
X88169714Y-124750286D01*
X88206000Y-124822857D01*
X88242286Y-124859143D01*
X88314857Y-124895429D01*
X88460000Y-124931714D01*
X88641429Y-124931714D01*
X88786571Y-124895429D01*
X88859143Y-124859143D01*
X88895429Y-124822857D01*
X88931714Y-124750286D01*
X88931714Y-124677714D01*
X88895429Y-124605143D01*
X88859143Y-124568857D01*
X88786571Y-124532572D01*
X88641429Y-124496286D01*
X88460000Y-124496286D01*
X88314857Y-124532572D01*
X88242286Y-124568857D01*
X88206000Y-124605143D01*
X88169714Y-124677714D01*
X88423714Y-125584857D02*
X88931714Y-125584857D01*
X88133429Y-125403428D02*
X88677714Y-125222000D01*
X88677714Y-125693714D01*
X83656714Y-128614714D02*
X83910714Y-128251857D01*
X84092142Y-128614714D02*
X84092142Y-127852714D01*
X83801857Y-127852714D01*
X83729285Y-127889000D01*
X83693000Y-127925286D01*
X83656714Y-127997857D01*
X83656714Y-128106714D01*
X83693000Y-128179286D01*
X83729285Y-128215571D01*
X83801857Y-128251857D01*
X84092142Y-128251857D01*
X83402714Y-127852714D02*
X82931000Y-127852714D01*
X83185000Y-128143000D01*
X83076142Y-128143000D01*
X83003571Y-128179286D01*
X82967285Y-128215571D01*
X82931000Y-128288143D01*
X82931000Y-128469571D01*
X82967285Y-128542143D01*
X83003571Y-128578429D01*
X83076142Y-128614714D01*
X83293857Y-128614714D01*
X83366428Y-128578429D01*
X83402714Y-128542143D01*
X82459286Y-127852714D02*
X82386714Y-127852714D01*
X82314143Y-127889000D01*
X82277857Y-127925286D01*
X82241571Y-127997857D01*
X82205286Y-128143000D01*
X82205286Y-128324429D01*
X82241571Y-128469571D01*
X82277857Y-128542143D01*
X82314143Y-128578429D01*
X82386714Y-128614714D01*
X82459286Y-128614714D01*
X82531857Y-128578429D01*
X82568143Y-128542143D01*
X82604428Y-128469571D01*
X82640714Y-128324429D01*
X82640714Y-128143000D01*
X82604428Y-127997857D01*
X82568143Y-127925286D01*
X82531857Y-127889000D01*
X82459286Y-127852714D01*
X81515857Y-127852714D02*
X81878714Y-127852714D01*
X81915000Y-128215571D01*
X81878714Y-128179286D01*
X81806143Y-128143000D01*
X81624714Y-128143000D01*
X81552143Y-128179286D01*
X81515857Y-128215571D01*
X81479572Y-128288143D01*
X81479572Y-128469571D01*
X81515857Y-128542143D01*
X81552143Y-128578429D01*
X81624714Y-128614714D01*
X81806143Y-128614714D01*
X81878714Y-128578429D01*
X81915000Y-128542143D01*
X94197714Y-125761714D02*
X94451714Y-125398857D01*
X94633142Y-125761714D02*
X94633142Y-124999714D01*
X94342857Y-124999714D01*
X94270285Y-125036000D01*
X94234000Y-125072286D01*
X94197714Y-125144857D01*
X94197714Y-125253714D01*
X94234000Y-125326286D01*
X94270285Y-125362571D01*
X94342857Y-125398857D01*
X94633142Y-125398857D01*
X93943714Y-124999714D02*
X93472000Y-124999714D01*
X93726000Y-125290000D01*
X93617142Y-125290000D01*
X93544571Y-125326286D01*
X93508285Y-125362571D01*
X93472000Y-125435143D01*
X93472000Y-125616571D01*
X93508285Y-125689143D01*
X93544571Y-125725429D01*
X93617142Y-125761714D01*
X93834857Y-125761714D01*
X93907428Y-125725429D01*
X93943714Y-125689143D01*
X93000286Y-124999714D02*
X92927714Y-124999714D01*
X92855143Y-125036000D01*
X92818857Y-125072286D01*
X92782571Y-125144857D01*
X92746286Y-125290000D01*
X92746286Y-125471429D01*
X92782571Y-125616571D01*
X92818857Y-125689143D01*
X92855143Y-125725429D01*
X92927714Y-125761714D01*
X93000286Y-125761714D01*
X93072857Y-125725429D01*
X93109143Y-125689143D01*
X93145428Y-125616571D01*
X93181714Y-125471429D01*
X93181714Y-125290000D01*
X93145428Y-125144857D01*
X93109143Y-125072286D01*
X93072857Y-125036000D01*
X93000286Y-124999714D01*
X92093143Y-124999714D02*
X92238286Y-124999714D01*
X92310857Y-125036000D01*
X92347143Y-125072286D01*
X92419714Y-125181143D01*
X92456000Y-125326286D01*
X92456000Y-125616571D01*
X92419714Y-125689143D01*
X92383429Y-125725429D01*
X92310857Y-125761714D01*
X92165714Y-125761714D01*
X92093143Y-125725429D01*
X92056857Y-125689143D01*
X92020572Y-125616571D01*
X92020572Y-125435143D01*
X92056857Y-125362571D01*
X92093143Y-125326286D01*
X92165714Y-125290000D01*
X92310857Y-125290000D01*
X92383429Y-125326286D01*
X92419714Y-125362571D01*
X92456000Y-125435143D01*
X94197714Y-128047714D02*
X94451714Y-127684857D01*
X94633142Y-128047714D02*
X94633142Y-127285714D01*
X94342857Y-127285714D01*
X94270285Y-127322000D01*
X94234000Y-127358286D01*
X94197714Y-127430857D01*
X94197714Y-127539714D01*
X94234000Y-127612286D01*
X94270285Y-127648571D01*
X94342857Y-127684857D01*
X94633142Y-127684857D01*
X93943714Y-127285714D02*
X93472000Y-127285714D01*
X93726000Y-127576000D01*
X93617142Y-127576000D01*
X93544571Y-127612286D01*
X93508285Y-127648571D01*
X93472000Y-127721143D01*
X93472000Y-127902571D01*
X93508285Y-127975143D01*
X93544571Y-128011429D01*
X93617142Y-128047714D01*
X93834857Y-128047714D01*
X93907428Y-128011429D01*
X93943714Y-127975143D01*
X93000286Y-127285714D02*
X92927714Y-127285714D01*
X92855143Y-127322000D01*
X92818857Y-127358286D01*
X92782571Y-127430857D01*
X92746286Y-127576000D01*
X92746286Y-127757429D01*
X92782571Y-127902571D01*
X92818857Y-127975143D01*
X92855143Y-128011429D01*
X92927714Y-128047714D01*
X93000286Y-128047714D01*
X93072857Y-128011429D01*
X93109143Y-127975143D01*
X93145428Y-127902571D01*
X93181714Y-127757429D01*
X93181714Y-127576000D01*
X93145428Y-127430857D01*
X93109143Y-127358286D01*
X93072857Y-127322000D01*
X93000286Y-127285714D01*
X92492286Y-127285714D02*
X91984286Y-127285714D01*
X92310857Y-128047714D01*
X95776143Y-97242086D02*
X95812429Y-97205800D01*
X95848714Y-97096943D01*
X95848714Y-97024372D01*
X95812429Y-96915515D01*
X95739857Y-96842943D01*
X95667286Y-96806658D01*
X95522143Y-96770372D01*
X95413286Y-96770372D01*
X95268143Y-96806658D01*
X95195571Y-96842943D01*
X95123000Y-96915515D01*
X95086714Y-97024372D01*
X95086714Y-97096943D01*
X95123000Y-97205800D01*
X95159286Y-97242086D01*
X95848714Y-97967800D02*
X95848714Y-97532372D01*
X95848714Y-97750086D02*
X95086714Y-97750086D01*
X95195571Y-97677515D01*
X95268143Y-97604943D01*
X95304429Y-97532372D01*
X95086714Y-98439514D02*
X95086714Y-98512086D01*
X95123000Y-98584657D01*
X95159286Y-98620943D01*
X95231857Y-98657229D01*
X95377000Y-98693514D01*
X95558429Y-98693514D01*
X95703571Y-98657229D01*
X95776143Y-98620943D01*
X95812429Y-98584657D01*
X95848714Y-98512086D01*
X95848714Y-98439514D01*
X95812429Y-98366943D01*
X95776143Y-98330657D01*
X95703571Y-98294372D01*
X95558429Y-98258086D01*
X95377000Y-98258086D01*
X95231857Y-98294372D01*
X95159286Y-98330657D01*
X95123000Y-98366943D01*
X95086714Y-98439514D01*
X95340714Y-99346657D02*
X95848714Y-99346657D01*
X95050429Y-99165228D02*
X95594714Y-98983800D01*
X95594714Y-99455514D01*
X88685914Y-90870314D02*
X88939914Y-90507457D01*
X89121342Y-90870314D02*
X89121342Y-90108314D01*
X88831057Y-90108314D01*
X88758485Y-90144600D01*
X88722200Y-90180886D01*
X88685914Y-90253457D01*
X88685914Y-90362314D01*
X88722200Y-90434886D01*
X88758485Y-90471171D01*
X88831057Y-90507457D01*
X89121342Y-90507457D01*
X88395628Y-90180886D02*
X88359342Y-90144600D01*
X88286771Y-90108314D01*
X88105342Y-90108314D01*
X88032771Y-90144600D01*
X87996485Y-90180886D01*
X87960200Y-90253457D01*
X87960200Y-90326029D01*
X87996485Y-90434886D01*
X88431914Y-90870314D01*
X87960200Y-90870314D01*
X87488486Y-90108314D02*
X87415914Y-90108314D01*
X87343343Y-90144600D01*
X87307057Y-90180886D01*
X87270771Y-90253457D01*
X87234486Y-90398600D01*
X87234486Y-90580029D01*
X87270771Y-90725171D01*
X87307057Y-90797743D01*
X87343343Y-90834029D01*
X87415914Y-90870314D01*
X87488486Y-90870314D01*
X87561057Y-90834029D01*
X87597343Y-90797743D01*
X87633628Y-90725171D01*
X87669914Y-90580029D01*
X87669914Y-90398600D01*
X87633628Y-90253457D01*
X87597343Y-90180886D01*
X87561057Y-90144600D01*
X87488486Y-90108314D01*
X86581343Y-90108314D02*
X86726486Y-90108314D01*
X86799057Y-90144600D01*
X86835343Y-90180886D01*
X86907914Y-90289743D01*
X86944200Y-90434886D01*
X86944200Y-90725171D01*
X86907914Y-90797743D01*
X86871629Y-90834029D01*
X86799057Y-90870314D01*
X86653914Y-90870314D01*
X86581343Y-90834029D01*
X86545057Y-90797743D01*
X86508772Y-90725171D01*
X86508772Y-90543743D01*
X86545057Y-90471171D01*
X86581343Y-90434886D01*
X86653914Y-90398600D01*
X86799057Y-90398600D01*
X86871629Y-90434886D01*
X86907914Y-90471171D01*
X86944200Y-90543743D01*
X88660514Y-88635114D02*
X88914514Y-88272257D01*
X89095942Y-88635114D02*
X89095942Y-87873114D01*
X88805657Y-87873114D01*
X88733085Y-87909400D01*
X88696800Y-87945686D01*
X88660514Y-88018257D01*
X88660514Y-88127114D01*
X88696800Y-88199686D01*
X88733085Y-88235971D01*
X88805657Y-88272257D01*
X89095942Y-88272257D01*
X88370228Y-87945686D02*
X88333942Y-87909400D01*
X88261371Y-87873114D01*
X88079942Y-87873114D01*
X88007371Y-87909400D01*
X87971085Y-87945686D01*
X87934800Y-88018257D01*
X87934800Y-88090829D01*
X87971085Y-88199686D01*
X88406514Y-88635114D01*
X87934800Y-88635114D01*
X87463086Y-87873114D02*
X87390514Y-87873114D01*
X87317943Y-87909400D01*
X87281657Y-87945686D01*
X87245371Y-88018257D01*
X87209086Y-88163400D01*
X87209086Y-88344829D01*
X87245371Y-88489971D01*
X87281657Y-88562543D01*
X87317943Y-88598829D01*
X87390514Y-88635114D01*
X87463086Y-88635114D01*
X87535657Y-88598829D01*
X87571943Y-88562543D01*
X87608228Y-88489971D01*
X87644514Y-88344829D01*
X87644514Y-88163400D01*
X87608228Y-88018257D01*
X87571943Y-87945686D01*
X87535657Y-87909400D01*
X87463086Y-87873114D01*
X86955086Y-87873114D02*
X86447086Y-87873114D01*
X86773657Y-88635114D01*
X98062143Y-97623086D02*
X98098429Y-97586800D01*
X98134714Y-97477943D01*
X98134714Y-97405372D01*
X98098429Y-97296515D01*
X98025857Y-97223943D01*
X97953286Y-97187658D01*
X97808143Y-97151372D01*
X97699286Y-97151372D01*
X97554143Y-97187658D01*
X97481571Y-97223943D01*
X97409000Y-97296515D01*
X97372714Y-97405372D01*
X97372714Y-97477943D01*
X97409000Y-97586800D01*
X97445286Y-97623086D01*
X98134714Y-98348800D02*
X98134714Y-97913372D01*
X98134714Y-98131086D02*
X97372714Y-98131086D01*
X97481571Y-98058515D01*
X97554143Y-97985943D01*
X97590429Y-97913372D01*
X97372714Y-98820514D02*
X97372714Y-98893086D01*
X97409000Y-98965657D01*
X97445286Y-99001943D01*
X97517857Y-99038229D01*
X97663000Y-99074514D01*
X97844429Y-99074514D01*
X97989571Y-99038229D01*
X98062143Y-99001943D01*
X98098429Y-98965657D01*
X98134714Y-98893086D01*
X98134714Y-98820514D01*
X98098429Y-98747943D01*
X98062143Y-98711657D01*
X97989571Y-98675372D01*
X97844429Y-98639086D01*
X97663000Y-98639086D01*
X97517857Y-98675372D01*
X97445286Y-98711657D01*
X97409000Y-98747943D01*
X97372714Y-98820514D01*
X97372714Y-99763943D02*
X97372714Y-99401086D01*
X97735571Y-99364800D01*
X97699286Y-99401086D01*
X97663000Y-99473657D01*
X97663000Y-99655086D01*
X97699286Y-99727657D01*
X97735571Y-99763943D01*
X97808143Y-99800228D01*
X97989571Y-99800228D01*
X98062143Y-99763943D01*
X98098429Y-99727657D01*
X98134714Y-99655086D01*
X98134714Y-99473657D01*
X98098429Y-99401086D01*
X98062143Y-99364800D01*
X100729143Y-97623086D02*
X100765429Y-97586800D01*
X100801714Y-97477943D01*
X100801714Y-97405372D01*
X100765429Y-97296515D01*
X100692857Y-97223943D01*
X100620286Y-97187658D01*
X100475143Y-97151372D01*
X100366286Y-97151372D01*
X100221143Y-97187658D01*
X100148571Y-97223943D01*
X100076000Y-97296515D01*
X100039714Y-97405372D01*
X100039714Y-97477943D01*
X100076000Y-97586800D01*
X100112286Y-97623086D01*
X100801714Y-98348800D02*
X100801714Y-97913372D01*
X100801714Y-98131086D02*
X100039714Y-98131086D01*
X100148571Y-98058515D01*
X100221143Y-97985943D01*
X100257429Y-97913372D01*
X100039714Y-98820514D02*
X100039714Y-98893086D01*
X100076000Y-98965657D01*
X100112286Y-99001943D01*
X100184857Y-99038229D01*
X100330000Y-99074514D01*
X100511429Y-99074514D01*
X100656571Y-99038229D01*
X100729143Y-99001943D01*
X100765429Y-98965657D01*
X100801714Y-98893086D01*
X100801714Y-98820514D01*
X100765429Y-98747943D01*
X100729143Y-98711657D01*
X100656571Y-98675372D01*
X100511429Y-98639086D01*
X100330000Y-98639086D01*
X100184857Y-98675372D01*
X100112286Y-98711657D01*
X100076000Y-98747943D01*
X100039714Y-98820514D01*
X100039714Y-99727657D02*
X100039714Y-99582514D01*
X100076000Y-99509943D01*
X100112286Y-99473657D01*
X100221143Y-99401086D01*
X100366286Y-99364800D01*
X100656571Y-99364800D01*
X100729143Y-99401086D01*
X100765429Y-99437371D01*
X100801714Y-99509943D01*
X100801714Y-99655086D01*
X100765429Y-99727657D01*
X100729143Y-99763943D01*
X100656571Y-99800228D01*
X100475143Y-99800228D01*
X100402571Y-99763943D01*
X100366286Y-99727657D01*
X100330000Y-99655086D01*
X100330000Y-99509943D01*
X100366286Y-99437371D01*
X100402571Y-99401086D01*
X100475143Y-99364800D01*
M02*
