G04 #@! TF.FileFunction,Copper,L4,Bot,Signal*
%FSLAX46Y46*%
G04 Gerber Fmt 4.6, Leading zero omitted, Abs format (unit mm)*
G04 Created by KiCad (PCBNEW 4.0.0-2.201512072331+6194~38~ubuntu14.04.1-stable) date Mon 04 Jan 2016 09:00:13 PM CET*
%MOMM*%
G01*
G04 APERTURE LIST*
%ADD10C,0.100000*%
%ADD11R,1.250000X1.000000*%
%ADD12R,1.600000X1.000000*%
%ADD13R,1.000000X1.250000*%
%ADD14R,2.500000X1.000000*%
%ADD15R,1.000000X2.500000*%
%ADD16R,2.032000X1.727200*%
%ADD17O,2.032000X1.727200*%
%ADD18R,2.032000X2.032000*%
%ADD19O,2.032000X2.032000*%
%ADD20R,1.727200X2.032000*%
%ADD21O,1.727200X2.032000*%
%ADD22C,1.500000*%
%ADD23C,1.600000*%
%ADD24O,1.600000X1.600000*%
%ADD25R,1.300000X0.700000*%
%ADD26R,0.700000X1.300000*%
%ADD27C,1.501140*%
%ADD28C,0.685800*%
%ADD29C,1.016000*%
%ADD30C,0.152400*%
%ADD31C,0.609600*%
%ADD32C,0.304800*%
G04 APERTURE END LIST*
D10*
D11*
X100351790Y-111714023D03*
X100351790Y-109714023D03*
D12*
X97938790Y-112722024D03*
X97938790Y-109722024D03*
X95398790Y-112722023D03*
X95398790Y-109722023D03*
D10*
G36*
X90280719Y-98624198D02*
X91164602Y-99508081D01*
X90457495Y-100215188D01*
X89573612Y-99331305D01*
X90280719Y-98624198D01*
X90280719Y-98624198D01*
G37*
G36*
X88866505Y-100038412D02*
X89750388Y-100922295D01*
X89043281Y-101629402D01*
X88159398Y-100745519D01*
X88866505Y-100038412D01*
X88866505Y-100038412D01*
G37*
D13*
X89678000Y-96570800D03*
X91678000Y-96570800D03*
X84471000Y-95173800D03*
X86471000Y-95173800D03*
D11*
X92583000Y-117745000D03*
X92583000Y-119745000D03*
D13*
X82566000Y-132080000D03*
X84566000Y-132080000D03*
D11*
X101219000Y-130318000D03*
X101219000Y-132318000D03*
X99060000Y-130318000D03*
X99060000Y-132318000D03*
D13*
X88299800Y-127177800D03*
X86299800Y-127177800D03*
D14*
X104267000Y-127913000D03*
X104267000Y-130913000D03*
D15*
X106529000Y-134493000D03*
X103529000Y-134493000D03*
D16*
X112014000Y-129921000D03*
D17*
X112014000Y-127381000D03*
X112014000Y-124841000D03*
X112014000Y-122301000D03*
X112014000Y-119761000D03*
X112014000Y-117221000D03*
X112014000Y-114681000D03*
X112014000Y-112141000D03*
X112014000Y-109601000D03*
X112014000Y-107061000D03*
D16*
X78740000Y-94615000D03*
D17*
X78740000Y-97155000D03*
X78740000Y-99695000D03*
X78740000Y-102235000D03*
X78740000Y-104775000D03*
X78740000Y-107315000D03*
X78740000Y-109855000D03*
X78740000Y-112395000D03*
X78740000Y-114935000D03*
X78740000Y-117475000D03*
D16*
X107746800Y-104165400D03*
D17*
X107746800Y-101625400D03*
X107746800Y-99085400D03*
X107746800Y-96545400D03*
D18*
X112014000Y-100711000D03*
D19*
X112014000Y-103251000D03*
D16*
X78740000Y-128905000D03*
D17*
X78740000Y-126365000D03*
X78740000Y-123825000D03*
X78740000Y-121285000D03*
D18*
X112014000Y-97028000D03*
D19*
X112014000Y-94488000D03*
D20*
X84328000Y-78740000D03*
D21*
X86868000Y-78740000D03*
X89408000Y-78740000D03*
X91948000Y-78740000D03*
X94488000Y-78740000D03*
X97028000Y-78740000D03*
D22*
X110934500Y-90056500D03*
X110934500Y-88056500D03*
X110934500Y-86056500D03*
X110934500Y-84056500D03*
X79692500Y-84251000D03*
X79692500Y-86251000D03*
X79692500Y-88251000D03*
X79692500Y-90251000D03*
D20*
X100965000Y-78740000D03*
D21*
X103505000Y-78740000D03*
X106045000Y-78740000D03*
D23*
X84330000Y-138176000D03*
D24*
X90930000Y-138176000D03*
D18*
X97282000Y-137287000D03*
D19*
X99822000Y-137287000D03*
D25*
X91948000Y-81473000D03*
X91948000Y-83373000D03*
X86741000Y-83373000D03*
X86741000Y-81473000D03*
X84328000Y-81473000D03*
X84328000Y-83373000D03*
X97028000Y-83373000D03*
X97028000Y-81473000D03*
X90424000Y-119822000D03*
X90424000Y-117922000D03*
X88265000Y-117922000D03*
X88265000Y-119822000D03*
X86106000Y-117922000D03*
X86106000Y-119822000D03*
X86487000Y-125283000D03*
X86487000Y-123383000D03*
D26*
X84770000Y-129794000D03*
X82870000Y-129794000D03*
X92395000Y-123317000D03*
X94295000Y-123317000D03*
X92395000Y-125603000D03*
X94295000Y-125603000D03*
D27*
X89610005Y-94082795D03*
X86157995Y-97534805D03*
D11*
X95504000Y-93665800D03*
X95504000Y-95665800D03*
D26*
X81981000Y-90297000D03*
X83881000Y-90297000D03*
X81981000Y-88138000D03*
X83881000Y-88138000D03*
X106047500Y-86233000D03*
X107947500Y-86233000D03*
X105984000Y-84074000D03*
X107884000Y-84074000D03*
D12*
X97790000Y-92657800D03*
X97790000Y-95657800D03*
X100330000Y-92657800D03*
X100330000Y-95657800D03*
D28*
X89281000Y-98221800D03*
D29*
X84137500Y-125222000D03*
D28*
X91059000Y-122936000D03*
X85471000Y-91503500D03*
D29*
X88455500Y-121412000D03*
X107886500Y-130937000D03*
X92583000Y-135763000D03*
X82740500Y-135763000D03*
X97345500Y-120078500D03*
X94361000Y-119697500D03*
X86741000Y-84772500D03*
X103505000Y-136906000D03*
X87820500Y-101981000D03*
X100330000Y-113474500D03*
X97155000Y-105473500D03*
D28*
X95275400Y-101676200D03*
X100330000Y-97205800D03*
X105003600Y-134264400D03*
X100177600Y-94005400D03*
X92979107Y-94672303D03*
X87884000Y-95173800D03*
X88773000Y-134112000D03*
X93929200Y-98018600D03*
X96418400Y-101879400D03*
X94361000Y-117094000D03*
X86360000Y-133858000D03*
X89687400Y-128803400D03*
D29*
X107759500Y-128841500D03*
D28*
X103251000Y-126111000D03*
X85534500Y-89281000D03*
D29*
X85090000Y-84645500D03*
X91948000Y-84709000D03*
X108204000Y-133540500D03*
X106489500Y-136906000D03*
X95821500Y-111125000D03*
X97790000Y-94170500D03*
X97853500Y-99060000D03*
X98044000Y-106553000D03*
D28*
X96037400Y-123317000D03*
X96062800Y-125450600D03*
X96291400Y-100431600D03*
X91105819Y-102429532D03*
X96113600Y-104267000D03*
X92583000Y-108585000D03*
X93853000Y-89408000D03*
X93853000Y-88392000D03*
X98742500Y-102425500D03*
X100139500Y-102108000D03*
X101981000Y-97790000D03*
X91567000Y-127127000D03*
X92005848Y-102429532D03*
X87376000Y-121412000D03*
X91866663Y-103256107D03*
X83375500Y-121856500D03*
X86487000Y-121412000D03*
D29*
X84074000Y-127063500D03*
D28*
X84251800Y-123444000D03*
X100711000Y-127000000D03*
X91313000Y-125984000D03*
X95250000Y-127254000D03*
X104457500Y-85026500D03*
X104457500Y-87312500D03*
X103987600Y-102946200D03*
X94488000Y-102616000D03*
D30*
X89281000Y-98221800D02*
X90369107Y-99309907D01*
X90369107Y-99309907D02*
X90369107Y-99419693D01*
D31*
X84198500Y-125283000D02*
X84137500Y-125222000D01*
X86487000Y-125283000D02*
X84198500Y-125283000D01*
X83881000Y-90297000D02*
X84264500Y-90297000D01*
X84264500Y-90297000D02*
X85471000Y-91503500D01*
X84770000Y-129794000D02*
X84770000Y-128707600D01*
X84770000Y-128707600D02*
X86299800Y-127177800D01*
X104267000Y-130913000D02*
X107862500Y-130913000D01*
X107862500Y-130913000D02*
X107886500Y-130937000D01*
X101219000Y-132318000D02*
X101219000Y-135890000D01*
X101219000Y-135890000D02*
X99822000Y-137287000D01*
X92583000Y-119745000D02*
X94313500Y-119745000D01*
X94313500Y-119745000D02*
X94361000Y-119697500D01*
X86741000Y-83373000D02*
X86741000Y-84772500D01*
X103529000Y-134493000D02*
X103529000Y-136882000D01*
X103529000Y-136882000D02*
X103505000Y-136906000D01*
X88954893Y-100833907D02*
X88954893Y-100846607D01*
X88954893Y-100846607D02*
X87820500Y-101981000D01*
X100351790Y-111714023D02*
X100351790Y-113452710D01*
X100351790Y-113452710D02*
X100330000Y-113474500D01*
X93726000Y-111379000D02*
X95069023Y-112722023D01*
X93726000Y-108902500D02*
X93726000Y-111379000D01*
X97155000Y-105473500D02*
X93726000Y-108902500D01*
X95069023Y-112722023D02*
X95398790Y-112722023D01*
X103529000Y-134493000D02*
X103529000Y-131651000D01*
X103529000Y-131651000D02*
X104267000Y-130913000D01*
X104775000Y-134493000D02*
X103529000Y-134493000D01*
X105003600Y-134264400D02*
X104775000Y-134493000D01*
X101219000Y-132318000D02*
X102862000Y-132318000D01*
X102862000Y-132318000D02*
X104267000Y-130913000D01*
X86299800Y-127177800D02*
X86299800Y-125470200D01*
X86299800Y-125470200D02*
X86487000Y-125283000D01*
D30*
X95398790Y-112722023D02*
X94764223Y-112722023D01*
D31*
X97938790Y-112722024D02*
X95398791Y-112722024D01*
X95398791Y-112722024D02*
X95398790Y-112722023D01*
X100351790Y-111714023D02*
X100274377Y-111714023D01*
X100274377Y-111714023D02*
X99266376Y-112722024D01*
X99266376Y-112722024D02*
X97938790Y-112722024D01*
X100330000Y-92657800D02*
X100330000Y-93853000D01*
X100330000Y-93853000D02*
X100177600Y-94005400D01*
X92979107Y-95144693D02*
X92979107Y-94672303D01*
X91678000Y-96570800D02*
X91678000Y-96445800D01*
X91678000Y-96445800D02*
X92979107Y-95144693D01*
X104267000Y-130913000D02*
X104267000Y-130937000D01*
X99060000Y-132318000D02*
X101219000Y-132318000D01*
X97790000Y-92657800D02*
X100330000Y-92657800D01*
X95504000Y-93665800D02*
X95504000Y-93014800D01*
X95861000Y-92657800D02*
X97790000Y-92657800D01*
X95504000Y-93014800D02*
X95861000Y-92657800D01*
X86471000Y-95173800D02*
X87884000Y-95173800D01*
X84770000Y-129794000D02*
X84770000Y-131876000D01*
X84770000Y-131876000D02*
X84566000Y-132080000D01*
D30*
X89678000Y-96570800D02*
X89678000Y-96695800D01*
X89678000Y-96695800D02*
X91000800Y-98018600D01*
X91000800Y-98018600D02*
X93929200Y-98018600D01*
D31*
X89610005Y-94082795D02*
X89610005Y-96502805D01*
X89610005Y-96502805D02*
X89678000Y-96570800D01*
X84471000Y-95173800D02*
X84471000Y-95847810D01*
X84471000Y-95847810D02*
X86157995Y-97534805D01*
D30*
X94488000Y-81528079D02*
X94488000Y-97594514D01*
X95504000Y-80512079D02*
X94488000Y-81528079D01*
X94488000Y-78359000D02*
X94488000Y-78511400D01*
X96862902Y-99969416D02*
X96862902Y-101434898D01*
X96862902Y-101434898D02*
X96761299Y-101536501D01*
X94488000Y-78511400D02*
X95504000Y-79527400D01*
X94488000Y-97594514D02*
X96862902Y-99969416D01*
X95504000Y-79527400D02*
X95504000Y-80512079D01*
X96761299Y-101536501D02*
X96418400Y-101879400D01*
X90424000Y-117922000D02*
X90424000Y-117500400D01*
X93929200Y-104368600D02*
X96418400Y-101879400D01*
X91643200Y-104368600D02*
X93929200Y-104368600D01*
X86766400Y-109245400D02*
X91643200Y-104368600D01*
X86766400Y-113842800D02*
X86766400Y-109245400D01*
X90424000Y-117500400D02*
X86766400Y-113842800D01*
X92583000Y-117745000D02*
X92458000Y-117745000D01*
X90424000Y-117922000D02*
X90424000Y-117729000D01*
X92583000Y-117745000D02*
X90601000Y-117745000D01*
X90601000Y-117745000D02*
X90424000Y-117922000D01*
X92583000Y-117745000D02*
X93710000Y-117745000D01*
X93710000Y-117745000D02*
X94361000Y-117094000D01*
D31*
X82566000Y-132080000D02*
X82566000Y-132604000D01*
X82566000Y-132604000D02*
X83820000Y-133858000D01*
X83820000Y-133858000D02*
X86360000Y-133858000D01*
D30*
X88299800Y-127177800D02*
X88299800Y-127415800D01*
X88299800Y-127415800D02*
X89687400Y-128803400D01*
D31*
X104267000Y-127913000D02*
X106831000Y-127913000D01*
X106831000Y-127913000D02*
X107759500Y-128841500D01*
X104267000Y-127127000D02*
X104267000Y-127913000D01*
X103251000Y-126111000D02*
X104267000Y-127127000D01*
X83881000Y-88138000D02*
X84391500Y-88138000D01*
X84391500Y-88138000D02*
X85534500Y-89281000D01*
X84328000Y-83373000D02*
X84328000Y-83883500D01*
X84328000Y-83883500D02*
X85090000Y-84645500D01*
X91948000Y-83373000D02*
X91948000Y-84709000D01*
X107251500Y-134493000D02*
X108204000Y-133540500D01*
X106529000Y-134493000D02*
X107251500Y-134493000D01*
X106529000Y-134493000D02*
X106529000Y-136866500D01*
X106529000Y-136866500D02*
X106489500Y-136906000D01*
X95398790Y-109722023D02*
X95398790Y-110702290D01*
X95398790Y-110702290D02*
X95821500Y-111125000D01*
X97790000Y-94170500D02*
X97790000Y-95657800D01*
X97853500Y-99060000D02*
X97853500Y-95721300D01*
X97853500Y-95721300D02*
X97790000Y-95657800D01*
X97938790Y-106658210D02*
X97938790Y-109722024D01*
X98044000Y-106553000D02*
X97938790Y-106658210D01*
D32*
X97891600Y-109674834D02*
X97938790Y-109722024D01*
X97663000Y-95784800D02*
X97790000Y-95657800D01*
D31*
X97938790Y-109722024D02*
X95398791Y-109722024D01*
X95398791Y-109722024D02*
X95398790Y-109722023D01*
X100351790Y-109714023D02*
X97946791Y-109714023D01*
X97946791Y-109714023D02*
X97938790Y-109722024D01*
X97946789Y-109714023D02*
X97938790Y-109722023D01*
X97790000Y-95657800D02*
X100330000Y-95657800D01*
X95504000Y-95665800D02*
X97782000Y-95665800D01*
X97782000Y-95665800D02*
X97790000Y-95657800D01*
X96037400Y-123317000D02*
X94295000Y-123317000D01*
X95910400Y-125603000D02*
X94295000Y-125603000D01*
X96062800Y-125450600D02*
X95910400Y-125603000D01*
D30*
X112014000Y-129921000D02*
X111379000Y-129921000D01*
X112014000Y-127381000D02*
X111912400Y-127381000D01*
X112014000Y-122301000D02*
X111861600Y-122301000D01*
X82981800Y-102235000D02*
X85406998Y-99809802D01*
X90362800Y-100443798D02*
X96279202Y-100443798D01*
X85406998Y-99809802D02*
X89728804Y-99809802D01*
X89728804Y-99809802D02*
X90362800Y-100443798D01*
X96279202Y-100443798D02*
X96291400Y-100431600D01*
X78740000Y-102235000D02*
X82981800Y-102235000D01*
X91105819Y-103483581D02*
X91105819Y-102914465D01*
X81432400Y-113157000D02*
X91105819Y-103483581D01*
X78740000Y-128905000D02*
X78892400Y-128905000D01*
X91105819Y-102914465D02*
X91105819Y-102429532D01*
X81432400Y-126365000D02*
X81432400Y-113157000D01*
X78892400Y-128905000D02*
X81432400Y-126365000D01*
X96037400Y-105181400D02*
X96037400Y-104343200D01*
X96037400Y-104343200D02*
X96113600Y-104267000D01*
X92583000Y-108585000D02*
X96037400Y-105181400D01*
D32*
X84328000Y-78740000D02*
X84328000Y-81473000D01*
D30*
X86741000Y-81473000D02*
X88585000Y-81473000D01*
X88585000Y-81473000D02*
X90424000Y-83312000D01*
X90424000Y-83312000D02*
X90424000Y-85979000D01*
X90424000Y-85979000D02*
X93853000Y-89408000D01*
D32*
X86868000Y-78740000D02*
X86868000Y-81346000D01*
X86868000Y-81346000D02*
X86741000Y-81473000D01*
D30*
X92471198Y-81473000D02*
X94183198Y-83185000D01*
X94183198Y-83185000D02*
X94183198Y-88061802D01*
X94183198Y-88061802D02*
X93853000Y-88392000D01*
X91948000Y-81473000D02*
X92471198Y-81473000D01*
D32*
X91948000Y-78740000D02*
X91948000Y-81473000D01*
X97028000Y-78740000D02*
X97028000Y-81473000D01*
D30*
X97028000Y-78359000D02*
X97028000Y-81092000D01*
X110934500Y-86056500D02*
X110730000Y-86056500D01*
X110730000Y-86056500D02*
X104013000Y-92773500D01*
X104013000Y-97155000D02*
X98742500Y-102425500D01*
X104013000Y-92773500D02*
X104013000Y-97155000D01*
X110934500Y-86056500D02*
X110934500Y-86296500D01*
D31*
X110934500Y-86056500D02*
X108124000Y-86056500D01*
X108124000Y-86056500D02*
X107947500Y-86233000D01*
D30*
X110934500Y-84056500D02*
X110934500Y-84391500D01*
X110934500Y-84391500D02*
X112141000Y-85598000D01*
X100139500Y-101536500D02*
X100139500Y-102108000D01*
X104317802Y-97358198D02*
X100139500Y-101536500D01*
X104317802Y-92976698D02*
X104317802Y-97358198D01*
X110236000Y-87058500D02*
X104317802Y-92976698D01*
X111569500Y-87058500D02*
X110236000Y-87058500D01*
X112141000Y-86487000D02*
X111569500Y-87058500D01*
X112141000Y-85598000D02*
X112141000Y-86487000D01*
D31*
X110934500Y-84056500D02*
X107901500Y-84056500D01*
X107901500Y-84056500D02*
X107884000Y-84074000D01*
D30*
X103505000Y-78740000D02*
X103505000Y-80518000D01*
X103695500Y-96075500D02*
X101981000Y-97790000D01*
X103695500Y-92315556D02*
X103695500Y-96075500D01*
X102362746Y-90982802D02*
X103695500Y-92315556D01*
X100584746Y-90982802D02*
X102362746Y-90982802D01*
X99631500Y-90029556D02*
X100584746Y-90982802D01*
X99631500Y-82169000D02*
X99631500Y-90029556D01*
X100711000Y-81089500D02*
X99631500Y-82169000D01*
X102933500Y-81089500D02*
X100711000Y-81089500D01*
X103505000Y-80518000D02*
X102933500Y-81089500D01*
X103503540Y-78741460D02*
X103505000Y-78740000D01*
X90424000Y-119822000D02*
X90424000Y-125984000D01*
X90424000Y-125984000D02*
X91567000Y-127127000D01*
X88265000Y-117419600D02*
X86436200Y-115590800D01*
X92049600Y-104013000D02*
X92506800Y-103555800D01*
X92348747Y-102772431D02*
X92005848Y-102429532D01*
X86436200Y-109118400D02*
X91541600Y-104013000D01*
X88265000Y-117922000D02*
X88265000Y-117419600D01*
X92506800Y-102930484D02*
X92348747Y-102772431D01*
X86436200Y-115590800D02*
X86436200Y-109118400D01*
X92506800Y-103555800D02*
X92506800Y-102930484D01*
X91541600Y-104013000D02*
X92049600Y-104013000D01*
X88265000Y-117922000D02*
X87950000Y-117922000D01*
X88265000Y-119822000D02*
X88265000Y-120523000D01*
X88265000Y-120523000D02*
X87376000Y-121412000D01*
X86106000Y-109016770D02*
X91866663Y-103256107D01*
X86106000Y-117922000D02*
X86106000Y-109016770D01*
X85410000Y-119822000D02*
X86106000Y-119822000D01*
X83375500Y-121856500D02*
X85410000Y-119822000D01*
X86106000Y-119822000D02*
X85537000Y-119822000D01*
D32*
X86487000Y-123383000D02*
X86487000Y-121412000D01*
D31*
X82870000Y-129794000D02*
X82870000Y-128267500D01*
X82870000Y-128267500D02*
X84074000Y-127063500D01*
D30*
X94335600Y-128168400D02*
X95250000Y-127254000D01*
X91363800Y-128168400D02*
X94335600Y-128168400D01*
X87401400Y-124206000D02*
X91363800Y-128168400D01*
X85013800Y-124206000D02*
X87401400Y-124206000D01*
X84251800Y-123444000D02*
X85013800Y-124206000D01*
D31*
X95250000Y-127254000D02*
X100457000Y-127254000D01*
X100457000Y-127254000D02*
X100711000Y-127000000D01*
X101219000Y-130318000D02*
X101219000Y-127508000D01*
X101219000Y-127508000D02*
X100711000Y-127000000D01*
X99060000Y-130318000D02*
X101219000Y-130318000D01*
D30*
X92395000Y-125603000D02*
X91694000Y-125603000D01*
X91694000Y-125603000D02*
X91313000Y-125984000D01*
D31*
X92395000Y-125603000D02*
X92395000Y-126812000D01*
X92837000Y-127254000D02*
X95250000Y-127254000D01*
X92395000Y-126812000D02*
X92837000Y-127254000D01*
X92395000Y-123317000D02*
X92395000Y-125603000D01*
D32*
X105984000Y-84074000D02*
X105410000Y-84074000D01*
X105410000Y-84074000D02*
X104457500Y-85026500D01*
X106047500Y-86233000D02*
X105537000Y-86233000D01*
X105537000Y-86233000D02*
X104457500Y-87312500D01*
D31*
X79692500Y-88251000D02*
X81868000Y-88251000D01*
X81868000Y-88251000D02*
X81981000Y-88138000D01*
D30*
X79883000Y-88505000D02*
X79897000Y-88505000D01*
D31*
X79692500Y-90251000D02*
X81935000Y-90251000D01*
X81935000Y-90251000D02*
X81981000Y-90297000D01*
D30*
X79883000Y-90505000D02*
X80183000Y-90505000D01*
X112014000Y-103251000D02*
X110577160Y-103251000D01*
X110577160Y-103251000D02*
X110272360Y-102946200D01*
X110272360Y-102946200D02*
X103987600Y-102946200D01*
X78740000Y-104775000D02*
X87122000Y-104775000D01*
X93345000Y-101473000D02*
X94488000Y-102616000D01*
X90424000Y-101473000D02*
X93345000Y-101473000D01*
X87122000Y-104775000D02*
X90424000Y-101473000D01*
M02*
