G04 #@! TF.FileFunction,Legend,Bot*
%FSLAX46Y46*%
G04 Gerber Fmt 4.6, Leading zero omitted, Abs format (unit mm)*
G04 Created by KiCad (PCBNEW 4.0.0-2.201512072331+6194~38~ubuntu14.04.1-stable) date Mon 04 Jan 2016 09:00:13 PM CET*
%MOMM*%
G01*
G04 APERTURE LIST*
%ADD10C,0.100000*%
%ADD11C,0.127000*%
%ADD12C,0.152400*%
%ADD13C,0.150000*%
%ADD14C,0.010000*%
G04 APERTURE END LIST*
D10*
D11*
X110290429Y-99776643D02*
X110326714Y-99885500D01*
X110326714Y-100066929D01*
X110290429Y-100139500D01*
X110254143Y-100175786D01*
X110181571Y-100212071D01*
X110109000Y-100212071D01*
X110036429Y-100175786D01*
X110000143Y-100139500D01*
X109963857Y-100066929D01*
X109927571Y-99921786D01*
X109891286Y-99849214D01*
X109855000Y-99812929D01*
X109782429Y-99776643D01*
X109709857Y-99776643D01*
X109637286Y-99812929D01*
X109601000Y-99849214D01*
X109564714Y-99921786D01*
X109564714Y-100103214D01*
X109601000Y-100212071D01*
X110326714Y-100538643D02*
X109564714Y-100538643D01*
X109564714Y-100720071D01*
X109601000Y-100828928D01*
X109673571Y-100901500D01*
X109746143Y-100937785D01*
X109891286Y-100974071D01*
X110000143Y-100974071D01*
X110145286Y-100937785D01*
X110217857Y-100901500D01*
X110290429Y-100828928D01*
X110326714Y-100720071D01*
X110326714Y-100538643D01*
X110109000Y-101264357D02*
X110109000Y-101627214D01*
X110326714Y-101191785D02*
X109564714Y-101445785D01*
X110326714Y-101699785D01*
X110290429Y-102498071D02*
X110326714Y-102606928D01*
X110326714Y-102788357D01*
X110290429Y-102860928D01*
X110254143Y-102897214D01*
X110181571Y-102933499D01*
X110109000Y-102933499D01*
X110036429Y-102897214D01*
X110000143Y-102860928D01*
X109963857Y-102788357D01*
X109927571Y-102643214D01*
X109891286Y-102570642D01*
X109855000Y-102534357D01*
X109782429Y-102498071D01*
X109709857Y-102498071D01*
X109637286Y-102534357D01*
X109601000Y-102570642D01*
X109564714Y-102643214D01*
X109564714Y-102824642D01*
X109601000Y-102933499D01*
X110254143Y-103695499D02*
X110290429Y-103659213D01*
X110326714Y-103550356D01*
X110326714Y-103477785D01*
X110290429Y-103368928D01*
X110217857Y-103296356D01*
X110145286Y-103260071D01*
X110000143Y-103223785D01*
X109891286Y-103223785D01*
X109746143Y-103260071D01*
X109673571Y-103296356D01*
X109601000Y-103368928D01*
X109564714Y-103477785D01*
X109564714Y-103550356D01*
X109601000Y-103659213D01*
X109637286Y-103695499D01*
X110326714Y-104022071D02*
X109564714Y-104022071D01*
X110326714Y-104457499D02*
X109891286Y-104130928D01*
X109564714Y-104457499D02*
X110000143Y-104022071D01*
X110199714Y-94850857D02*
X109836857Y-94596857D01*
X110199714Y-94415429D02*
X109437714Y-94415429D01*
X109437714Y-94705714D01*
X109474000Y-94778286D01*
X109510286Y-94814571D01*
X109582857Y-94850857D01*
X109691714Y-94850857D01*
X109764286Y-94814571D01*
X109800571Y-94778286D01*
X109836857Y-94705714D01*
X109836857Y-94415429D01*
X110199714Y-95104857D02*
X109691714Y-95504000D01*
X109691714Y-95104857D02*
X110199714Y-95504000D01*
X109437714Y-96265999D02*
X109437714Y-96701428D01*
X110199714Y-96483714D02*
X109437714Y-96483714D01*
X110199714Y-96882856D02*
X109691714Y-97281999D01*
X109691714Y-96882856D02*
X110199714Y-97281999D01*
D12*
X108882543Y-126114024D02*
X108834162Y-126162405D01*
X108785781Y-126307548D01*
X108785781Y-126404310D01*
X108834162Y-126549452D01*
X108930924Y-126646214D01*
X109027686Y-126694595D01*
X109221210Y-126742976D01*
X109366352Y-126742976D01*
X109559876Y-126694595D01*
X109656638Y-126646214D01*
X109753400Y-126549452D01*
X109801781Y-126404310D01*
X109801781Y-126307548D01*
X109753400Y-126162405D01*
X109705019Y-126114024D01*
X108834162Y-125291548D02*
X108785781Y-125388310D01*
X108785781Y-125581833D01*
X108834162Y-125678595D01*
X108930924Y-125726976D01*
X109317971Y-125726976D01*
X109414733Y-125678595D01*
X109463114Y-125581833D01*
X109463114Y-125388310D01*
X109414733Y-125291548D01*
X109317971Y-125243167D01*
X109221210Y-125243167D01*
X109124448Y-125726976D01*
X109463114Y-124807738D02*
X108785781Y-124807738D01*
X109366352Y-124807738D02*
X109414733Y-124759357D01*
X109463114Y-124662595D01*
X109463114Y-124517453D01*
X109414733Y-124420691D01*
X109317971Y-124372310D01*
X108785781Y-124372310D01*
X109463114Y-124033643D02*
X109463114Y-123646595D01*
X109801781Y-123888500D02*
X108930924Y-123888500D01*
X108834162Y-123840119D01*
X108785781Y-123743357D01*
X108785781Y-123646595D01*
X108785781Y-123307929D02*
X109463114Y-123307929D01*
X109269590Y-123307929D02*
X109366352Y-123259548D01*
X109414733Y-123211167D01*
X109463114Y-123114405D01*
X109463114Y-123017644D01*
X108785781Y-122243549D02*
X109317971Y-122243549D01*
X109414733Y-122291930D01*
X109463114Y-122388692D01*
X109463114Y-122582215D01*
X109414733Y-122678977D01*
X108834162Y-122243549D02*
X108785781Y-122340311D01*
X108785781Y-122582215D01*
X108834162Y-122678977D01*
X108930924Y-122727358D01*
X109027686Y-122727358D01*
X109124448Y-122678977D01*
X109172829Y-122582215D01*
X109172829Y-122340311D01*
X109221210Y-122243549D01*
X108785781Y-121614596D02*
X108834162Y-121711358D01*
X108930924Y-121759739D01*
X109801781Y-121759739D01*
X108882543Y-119872883D02*
X108834162Y-119921264D01*
X108785781Y-120066407D01*
X108785781Y-120163169D01*
X108834162Y-120308311D01*
X108930924Y-120405073D01*
X109027686Y-120453454D01*
X109221210Y-120501835D01*
X109366352Y-120501835D01*
X109559876Y-120453454D01*
X109656638Y-120405073D01*
X109753400Y-120308311D01*
X109801781Y-120163169D01*
X109801781Y-120066407D01*
X109753400Y-119921264D01*
X109705019Y-119872883D01*
X108785781Y-119292311D02*
X108834162Y-119389073D01*
X108882543Y-119437454D01*
X108979305Y-119485835D01*
X109269590Y-119485835D01*
X109366352Y-119437454D01*
X109414733Y-119389073D01*
X109463114Y-119292311D01*
X109463114Y-119147169D01*
X109414733Y-119050407D01*
X109366352Y-119002026D01*
X109269590Y-118953645D01*
X108979305Y-118953645D01*
X108882543Y-119002026D01*
X108834162Y-119050407D01*
X108785781Y-119147169D01*
X108785781Y-119292311D01*
X108785781Y-118518216D02*
X109463114Y-118518216D01*
X109366352Y-118518216D02*
X109414733Y-118469835D01*
X109463114Y-118373073D01*
X109463114Y-118227931D01*
X109414733Y-118131169D01*
X109317971Y-118082788D01*
X108785781Y-118082788D01*
X109317971Y-118082788D02*
X109414733Y-118034407D01*
X109463114Y-117937645D01*
X109463114Y-117792502D01*
X109414733Y-117695740D01*
X109317971Y-117647359D01*
X108785781Y-117647359D01*
X108785781Y-117163549D02*
X109463114Y-117163549D01*
X109366352Y-117163549D02*
X109414733Y-117115168D01*
X109463114Y-117018406D01*
X109463114Y-116873264D01*
X109414733Y-116776502D01*
X109317971Y-116728121D01*
X108785781Y-116728121D01*
X109317971Y-116728121D02*
X109414733Y-116679740D01*
X109463114Y-116582978D01*
X109463114Y-116437835D01*
X109414733Y-116341073D01*
X109317971Y-116292692D01*
X108785781Y-116292692D01*
X108785781Y-115373454D02*
X109317971Y-115373454D01*
X109414733Y-115421835D01*
X109463114Y-115518597D01*
X109463114Y-115712120D01*
X109414733Y-115808882D01*
X108834162Y-115373454D02*
X108785781Y-115470216D01*
X108785781Y-115712120D01*
X108834162Y-115808882D01*
X108930924Y-115857263D01*
X109027686Y-115857263D01*
X109124448Y-115808882D01*
X109172829Y-115712120D01*
X109172829Y-115470216D01*
X109221210Y-115373454D01*
X109463114Y-114889644D02*
X108785781Y-114889644D01*
X109366352Y-114889644D02*
X109414733Y-114841263D01*
X109463114Y-114744501D01*
X109463114Y-114599359D01*
X109414733Y-114502597D01*
X109317971Y-114454216D01*
X108785781Y-114454216D01*
X108785781Y-113534978D02*
X109801781Y-113534978D01*
X108834162Y-113534978D02*
X108785781Y-113631740D01*
X108785781Y-113825263D01*
X108834162Y-113922025D01*
X108882543Y-113970406D01*
X108979305Y-114018787D01*
X109269590Y-114018787D01*
X109366352Y-113970406D01*
X109414733Y-113922025D01*
X109463114Y-113825263D01*
X109463114Y-113631740D01*
X109414733Y-113534978D01*
X108785781Y-112277073D02*
X109801781Y-112277073D01*
X109076067Y-111938407D01*
X109801781Y-111599740D01*
X108785781Y-111599740D01*
X108785781Y-110970787D02*
X108834162Y-111067549D01*
X108882543Y-111115930D01*
X108979305Y-111164311D01*
X109269590Y-111164311D01*
X109366352Y-111115930D01*
X109414733Y-111067549D01*
X109463114Y-110970787D01*
X109463114Y-110825645D01*
X109414733Y-110728883D01*
X109366352Y-110680502D01*
X109269590Y-110632121D01*
X108979305Y-110632121D01*
X108882543Y-110680502D01*
X108834162Y-110728883D01*
X108785781Y-110825645D01*
X108785781Y-110970787D01*
X108785781Y-109761264D02*
X109801781Y-109761264D01*
X108834162Y-109761264D02*
X108785781Y-109858026D01*
X108785781Y-110051549D01*
X108834162Y-110148311D01*
X108882543Y-110196692D01*
X108979305Y-110245073D01*
X109269590Y-110245073D01*
X109366352Y-110196692D01*
X109414733Y-110148311D01*
X109463114Y-110051549D01*
X109463114Y-109858026D01*
X109414733Y-109761264D01*
X109463114Y-108842026D02*
X108785781Y-108842026D01*
X109463114Y-109277454D02*
X108930924Y-109277454D01*
X108834162Y-109229073D01*
X108785781Y-109132311D01*
X108785781Y-108987169D01*
X108834162Y-108890407D01*
X108882543Y-108842026D01*
X108785781Y-108213073D02*
X108834162Y-108309835D01*
X108930924Y-108358216D01*
X109801781Y-108358216D01*
X108834162Y-107438979D02*
X108785781Y-107535741D01*
X108785781Y-107729264D01*
X108834162Y-107826026D01*
X108930924Y-107874407D01*
X109317971Y-107874407D01*
X109414733Y-107826026D01*
X109463114Y-107729264D01*
X109463114Y-107535741D01*
X109414733Y-107438979D01*
X109317971Y-107390598D01*
X109221210Y-107390598D01*
X109124448Y-107874407D01*
X107210981Y-126114024D02*
X107694790Y-126452690D01*
X107210981Y-126694595D02*
X108226981Y-126694595D01*
X108226981Y-126307548D01*
X108178600Y-126210786D01*
X108130219Y-126162405D01*
X108033457Y-126114024D01*
X107888314Y-126114024D01*
X107791552Y-126162405D01*
X107743171Y-126210786D01*
X107694790Y-126307548D01*
X107694790Y-126694595D01*
X107259362Y-125291548D02*
X107210981Y-125388310D01*
X107210981Y-125581833D01*
X107259362Y-125678595D01*
X107356124Y-125726976D01*
X107743171Y-125726976D01*
X107839933Y-125678595D01*
X107888314Y-125581833D01*
X107888314Y-125388310D01*
X107839933Y-125291548D01*
X107743171Y-125243167D01*
X107646410Y-125243167D01*
X107549648Y-125726976D01*
X107888314Y-124904500D02*
X107210981Y-124662595D01*
X107888314Y-124420691D01*
X107888314Y-122824120D02*
X107210981Y-122824120D01*
X108275362Y-123066024D02*
X107549648Y-123307929D01*
X107549648Y-122678977D01*
X107210981Y-121808120D02*
X107210981Y-122291929D01*
X108226981Y-122291929D01*
X107307743Y-121469453D02*
X107259362Y-121421072D01*
X107210981Y-121469453D01*
X107259362Y-121517834D01*
X107307743Y-121469453D01*
X107210981Y-121469453D01*
X107210981Y-120453453D02*
X107210981Y-121034024D01*
X107210981Y-120743738D02*
X108226981Y-120743738D01*
X108081838Y-120840500D01*
X107985076Y-120937262D01*
X107936695Y-121034024D01*
D13*
X101201790Y-110214023D02*
X101201790Y-111214023D01*
X99501790Y-111214023D02*
X99501790Y-110214023D01*
X98963790Y-110222024D02*
X98963790Y-112222024D01*
X96913790Y-112222024D02*
X96913790Y-110222024D01*
X96423790Y-110222023D02*
X96423790Y-112222023D01*
X94373790Y-112222023D02*
X94373790Y-110222023D01*
X88707406Y-99879313D02*
X89414513Y-99172206D01*
X90616594Y-100374287D02*
X89909487Y-101081394D01*
X91178000Y-97420800D02*
X90178000Y-97420800D01*
X90178000Y-95720800D02*
X91178000Y-95720800D01*
X85971000Y-96023800D02*
X84971000Y-96023800D01*
X84971000Y-94323800D02*
X85971000Y-94323800D01*
X91733000Y-119245000D02*
X91733000Y-118245000D01*
X93433000Y-118245000D02*
X93433000Y-119245000D01*
X84066000Y-132930000D02*
X83066000Y-132930000D01*
X83066000Y-131230000D02*
X84066000Y-131230000D01*
X100369000Y-131818000D02*
X100369000Y-130818000D01*
X102069000Y-130818000D02*
X102069000Y-131818000D01*
X98210000Y-131818000D02*
X98210000Y-130818000D01*
X99910000Y-130818000D02*
X99910000Y-131818000D01*
X86799800Y-126327800D02*
X87799800Y-126327800D01*
X87799800Y-128027800D02*
X86799800Y-128027800D01*
X102792000Y-130413000D02*
X102792000Y-128413000D01*
X105742000Y-128413000D02*
X105742000Y-130413000D01*
X104029000Y-133018000D02*
X106029000Y-133018000D01*
X106029000Y-135968000D02*
X104029000Y-135968000D01*
X92823000Y-83023000D02*
X92823000Y-81823000D01*
X91073000Y-81823000D02*
X91073000Y-83023000D01*
X85866000Y-81823000D02*
X85866000Y-83023000D01*
X87616000Y-83023000D02*
X87616000Y-81823000D01*
X85203000Y-83023000D02*
X85203000Y-81823000D01*
X83453000Y-81823000D02*
X83453000Y-83023000D01*
X96153000Y-81823000D02*
X96153000Y-83023000D01*
X97903000Y-83023000D02*
X97903000Y-81823000D01*
X89549000Y-118272000D02*
X89549000Y-119472000D01*
X91299000Y-119472000D02*
X91299000Y-118272000D01*
X89140000Y-119472000D02*
X89140000Y-118272000D01*
X87390000Y-118272000D02*
X87390000Y-119472000D01*
X86981000Y-119472000D02*
X86981000Y-118272000D01*
X85231000Y-118272000D02*
X85231000Y-119472000D01*
X85612000Y-123733000D02*
X85612000Y-124933000D01*
X87362000Y-124933000D02*
X87362000Y-123733000D01*
X83220000Y-130669000D02*
X84420000Y-130669000D01*
X84420000Y-128919000D02*
X83220000Y-128919000D01*
X93945000Y-122442000D02*
X92745000Y-122442000D01*
X92745000Y-124192000D02*
X93945000Y-124192000D01*
X93945000Y-124728000D02*
X92745000Y-124728000D01*
X92745000Y-126478000D02*
X93945000Y-126478000D01*
X94654000Y-95165800D02*
X94654000Y-94165800D01*
X96354000Y-94165800D02*
X96354000Y-95165800D01*
X83531000Y-89422000D02*
X82331000Y-89422000D01*
X82331000Y-91172000D02*
X83531000Y-91172000D01*
X83531000Y-87263000D02*
X82331000Y-87263000D01*
X82331000Y-89013000D02*
X83531000Y-89013000D01*
X107597500Y-85358000D02*
X106397500Y-85358000D01*
X106397500Y-87108000D02*
X107597500Y-87108000D01*
X107534000Y-83199000D02*
X106334000Y-83199000D01*
X106334000Y-84949000D02*
X107534000Y-84949000D01*
X96765000Y-95157800D02*
X96765000Y-93157800D01*
X98815000Y-93157800D02*
X98815000Y-95157800D01*
X99305000Y-95157800D02*
X99305000Y-93157800D01*
X101355000Y-93157800D02*
X101355000Y-95157800D01*
D14*
G36*
X103737833Y-117240544D02*
X101430667Y-117238922D01*
X100541667Y-116390720D01*
X100333600Y-116192227D01*
X100120186Y-115988682D01*
X99908841Y-115787153D01*
X99706977Y-115594707D01*
X99522008Y-115418412D01*
X99361349Y-115265337D01*
X99232414Y-115142548D01*
X99208167Y-115119468D01*
X98763667Y-114696420D01*
X98763667Y-127210424D01*
X98876556Y-127108536D01*
X98876556Y-126955224D01*
X98876556Y-114977155D01*
X98959737Y-115044272D01*
X98995521Y-115076037D01*
X99068118Y-115142929D01*
X99173476Y-115241136D01*
X99307544Y-115366847D01*
X99466270Y-115516253D01*
X99645604Y-115685541D01*
X99841492Y-115870901D01*
X100049884Y-116068523D01*
X100171278Y-116183833D01*
X101299639Y-117256278D01*
X101299893Y-120953389D01*
X101300146Y-124650500D01*
X100396777Y-125511278D01*
X100194512Y-125703952D01*
X99993187Y-125895630D01*
X99799011Y-126080407D01*
X99618192Y-126252379D01*
X99456940Y-126405642D01*
X99321464Y-126534291D01*
X99217972Y-126632421D01*
X99184982Y-126663640D01*
X98876556Y-126955224D01*
X98876556Y-127108536D01*
X98954167Y-127038487D01*
X99010493Y-126986437D01*
X99102977Y-126899479D01*
X99227142Y-126781882D01*
X99378508Y-126637915D01*
X99552600Y-126471847D01*
X99744940Y-126287945D01*
X99951049Y-126090479D01*
X100166452Y-125883717D01*
X100287667Y-125767193D01*
X101430667Y-124667835D01*
X103737833Y-124666223D01*
X105932111Y-124664690D01*
X105932111Y-124551722D01*
X101473000Y-124551722D01*
X101473000Y-117355055D01*
X105932111Y-117355055D01*
X105932111Y-124551722D01*
X105932111Y-124664690D01*
X106045000Y-124664611D01*
X106045000Y-117242167D01*
X103737833Y-117240544D01*
X103737833Y-117240544D01*
G37*
X103737833Y-117240544D02*
X101430667Y-117238922D01*
X100541667Y-116390720D01*
X100333600Y-116192227D01*
X100120186Y-115988682D01*
X99908841Y-115787153D01*
X99706977Y-115594707D01*
X99522008Y-115418412D01*
X99361349Y-115265337D01*
X99232414Y-115142548D01*
X99208167Y-115119468D01*
X98763667Y-114696420D01*
X98763667Y-127210424D01*
X98876556Y-127108536D01*
X98876556Y-126955224D01*
X98876556Y-114977155D01*
X98959737Y-115044272D01*
X98995521Y-115076037D01*
X99068118Y-115142929D01*
X99173476Y-115241136D01*
X99307544Y-115366847D01*
X99466270Y-115516253D01*
X99645604Y-115685541D01*
X99841492Y-115870901D01*
X100049884Y-116068523D01*
X100171278Y-116183833D01*
X101299639Y-117256278D01*
X101299893Y-120953389D01*
X101300146Y-124650500D01*
X100396777Y-125511278D01*
X100194512Y-125703952D01*
X99993187Y-125895630D01*
X99799011Y-126080407D01*
X99618192Y-126252379D01*
X99456940Y-126405642D01*
X99321464Y-126534291D01*
X99217972Y-126632421D01*
X99184982Y-126663640D01*
X98876556Y-126955224D01*
X98876556Y-127108536D01*
X98954167Y-127038487D01*
X99010493Y-126986437D01*
X99102977Y-126899479D01*
X99227142Y-126781882D01*
X99378508Y-126637915D01*
X99552600Y-126471847D01*
X99744940Y-126287945D01*
X99951049Y-126090479D01*
X100166452Y-125883717D01*
X100287667Y-125767193D01*
X101430667Y-124667835D01*
X103737833Y-124666223D01*
X105932111Y-124664690D01*
X105932111Y-124551722D01*
X101473000Y-124551722D01*
X101473000Y-117355055D01*
X105932111Y-117355055D01*
X105932111Y-124551722D01*
X105932111Y-124664690D01*
X106045000Y-124664611D01*
X106045000Y-117242167D01*
X103737833Y-117240544D01*
G36*
X100746278Y-122914503D02*
X100695473Y-122915975D01*
X100597967Y-122920278D01*
X100463406Y-122926928D01*
X100301438Y-122935445D01*
X100121709Y-122945347D01*
X100068945Y-122948335D01*
X99469222Y-122982497D01*
X99469222Y-125336931D01*
X99643948Y-125346493D01*
X99779667Y-125353920D01*
X99779667Y-125313722D01*
X99497445Y-125313722D01*
X99497445Y-123027722D01*
X99575056Y-123027337D01*
X99659698Y-123020606D01*
X99716167Y-123009934D01*
X99779667Y-122992917D01*
X99779667Y-125313722D01*
X99779667Y-125353920D01*
X99818673Y-125356055D01*
X99836111Y-125341598D01*
X99836111Y-125264077D01*
X99836111Y-123035395D01*
X100167722Y-123016220D01*
X100314301Y-123006982D01*
X100454363Y-122996817D01*
X100570116Y-122987091D01*
X100633389Y-122980526D01*
X100767445Y-122964006D01*
X100767445Y-124492356D01*
X100435833Y-124769946D01*
X100307494Y-124877113D01*
X100182455Y-124981053D01*
X100072660Y-125071869D01*
X99990053Y-125139666D01*
X99970167Y-125155807D01*
X99836111Y-125264077D01*
X99836111Y-125341598D01*
X100823889Y-124522663D01*
X100823889Y-122914833D01*
X100746278Y-122914503D01*
X100746278Y-122914503D01*
G37*
X100746278Y-122914503D02*
X100695473Y-122915975D01*
X100597967Y-122920278D01*
X100463406Y-122926928D01*
X100301438Y-122935445D01*
X100121709Y-122945347D01*
X100068945Y-122948335D01*
X99469222Y-122982497D01*
X99469222Y-125336931D01*
X99643948Y-125346493D01*
X99779667Y-125353920D01*
X99779667Y-125313722D01*
X99497445Y-125313722D01*
X99497445Y-123027722D01*
X99575056Y-123027337D01*
X99659698Y-123020606D01*
X99716167Y-123009934D01*
X99779667Y-122992917D01*
X99779667Y-125313722D01*
X99779667Y-125353920D01*
X99818673Y-125356055D01*
X99836111Y-125341598D01*
X99836111Y-125264077D01*
X99836111Y-123035395D01*
X100167722Y-123016220D01*
X100314301Y-123006982D01*
X100454363Y-122996817D01*
X100570116Y-122987091D01*
X100633389Y-122980526D01*
X100767445Y-122964006D01*
X100767445Y-124492356D01*
X100435833Y-124769946D01*
X100307494Y-124877113D01*
X100182455Y-124981053D01*
X100072660Y-125071869D01*
X99990053Y-125139666D01*
X99970167Y-125155807D01*
X99836111Y-125264077D01*
X99836111Y-125341598D01*
X100823889Y-124522663D01*
X100823889Y-122914833D01*
X100746278Y-122914503D01*
G36*
X100312676Y-117242585D02*
X99801463Y-116818833D01*
X99469222Y-116818833D01*
X99469222Y-119206992D01*
X99779667Y-119224114D01*
X99779667Y-119161278D01*
X99497445Y-119161278D01*
X99497445Y-116847055D01*
X99779667Y-116847055D01*
X99779667Y-119161278D01*
X99779667Y-119224114D01*
X100083056Y-119240847D01*
X100267039Y-119250826D01*
X100434936Y-119259614D01*
X100577511Y-119266755D01*
X100685531Y-119271790D01*
X100749759Y-119274260D01*
X100760389Y-119274434D01*
X100767445Y-119274405D01*
X100767445Y-119224994D01*
X100633389Y-119208474D01*
X100549994Y-119200085D01*
X100428020Y-119190163D01*
X100285257Y-119180074D01*
X100167722Y-119172780D01*
X99836111Y-119153605D01*
X99836111Y-116924923D01*
X99970167Y-117033193D01*
X100040725Y-117090837D01*
X100142560Y-117174889D01*
X100263726Y-117275452D01*
X100392280Y-117382628D01*
X100435833Y-117419054D01*
X100767445Y-117696644D01*
X100767445Y-119224994D01*
X100767445Y-119274405D01*
X100823889Y-119274167D01*
X100823889Y-117666336D01*
X100312676Y-117242585D01*
X100312676Y-117242585D01*
G37*
X100312676Y-117242585D02*
X99801463Y-116818833D01*
X99469222Y-116818833D01*
X99469222Y-119206992D01*
X99779667Y-119224114D01*
X99779667Y-119161278D01*
X99497445Y-119161278D01*
X99497445Y-116847055D01*
X99779667Y-116847055D01*
X99779667Y-119161278D01*
X99779667Y-119224114D01*
X100083056Y-119240847D01*
X100267039Y-119250826D01*
X100434936Y-119259614D01*
X100577511Y-119266755D01*
X100685531Y-119271790D01*
X100749759Y-119274260D01*
X100760389Y-119274434D01*
X100767445Y-119274405D01*
X100767445Y-119224994D01*
X100633389Y-119208474D01*
X100549994Y-119200085D01*
X100428020Y-119190163D01*
X100285257Y-119180074D01*
X100167722Y-119172780D01*
X99836111Y-119153605D01*
X99836111Y-116924923D01*
X99970167Y-117033193D01*
X100040725Y-117090837D01*
X100142560Y-117174889D01*
X100263726Y-117275452D01*
X100392280Y-117382628D01*
X100435833Y-117419054D01*
X100767445Y-117696644D01*
X100767445Y-119224994D01*
X100767445Y-119274405D01*
X100823889Y-119274167D01*
X100823889Y-117666336D01*
X100312676Y-117242585D01*
G36*
X101896333Y-118088833D02*
X101896333Y-123817944D01*
X105395889Y-123817944D01*
X105395889Y-123705055D01*
X103279222Y-123705055D01*
X103278603Y-123627444D01*
X103253263Y-123499978D01*
X103187196Y-123369323D01*
X103092445Y-123252320D01*
X102981055Y-123165806D01*
X102931663Y-123142407D01*
X102874156Y-123131164D01*
X102773604Y-123121839D01*
X102643395Y-123115308D01*
X102496921Y-123112447D01*
X102473052Y-123112389D01*
X102093889Y-123112389D01*
X102093889Y-123408722D01*
X102092591Y-123544044D01*
X102087830Y-123632075D01*
X102078303Y-123681926D01*
X102062710Y-123702710D01*
X102051556Y-123705055D01*
X102044489Y-123700167D01*
X102038241Y-123683373D01*
X102032763Y-123651480D01*
X102028007Y-123601296D01*
X102023922Y-123529629D01*
X102020460Y-123433285D01*
X102017572Y-123309071D01*
X102015208Y-123153795D01*
X102013319Y-122964265D01*
X102011857Y-122737287D01*
X102010773Y-122469668D01*
X102010016Y-122158216D01*
X102009538Y-121799739D01*
X102009290Y-121391043D01*
X102009222Y-120953389D01*
X102009222Y-118201722D01*
X105395889Y-118201722D01*
X105395889Y-123705055D01*
X105395889Y-123817944D01*
X105508778Y-123817944D01*
X105508778Y-118088833D01*
X101896333Y-118088833D01*
X101896333Y-118088833D01*
G37*
X101896333Y-118088833D02*
X101896333Y-123817944D01*
X105395889Y-123817944D01*
X105395889Y-123705055D01*
X103279222Y-123705055D01*
X103278603Y-123627444D01*
X103253263Y-123499978D01*
X103187196Y-123369323D01*
X103092445Y-123252320D01*
X102981055Y-123165806D01*
X102931663Y-123142407D01*
X102874156Y-123131164D01*
X102773604Y-123121839D01*
X102643395Y-123115308D01*
X102496921Y-123112447D01*
X102473052Y-123112389D01*
X102093889Y-123112389D01*
X102093889Y-123408722D01*
X102092591Y-123544044D01*
X102087830Y-123632075D01*
X102078303Y-123681926D01*
X102062710Y-123702710D01*
X102051556Y-123705055D01*
X102044489Y-123700167D01*
X102038241Y-123683373D01*
X102032763Y-123651480D01*
X102028007Y-123601296D01*
X102023922Y-123529629D01*
X102020460Y-123433285D01*
X102017572Y-123309071D01*
X102015208Y-123153795D01*
X102013319Y-122964265D01*
X102011857Y-122737287D01*
X102010773Y-122469668D01*
X102010016Y-122158216D01*
X102009538Y-121799739D01*
X102009290Y-121391043D01*
X102009222Y-120953389D01*
X102009222Y-118201722D01*
X105395889Y-118201722D01*
X105395889Y-123705055D01*
X105395889Y-123817944D01*
X105508778Y-123817944D01*
X105508778Y-118088833D01*
X101896333Y-118088833D01*
G36*
X100671950Y-123768725D02*
X100630633Y-123674931D01*
X100570096Y-123612358D01*
X100531620Y-123597153D01*
X100493118Y-123605413D01*
X100489416Y-123642948D01*
X100519209Y-123695647D01*
X100543036Y-123720406D01*
X100590902Y-123793683D01*
X100591955Y-123873357D01*
X100553300Y-123949128D01*
X100482042Y-124010693D01*
X100385284Y-124047751D01*
X100313082Y-124053844D01*
X100205491Y-124031630D01*
X100123927Y-123978655D01*
X100074369Y-123906085D01*
X100062797Y-123825090D01*
X100095187Y-123746836D01*
X100130063Y-123711971D01*
X100171538Y-123662322D01*
X100175126Y-123620414D01*
X100144120Y-123601639D01*
X100107978Y-123608742D01*
X100044583Y-123660666D01*
X100001220Y-123749699D01*
X99980156Y-123859376D01*
X99983660Y-123973229D01*
X100013999Y-124074791D01*
X100038405Y-124113892D01*
X100142219Y-124205156D01*
X100265069Y-124250377D01*
X100394258Y-124250194D01*
X100517089Y-124205244D01*
X100620865Y-124116165D01*
X100644755Y-124083437D01*
X100682594Y-123988377D01*
X100690465Y-123878339D01*
X100671950Y-123768725D01*
X100671950Y-123768725D01*
G37*
X100671950Y-123768725D02*
X100630633Y-123674931D01*
X100570096Y-123612358D01*
X100531620Y-123597153D01*
X100493118Y-123605413D01*
X100489416Y-123642948D01*
X100519209Y-123695647D01*
X100543036Y-123720406D01*
X100590902Y-123793683D01*
X100591955Y-123873357D01*
X100553300Y-123949128D01*
X100482042Y-124010693D01*
X100385284Y-124047751D01*
X100313082Y-124053844D01*
X100205491Y-124031630D01*
X100123927Y-123978655D01*
X100074369Y-123906085D01*
X100062797Y-123825090D01*
X100095187Y-123746836D01*
X100130063Y-123711971D01*
X100171538Y-123662322D01*
X100175126Y-123620414D01*
X100144120Y-123601639D01*
X100107978Y-123608742D01*
X100044583Y-123660666D01*
X100001220Y-123749699D01*
X99980156Y-123859376D01*
X99983660Y-123973229D01*
X100013999Y-124074791D01*
X100038405Y-124113892D01*
X100142219Y-124205156D01*
X100265069Y-124250377D01*
X100394258Y-124250194D01*
X100517089Y-124205244D01*
X100620865Y-124116165D01*
X100644755Y-124083437D01*
X100682594Y-123988377D01*
X100690465Y-123878339D01*
X100671950Y-123768725D01*
G36*
X100671950Y-118067836D02*
X100630633Y-117974043D01*
X100570096Y-117911470D01*
X100531620Y-117896264D01*
X100493118Y-117904525D01*
X100489416Y-117942059D01*
X100519209Y-117994758D01*
X100543036Y-118019517D01*
X100590902Y-118092794D01*
X100591955Y-118172468D01*
X100553300Y-118248239D01*
X100482042Y-118309804D01*
X100385284Y-118346862D01*
X100313082Y-118352955D01*
X100205491Y-118330741D01*
X100123927Y-118277766D01*
X100074369Y-118205197D01*
X100062797Y-118124201D01*
X100095187Y-118045948D01*
X100130063Y-118011082D01*
X100171538Y-117961433D01*
X100175126Y-117919525D01*
X100144120Y-117900750D01*
X100107978Y-117907853D01*
X100044583Y-117959777D01*
X100001220Y-118048810D01*
X99980156Y-118158487D01*
X99983660Y-118272340D01*
X100013999Y-118373902D01*
X100038405Y-118413003D01*
X100142219Y-118504267D01*
X100265069Y-118549488D01*
X100394258Y-118549305D01*
X100517089Y-118504355D01*
X100620865Y-118415276D01*
X100644755Y-118382549D01*
X100682594Y-118287488D01*
X100690465Y-118177450D01*
X100671950Y-118067836D01*
X100671950Y-118067836D01*
G37*
X100671950Y-118067836D02*
X100630633Y-117974043D01*
X100570096Y-117911470D01*
X100531620Y-117896264D01*
X100493118Y-117904525D01*
X100489416Y-117942059D01*
X100519209Y-117994758D01*
X100543036Y-118019517D01*
X100590902Y-118092794D01*
X100591955Y-118172468D01*
X100553300Y-118248239D01*
X100482042Y-118309804D01*
X100385284Y-118346862D01*
X100313082Y-118352955D01*
X100205491Y-118330741D01*
X100123927Y-118277766D01*
X100074369Y-118205197D01*
X100062797Y-118124201D01*
X100095187Y-118045948D01*
X100130063Y-118011082D01*
X100171538Y-117961433D01*
X100175126Y-117919525D01*
X100144120Y-117900750D01*
X100107978Y-117907853D01*
X100044583Y-117959777D01*
X100001220Y-118048810D01*
X99980156Y-118158487D01*
X99983660Y-118272340D01*
X100013999Y-118373902D01*
X100038405Y-118413003D01*
X100142219Y-118504267D01*
X100265069Y-118549488D01*
X100394258Y-118549305D01*
X100517089Y-118504355D01*
X100620865Y-118415276D01*
X100644755Y-118382549D01*
X100682594Y-118287488D01*
X100690465Y-118177450D01*
X100671950Y-118067836D01*
G36*
X103842329Y-118741038D02*
X103801333Y-118698177D01*
X103753719Y-118640992D01*
X103730929Y-118594817D01*
X103730600Y-118591061D01*
X103705722Y-118550491D01*
X103630450Y-118498178D01*
X103503310Y-118433249D01*
X103349778Y-118365996D01*
X103164185Y-118295052D01*
X103024338Y-118256019D01*
X102930499Y-118248955D01*
X102892101Y-118263247D01*
X102863920Y-118293928D01*
X102864103Y-118325989D01*
X102897749Y-118370698D01*
X102969960Y-118439320D01*
X102973105Y-118442163D01*
X103047784Y-118503908D01*
X103144205Y-118575589D01*
X103252321Y-118650731D01*
X103362084Y-118722861D01*
X103403527Y-118748473D01*
X103403527Y-118681500D01*
X103363424Y-118664647D01*
X103294835Y-118620406D01*
X103209693Y-118558251D01*
X103119934Y-118487657D01*
X103037492Y-118418098D01*
X102974303Y-118359050D01*
X102942302Y-118319986D01*
X102940556Y-118313962D01*
X102964393Y-118305993D01*
X103023831Y-118314337D01*
X103046389Y-118320001D01*
X103126376Y-118344965D01*
X103223607Y-118379510D01*
X103324082Y-118418068D01*
X103413798Y-118455067D01*
X103478757Y-118484937D01*
X103504956Y-118502109D01*
X103505000Y-118502458D01*
X103492610Y-118538341D01*
X103463770Y-118594598D01*
X103430970Y-118649187D01*
X103406705Y-118680066D01*
X103403527Y-118681500D01*
X103403527Y-118748473D01*
X103463445Y-118785504D01*
X103546356Y-118832187D01*
X103600769Y-118856435D01*
X103616466Y-118856672D01*
X103653839Y-118841105D01*
X103695500Y-118839101D01*
X103749133Y-118835761D01*
X103750178Y-118813936D01*
X103709656Y-118778641D01*
X103674461Y-118742112D01*
X103683864Y-118723907D01*
X103727943Y-118727723D01*
X103784600Y-118750699D01*
X103848629Y-118779947D01*
X103867727Y-118777179D01*
X103842329Y-118741038D01*
X103842329Y-118741038D01*
G37*
X103842329Y-118741038D02*
X103801333Y-118698177D01*
X103753719Y-118640992D01*
X103730929Y-118594817D01*
X103730600Y-118591061D01*
X103705722Y-118550491D01*
X103630450Y-118498178D01*
X103503310Y-118433249D01*
X103349778Y-118365996D01*
X103164185Y-118295052D01*
X103024338Y-118256019D01*
X102930499Y-118248955D01*
X102892101Y-118263247D01*
X102863920Y-118293928D01*
X102864103Y-118325989D01*
X102897749Y-118370698D01*
X102969960Y-118439320D01*
X102973105Y-118442163D01*
X103047784Y-118503908D01*
X103144205Y-118575589D01*
X103252321Y-118650731D01*
X103362084Y-118722861D01*
X103403527Y-118748473D01*
X103403527Y-118681500D01*
X103363424Y-118664647D01*
X103294835Y-118620406D01*
X103209693Y-118558251D01*
X103119934Y-118487657D01*
X103037492Y-118418098D01*
X102974303Y-118359050D01*
X102942302Y-118319986D01*
X102940556Y-118313962D01*
X102964393Y-118305993D01*
X103023831Y-118314337D01*
X103046389Y-118320001D01*
X103126376Y-118344965D01*
X103223607Y-118379510D01*
X103324082Y-118418068D01*
X103413798Y-118455067D01*
X103478757Y-118484937D01*
X103504956Y-118502109D01*
X103505000Y-118502458D01*
X103492610Y-118538341D01*
X103463770Y-118594598D01*
X103430970Y-118649187D01*
X103406705Y-118680066D01*
X103403527Y-118681500D01*
X103403527Y-118748473D01*
X103463445Y-118785504D01*
X103546356Y-118832187D01*
X103600769Y-118856435D01*
X103616466Y-118856672D01*
X103653839Y-118841105D01*
X103695500Y-118839101D01*
X103749133Y-118835761D01*
X103750178Y-118813936D01*
X103709656Y-118778641D01*
X103674461Y-118742112D01*
X103683864Y-118723907D01*
X103727943Y-118727723D01*
X103784600Y-118750699D01*
X103848629Y-118779947D01*
X103867727Y-118777179D01*
X103842329Y-118741038D01*
G36*
X103950360Y-123034069D02*
X103891388Y-122975098D01*
X103733472Y-123081998D01*
X103635870Y-123145786D01*
X103542256Y-123203228D01*
X103483833Y-123236035D01*
X103418342Y-123274113D01*
X103397441Y-123308704D01*
X103414153Y-123359268D01*
X103429458Y-123387697D01*
X103464804Y-123451338D01*
X103670695Y-123324398D01*
X103774530Y-123259066D01*
X103867193Y-123198447D01*
X103932301Y-123153321D01*
X103942959Y-123145249D01*
X104009331Y-123093041D01*
X103950360Y-123034069D01*
X103950360Y-123034069D01*
G37*
X103950360Y-123034069D02*
X103891388Y-122975098D01*
X103733472Y-123081998D01*
X103635870Y-123145786D01*
X103542256Y-123203228D01*
X103483833Y-123236035D01*
X103418342Y-123274113D01*
X103397441Y-123308704D01*
X103414153Y-123359268D01*
X103429458Y-123387697D01*
X103464804Y-123451338D01*
X103670695Y-123324398D01*
X103774530Y-123259066D01*
X103867193Y-123198447D01*
X103932301Y-123153321D01*
X103942959Y-123145249D01*
X104009331Y-123093041D01*
X103950360Y-123034069D01*
G36*
X104301700Y-119021236D02*
X104246575Y-118976633D01*
X104173230Y-118924056D01*
X104096828Y-118873920D01*
X104032530Y-118836640D01*
X103996119Y-118822611D01*
X103962410Y-118845423D01*
X103936844Y-118886111D01*
X103925979Y-118923408D01*
X103937935Y-118956826D01*
X103981073Y-118997684D01*
X104062813Y-119056651D01*
X104146460Y-119112851D01*
X104198330Y-119139956D01*
X104232386Y-119141942D01*
X104262595Y-119122786D01*
X104270500Y-119115777D01*
X104310800Y-119072096D01*
X104323445Y-119047452D01*
X104301700Y-119021236D01*
X104301700Y-119021236D01*
G37*
X104301700Y-119021236D02*
X104246575Y-118976633D01*
X104173230Y-118924056D01*
X104096828Y-118873920D01*
X104032530Y-118836640D01*
X103996119Y-118822611D01*
X103962410Y-118845423D01*
X103936844Y-118886111D01*
X103925979Y-118923408D01*
X103937935Y-118956826D01*
X103981073Y-118997684D01*
X104062813Y-119056651D01*
X104146460Y-119112851D01*
X104198330Y-119139956D01*
X104232386Y-119141942D01*
X104262595Y-119122786D01*
X104270500Y-119115777D01*
X104310800Y-119072096D01*
X104323445Y-119047452D01*
X104301700Y-119021236D01*
G36*
X104691227Y-122224638D02*
X104664156Y-122214219D01*
X104618282Y-122201756D01*
X104583351Y-122208920D01*
X104546611Y-122244397D01*
X104495308Y-122316875D01*
X104480236Y-122339498D01*
X104407671Y-122442304D01*
X104328747Y-122544470D01*
X104280855Y-122600956D01*
X104183589Y-122708618D01*
X104309333Y-122826722D01*
X104408111Y-122710640D01*
X104486548Y-122614636D01*
X104569336Y-122507201D01*
X104644956Y-122403874D01*
X104701887Y-122320191D01*
X104720332Y-122289507D01*
X104727366Y-122252070D01*
X104691227Y-122224638D01*
X104691227Y-122224638D01*
G37*
X104691227Y-122224638D02*
X104664156Y-122214219D01*
X104618282Y-122201756D01*
X104583351Y-122208920D01*
X104546611Y-122244397D01*
X104495308Y-122316875D01*
X104480236Y-122339498D01*
X104407671Y-122442304D01*
X104328747Y-122544470D01*
X104280855Y-122600956D01*
X104183589Y-122708618D01*
X104309333Y-122826722D01*
X104408111Y-122710640D01*
X104486548Y-122614636D01*
X104569336Y-122507201D01*
X104644956Y-122403874D01*
X104701887Y-122320191D01*
X104720332Y-122289507D01*
X104727366Y-122252070D01*
X104691227Y-122224638D01*
G36*
X104876566Y-119795915D02*
X104847836Y-119733309D01*
X104804802Y-119650288D01*
X104754963Y-119560766D01*
X104705820Y-119478656D01*
X104664872Y-119417873D01*
X104663452Y-119416004D01*
X104623922Y-119369611D01*
X104594546Y-119365041D01*
X104551861Y-119398778D01*
X104551383Y-119399212D01*
X104502857Y-119451890D01*
X104499141Y-119490220D01*
X104528056Y-119522469D01*
X104559390Y-119561844D01*
X104605360Y-119634602D01*
X104648000Y-119710304D01*
X104696839Y-119796638D01*
X104732894Y-119841883D01*
X104767236Y-119856104D01*
X104803165Y-119851363D01*
X104859799Y-119834868D01*
X104883491Y-119824195D01*
X104876566Y-119795915D01*
X104876566Y-119795915D01*
G37*
X104876566Y-119795915D02*
X104847836Y-119733309D01*
X104804802Y-119650288D01*
X104754963Y-119560766D01*
X104705820Y-119478656D01*
X104664872Y-119417873D01*
X104663452Y-119416004D01*
X104623922Y-119369611D01*
X104594546Y-119365041D01*
X104551861Y-119398778D01*
X104551383Y-119399212D01*
X104502857Y-119451890D01*
X104499141Y-119490220D01*
X104528056Y-119522469D01*
X104559390Y-119561844D01*
X104605360Y-119634602D01*
X104648000Y-119710304D01*
X104696839Y-119796638D01*
X104732894Y-119841883D01*
X104767236Y-119856104D01*
X104803165Y-119851363D01*
X104859799Y-119834868D01*
X104883491Y-119824195D01*
X104876566Y-119795915D01*
G36*
X104983497Y-121221593D02*
X104944269Y-121224052D01*
X104917301Y-121238451D01*
X104896842Y-121275485D01*
X104877142Y-121345849D01*
X104852452Y-121460238D01*
X104850727Y-121468537D01*
X104825932Y-121586639D01*
X104803988Y-121688898D01*
X104788468Y-121758743D01*
X104784997Y-121773343D01*
X104790100Y-121825783D01*
X104842496Y-121864082D01*
X104881015Y-121878908D01*
X104907179Y-121873652D01*
X104929222Y-121838563D01*
X104955383Y-121763891D01*
X104971892Y-121710895D01*
X105005662Y-121586658D01*
X105033833Y-121456876D01*
X105047163Y-121373212D01*
X105064994Y-121221500D01*
X104983497Y-121221593D01*
X104983497Y-121221593D01*
G37*
X104983497Y-121221593D02*
X104944269Y-121224052D01*
X104917301Y-121238451D01*
X104896842Y-121275485D01*
X104877142Y-121345849D01*
X104852452Y-121460238D01*
X104850727Y-121468537D01*
X104825932Y-121586639D01*
X104803988Y-121688898D01*
X104788468Y-121758743D01*
X104784997Y-121773343D01*
X104790100Y-121825783D01*
X104842496Y-121864082D01*
X104881015Y-121878908D01*
X104907179Y-121873652D01*
X104929222Y-121838563D01*
X104955383Y-121763891D01*
X104971892Y-121710895D01*
X105005662Y-121586658D01*
X105033833Y-121456876D01*
X105047163Y-121373212D01*
X105064994Y-121221500D01*
X104983497Y-121221593D01*
G36*
X105080847Y-120617460D02*
X105068723Y-120507104D01*
X105051572Y-120396709D01*
X105031896Y-120300296D01*
X105012197Y-120231887D01*
X104994974Y-120205504D01*
X104994787Y-120205500D01*
X104918694Y-120226843D01*
X104874026Y-120280611D01*
X104872534Y-120351408D01*
X104876098Y-120360999D01*
X104884545Y-120401376D01*
X104895793Y-120481671D01*
X104907599Y-120585584D01*
X104909148Y-120600888D01*
X104921006Y-120708575D01*
X104933598Y-120772367D01*
X104952454Y-120804611D01*
X104983103Y-120817651D01*
X105007833Y-120821208D01*
X105056997Y-120822589D01*
X105079281Y-120801763D01*
X105085253Y-120744101D01*
X105085445Y-120713755D01*
X105080847Y-120617460D01*
X105080847Y-120617460D01*
G37*
X105080847Y-120617460D02*
X105068723Y-120507104D01*
X105051572Y-120396709D01*
X105031896Y-120300296D01*
X105012197Y-120231887D01*
X104994974Y-120205504D01*
X104994787Y-120205500D01*
X104918694Y-120226843D01*
X104874026Y-120280611D01*
X104872534Y-120351408D01*
X104876098Y-120360999D01*
X104884545Y-120401376D01*
X104895793Y-120481671D01*
X104907599Y-120585584D01*
X104909148Y-120600888D01*
X104921006Y-120708575D01*
X104933598Y-120772367D01*
X104952454Y-120804611D01*
X104983103Y-120817651D01*
X105007833Y-120821208D01*
X105056997Y-120822589D01*
X105079281Y-120801763D01*
X105085253Y-120744101D01*
X105085445Y-120713755D01*
X105080847Y-120617460D01*
D11*
X102189643Y-109954786D02*
X102225929Y-109918500D01*
X102262214Y-109809643D01*
X102262214Y-109737072D01*
X102225929Y-109628215D01*
X102153357Y-109555643D01*
X102080786Y-109519358D01*
X101935643Y-109483072D01*
X101826786Y-109483072D01*
X101681643Y-109519358D01*
X101609071Y-109555643D01*
X101536500Y-109628215D01*
X101500214Y-109737072D01*
X101500214Y-109809643D01*
X101536500Y-109918500D01*
X101572786Y-109954786D01*
X102262214Y-110680500D02*
X102262214Y-110245072D01*
X102262214Y-110462786D02*
X101500214Y-110462786D01*
X101609071Y-110390215D01*
X101681643Y-110317643D01*
X101717929Y-110245072D01*
X101500214Y-111152214D02*
X101500214Y-111224786D01*
X101536500Y-111297357D01*
X101572786Y-111333643D01*
X101645357Y-111369929D01*
X101790500Y-111406214D01*
X101971929Y-111406214D01*
X102117071Y-111369929D01*
X102189643Y-111333643D01*
X102225929Y-111297357D01*
X102262214Y-111224786D01*
X102262214Y-111152214D01*
X102225929Y-111079643D01*
X102189643Y-111043357D01*
X102117071Y-111007072D01*
X101971929Y-110970786D01*
X101790500Y-110970786D01*
X101645357Y-111007072D01*
X101572786Y-111043357D01*
X101536500Y-111079643D01*
X101500214Y-111152214D01*
X101500214Y-111660214D02*
X101500214Y-112168214D01*
X102262214Y-111841643D01*
X98833214Y-108603143D02*
X98869500Y-108639429D01*
X98978357Y-108675714D01*
X99050928Y-108675714D01*
X99159785Y-108639429D01*
X99232357Y-108566857D01*
X99268642Y-108494286D01*
X99304928Y-108349143D01*
X99304928Y-108240286D01*
X99268642Y-108095143D01*
X99232357Y-108022571D01*
X99159785Y-107950000D01*
X99050928Y-107913714D01*
X98978357Y-107913714D01*
X98869500Y-107950000D01*
X98833214Y-107986286D01*
X98107500Y-108675714D02*
X98542928Y-108675714D01*
X98325214Y-108675714D02*
X98325214Y-107913714D01*
X98397785Y-108022571D01*
X98470357Y-108095143D01*
X98542928Y-108131429D01*
X97635786Y-107913714D02*
X97563214Y-107913714D01*
X97490643Y-107950000D01*
X97454357Y-107986286D01*
X97418071Y-108058857D01*
X97381786Y-108204000D01*
X97381786Y-108385429D01*
X97418071Y-108530571D01*
X97454357Y-108603143D01*
X97490643Y-108639429D01*
X97563214Y-108675714D01*
X97635786Y-108675714D01*
X97708357Y-108639429D01*
X97744643Y-108603143D01*
X97780928Y-108530571D01*
X97817214Y-108385429D01*
X97817214Y-108204000D01*
X97780928Y-108058857D01*
X97744643Y-107986286D01*
X97708357Y-107950000D01*
X97635786Y-107913714D01*
X96946357Y-108240286D02*
X97018929Y-108204000D01*
X97055214Y-108167714D01*
X97091500Y-108095143D01*
X97091500Y-108058857D01*
X97055214Y-107986286D01*
X97018929Y-107950000D01*
X96946357Y-107913714D01*
X96801214Y-107913714D01*
X96728643Y-107950000D01*
X96692357Y-107986286D01*
X96656072Y-108058857D01*
X96656072Y-108095143D01*
X96692357Y-108167714D01*
X96728643Y-108204000D01*
X96801214Y-108240286D01*
X96946357Y-108240286D01*
X97018929Y-108276571D01*
X97055214Y-108312857D01*
X97091500Y-108385429D01*
X97091500Y-108530571D01*
X97055214Y-108603143D01*
X97018929Y-108639429D01*
X96946357Y-108675714D01*
X96801214Y-108675714D01*
X96728643Y-108639429D01*
X96692357Y-108603143D01*
X96656072Y-108530571D01*
X96656072Y-108385429D01*
X96692357Y-108312857D01*
X96728643Y-108276571D01*
X96801214Y-108240286D01*
X93998143Y-110145286D02*
X94034429Y-110109000D01*
X94070714Y-110000143D01*
X94070714Y-109927572D01*
X94034429Y-109818715D01*
X93961857Y-109746143D01*
X93889286Y-109709858D01*
X93744143Y-109673572D01*
X93635286Y-109673572D01*
X93490143Y-109709858D01*
X93417571Y-109746143D01*
X93345000Y-109818715D01*
X93308714Y-109927572D01*
X93308714Y-110000143D01*
X93345000Y-110109000D01*
X93381286Y-110145286D01*
X94070714Y-110871000D02*
X94070714Y-110435572D01*
X94070714Y-110653286D02*
X93308714Y-110653286D01*
X93417571Y-110580715D01*
X93490143Y-110508143D01*
X93526429Y-110435572D01*
X93308714Y-111342714D02*
X93308714Y-111415286D01*
X93345000Y-111487857D01*
X93381286Y-111524143D01*
X93453857Y-111560429D01*
X93599000Y-111596714D01*
X93780429Y-111596714D01*
X93925571Y-111560429D01*
X93998143Y-111524143D01*
X94034429Y-111487857D01*
X94070714Y-111415286D01*
X94070714Y-111342714D01*
X94034429Y-111270143D01*
X93998143Y-111233857D01*
X93925571Y-111197572D01*
X93780429Y-111161286D01*
X93599000Y-111161286D01*
X93453857Y-111197572D01*
X93381286Y-111233857D01*
X93345000Y-111270143D01*
X93308714Y-111342714D01*
X94070714Y-111959571D02*
X94070714Y-112104714D01*
X94034429Y-112177286D01*
X93998143Y-112213571D01*
X93889286Y-112286143D01*
X93744143Y-112322428D01*
X93453857Y-112322428D01*
X93381286Y-112286143D01*
X93345000Y-112249857D01*
X93308714Y-112177286D01*
X93308714Y-112032143D01*
X93345000Y-111959571D01*
X93381286Y-111923286D01*
X93453857Y-111887000D01*
X93635286Y-111887000D01*
X93707857Y-111923286D01*
X93744143Y-111959571D01*
X93780429Y-112032143D01*
X93780429Y-112177286D01*
X93744143Y-112249857D01*
X93707857Y-112286143D01*
X93635286Y-112322428D01*
X92108394Y-100490974D02*
X92159710Y-100490974D01*
X92262341Y-100439658D01*
X92313657Y-100388343D01*
X92364973Y-100285712D01*
X92364973Y-100183080D01*
X92339315Y-100106107D01*
X92262341Y-99977817D01*
X92185368Y-99900843D01*
X92057078Y-99823870D01*
X91980104Y-99798211D01*
X91877473Y-99798212D01*
X91774841Y-99849527D01*
X91723526Y-99900843D01*
X91672210Y-100003474D01*
X91672210Y-100054791D01*
X91646552Y-101055447D02*
X91954446Y-100747553D01*
X91800499Y-100901500D02*
X91261684Y-100362685D01*
X91389973Y-100388343D01*
X91492605Y-100388343D01*
X91569579Y-100362685D01*
X90774185Y-100850184D02*
X90722868Y-100901500D01*
X90697211Y-100978474D01*
X90697211Y-101029790D01*
X90722868Y-101106763D01*
X90799843Y-101235052D01*
X90928132Y-101363342D01*
X91056421Y-101440315D01*
X91133395Y-101465973D01*
X91184711Y-101465973D01*
X91261684Y-101440315D01*
X91313000Y-101388999D01*
X91338658Y-101312026D01*
X91338658Y-101260710D01*
X91312999Y-101183737D01*
X91236026Y-101055448D01*
X91107737Y-100927158D01*
X90979447Y-100850185D01*
X90902474Y-100824526D01*
X90851158Y-100824526D01*
X90774185Y-100850184D01*
X90620238Y-102081762D02*
X90928132Y-101773868D01*
X90774185Y-101927815D02*
X90235369Y-101388999D01*
X90363658Y-101414657D01*
X90466291Y-101414657D01*
X90543264Y-101389000D01*
X92229214Y-95268143D02*
X92265500Y-95304429D01*
X92374357Y-95340714D01*
X92446928Y-95340714D01*
X92555785Y-95304429D01*
X92628357Y-95231857D01*
X92664642Y-95159286D01*
X92700928Y-95014143D01*
X92700928Y-94905286D01*
X92664642Y-94760143D01*
X92628357Y-94687571D01*
X92555785Y-94615000D01*
X92446928Y-94578714D01*
X92374357Y-94578714D01*
X92265500Y-94615000D01*
X92229214Y-94651286D01*
X91503500Y-95340714D02*
X91938928Y-95340714D01*
X91721214Y-95340714D02*
X91721214Y-94578714D01*
X91793785Y-94687571D01*
X91866357Y-94760143D01*
X91938928Y-94796429D01*
X91031786Y-94578714D02*
X90959214Y-94578714D01*
X90886643Y-94615000D01*
X90850357Y-94651286D01*
X90814071Y-94723857D01*
X90777786Y-94869000D01*
X90777786Y-95050429D01*
X90814071Y-95195571D01*
X90850357Y-95268143D01*
X90886643Y-95304429D01*
X90959214Y-95340714D01*
X91031786Y-95340714D01*
X91104357Y-95304429D01*
X91140643Y-95268143D01*
X91176928Y-95195571D01*
X91213214Y-95050429D01*
X91213214Y-94869000D01*
X91176928Y-94723857D01*
X91140643Y-94651286D01*
X91104357Y-94615000D01*
X91031786Y-94578714D01*
X90487500Y-94651286D02*
X90451214Y-94615000D01*
X90378643Y-94578714D01*
X90197214Y-94578714D01*
X90124643Y-94615000D01*
X90088357Y-94651286D01*
X90052072Y-94723857D01*
X90052072Y-94796429D01*
X90088357Y-94905286D01*
X90523786Y-95340714D01*
X90052072Y-95340714D01*
X86413517Y-93560089D02*
X86449803Y-93596375D01*
X86558660Y-93632660D01*
X86631231Y-93632660D01*
X86740088Y-93596375D01*
X86812660Y-93523803D01*
X86848945Y-93451232D01*
X86885231Y-93306089D01*
X86885231Y-93197232D01*
X86848945Y-93052089D01*
X86812660Y-92979517D01*
X86740088Y-92906946D01*
X86631231Y-92870660D01*
X86558660Y-92870660D01*
X86449803Y-92906946D01*
X86413517Y-92943232D01*
X85687803Y-93632660D02*
X86123231Y-93632660D01*
X85905517Y-93632660D02*
X85905517Y-92870660D01*
X85978088Y-92979517D01*
X86050660Y-93052089D01*
X86123231Y-93088375D01*
X85216089Y-92870660D02*
X85143517Y-92870660D01*
X85070946Y-92906946D01*
X85034660Y-92943232D01*
X84998374Y-93015803D01*
X84962089Y-93160946D01*
X84962089Y-93342375D01*
X84998374Y-93487517D01*
X85034660Y-93560089D01*
X85070946Y-93596375D01*
X85143517Y-93632660D01*
X85216089Y-93632660D01*
X85288660Y-93596375D01*
X85324946Y-93560089D01*
X85361231Y-93487517D01*
X85397517Y-93342375D01*
X85397517Y-93160946D01*
X85361231Y-93015803D01*
X85324946Y-92943232D01*
X85288660Y-92906946D01*
X85216089Y-92870660D01*
X84708089Y-92870660D02*
X84236375Y-92870660D01*
X84490375Y-93160946D01*
X84381517Y-93160946D01*
X84308946Y-93197232D01*
X84272660Y-93233517D01*
X84236375Y-93306089D01*
X84236375Y-93487517D01*
X84272660Y-93560089D01*
X84308946Y-93596375D01*
X84381517Y-93632660D01*
X84599232Y-93632660D01*
X84671803Y-93596375D01*
X84708089Y-93560089D01*
X96665143Y-117892286D02*
X96701429Y-117856000D01*
X96737714Y-117747143D01*
X96737714Y-117674572D01*
X96701429Y-117565715D01*
X96628857Y-117493143D01*
X96556286Y-117456858D01*
X96411143Y-117420572D01*
X96302286Y-117420572D01*
X96157143Y-117456858D01*
X96084571Y-117493143D01*
X96012000Y-117565715D01*
X95975714Y-117674572D01*
X95975714Y-117747143D01*
X96012000Y-117856000D01*
X96048286Y-117892286D01*
X96048286Y-118182572D02*
X96012000Y-118218858D01*
X95975714Y-118291429D01*
X95975714Y-118472858D01*
X96012000Y-118545429D01*
X96048286Y-118581715D01*
X96120857Y-118618000D01*
X96193429Y-118618000D01*
X96302286Y-118581715D01*
X96737714Y-118146286D01*
X96737714Y-118618000D01*
X95975714Y-119089714D02*
X95975714Y-119162286D01*
X96012000Y-119234857D01*
X96048286Y-119271143D01*
X96120857Y-119307429D01*
X96266000Y-119343714D01*
X96447429Y-119343714D01*
X96592571Y-119307429D01*
X96665143Y-119271143D01*
X96701429Y-119234857D01*
X96737714Y-119162286D01*
X96737714Y-119089714D01*
X96701429Y-119017143D01*
X96665143Y-118980857D01*
X96592571Y-118944572D01*
X96447429Y-118908286D01*
X96266000Y-118908286D01*
X96120857Y-118944572D01*
X96048286Y-118980857D01*
X96012000Y-119017143D01*
X95975714Y-119089714D01*
X96737714Y-120069428D02*
X96737714Y-119634000D01*
X96737714Y-119851714D02*
X95975714Y-119851714D01*
X96084571Y-119779143D01*
X96157143Y-119706571D01*
X96193429Y-119634000D01*
X84418714Y-134130143D02*
X84455000Y-134166429D01*
X84563857Y-134202714D01*
X84636428Y-134202714D01*
X84745285Y-134166429D01*
X84817857Y-134093857D01*
X84854142Y-134021286D01*
X84890428Y-133876143D01*
X84890428Y-133767286D01*
X84854142Y-133622143D01*
X84817857Y-133549571D01*
X84745285Y-133477000D01*
X84636428Y-133440714D01*
X84563857Y-133440714D01*
X84455000Y-133477000D01*
X84418714Y-133513286D01*
X84164714Y-133440714D02*
X83693000Y-133440714D01*
X83947000Y-133731000D01*
X83838142Y-133731000D01*
X83765571Y-133767286D01*
X83729285Y-133803571D01*
X83693000Y-133876143D01*
X83693000Y-134057571D01*
X83729285Y-134130143D01*
X83765571Y-134166429D01*
X83838142Y-134202714D01*
X84055857Y-134202714D01*
X84128428Y-134166429D01*
X84164714Y-134130143D01*
X83221286Y-133440714D02*
X83148714Y-133440714D01*
X83076143Y-133477000D01*
X83039857Y-133513286D01*
X83003571Y-133585857D01*
X82967286Y-133731000D01*
X82967286Y-133912429D01*
X83003571Y-134057571D01*
X83039857Y-134130143D01*
X83076143Y-134166429D01*
X83148714Y-134202714D01*
X83221286Y-134202714D01*
X83293857Y-134166429D01*
X83330143Y-134130143D01*
X83366428Y-134057571D01*
X83402714Y-133912429D01*
X83402714Y-133731000D01*
X83366428Y-133585857D01*
X83330143Y-133513286D01*
X83293857Y-133477000D01*
X83221286Y-133440714D01*
X82241572Y-134202714D02*
X82677000Y-134202714D01*
X82459286Y-134202714D02*
X82459286Y-133440714D01*
X82531857Y-133549571D01*
X82604429Y-133622143D01*
X82677000Y-133658429D01*
X97617643Y-130465286D02*
X97653929Y-130429000D01*
X97690214Y-130320143D01*
X97690214Y-130247572D01*
X97653929Y-130138715D01*
X97581357Y-130066143D01*
X97508786Y-130029858D01*
X97363643Y-129993572D01*
X97254786Y-129993572D01*
X97109643Y-130029858D01*
X97037071Y-130066143D01*
X96964500Y-130138715D01*
X96928214Y-130247572D01*
X96928214Y-130320143D01*
X96964500Y-130429000D01*
X97000786Y-130465286D01*
X96928214Y-130719286D02*
X96928214Y-131191000D01*
X97218500Y-130937000D01*
X97218500Y-131045858D01*
X97254786Y-131118429D01*
X97291071Y-131154715D01*
X97363643Y-131191000D01*
X97545071Y-131191000D01*
X97617643Y-131154715D01*
X97653929Y-131118429D01*
X97690214Y-131045858D01*
X97690214Y-130828143D01*
X97653929Y-130755572D01*
X97617643Y-130719286D01*
X96928214Y-131662714D02*
X96928214Y-131735286D01*
X96964500Y-131807857D01*
X97000786Y-131844143D01*
X97073357Y-131880429D01*
X97218500Y-131916714D01*
X97399929Y-131916714D01*
X97545071Y-131880429D01*
X97617643Y-131844143D01*
X97653929Y-131807857D01*
X97690214Y-131735286D01*
X97690214Y-131662714D01*
X97653929Y-131590143D01*
X97617643Y-131553857D01*
X97545071Y-131517572D01*
X97399929Y-131481286D01*
X97218500Y-131481286D01*
X97073357Y-131517572D01*
X97000786Y-131553857D01*
X96964500Y-131590143D01*
X96928214Y-131662714D01*
X97000786Y-132207000D02*
X96964500Y-132243286D01*
X96928214Y-132315857D01*
X96928214Y-132497286D01*
X96964500Y-132569857D01*
X97000786Y-132606143D01*
X97073357Y-132642428D01*
X97145929Y-132642428D01*
X97254786Y-132606143D01*
X97690214Y-132170714D01*
X97690214Y-132642428D01*
X96538143Y-130465286D02*
X96574429Y-130429000D01*
X96610714Y-130320143D01*
X96610714Y-130247572D01*
X96574429Y-130138715D01*
X96501857Y-130066143D01*
X96429286Y-130029858D01*
X96284143Y-129993572D01*
X96175286Y-129993572D01*
X96030143Y-130029858D01*
X95957571Y-130066143D01*
X95885000Y-130138715D01*
X95848714Y-130247572D01*
X95848714Y-130320143D01*
X95885000Y-130429000D01*
X95921286Y-130465286D01*
X95848714Y-130719286D02*
X95848714Y-131191000D01*
X96139000Y-130937000D01*
X96139000Y-131045858D01*
X96175286Y-131118429D01*
X96211571Y-131154715D01*
X96284143Y-131191000D01*
X96465571Y-131191000D01*
X96538143Y-131154715D01*
X96574429Y-131118429D01*
X96610714Y-131045858D01*
X96610714Y-130828143D01*
X96574429Y-130755572D01*
X96538143Y-130719286D01*
X95848714Y-131662714D02*
X95848714Y-131735286D01*
X95885000Y-131807857D01*
X95921286Y-131844143D01*
X95993857Y-131880429D01*
X96139000Y-131916714D01*
X96320429Y-131916714D01*
X96465571Y-131880429D01*
X96538143Y-131844143D01*
X96574429Y-131807857D01*
X96610714Y-131735286D01*
X96610714Y-131662714D01*
X96574429Y-131590143D01*
X96538143Y-131553857D01*
X96465571Y-131517572D01*
X96320429Y-131481286D01*
X96139000Y-131481286D01*
X95993857Y-131517572D01*
X95921286Y-131553857D01*
X95885000Y-131590143D01*
X95848714Y-131662714D01*
X95848714Y-132170714D02*
X95848714Y-132642428D01*
X96139000Y-132388428D01*
X96139000Y-132497286D01*
X96175286Y-132569857D01*
X96211571Y-132606143D01*
X96284143Y-132642428D01*
X96465571Y-132642428D01*
X96538143Y-132606143D01*
X96574429Y-132569857D01*
X96610714Y-132497286D01*
X96610714Y-132279571D01*
X96574429Y-132207000D01*
X96538143Y-132170714D01*
X88165214Y-129177143D02*
X88201500Y-129213429D01*
X88310357Y-129249714D01*
X88382928Y-129249714D01*
X88491785Y-129213429D01*
X88564357Y-129140857D01*
X88600642Y-129068286D01*
X88636928Y-128923143D01*
X88636928Y-128814286D01*
X88600642Y-128669143D01*
X88564357Y-128596571D01*
X88491785Y-128524000D01*
X88382928Y-128487714D01*
X88310357Y-128487714D01*
X88201500Y-128524000D01*
X88165214Y-128560286D01*
X87911214Y-128487714D02*
X87439500Y-128487714D01*
X87693500Y-128778000D01*
X87584642Y-128778000D01*
X87512071Y-128814286D01*
X87475785Y-128850571D01*
X87439500Y-128923143D01*
X87439500Y-129104571D01*
X87475785Y-129177143D01*
X87512071Y-129213429D01*
X87584642Y-129249714D01*
X87802357Y-129249714D01*
X87874928Y-129213429D01*
X87911214Y-129177143D01*
X86967786Y-128487714D02*
X86895214Y-128487714D01*
X86822643Y-128524000D01*
X86786357Y-128560286D01*
X86750071Y-128632857D01*
X86713786Y-128778000D01*
X86713786Y-128959429D01*
X86750071Y-129104571D01*
X86786357Y-129177143D01*
X86822643Y-129213429D01*
X86895214Y-129249714D01*
X86967786Y-129249714D01*
X87040357Y-129213429D01*
X87076643Y-129177143D01*
X87112928Y-129104571D01*
X87149214Y-128959429D01*
X87149214Y-128778000D01*
X87112928Y-128632857D01*
X87076643Y-128560286D01*
X87040357Y-128524000D01*
X86967786Y-128487714D01*
X86060643Y-128741714D02*
X86060643Y-129249714D01*
X86242072Y-128451429D02*
X86423500Y-128995714D01*
X85951786Y-128995714D01*
X106888643Y-128750786D02*
X106924929Y-128714500D01*
X106961214Y-128605643D01*
X106961214Y-128533072D01*
X106924929Y-128424215D01*
X106852357Y-128351643D01*
X106779786Y-128315358D01*
X106634643Y-128279072D01*
X106525786Y-128279072D01*
X106380643Y-128315358D01*
X106308071Y-128351643D01*
X106235500Y-128424215D01*
X106199214Y-128533072D01*
X106199214Y-128605643D01*
X106235500Y-128714500D01*
X106271786Y-128750786D01*
X106199214Y-129004786D02*
X106199214Y-129476500D01*
X106489500Y-129222500D01*
X106489500Y-129331358D01*
X106525786Y-129403929D01*
X106562071Y-129440215D01*
X106634643Y-129476500D01*
X106816071Y-129476500D01*
X106888643Y-129440215D01*
X106924929Y-129403929D01*
X106961214Y-129331358D01*
X106961214Y-129113643D01*
X106924929Y-129041072D01*
X106888643Y-129004786D01*
X106199214Y-129948214D02*
X106199214Y-130020786D01*
X106235500Y-130093357D01*
X106271786Y-130129643D01*
X106344357Y-130165929D01*
X106489500Y-130202214D01*
X106670929Y-130202214D01*
X106816071Y-130165929D01*
X106888643Y-130129643D01*
X106924929Y-130093357D01*
X106961214Y-130020786D01*
X106961214Y-129948214D01*
X106924929Y-129875643D01*
X106888643Y-129839357D01*
X106816071Y-129803072D01*
X106670929Y-129766786D01*
X106489500Y-129766786D01*
X106344357Y-129803072D01*
X106271786Y-129839357D01*
X106235500Y-129875643D01*
X106199214Y-129948214D01*
X106199214Y-130891643D02*
X106199214Y-130528786D01*
X106562071Y-130492500D01*
X106525786Y-130528786D01*
X106489500Y-130601357D01*
X106489500Y-130782786D01*
X106525786Y-130855357D01*
X106562071Y-130891643D01*
X106634643Y-130927928D01*
X106816071Y-130927928D01*
X106888643Y-130891643D01*
X106924929Y-130855357D01*
X106961214Y-130782786D01*
X106961214Y-130601357D01*
X106924929Y-130528786D01*
X106888643Y-130492500D01*
X105881714Y-132479143D02*
X105918000Y-132515429D01*
X106026857Y-132551714D01*
X106099428Y-132551714D01*
X106208285Y-132515429D01*
X106280857Y-132442857D01*
X106317142Y-132370286D01*
X106353428Y-132225143D01*
X106353428Y-132116286D01*
X106317142Y-131971143D01*
X106280857Y-131898571D01*
X106208285Y-131826000D01*
X106099428Y-131789714D01*
X106026857Y-131789714D01*
X105918000Y-131826000D01*
X105881714Y-131862286D01*
X105627714Y-131789714D02*
X105156000Y-131789714D01*
X105410000Y-132080000D01*
X105301142Y-132080000D01*
X105228571Y-132116286D01*
X105192285Y-132152571D01*
X105156000Y-132225143D01*
X105156000Y-132406571D01*
X105192285Y-132479143D01*
X105228571Y-132515429D01*
X105301142Y-132551714D01*
X105518857Y-132551714D01*
X105591428Y-132515429D01*
X105627714Y-132479143D01*
X104684286Y-131789714D02*
X104611714Y-131789714D01*
X104539143Y-131826000D01*
X104502857Y-131862286D01*
X104466571Y-131934857D01*
X104430286Y-132080000D01*
X104430286Y-132261429D01*
X104466571Y-132406571D01*
X104502857Y-132479143D01*
X104539143Y-132515429D01*
X104611714Y-132551714D01*
X104684286Y-132551714D01*
X104756857Y-132515429D01*
X104793143Y-132479143D01*
X104829428Y-132406571D01*
X104865714Y-132261429D01*
X104865714Y-132080000D01*
X104829428Y-131934857D01*
X104793143Y-131862286D01*
X104756857Y-131826000D01*
X104684286Y-131789714D01*
X103777143Y-131789714D02*
X103922286Y-131789714D01*
X103994857Y-131826000D01*
X104031143Y-131862286D01*
X104103714Y-131971143D01*
X104140000Y-132116286D01*
X104140000Y-132406571D01*
X104103714Y-132479143D01*
X104067429Y-132515429D01*
X103994857Y-132551714D01*
X103849714Y-132551714D01*
X103777143Y-132515429D01*
X103740857Y-132479143D01*
X103704572Y-132406571D01*
X103704572Y-132225143D01*
X103740857Y-132152571D01*
X103777143Y-132116286D01*
X103849714Y-132080000D01*
X103994857Y-132080000D01*
X104067429Y-132116286D01*
X104103714Y-132152571D01*
X104140000Y-132225143D01*
X93867514Y-81621086D02*
X93504657Y-81367086D01*
X93867514Y-81185658D02*
X93105514Y-81185658D01*
X93105514Y-81475943D01*
X93141800Y-81548515D01*
X93178086Y-81584800D01*
X93250657Y-81621086D01*
X93359514Y-81621086D01*
X93432086Y-81584800D01*
X93468371Y-81548515D01*
X93504657Y-81475943D01*
X93504657Y-81185658D01*
X93178086Y-81911372D02*
X93141800Y-81947658D01*
X93105514Y-82020229D01*
X93105514Y-82201658D01*
X93141800Y-82274229D01*
X93178086Y-82310515D01*
X93250657Y-82346800D01*
X93323229Y-82346800D01*
X93432086Y-82310515D01*
X93867514Y-81875086D01*
X93867514Y-82346800D01*
X93105514Y-82818514D02*
X93105514Y-82891086D01*
X93141800Y-82963657D01*
X93178086Y-82999943D01*
X93250657Y-83036229D01*
X93395800Y-83072514D01*
X93577229Y-83072514D01*
X93722371Y-83036229D01*
X93794943Y-82999943D01*
X93831229Y-82963657D01*
X93867514Y-82891086D01*
X93867514Y-82818514D01*
X93831229Y-82745943D01*
X93794943Y-82709657D01*
X93722371Y-82673372D01*
X93577229Y-82637086D01*
X93395800Y-82637086D01*
X93250657Y-82673372D01*
X93178086Y-82709657D01*
X93141800Y-82745943D01*
X93105514Y-82818514D01*
X93867514Y-83798228D02*
X93867514Y-83362800D01*
X93867514Y-83580514D02*
X93105514Y-83580514D01*
X93214371Y-83507943D01*
X93286943Y-83435371D01*
X93323229Y-83362800D01*
X88787514Y-81519486D02*
X88424657Y-81265486D01*
X88787514Y-81084058D02*
X88025514Y-81084058D01*
X88025514Y-81374343D01*
X88061800Y-81446915D01*
X88098086Y-81483200D01*
X88170657Y-81519486D01*
X88279514Y-81519486D01*
X88352086Y-81483200D01*
X88388371Y-81446915D01*
X88424657Y-81374343D01*
X88424657Y-81084058D01*
X88098086Y-81809772D02*
X88061800Y-81846058D01*
X88025514Y-81918629D01*
X88025514Y-82100058D01*
X88061800Y-82172629D01*
X88098086Y-82208915D01*
X88170657Y-82245200D01*
X88243229Y-82245200D01*
X88352086Y-82208915D01*
X88787514Y-81773486D01*
X88787514Y-82245200D01*
X88025514Y-82716914D02*
X88025514Y-82789486D01*
X88061800Y-82862057D01*
X88098086Y-82898343D01*
X88170657Y-82934629D01*
X88315800Y-82970914D01*
X88497229Y-82970914D01*
X88642371Y-82934629D01*
X88714943Y-82898343D01*
X88751229Y-82862057D01*
X88787514Y-82789486D01*
X88787514Y-82716914D01*
X88751229Y-82644343D01*
X88714943Y-82608057D01*
X88642371Y-82571772D01*
X88497229Y-82535486D01*
X88315800Y-82535486D01*
X88170657Y-82571772D01*
X88098086Y-82608057D01*
X88061800Y-82644343D01*
X88025514Y-82716914D01*
X88098086Y-83261200D02*
X88061800Y-83297486D01*
X88025514Y-83370057D01*
X88025514Y-83551486D01*
X88061800Y-83624057D01*
X88098086Y-83660343D01*
X88170657Y-83696628D01*
X88243229Y-83696628D01*
X88352086Y-83660343D01*
X88787514Y-83224914D01*
X88787514Y-83696628D01*
X83148714Y-81265486D02*
X82785857Y-81011486D01*
X83148714Y-80830058D02*
X82386714Y-80830058D01*
X82386714Y-81120343D01*
X82423000Y-81192915D01*
X82459286Y-81229200D01*
X82531857Y-81265486D01*
X82640714Y-81265486D01*
X82713286Y-81229200D01*
X82749571Y-81192915D01*
X82785857Y-81120343D01*
X82785857Y-80830058D01*
X82459286Y-81555772D02*
X82423000Y-81592058D01*
X82386714Y-81664629D01*
X82386714Y-81846058D01*
X82423000Y-81918629D01*
X82459286Y-81954915D01*
X82531857Y-81991200D01*
X82604429Y-81991200D01*
X82713286Y-81954915D01*
X83148714Y-81519486D01*
X83148714Y-81991200D01*
X82386714Y-82462914D02*
X82386714Y-82535486D01*
X82423000Y-82608057D01*
X82459286Y-82644343D01*
X82531857Y-82680629D01*
X82677000Y-82716914D01*
X82858429Y-82716914D01*
X83003571Y-82680629D01*
X83076143Y-82644343D01*
X83112429Y-82608057D01*
X83148714Y-82535486D01*
X83148714Y-82462914D01*
X83112429Y-82390343D01*
X83076143Y-82354057D01*
X83003571Y-82317772D01*
X82858429Y-82281486D01*
X82677000Y-82281486D01*
X82531857Y-82317772D01*
X82459286Y-82354057D01*
X82423000Y-82390343D01*
X82386714Y-82462914D01*
X82386714Y-82970914D02*
X82386714Y-83442628D01*
X82677000Y-83188628D01*
X82677000Y-83297486D01*
X82713286Y-83370057D01*
X82749571Y-83406343D01*
X82822143Y-83442628D01*
X83003571Y-83442628D01*
X83076143Y-83406343D01*
X83112429Y-83370057D01*
X83148714Y-83297486D01*
X83148714Y-83079771D01*
X83112429Y-83007200D01*
X83076143Y-82970914D01*
X98972914Y-81595686D02*
X98610057Y-81341686D01*
X98972914Y-81160258D02*
X98210914Y-81160258D01*
X98210914Y-81450543D01*
X98247200Y-81523115D01*
X98283486Y-81559400D01*
X98356057Y-81595686D01*
X98464914Y-81595686D01*
X98537486Y-81559400D01*
X98573771Y-81523115D01*
X98610057Y-81450543D01*
X98610057Y-81160258D01*
X98283486Y-81885972D02*
X98247200Y-81922258D01*
X98210914Y-81994829D01*
X98210914Y-82176258D01*
X98247200Y-82248829D01*
X98283486Y-82285115D01*
X98356057Y-82321400D01*
X98428629Y-82321400D01*
X98537486Y-82285115D01*
X98972914Y-81849686D01*
X98972914Y-82321400D01*
X98210914Y-82793114D02*
X98210914Y-82865686D01*
X98247200Y-82938257D01*
X98283486Y-82974543D01*
X98356057Y-83010829D01*
X98501200Y-83047114D01*
X98682629Y-83047114D01*
X98827771Y-83010829D01*
X98900343Y-82974543D01*
X98936629Y-82938257D01*
X98972914Y-82865686D01*
X98972914Y-82793114D01*
X98936629Y-82720543D01*
X98900343Y-82684257D01*
X98827771Y-82647972D01*
X98682629Y-82611686D01*
X98501200Y-82611686D01*
X98356057Y-82647972D01*
X98283486Y-82684257D01*
X98247200Y-82720543D01*
X98210914Y-82793114D01*
X98464914Y-83700257D02*
X98972914Y-83700257D01*
X98174629Y-83518828D02*
X98718914Y-83337400D01*
X98718914Y-83809114D01*
X95658214Y-117955786D02*
X95295357Y-117701786D01*
X95658214Y-117520358D02*
X94896214Y-117520358D01*
X94896214Y-117810643D01*
X94932500Y-117883215D01*
X94968786Y-117919500D01*
X95041357Y-117955786D01*
X95150214Y-117955786D01*
X95222786Y-117919500D01*
X95259071Y-117883215D01*
X95295357Y-117810643D01*
X95295357Y-117520358D01*
X94896214Y-118209786D02*
X94896214Y-118681500D01*
X95186500Y-118427500D01*
X95186500Y-118536358D01*
X95222786Y-118608929D01*
X95259071Y-118645215D01*
X95331643Y-118681500D01*
X95513071Y-118681500D01*
X95585643Y-118645215D01*
X95621929Y-118608929D01*
X95658214Y-118536358D01*
X95658214Y-118318643D01*
X95621929Y-118246072D01*
X95585643Y-118209786D01*
X94896214Y-119153214D02*
X94896214Y-119225786D01*
X94932500Y-119298357D01*
X94968786Y-119334643D01*
X95041357Y-119370929D01*
X95186500Y-119407214D01*
X95367929Y-119407214D01*
X95513071Y-119370929D01*
X95585643Y-119334643D01*
X95621929Y-119298357D01*
X95658214Y-119225786D01*
X95658214Y-119153214D01*
X95621929Y-119080643D01*
X95585643Y-119044357D01*
X95513071Y-119008072D01*
X95367929Y-118971786D01*
X95186500Y-118971786D01*
X95041357Y-119008072D01*
X94968786Y-119044357D01*
X94932500Y-119080643D01*
X94896214Y-119153214D01*
X95658214Y-120132928D02*
X95658214Y-119697500D01*
X95658214Y-119915214D02*
X94896214Y-119915214D01*
X95005071Y-119842643D01*
X95077643Y-119770071D01*
X95113929Y-119697500D01*
X84672714Y-118019286D02*
X84309857Y-117765286D01*
X84672714Y-117583858D02*
X83910714Y-117583858D01*
X83910714Y-117874143D01*
X83947000Y-117946715D01*
X83983286Y-117983000D01*
X84055857Y-118019286D01*
X84164714Y-118019286D01*
X84237286Y-117983000D01*
X84273571Y-117946715D01*
X84309857Y-117874143D01*
X84309857Y-117583858D01*
X83910714Y-118273286D02*
X83910714Y-118745000D01*
X84201000Y-118491000D01*
X84201000Y-118599858D01*
X84237286Y-118672429D01*
X84273571Y-118708715D01*
X84346143Y-118745000D01*
X84527571Y-118745000D01*
X84600143Y-118708715D01*
X84636429Y-118672429D01*
X84672714Y-118599858D01*
X84672714Y-118382143D01*
X84636429Y-118309572D01*
X84600143Y-118273286D01*
X83910714Y-119216714D02*
X83910714Y-119289286D01*
X83947000Y-119361857D01*
X83983286Y-119398143D01*
X84055857Y-119434429D01*
X84201000Y-119470714D01*
X84382429Y-119470714D01*
X84527571Y-119434429D01*
X84600143Y-119398143D01*
X84636429Y-119361857D01*
X84672714Y-119289286D01*
X84672714Y-119216714D01*
X84636429Y-119144143D01*
X84600143Y-119107857D01*
X84527571Y-119071572D01*
X84382429Y-119035286D01*
X84201000Y-119035286D01*
X84055857Y-119071572D01*
X83983286Y-119107857D01*
X83947000Y-119144143D01*
X83910714Y-119216714D01*
X83983286Y-119761000D02*
X83947000Y-119797286D01*
X83910714Y-119869857D01*
X83910714Y-120051286D01*
X83947000Y-120123857D01*
X83983286Y-120160143D01*
X84055857Y-120196428D01*
X84128429Y-120196428D01*
X84237286Y-120160143D01*
X84672714Y-119724714D01*
X84672714Y-120196428D01*
X83466214Y-118082786D02*
X83103357Y-117828786D01*
X83466214Y-117647358D02*
X82704214Y-117647358D01*
X82704214Y-117937643D01*
X82740500Y-118010215D01*
X82776786Y-118046500D01*
X82849357Y-118082786D01*
X82958214Y-118082786D01*
X83030786Y-118046500D01*
X83067071Y-118010215D01*
X83103357Y-117937643D01*
X83103357Y-117647358D01*
X82704214Y-118336786D02*
X82704214Y-118808500D01*
X82994500Y-118554500D01*
X82994500Y-118663358D01*
X83030786Y-118735929D01*
X83067071Y-118772215D01*
X83139643Y-118808500D01*
X83321071Y-118808500D01*
X83393643Y-118772215D01*
X83429929Y-118735929D01*
X83466214Y-118663358D01*
X83466214Y-118445643D01*
X83429929Y-118373072D01*
X83393643Y-118336786D01*
X82704214Y-119280214D02*
X82704214Y-119352786D01*
X82740500Y-119425357D01*
X82776786Y-119461643D01*
X82849357Y-119497929D01*
X82994500Y-119534214D01*
X83175929Y-119534214D01*
X83321071Y-119497929D01*
X83393643Y-119461643D01*
X83429929Y-119425357D01*
X83466214Y-119352786D01*
X83466214Y-119280214D01*
X83429929Y-119207643D01*
X83393643Y-119171357D01*
X83321071Y-119135072D01*
X83175929Y-119098786D01*
X82994500Y-119098786D01*
X82849357Y-119135072D01*
X82776786Y-119171357D01*
X82740500Y-119207643D01*
X82704214Y-119280214D01*
X82704214Y-119788214D02*
X82704214Y-120259928D01*
X82994500Y-120005928D01*
X82994500Y-120114786D01*
X83030786Y-120187357D01*
X83067071Y-120223643D01*
X83139643Y-120259928D01*
X83321071Y-120259928D01*
X83393643Y-120223643D01*
X83429929Y-120187357D01*
X83466214Y-120114786D01*
X83466214Y-119897071D01*
X83429929Y-119824500D01*
X83393643Y-119788214D01*
X88931714Y-123480286D02*
X88568857Y-123226286D01*
X88931714Y-123044858D02*
X88169714Y-123044858D01*
X88169714Y-123335143D01*
X88206000Y-123407715D01*
X88242286Y-123444000D01*
X88314857Y-123480286D01*
X88423714Y-123480286D01*
X88496286Y-123444000D01*
X88532571Y-123407715D01*
X88568857Y-123335143D01*
X88568857Y-123044858D01*
X88169714Y-123734286D02*
X88169714Y-124206000D01*
X88460000Y-123952000D01*
X88460000Y-124060858D01*
X88496286Y-124133429D01*
X88532571Y-124169715D01*
X88605143Y-124206000D01*
X88786571Y-124206000D01*
X88859143Y-124169715D01*
X88895429Y-124133429D01*
X88931714Y-124060858D01*
X88931714Y-123843143D01*
X88895429Y-123770572D01*
X88859143Y-123734286D01*
X88169714Y-124677714D02*
X88169714Y-124750286D01*
X88206000Y-124822857D01*
X88242286Y-124859143D01*
X88314857Y-124895429D01*
X88460000Y-124931714D01*
X88641429Y-124931714D01*
X88786571Y-124895429D01*
X88859143Y-124859143D01*
X88895429Y-124822857D01*
X88931714Y-124750286D01*
X88931714Y-124677714D01*
X88895429Y-124605143D01*
X88859143Y-124568857D01*
X88786571Y-124532572D01*
X88641429Y-124496286D01*
X88460000Y-124496286D01*
X88314857Y-124532572D01*
X88242286Y-124568857D01*
X88206000Y-124605143D01*
X88169714Y-124677714D01*
X88423714Y-125584857D02*
X88931714Y-125584857D01*
X88133429Y-125403428D02*
X88677714Y-125222000D01*
X88677714Y-125693714D01*
X83656714Y-128614714D02*
X83910714Y-128251857D01*
X84092142Y-128614714D02*
X84092142Y-127852714D01*
X83801857Y-127852714D01*
X83729285Y-127889000D01*
X83693000Y-127925286D01*
X83656714Y-127997857D01*
X83656714Y-128106714D01*
X83693000Y-128179286D01*
X83729285Y-128215571D01*
X83801857Y-128251857D01*
X84092142Y-128251857D01*
X83402714Y-127852714D02*
X82931000Y-127852714D01*
X83185000Y-128143000D01*
X83076142Y-128143000D01*
X83003571Y-128179286D01*
X82967285Y-128215571D01*
X82931000Y-128288143D01*
X82931000Y-128469571D01*
X82967285Y-128542143D01*
X83003571Y-128578429D01*
X83076142Y-128614714D01*
X83293857Y-128614714D01*
X83366428Y-128578429D01*
X83402714Y-128542143D01*
X82459286Y-127852714D02*
X82386714Y-127852714D01*
X82314143Y-127889000D01*
X82277857Y-127925286D01*
X82241571Y-127997857D01*
X82205286Y-128143000D01*
X82205286Y-128324429D01*
X82241571Y-128469571D01*
X82277857Y-128542143D01*
X82314143Y-128578429D01*
X82386714Y-128614714D01*
X82459286Y-128614714D01*
X82531857Y-128578429D01*
X82568143Y-128542143D01*
X82604428Y-128469571D01*
X82640714Y-128324429D01*
X82640714Y-128143000D01*
X82604428Y-127997857D01*
X82568143Y-127925286D01*
X82531857Y-127889000D01*
X82459286Y-127852714D01*
X81515857Y-127852714D02*
X81878714Y-127852714D01*
X81915000Y-128215571D01*
X81878714Y-128179286D01*
X81806143Y-128143000D01*
X81624714Y-128143000D01*
X81552143Y-128179286D01*
X81515857Y-128215571D01*
X81479572Y-128288143D01*
X81479572Y-128469571D01*
X81515857Y-128542143D01*
X81552143Y-128578429D01*
X81624714Y-128614714D01*
X81806143Y-128614714D01*
X81878714Y-128578429D01*
X81915000Y-128542143D01*
X94197714Y-122074214D02*
X94451714Y-121711357D01*
X94633142Y-122074214D02*
X94633142Y-121312214D01*
X94342857Y-121312214D01*
X94270285Y-121348500D01*
X94234000Y-121384786D01*
X94197714Y-121457357D01*
X94197714Y-121566214D01*
X94234000Y-121638786D01*
X94270285Y-121675071D01*
X94342857Y-121711357D01*
X94633142Y-121711357D01*
X93943714Y-121312214D02*
X93472000Y-121312214D01*
X93726000Y-121602500D01*
X93617142Y-121602500D01*
X93544571Y-121638786D01*
X93508285Y-121675071D01*
X93472000Y-121747643D01*
X93472000Y-121929071D01*
X93508285Y-122001643D01*
X93544571Y-122037929D01*
X93617142Y-122074214D01*
X93834857Y-122074214D01*
X93907428Y-122037929D01*
X93943714Y-122001643D01*
X93000286Y-121312214D02*
X92927714Y-121312214D01*
X92855143Y-121348500D01*
X92818857Y-121384786D01*
X92782571Y-121457357D01*
X92746286Y-121602500D01*
X92746286Y-121783929D01*
X92782571Y-121929071D01*
X92818857Y-122001643D01*
X92855143Y-122037929D01*
X92927714Y-122074214D01*
X93000286Y-122074214D01*
X93072857Y-122037929D01*
X93109143Y-122001643D01*
X93145428Y-121929071D01*
X93181714Y-121783929D01*
X93181714Y-121602500D01*
X93145428Y-121457357D01*
X93109143Y-121384786D01*
X93072857Y-121348500D01*
X93000286Y-121312214D01*
X92093143Y-121312214D02*
X92238286Y-121312214D01*
X92310857Y-121348500D01*
X92347143Y-121384786D01*
X92419714Y-121493643D01*
X92456000Y-121638786D01*
X92456000Y-121929071D01*
X92419714Y-122001643D01*
X92383429Y-122037929D01*
X92310857Y-122074214D01*
X92165714Y-122074214D01*
X92093143Y-122037929D01*
X92056857Y-122001643D01*
X92020572Y-121929071D01*
X92020572Y-121747643D01*
X92056857Y-121675071D01*
X92093143Y-121638786D01*
X92165714Y-121602500D01*
X92310857Y-121602500D01*
X92383429Y-121638786D01*
X92419714Y-121675071D01*
X92456000Y-121747643D01*
X94261214Y-127725714D02*
X94515214Y-127362857D01*
X94696642Y-127725714D02*
X94696642Y-126963714D01*
X94406357Y-126963714D01*
X94333785Y-127000000D01*
X94297500Y-127036286D01*
X94261214Y-127108857D01*
X94261214Y-127217714D01*
X94297500Y-127290286D01*
X94333785Y-127326571D01*
X94406357Y-127362857D01*
X94696642Y-127362857D01*
X94007214Y-126963714D02*
X93535500Y-126963714D01*
X93789500Y-127254000D01*
X93680642Y-127254000D01*
X93608071Y-127290286D01*
X93571785Y-127326571D01*
X93535500Y-127399143D01*
X93535500Y-127580571D01*
X93571785Y-127653143D01*
X93608071Y-127689429D01*
X93680642Y-127725714D01*
X93898357Y-127725714D01*
X93970928Y-127689429D01*
X94007214Y-127653143D01*
X93063786Y-126963714D02*
X92991214Y-126963714D01*
X92918643Y-127000000D01*
X92882357Y-127036286D01*
X92846071Y-127108857D01*
X92809786Y-127254000D01*
X92809786Y-127435429D01*
X92846071Y-127580571D01*
X92882357Y-127653143D01*
X92918643Y-127689429D01*
X92991214Y-127725714D01*
X93063786Y-127725714D01*
X93136357Y-127689429D01*
X93172643Y-127653143D01*
X93208928Y-127580571D01*
X93245214Y-127435429D01*
X93245214Y-127254000D01*
X93208928Y-127108857D01*
X93172643Y-127036286D01*
X93136357Y-127000000D01*
X93063786Y-126963714D01*
X92555786Y-126963714D02*
X92047786Y-126963714D01*
X92374357Y-127725714D01*
X94061643Y-93381286D02*
X94097929Y-93345000D01*
X94134214Y-93236143D01*
X94134214Y-93163572D01*
X94097929Y-93054715D01*
X94025357Y-92982143D01*
X93952786Y-92945858D01*
X93807643Y-92909572D01*
X93698786Y-92909572D01*
X93553643Y-92945858D01*
X93481071Y-92982143D01*
X93408500Y-93054715D01*
X93372214Y-93163572D01*
X93372214Y-93236143D01*
X93408500Y-93345000D01*
X93444786Y-93381286D01*
X94134214Y-94107000D02*
X94134214Y-93671572D01*
X94134214Y-93889286D02*
X93372214Y-93889286D01*
X93481071Y-93816715D01*
X93553643Y-93744143D01*
X93589929Y-93671572D01*
X93372214Y-94578714D02*
X93372214Y-94651286D01*
X93408500Y-94723857D01*
X93444786Y-94760143D01*
X93517357Y-94796429D01*
X93662500Y-94832714D01*
X93843929Y-94832714D01*
X93989071Y-94796429D01*
X94061643Y-94760143D01*
X94097929Y-94723857D01*
X94134214Y-94651286D01*
X94134214Y-94578714D01*
X94097929Y-94506143D01*
X94061643Y-94469857D01*
X93989071Y-94433572D01*
X93843929Y-94397286D01*
X93662500Y-94397286D01*
X93517357Y-94433572D01*
X93444786Y-94469857D01*
X93408500Y-94506143D01*
X93372214Y-94578714D01*
X93626214Y-95485857D02*
X94134214Y-95485857D01*
X93335929Y-95304428D02*
X93880214Y-95123000D01*
X93880214Y-95594714D01*
X87149214Y-90768714D02*
X87403214Y-90405857D01*
X87584642Y-90768714D02*
X87584642Y-90006714D01*
X87294357Y-90006714D01*
X87221785Y-90043000D01*
X87185500Y-90079286D01*
X87149214Y-90151857D01*
X87149214Y-90260714D01*
X87185500Y-90333286D01*
X87221785Y-90369571D01*
X87294357Y-90405857D01*
X87584642Y-90405857D01*
X86858928Y-90079286D02*
X86822642Y-90043000D01*
X86750071Y-90006714D01*
X86568642Y-90006714D01*
X86496071Y-90043000D01*
X86459785Y-90079286D01*
X86423500Y-90151857D01*
X86423500Y-90224429D01*
X86459785Y-90333286D01*
X86895214Y-90768714D01*
X86423500Y-90768714D01*
X85951786Y-90006714D02*
X85879214Y-90006714D01*
X85806643Y-90043000D01*
X85770357Y-90079286D01*
X85734071Y-90151857D01*
X85697786Y-90297000D01*
X85697786Y-90478429D01*
X85734071Y-90623571D01*
X85770357Y-90696143D01*
X85806643Y-90732429D01*
X85879214Y-90768714D01*
X85951786Y-90768714D01*
X86024357Y-90732429D01*
X86060643Y-90696143D01*
X86096928Y-90623571D01*
X86133214Y-90478429D01*
X86133214Y-90297000D01*
X86096928Y-90151857D01*
X86060643Y-90079286D01*
X86024357Y-90043000D01*
X85951786Y-90006714D01*
X85044643Y-90006714D02*
X85189786Y-90006714D01*
X85262357Y-90043000D01*
X85298643Y-90079286D01*
X85371214Y-90188143D01*
X85407500Y-90333286D01*
X85407500Y-90623571D01*
X85371214Y-90696143D01*
X85334929Y-90732429D01*
X85262357Y-90768714D01*
X85117214Y-90768714D01*
X85044643Y-90732429D01*
X85008357Y-90696143D01*
X84972072Y-90623571D01*
X84972072Y-90442143D01*
X85008357Y-90369571D01*
X85044643Y-90333286D01*
X85117214Y-90297000D01*
X85262357Y-90297000D01*
X85334929Y-90333286D01*
X85371214Y-90369571D01*
X85407500Y-90442143D01*
X87085714Y-88546214D02*
X87339714Y-88183357D01*
X87521142Y-88546214D02*
X87521142Y-87784214D01*
X87230857Y-87784214D01*
X87158285Y-87820500D01*
X87122000Y-87856786D01*
X87085714Y-87929357D01*
X87085714Y-88038214D01*
X87122000Y-88110786D01*
X87158285Y-88147071D01*
X87230857Y-88183357D01*
X87521142Y-88183357D01*
X86795428Y-87856786D02*
X86759142Y-87820500D01*
X86686571Y-87784214D01*
X86505142Y-87784214D01*
X86432571Y-87820500D01*
X86396285Y-87856786D01*
X86360000Y-87929357D01*
X86360000Y-88001929D01*
X86396285Y-88110786D01*
X86831714Y-88546214D01*
X86360000Y-88546214D01*
X85888286Y-87784214D02*
X85815714Y-87784214D01*
X85743143Y-87820500D01*
X85706857Y-87856786D01*
X85670571Y-87929357D01*
X85634286Y-88074500D01*
X85634286Y-88255929D01*
X85670571Y-88401071D01*
X85706857Y-88473643D01*
X85743143Y-88509929D01*
X85815714Y-88546214D01*
X85888286Y-88546214D01*
X85960857Y-88509929D01*
X85997143Y-88473643D01*
X86033428Y-88401071D01*
X86069714Y-88255929D01*
X86069714Y-88074500D01*
X86033428Y-87929357D01*
X85997143Y-87856786D01*
X85960857Y-87820500D01*
X85888286Y-87784214D01*
X85380286Y-87784214D02*
X84872286Y-87784214D01*
X85198857Y-88546214D01*
X104484714Y-86577714D02*
X104738714Y-86214857D01*
X104920142Y-86577714D02*
X104920142Y-85815714D01*
X104629857Y-85815714D01*
X104557285Y-85852000D01*
X104521000Y-85888286D01*
X104484714Y-85960857D01*
X104484714Y-86069714D01*
X104521000Y-86142286D01*
X104557285Y-86178571D01*
X104629857Y-86214857D01*
X104920142Y-86214857D01*
X104194428Y-85888286D02*
X104158142Y-85852000D01*
X104085571Y-85815714D01*
X103904142Y-85815714D01*
X103831571Y-85852000D01*
X103795285Y-85888286D01*
X103759000Y-85960857D01*
X103759000Y-86033429D01*
X103795285Y-86142286D01*
X104230714Y-86577714D01*
X103759000Y-86577714D01*
X103287286Y-85815714D02*
X103214714Y-85815714D01*
X103142143Y-85852000D01*
X103105857Y-85888286D01*
X103069571Y-85960857D01*
X103033286Y-86106000D01*
X103033286Y-86287429D01*
X103069571Y-86432571D01*
X103105857Y-86505143D01*
X103142143Y-86541429D01*
X103214714Y-86577714D01*
X103287286Y-86577714D01*
X103359857Y-86541429D01*
X103396143Y-86505143D01*
X103432428Y-86432571D01*
X103468714Y-86287429D01*
X103468714Y-86106000D01*
X103432428Y-85960857D01*
X103396143Y-85888286D01*
X103359857Y-85852000D01*
X103287286Y-85815714D01*
X102597857Y-86142286D02*
X102670429Y-86106000D01*
X102706714Y-86069714D01*
X102743000Y-85997143D01*
X102743000Y-85960857D01*
X102706714Y-85888286D01*
X102670429Y-85852000D01*
X102597857Y-85815714D01*
X102452714Y-85815714D01*
X102380143Y-85852000D01*
X102343857Y-85888286D01*
X102307572Y-85960857D01*
X102307572Y-85997143D01*
X102343857Y-86069714D01*
X102380143Y-86106000D01*
X102452714Y-86142286D01*
X102597857Y-86142286D01*
X102670429Y-86178571D01*
X102706714Y-86214857D01*
X102743000Y-86287429D01*
X102743000Y-86432571D01*
X102706714Y-86505143D01*
X102670429Y-86541429D01*
X102597857Y-86577714D01*
X102452714Y-86577714D01*
X102380143Y-86541429D01*
X102343857Y-86505143D01*
X102307572Y-86432571D01*
X102307572Y-86287429D01*
X102343857Y-86214857D01*
X102380143Y-86178571D01*
X102452714Y-86142286D01*
X104611714Y-84482214D02*
X104865714Y-84119357D01*
X105047142Y-84482214D02*
X105047142Y-83720214D01*
X104756857Y-83720214D01*
X104684285Y-83756500D01*
X104648000Y-83792786D01*
X104611714Y-83865357D01*
X104611714Y-83974214D01*
X104648000Y-84046786D01*
X104684285Y-84083071D01*
X104756857Y-84119357D01*
X105047142Y-84119357D01*
X104321428Y-83792786D02*
X104285142Y-83756500D01*
X104212571Y-83720214D01*
X104031142Y-83720214D01*
X103958571Y-83756500D01*
X103922285Y-83792786D01*
X103886000Y-83865357D01*
X103886000Y-83937929D01*
X103922285Y-84046786D01*
X104357714Y-84482214D01*
X103886000Y-84482214D01*
X103414286Y-83720214D02*
X103341714Y-83720214D01*
X103269143Y-83756500D01*
X103232857Y-83792786D01*
X103196571Y-83865357D01*
X103160286Y-84010500D01*
X103160286Y-84191929D01*
X103196571Y-84337071D01*
X103232857Y-84409643D01*
X103269143Y-84445929D01*
X103341714Y-84482214D01*
X103414286Y-84482214D01*
X103486857Y-84445929D01*
X103523143Y-84409643D01*
X103559428Y-84337071D01*
X103595714Y-84191929D01*
X103595714Y-84010500D01*
X103559428Y-83865357D01*
X103523143Y-83792786D01*
X103486857Y-83756500D01*
X103414286Y-83720214D01*
X102797429Y-84482214D02*
X102652286Y-84482214D01*
X102579714Y-84445929D01*
X102543429Y-84409643D01*
X102470857Y-84300786D01*
X102434572Y-84155643D01*
X102434572Y-83865357D01*
X102470857Y-83792786D01*
X102507143Y-83756500D01*
X102579714Y-83720214D01*
X102724857Y-83720214D01*
X102797429Y-83756500D01*
X102833714Y-83792786D01*
X102870000Y-83865357D01*
X102870000Y-84046786D01*
X102833714Y-84119357D01*
X102797429Y-84155643D01*
X102724857Y-84191929D01*
X102579714Y-84191929D01*
X102507143Y-84155643D01*
X102470857Y-84119357D01*
X102434572Y-84046786D01*
X98960214Y-97427143D02*
X98996500Y-97463429D01*
X99105357Y-97499714D01*
X99177928Y-97499714D01*
X99286785Y-97463429D01*
X99359357Y-97390857D01*
X99395642Y-97318286D01*
X99431928Y-97173143D01*
X99431928Y-97064286D01*
X99395642Y-96919143D01*
X99359357Y-96846571D01*
X99286785Y-96774000D01*
X99177928Y-96737714D01*
X99105357Y-96737714D01*
X98996500Y-96774000D01*
X98960214Y-96810286D01*
X98234500Y-97499714D02*
X98669928Y-97499714D01*
X98452214Y-97499714D02*
X98452214Y-96737714D01*
X98524785Y-96846571D01*
X98597357Y-96919143D01*
X98669928Y-96955429D01*
X97762786Y-96737714D02*
X97690214Y-96737714D01*
X97617643Y-96774000D01*
X97581357Y-96810286D01*
X97545071Y-96882857D01*
X97508786Y-97028000D01*
X97508786Y-97209429D01*
X97545071Y-97354571D01*
X97581357Y-97427143D01*
X97617643Y-97463429D01*
X97690214Y-97499714D01*
X97762786Y-97499714D01*
X97835357Y-97463429D01*
X97871643Y-97427143D01*
X97907928Y-97354571D01*
X97944214Y-97209429D01*
X97944214Y-97028000D01*
X97907928Y-96882857D01*
X97871643Y-96810286D01*
X97835357Y-96774000D01*
X97762786Y-96737714D01*
X96819357Y-96737714D02*
X97182214Y-96737714D01*
X97218500Y-97100571D01*
X97182214Y-97064286D01*
X97109643Y-97028000D01*
X96928214Y-97028000D01*
X96855643Y-97064286D01*
X96819357Y-97100571D01*
X96783072Y-97173143D01*
X96783072Y-97354571D01*
X96819357Y-97427143D01*
X96855643Y-97463429D01*
X96928214Y-97499714D01*
X97109643Y-97499714D01*
X97182214Y-97463429D01*
X97218500Y-97427143D01*
X102380143Y-93190786D02*
X102416429Y-93154500D01*
X102452714Y-93045643D01*
X102452714Y-92973072D01*
X102416429Y-92864215D01*
X102343857Y-92791643D01*
X102271286Y-92755358D01*
X102126143Y-92719072D01*
X102017286Y-92719072D01*
X101872143Y-92755358D01*
X101799571Y-92791643D01*
X101727000Y-92864215D01*
X101690714Y-92973072D01*
X101690714Y-93045643D01*
X101727000Y-93154500D01*
X101763286Y-93190786D01*
X102452714Y-93916500D02*
X102452714Y-93481072D01*
X102452714Y-93698786D02*
X101690714Y-93698786D01*
X101799571Y-93626215D01*
X101872143Y-93553643D01*
X101908429Y-93481072D01*
X101690714Y-94388214D02*
X101690714Y-94460786D01*
X101727000Y-94533357D01*
X101763286Y-94569643D01*
X101835857Y-94605929D01*
X101981000Y-94642214D01*
X102162429Y-94642214D01*
X102307571Y-94605929D01*
X102380143Y-94569643D01*
X102416429Y-94533357D01*
X102452714Y-94460786D01*
X102452714Y-94388214D01*
X102416429Y-94315643D01*
X102380143Y-94279357D01*
X102307571Y-94243072D01*
X102162429Y-94206786D01*
X101981000Y-94206786D01*
X101835857Y-94243072D01*
X101763286Y-94279357D01*
X101727000Y-94315643D01*
X101690714Y-94388214D01*
X101690714Y-95295357D02*
X101690714Y-95150214D01*
X101727000Y-95077643D01*
X101763286Y-95041357D01*
X101872143Y-94968786D01*
X102017286Y-94932500D01*
X102307571Y-94932500D01*
X102380143Y-94968786D01*
X102416429Y-95005071D01*
X102452714Y-95077643D01*
X102452714Y-95222786D01*
X102416429Y-95295357D01*
X102380143Y-95331643D01*
X102307571Y-95367928D01*
X102126143Y-95367928D01*
X102053571Y-95331643D01*
X102017286Y-95295357D01*
X101981000Y-95222786D01*
X101981000Y-95077643D01*
X102017286Y-95005071D01*
X102053571Y-94968786D01*
X102126143Y-94932500D01*
M02*
