M48
;DRILL file {KiCad 4.0.0-2.201512072331+6194~38~ubuntu14.04.1-stable} date Mon 28 Dec 2015 11:05:07 AM CET
;FORMAT={2:4/ absolute / inch / suppress trailing zeros}
FMAT,2
INCH,LZ
T1C0.013
T2C0.020
T3C0.030
T4C0.032
T5C0.040
T6C0.118
T7C0.047
%
G90
G05
M72
T1
X032825Y-047975
X03317Y-0486
X034Y-0527
X03405Y-0478
X0344Y-0478
X0346Y-03747
X03495Y-0528
X03515Y-03867
X03531Y-05071
X035868Y-040327
X03595Y-0496
X03605Y-05005
X036168Y-040652
X036223Y-040327
X03645Y-04275
X036606Y-037273
X03695Y-0348
X03695Y-0352
X03698Y-03859
X03715Y-0461
X0372Y-0404
X0375Y-0501
X03751Y-04003
X03781Y-04855
X03782Y-04939
X03784Y-04105
X03791Y-03954
X03796Y-04011
X03935Y-04075
X03944Y-03701
X0395Y-03827
X03965Y-03435
X03965Y-05
X0397Y-03525
X0398Y-04075
X04015Y-0385
X04065Y-04965
X04094Y-04053
X04134Y-05286
T2
X032575Y-05345
X0331Y-049325
X0331Y-050025
X0335Y-033325
X03415Y-033375
X034575Y-04015
X034825Y-0478
X0362Y-03335
X03645Y-05345
X03715Y-047125
X037725Y-04375
X03825Y-041525
X038325Y-047275
X0385Y-037075
X038525Y-039
X0386Y-04195
X0395Y-044675
X03965Y-0325
X03965Y-0335
X04075Y-0539
X041925Y-0539
X042425Y-050725
X042475Y-05155
X0426Y-052575
T3
X0314Y-03322
X0314Y-034007
X0314Y-034794
X0314Y-035582
X04365Y-033168
X04365Y-033956
X04365Y-034743
X04365Y-03553
T4
X03392Y-0384
X03528Y-03704
T5
X031Y-03725
X031Y-03825
X031Y-03925
X031Y-04025
X031Y-04125
X031Y-04225
X031Y-04325
X031Y-04425
X031Y-04525
X031Y-04625
X031Y-04775
X031Y-04875
X031Y-04975
X031Y-05075
X0332Y-031
X0342Y-031
X0352Y-031
X0362Y-031
X0372Y-031
X0382Y-031
X0383Y-05405
X0393Y-05405
X03975Y-031
X04075Y-031
X04175Y-031
X04242Y-03801
X04242Y-03901
X04242Y-04001
X04242Y-04101
X0441Y-0372
X0441Y-0382
X0441Y-03965
X0441Y-04065
X0441Y-04215
X0441Y-04315
X0441Y-04415
X0441Y-04515
X0441Y-04615
X0441Y-04715
X0441Y-04815
X0441Y-04915
X0441Y-05015
X0441Y-05115
T6
X0313Y-0313
X0313Y-0537
X0437Y-0313
X0437Y-0537
T7
X033201Y-0544
X035799Y-0544
T0
M30
