G04 #@! TF.FileFunction,Paste,Bot*
%FSLAX46Y46*%
G04 Gerber Fmt 4.6, Leading zero omitted, Abs format (unit mm)*
G04 Created by KiCad (PCBNEW 4.0.0-2.201512072331+6194~38~ubuntu14.04.1-stable) date Mon 28 Dec 2015 11:05:04 AM CET*
%MOMM*%
G01*
G04 APERTURE LIST*
%ADD10C,0.100000*%
%ADD11R,1.300800X1.050800*%
%ADD12R,1.650800X1.050800*%
%ADD13R,1.050800X1.300800*%
%ADD14R,2.550800X1.050800*%
%ADD15R,1.050800X2.550800*%
%ADD16R,1.350800X0.750800*%
%ADD17R,0.750800X1.350800*%
G04 APERTURE END LIST*
D10*
D11*
X100351790Y-111714023D03*
X100351790Y-109714023D03*
D12*
X97938790Y-112722024D03*
X97938790Y-109722024D03*
X95398790Y-112722023D03*
X95398790Y-109722023D03*
D10*
G36*
X90280719Y-98588277D02*
X91200523Y-99508081D01*
X90457495Y-100251109D01*
X89537691Y-99331305D01*
X90280719Y-98588277D01*
X90280719Y-98588277D01*
G37*
G36*
X88866505Y-100002491D02*
X89786309Y-100922295D01*
X89043281Y-101665323D01*
X88123477Y-100745519D01*
X88866505Y-100002491D01*
X88866505Y-100002491D01*
G37*
D13*
X89678000Y-96570800D03*
X91678000Y-96570800D03*
X84471000Y-95173800D03*
X86471000Y-95173800D03*
D11*
X92583000Y-117745000D03*
X92583000Y-119745000D03*
D13*
X82566000Y-132080000D03*
X84566000Y-132080000D03*
D11*
X101219000Y-130318000D03*
X101219000Y-132318000D03*
X99060000Y-130318000D03*
X99060000Y-132318000D03*
D13*
X88299800Y-127177800D03*
X86299800Y-127177800D03*
D14*
X104267000Y-127913000D03*
X104267000Y-130913000D03*
D15*
X106529000Y-134493000D03*
X103529000Y-134493000D03*
D16*
X91948000Y-81473000D03*
X91948000Y-83373000D03*
X86741000Y-83373000D03*
X86741000Y-81473000D03*
X84328000Y-81473000D03*
X84328000Y-83373000D03*
X97028000Y-83373000D03*
X97028000Y-81473000D03*
X90424000Y-119822000D03*
X90424000Y-117922000D03*
X88265000Y-117922000D03*
X88265000Y-119822000D03*
X86106000Y-117922000D03*
X86106000Y-119822000D03*
X86487000Y-125283000D03*
X86487000Y-123383000D03*
D17*
X84770000Y-129794000D03*
X82870000Y-129794000D03*
X92395000Y-123317000D03*
X94295000Y-123317000D03*
X92395000Y-125603000D03*
X94295000Y-125603000D03*
D11*
X95504000Y-93665800D03*
X95504000Y-95665800D03*
D17*
X104328000Y-82931000D03*
X102428000Y-82931000D03*
X104328000Y-85090000D03*
X102428000Y-85090000D03*
X104328000Y-87249000D03*
X102428000Y-87249000D03*
X104328000Y-89408000D03*
X102428000Y-89408000D03*
D12*
X97790000Y-92657800D03*
X97790000Y-95657800D03*
X100330000Y-92657800D03*
X100330000Y-95657800D03*
M02*
