M48
;DRILL file {KiCad 4.0.0-2.201512072331+6194~38~ubuntu14.04.1-stable} date Mon 04 Jan 2016 09:00:18 PM CET
;FORMAT={2:4/ absolute / inch / suppress leading zeros}
FMAT,2
INCH,TZ
T1C0.013
T2C0.020
T3C0.030
T4C0.032
T5C0.040
T6C0.118
T7C0.047
%
G90
G05
M72
T1
X32825Y-47975
X33170Y-48600
X33650Y-36025
X33675Y-35150
X34000Y-52700
X34050Y-47800
X34400Y-47800
X34600Y-37470
X34950Y-52800
X35150Y-38670
X35310Y-50710
X35850Y-48400
X35868Y-40327
X35950Y-49600
X36050Y-50050
X36168Y-40652
X36223Y-40327
X36450Y-42750
X36606Y-37273
X36950Y-34800
X36950Y-35200
X36980Y-38590
X37150Y-46100
X37200Y-40400
X37500Y-50100
X37510Y-40030
X37810Y-48550
X37820Y-49390
X37840Y-41050
X37910Y-39540
X37960Y-40110
X38875Y-40325
X39425Y-40200
X39440Y-37010
X39500Y-38270
X39650Y-50000
X40150Y-38500
X40650Y-49650
X40940Y-40530
X41125Y-33475
X41125Y-34375
X41340Y-52860
T2
X32575Y-53450
X33100Y-50025
X33125Y-49300
X33500Y-33325
X34150Y-33375
X34575Y-40150
X34825Y-47800
X36200Y-33350
X36450Y-53450
X37150Y-47125
X37725Y-43750
X38250Y-41525
X38325Y-47275
X38500Y-37075
X38525Y-39000
X38600Y-41950
X39500Y-44675
X40750Y-53900
X41925Y-53900
X42425Y-50725
X42475Y-51550
X42600Y-52575
T3
X31375Y-33170
X31375Y-33957
X31375Y-34744
X31375Y-35532
X43675Y-33093
X43675Y-33881
X43675Y-34668
X43675Y-35455
T4
X33920Y-38400
X35280Y-37040
T5
X31000Y-37250
X31000Y-38250
X31000Y-39250
X31000Y-40250
X31000Y-41250
X31000Y-42250
X31000Y-43250
X31000Y-44250
X31000Y-45250
X31000Y-46250
X31000Y-47750
X31000Y-48750
X31000Y-49750
X31000Y-50750
X33200Y-31000
X34200Y-31000
X35200Y-31000
X36200Y-31000
X37200Y-31000
X38200Y-31000
X38300Y-54050
X39300Y-54050
X39750Y-31000
X40750Y-31000
X41750Y-31000
X42420Y-38010
X42420Y-39010
X42420Y-40010
X42420Y-41010
X44100Y-37200
X44100Y-38200
X44100Y-39650
X44100Y-40650
X44100Y-42150
X44100Y-43150
X44100Y-44150
X44100Y-45150
X44100Y-46150
X44100Y-47150
X44100Y-48150
X44100Y-49150
X44100Y-50150
X44100Y-51150
T6
X31300Y-31300
X31300Y-53700
X43700Y-31300
X43700Y-53700
T7
X33201Y-54400
X35799Y-54400
T0
M30
