G04 #@! TF.FileFunction,Soldermask,Top*
%FSLAX46Y46*%
G04 Gerber Fmt 4.6, Leading zero omitted, Abs format (unit mm)*
G04 Created by KiCad (PCBNEW 4.0.0-2.201512072331+6194~38~ubuntu14.04.1-stable) date Mon 04 Jan 2016 09:00:13 PM CET*
%MOMM*%
G01*
G04 APERTURE LIST*
%ADD10C,0.100000*%
%ADD11R,2.899360X2.200860*%
%ADD12R,1.598880X1.598880*%
%ADD13R,1.550620X1.799540*%
%ADD14R,2.432000X2.127200*%
%ADD15O,2.432000X2.127200*%
%ADD16R,2.432000X2.432000*%
%ADD17O,2.432000X2.432000*%
%ADD18R,2.127200X2.432000*%
%ADD19O,2.127200X2.432000*%
%ADD20C,1.900000*%
%ADD21R,0.800000X1.750000*%
%ADD22R,2.000000X1.800000*%
%ADD23R,2.300000X2.300000*%
%ADD24C,2.000000*%
%ADD25O,2.000000X2.000000*%
%ADD26R,1.100000X0.650000*%
%ADD27R,0.650000X1.100000*%
%ADD28R,2.125000X2.125000*%
%ADD29R,1.200100X1.200100*%
%ADD30C,1.901140*%
%ADD31R,2.000000X1.400000*%
G04 APERTURE END LIST*
D10*
G36*
X95827779Y-97529111D02*
X96287398Y-97069492D01*
X97489479Y-98271573D01*
X97029860Y-98731192D01*
X95827779Y-97529111D01*
X95827779Y-97529111D01*
G37*
G36*
X95474226Y-97882664D02*
X95933845Y-97423045D01*
X97135926Y-98625126D01*
X96676307Y-99084745D01*
X95474226Y-97882664D01*
X95474226Y-97882664D01*
G37*
G36*
X95120672Y-98236218D02*
X95580291Y-97776599D01*
X96782372Y-98978680D01*
X96322753Y-99438299D01*
X95120672Y-98236218D01*
X95120672Y-98236218D01*
G37*
G36*
X94767119Y-98589771D02*
X95226738Y-98130152D01*
X96428819Y-99332233D01*
X95969200Y-99791852D01*
X94767119Y-98589771D01*
X94767119Y-98589771D01*
G37*
G36*
X94413566Y-98943324D02*
X94873185Y-98483705D01*
X96075266Y-99685786D01*
X95615647Y-100145405D01*
X94413566Y-98943324D01*
X94413566Y-98943324D01*
G37*
G36*
X94060012Y-99296878D02*
X94519631Y-98837259D01*
X95721712Y-100039340D01*
X95262093Y-100498959D01*
X94060012Y-99296878D01*
X94060012Y-99296878D01*
G37*
G36*
X93706459Y-99650431D02*
X94166078Y-99190812D01*
X95368159Y-100392893D01*
X94908540Y-100852512D01*
X93706459Y-99650431D01*
X93706459Y-99650431D01*
G37*
G36*
X93352905Y-100003985D02*
X93812524Y-99544366D01*
X95014605Y-100746447D01*
X94554986Y-101206066D01*
X93352905Y-100003985D01*
X93352905Y-100003985D01*
G37*
G36*
X92999352Y-100357538D02*
X93458971Y-99897919D01*
X94661052Y-101100000D01*
X94201433Y-101559619D01*
X92999352Y-100357538D01*
X92999352Y-100357538D01*
G37*
G36*
X92645799Y-100711091D02*
X93105418Y-100251472D01*
X94307499Y-101453553D01*
X93847880Y-101913172D01*
X92645799Y-100711091D01*
X92645799Y-100711091D01*
G37*
G36*
X92292245Y-101064645D02*
X92751864Y-100605026D01*
X93953945Y-101807107D01*
X93494326Y-102266726D01*
X92292245Y-101064645D01*
X92292245Y-101064645D01*
G37*
G36*
X91938692Y-101418198D02*
X92398311Y-100958579D01*
X93600392Y-102160660D01*
X93140773Y-102620279D01*
X91938692Y-101418198D01*
X91938692Y-101418198D01*
G37*
G36*
X92398311Y-104883021D02*
X91938692Y-104423402D01*
X93140773Y-103221321D01*
X93600392Y-103680940D01*
X92398311Y-104883021D01*
X92398311Y-104883021D01*
G37*
G36*
X92751864Y-105236574D02*
X92292245Y-104776955D01*
X93494326Y-103574874D01*
X93953945Y-104034493D01*
X92751864Y-105236574D01*
X92751864Y-105236574D01*
G37*
G36*
X93105418Y-105590128D02*
X92645799Y-105130509D01*
X93847880Y-103928428D01*
X94307499Y-104388047D01*
X93105418Y-105590128D01*
X93105418Y-105590128D01*
G37*
G36*
X93458971Y-105943681D02*
X92999352Y-105484062D01*
X94201433Y-104281981D01*
X94661052Y-104741600D01*
X93458971Y-105943681D01*
X93458971Y-105943681D01*
G37*
G36*
X93812524Y-106297234D02*
X93352905Y-105837615D01*
X94554986Y-104635534D01*
X95014605Y-105095153D01*
X93812524Y-106297234D01*
X93812524Y-106297234D01*
G37*
G36*
X94166078Y-106650788D02*
X93706459Y-106191169D01*
X94908540Y-104989088D01*
X95368159Y-105448707D01*
X94166078Y-106650788D01*
X94166078Y-106650788D01*
G37*
G36*
X94519631Y-107004341D02*
X94060012Y-106544722D01*
X95262093Y-105342641D01*
X95721712Y-105802260D01*
X94519631Y-107004341D01*
X94519631Y-107004341D01*
G37*
G36*
X94873185Y-107357895D02*
X94413566Y-106898276D01*
X95615647Y-105696195D01*
X96075266Y-106155814D01*
X94873185Y-107357895D01*
X94873185Y-107357895D01*
G37*
G36*
X95226738Y-107711448D02*
X94767119Y-107251829D01*
X95969200Y-106049748D01*
X96428819Y-106509367D01*
X95226738Y-107711448D01*
X95226738Y-107711448D01*
G37*
G36*
X95580291Y-108065001D02*
X95120672Y-107605382D01*
X96322753Y-106403301D01*
X96782372Y-106862920D01*
X95580291Y-108065001D01*
X95580291Y-108065001D01*
G37*
G36*
X95933845Y-108418555D02*
X95474226Y-107958936D01*
X96676307Y-106756855D01*
X97135926Y-107216474D01*
X95933845Y-108418555D01*
X95933845Y-108418555D01*
G37*
G36*
X96287398Y-108772108D02*
X95827779Y-108312489D01*
X97029860Y-107110408D01*
X97489479Y-107570027D01*
X96287398Y-108772108D01*
X96287398Y-108772108D01*
G37*
G36*
X98090521Y-107570027D02*
X98550140Y-107110408D01*
X99752221Y-108312489D01*
X99292602Y-108772108D01*
X98090521Y-107570027D01*
X98090521Y-107570027D01*
G37*
G36*
X98444074Y-107216474D02*
X98903693Y-106756855D01*
X100105774Y-107958936D01*
X99646155Y-108418555D01*
X98444074Y-107216474D01*
X98444074Y-107216474D01*
G37*
G36*
X98797628Y-106862920D02*
X99257247Y-106403301D01*
X100459328Y-107605382D01*
X99999709Y-108065001D01*
X98797628Y-106862920D01*
X98797628Y-106862920D01*
G37*
G36*
X99151181Y-106509367D02*
X99610800Y-106049748D01*
X100812881Y-107251829D01*
X100353262Y-107711448D01*
X99151181Y-106509367D01*
X99151181Y-106509367D01*
G37*
G36*
X99504734Y-106155814D02*
X99964353Y-105696195D01*
X101166434Y-106898276D01*
X100706815Y-107357895D01*
X99504734Y-106155814D01*
X99504734Y-106155814D01*
G37*
G36*
X99858288Y-105802260D02*
X100317907Y-105342641D01*
X101519988Y-106544722D01*
X101060369Y-107004341D01*
X99858288Y-105802260D01*
X99858288Y-105802260D01*
G37*
G36*
X100211841Y-105448707D02*
X100671460Y-104989088D01*
X101873541Y-106191169D01*
X101413922Y-106650788D01*
X100211841Y-105448707D01*
X100211841Y-105448707D01*
G37*
G36*
X100565395Y-105095153D02*
X101025014Y-104635534D01*
X102227095Y-105837615D01*
X101767476Y-106297234D01*
X100565395Y-105095153D01*
X100565395Y-105095153D01*
G37*
G36*
X100918948Y-104741600D02*
X101378567Y-104281981D01*
X102580648Y-105484062D01*
X102121029Y-105943681D01*
X100918948Y-104741600D01*
X100918948Y-104741600D01*
G37*
G36*
X101272501Y-104388047D02*
X101732120Y-103928428D01*
X102934201Y-105130509D01*
X102474582Y-105590128D01*
X101272501Y-104388047D01*
X101272501Y-104388047D01*
G37*
G36*
X101626055Y-104034493D02*
X102085674Y-103574874D01*
X103287755Y-104776955D01*
X102828136Y-105236574D01*
X101626055Y-104034493D01*
X101626055Y-104034493D01*
G37*
G36*
X101979608Y-103680940D02*
X102439227Y-103221321D01*
X103641308Y-104423402D01*
X103181689Y-104883021D01*
X101979608Y-103680940D01*
X101979608Y-103680940D01*
G37*
G36*
X102439227Y-102620279D02*
X101979608Y-102160660D01*
X103181689Y-100958579D01*
X103641308Y-101418198D01*
X102439227Y-102620279D01*
X102439227Y-102620279D01*
G37*
G36*
X102085674Y-102266726D02*
X101626055Y-101807107D01*
X102828136Y-100605026D01*
X103287755Y-101064645D01*
X102085674Y-102266726D01*
X102085674Y-102266726D01*
G37*
G36*
X101732120Y-101913172D02*
X101272501Y-101453553D01*
X102474582Y-100251472D01*
X102934201Y-100711091D01*
X101732120Y-101913172D01*
X101732120Y-101913172D01*
G37*
G36*
X101378567Y-101559619D02*
X100918948Y-101100000D01*
X102121029Y-99897919D01*
X102580648Y-100357538D01*
X101378567Y-101559619D01*
X101378567Y-101559619D01*
G37*
G36*
X101025014Y-101206066D02*
X100565395Y-100746447D01*
X101767476Y-99544366D01*
X102227095Y-100003985D01*
X101025014Y-101206066D01*
X101025014Y-101206066D01*
G37*
G36*
X100671460Y-100852512D02*
X100211841Y-100392893D01*
X101413922Y-99190812D01*
X101873541Y-99650431D01*
X100671460Y-100852512D01*
X100671460Y-100852512D01*
G37*
G36*
X100317907Y-100498959D02*
X99858288Y-100039340D01*
X101060369Y-98837259D01*
X101519988Y-99296878D01*
X100317907Y-100498959D01*
X100317907Y-100498959D01*
G37*
G36*
X99964353Y-100145405D02*
X99504734Y-99685786D01*
X100706815Y-98483705D01*
X101166434Y-98943324D01*
X99964353Y-100145405D01*
X99964353Y-100145405D01*
G37*
G36*
X99610800Y-99791852D02*
X99151181Y-99332233D01*
X100353262Y-98130152D01*
X100812881Y-98589771D01*
X99610800Y-99791852D01*
X99610800Y-99791852D01*
G37*
G36*
X99257247Y-99438299D02*
X98797628Y-98978680D01*
X99999709Y-97776599D01*
X100459328Y-98236218D01*
X99257247Y-99438299D01*
X99257247Y-99438299D01*
G37*
G36*
X98903693Y-99084745D02*
X98444074Y-98625126D01*
X99646155Y-97423045D01*
X100105774Y-97882664D01*
X98903693Y-99084745D01*
X98903693Y-99084745D01*
G37*
G36*
X98550140Y-98731192D02*
X98090521Y-98271573D01*
X99292602Y-97069492D01*
X99752221Y-97529111D01*
X98550140Y-98731192D01*
X98550140Y-98731192D01*
G37*
D11*
X96807020Y-133350000D03*
X100804980Y-133350000D03*
X96807020Y-129032000D03*
X100804980Y-129032000D03*
D12*
X94521020Y-123317000D03*
X92422980Y-123317000D03*
X94521020Y-125476000D03*
X92422980Y-125476000D03*
D10*
G36*
X91599520Y-96789813D02*
X92871987Y-98062280D01*
X91775534Y-99158733D01*
X90503067Y-97886266D01*
X91599520Y-96789813D01*
X91599520Y-96789813D01*
G37*
G36*
X93898466Y-94490867D02*
X95170933Y-95763334D01*
X94074480Y-96859787D01*
X92802013Y-95587320D01*
X93898466Y-94490867D01*
X93898466Y-94490867D01*
G37*
D13*
X90144600Y-131318000D03*
X86893400Y-131318000D03*
D14*
X112014000Y-129921000D03*
D15*
X112014000Y-127381000D03*
X112014000Y-124841000D03*
X112014000Y-122301000D03*
X112014000Y-119761000D03*
X112014000Y-117221000D03*
X112014000Y-114681000D03*
X112014000Y-112141000D03*
X112014000Y-109601000D03*
X112014000Y-107061000D03*
D14*
X78740000Y-94615000D03*
D15*
X78740000Y-97155000D03*
X78740000Y-99695000D03*
X78740000Y-102235000D03*
X78740000Y-104775000D03*
X78740000Y-107315000D03*
X78740000Y-109855000D03*
X78740000Y-112395000D03*
X78740000Y-114935000D03*
X78740000Y-117475000D03*
D14*
X107746800Y-104165400D03*
D15*
X107746800Y-101625400D03*
X107746800Y-99085400D03*
X107746800Y-96545400D03*
D16*
X112014000Y-100711000D03*
D17*
X112014000Y-103251000D03*
D14*
X78740000Y-128905000D03*
D15*
X78740000Y-126365000D03*
X78740000Y-123825000D03*
X78740000Y-121285000D03*
D16*
X112014000Y-97028000D03*
D17*
X112014000Y-94488000D03*
D18*
X84328000Y-78740000D03*
D19*
X86868000Y-78740000D03*
X89408000Y-78740000D03*
X91948000Y-78740000D03*
X94488000Y-78740000D03*
X97028000Y-78740000D03*
D20*
X110934500Y-90056500D03*
X110934500Y-88056500D03*
X110934500Y-86056500D03*
X110934500Y-84056500D03*
X79692500Y-84251000D03*
X79692500Y-86251000D03*
X79692500Y-88251000D03*
X79692500Y-90251000D03*
D18*
X100965000Y-78740000D03*
D19*
X103505000Y-78740000D03*
X106045000Y-78740000D03*
D21*
X86330000Y-135526000D03*
X88280000Y-135526000D03*
X87630000Y-135526000D03*
X86980000Y-135526000D03*
X88930000Y-135526000D03*
D22*
X84430000Y-135726000D03*
X90830000Y-135726000D03*
D23*
X86430000Y-138176000D03*
X88830000Y-138176000D03*
D24*
X84330000Y-138176000D03*
D25*
X90930000Y-138176000D03*
D16*
X97282000Y-137287000D03*
D17*
X99822000Y-137287000D03*
D26*
X85484000Y-123472000D03*
X85484000Y-123972000D03*
X85484000Y-124472000D03*
X85484000Y-124972000D03*
X85484000Y-125472000D03*
X85484000Y-125972000D03*
X85484000Y-126472000D03*
X85484000Y-126972000D03*
D27*
X86134000Y-127622000D03*
X86634000Y-127622000D03*
X87134000Y-127622000D03*
X87634000Y-127622000D03*
X88134000Y-127622000D03*
X88634000Y-127622000D03*
X89134000Y-127622000D03*
X89634000Y-127622000D03*
D26*
X90284000Y-126972000D03*
X90284000Y-126472000D03*
X90284000Y-125972000D03*
X90284000Y-125472000D03*
X90284000Y-124972000D03*
X90284000Y-124472000D03*
X90284000Y-123972000D03*
X90284000Y-123472000D03*
D27*
X89634000Y-122822000D03*
X89134000Y-122822000D03*
X88634000Y-122822000D03*
X88134000Y-122822000D03*
X87634000Y-122822000D03*
X87134000Y-122822000D03*
X86634000Y-122822000D03*
X86134000Y-122822000D03*
D28*
X88746500Y-126084500D03*
X88746500Y-124359500D03*
X87021500Y-126084500D03*
X87021500Y-124359500D03*
D29*
X103444000Y-132064760D03*
X105344000Y-132064760D03*
X104394000Y-130065780D03*
D30*
X89610005Y-94082795D03*
X86157995Y-97534805D03*
D31*
X92558000Y-116210000D03*
X98958000Y-116210000D03*
X92558000Y-120010000D03*
X98958000Y-120010000D03*
M02*
