G04 #@! TF.FileFunction,Legend,Bot*
%FSLAX46Y46*%
G04 Gerber Fmt 4.6, Leading zero omitted, Abs format (unit mm)*
G04 Created by KiCad (PCBNEW 4.0.0-2.201512072331+6194~38~ubuntu14.04.1-stable) date Mon 28 Dec 2015 11:05:04 AM CET*
%MOMM*%
G01*
G04 APERTURE LIST*
%ADD10C,0.100000*%
%ADD11C,0.127000*%
%ADD12C,0.152400*%
%ADD13C,0.150000*%
G04 APERTURE END LIST*
D10*
D11*
X110290429Y-99776643D02*
X110326714Y-99885500D01*
X110326714Y-100066929D01*
X110290429Y-100139500D01*
X110254143Y-100175786D01*
X110181571Y-100212071D01*
X110109000Y-100212071D01*
X110036429Y-100175786D01*
X110000143Y-100139500D01*
X109963857Y-100066929D01*
X109927571Y-99921786D01*
X109891286Y-99849214D01*
X109855000Y-99812929D01*
X109782429Y-99776643D01*
X109709857Y-99776643D01*
X109637286Y-99812929D01*
X109601000Y-99849214D01*
X109564714Y-99921786D01*
X109564714Y-100103214D01*
X109601000Y-100212071D01*
X110326714Y-100538643D02*
X109564714Y-100538643D01*
X109564714Y-100720071D01*
X109601000Y-100828928D01*
X109673571Y-100901500D01*
X109746143Y-100937785D01*
X109891286Y-100974071D01*
X110000143Y-100974071D01*
X110145286Y-100937785D01*
X110217857Y-100901500D01*
X110290429Y-100828928D01*
X110326714Y-100720071D01*
X110326714Y-100538643D01*
X110109000Y-101264357D02*
X110109000Y-101627214D01*
X110326714Y-101191785D02*
X109564714Y-101445785D01*
X110326714Y-101699785D01*
X110290429Y-102498071D02*
X110326714Y-102606928D01*
X110326714Y-102788357D01*
X110290429Y-102860928D01*
X110254143Y-102897214D01*
X110181571Y-102933499D01*
X110109000Y-102933499D01*
X110036429Y-102897214D01*
X110000143Y-102860928D01*
X109963857Y-102788357D01*
X109927571Y-102643214D01*
X109891286Y-102570642D01*
X109855000Y-102534357D01*
X109782429Y-102498071D01*
X109709857Y-102498071D01*
X109637286Y-102534357D01*
X109601000Y-102570642D01*
X109564714Y-102643214D01*
X109564714Y-102824642D01*
X109601000Y-102933499D01*
X110254143Y-103695499D02*
X110290429Y-103659213D01*
X110326714Y-103550356D01*
X110326714Y-103477785D01*
X110290429Y-103368928D01*
X110217857Y-103296356D01*
X110145286Y-103260071D01*
X110000143Y-103223785D01*
X109891286Y-103223785D01*
X109746143Y-103260071D01*
X109673571Y-103296356D01*
X109601000Y-103368928D01*
X109564714Y-103477785D01*
X109564714Y-103550356D01*
X109601000Y-103659213D01*
X109637286Y-103695499D01*
X110326714Y-104022071D02*
X109564714Y-104022071D01*
X110326714Y-104457499D02*
X109891286Y-104130928D01*
X109564714Y-104457499D02*
X110000143Y-104022071D01*
X110199714Y-94850857D02*
X109836857Y-94596857D01*
X110199714Y-94415429D02*
X109437714Y-94415429D01*
X109437714Y-94705714D01*
X109474000Y-94778286D01*
X109510286Y-94814571D01*
X109582857Y-94850857D01*
X109691714Y-94850857D01*
X109764286Y-94814571D01*
X109800571Y-94778286D01*
X109836857Y-94705714D01*
X109836857Y-94415429D01*
X110199714Y-95104857D02*
X109691714Y-95504000D01*
X109691714Y-95104857D02*
X110199714Y-95504000D01*
X109437714Y-96265999D02*
X109437714Y-96701428D01*
X110199714Y-96483714D02*
X109437714Y-96483714D01*
X110199714Y-96882856D02*
X109691714Y-97281999D01*
X109691714Y-96882856D02*
X110199714Y-97281999D01*
D12*
X108819043Y-127130024D02*
X108770662Y-127178405D01*
X108722281Y-127323548D01*
X108722281Y-127420310D01*
X108770662Y-127565452D01*
X108867424Y-127662214D01*
X108964186Y-127710595D01*
X109157710Y-127758976D01*
X109302852Y-127758976D01*
X109496376Y-127710595D01*
X109593138Y-127662214D01*
X109689900Y-127565452D01*
X109738281Y-127420310D01*
X109738281Y-127323548D01*
X109689900Y-127178405D01*
X109641519Y-127130024D01*
X108770662Y-126307548D02*
X108722281Y-126404310D01*
X108722281Y-126597833D01*
X108770662Y-126694595D01*
X108867424Y-126742976D01*
X109254471Y-126742976D01*
X109351233Y-126694595D01*
X109399614Y-126597833D01*
X109399614Y-126404310D01*
X109351233Y-126307548D01*
X109254471Y-126259167D01*
X109157710Y-126259167D01*
X109060948Y-126742976D01*
X109399614Y-125823738D02*
X108722281Y-125823738D01*
X109302852Y-125823738D02*
X109351233Y-125775357D01*
X109399614Y-125678595D01*
X109399614Y-125533453D01*
X109351233Y-125436691D01*
X109254471Y-125388310D01*
X108722281Y-125388310D01*
X109399614Y-125049643D02*
X109399614Y-124662595D01*
X109738281Y-124904500D02*
X108867424Y-124904500D01*
X108770662Y-124856119D01*
X108722281Y-124759357D01*
X108722281Y-124662595D01*
X108722281Y-124323929D02*
X109399614Y-124323929D01*
X109206090Y-124323929D02*
X109302852Y-124275548D01*
X109351233Y-124227167D01*
X109399614Y-124130405D01*
X109399614Y-124033644D01*
X108722281Y-123259549D02*
X109254471Y-123259549D01*
X109351233Y-123307930D01*
X109399614Y-123404692D01*
X109399614Y-123598215D01*
X109351233Y-123694977D01*
X108770662Y-123259549D02*
X108722281Y-123356311D01*
X108722281Y-123598215D01*
X108770662Y-123694977D01*
X108867424Y-123743358D01*
X108964186Y-123743358D01*
X109060948Y-123694977D01*
X109109329Y-123598215D01*
X109109329Y-123356311D01*
X109157710Y-123259549D01*
X108722281Y-122630596D02*
X108770662Y-122727358D01*
X108867424Y-122775739D01*
X109738281Y-122775739D01*
X108819043Y-120888883D02*
X108770662Y-120937264D01*
X108722281Y-121082407D01*
X108722281Y-121179169D01*
X108770662Y-121324311D01*
X108867424Y-121421073D01*
X108964186Y-121469454D01*
X109157710Y-121517835D01*
X109302852Y-121517835D01*
X109496376Y-121469454D01*
X109593138Y-121421073D01*
X109689900Y-121324311D01*
X109738281Y-121179169D01*
X109738281Y-121082407D01*
X109689900Y-120937264D01*
X109641519Y-120888883D01*
X108722281Y-120308311D02*
X108770662Y-120405073D01*
X108819043Y-120453454D01*
X108915805Y-120501835D01*
X109206090Y-120501835D01*
X109302852Y-120453454D01*
X109351233Y-120405073D01*
X109399614Y-120308311D01*
X109399614Y-120163169D01*
X109351233Y-120066407D01*
X109302852Y-120018026D01*
X109206090Y-119969645D01*
X108915805Y-119969645D01*
X108819043Y-120018026D01*
X108770662Y-120066407D01*
X108722281Y-120163169D01*
X108722281Y-120308311D01*
X108722281Y-119534216D02*
X109399614Y-119534216D01*
X109302852Y-119534216D02*
X109351233Y-119485835D01*
X109399614Y-119389073D01*
X109399614Y-119243931D01*
X109351233Y-119147169D01*
X109254471Y-119098788D01*
X108722281Y-119098788D01*
X109254471Y-119098788D02*
X109351233Y-119050407D01*
X109399614Y-118953645D01*
X109399614Y-118808502D01*
X109351233Y-118711740D01*
X109254471Y-118663359D01*
X108722281Y-118663359D01*
X108722281Y-118179549D02*
X109399614Y-118179549D01*
X109302852Y-118179549D02*
X109351233Y-118131168D01*
X109399614Y-118034406D01*
X109399614Y-117889264D01*
X109351233Y-117792502D01*
X109254471Y-117744121D01*
X108722281Y-117744121D01*
X109254471Y-117744121D02*
X109351233Y-117695740D01*
X109399614Y-117598978D01*
X109399614Y-117453835D01*
X109351233Y-117357073D01*
X109254471Y-117308692D01*
X108722281Y-117308692D01*
X108722281Y-116389454D02*
X109254471Y-116389454D01*
X109351233Y-116437835D01*
X109399614Y-116534597D01*
X109399614Y-116728120D01*
X109351233Y-116824882D01*
X108770662Y-116389454D02*
X108722281Y-116486216D01*
X108722281Y-116728120D01*
X108770662Y-116824882D01*
X108867424Y-116873263D01*
X108964186Y-116873263D01*
X109060948Y-116824882D01*
X109109329Y-116728120D01*
X109109329Y-116486216D01*
X109157710Y-116389454D01*
X109399614Y-115905644D02*
X108722281Y-115905644D01*
X109302852Y-115905644D02*
X109351233Y-115857263D01*
X109399614Y-115760501D01*
X109399614Y-115615359D01*
X109351233Y-115518597D01*
X109254471Y-115470216D01*
X108722281Y-115470216D01*
X108722281Y-114550978D02*
X109738281Y-114550978D01*
X108770662Y-114550978D02*
X108722281Y-114647740D01*
X108722281Y-114841263D01*
X108770662Y-114938025D01*
X108819043Y-114986406D01*
X108915805Y-115034787D01*
X109206090Y-115034787D01*
X109302852Y-114986406D01*
X109351233Y-114938025D01*
X109399614Y-114841263D01*
X109399614Y-114647740D01*
X109351233Y-114550978D01*
X108722281Y-113293073D02*
X109738281Y-113293073D01*
X109012567Y-112954407D01*
X109738281Y-112615740D01*
X108722281Y-112615740D01*
X108722281Y-111986787D02*
X108770662Y-112083549D01*
X108819043Y-112131930D01*
X108915805Y-112180311D01*
X109206090Y-112180311D01*
X109302852Y-112131930D01*
X109351233Y-112083549D01*
X109399614Y-111986787D01*
X109399614Y-111841645D01*
X109351233Y-111744883D01*
X109302852Y-111696502D01*
X109206090Y-111648121D01*
X108915805Y-111648121D01*
X108819043Y-111696502D01*
X108770662Y-111744883D01*
X108722281Y-111841645D01*
X108722281Y-111986787D01*
X108722281Y-110777264D02*
X109738281Y-110777264D01*
X108770662Y-110777264D02*
X108722281Y-110874026D01*
X108722281Y-111067549D01*
X108770662Y-111164311D01*
X108819043Y-111212692D01*
X108915805Y-111261073D01*
X109206090Y-111261073D01*
X109302852Y-111212692D01*
X109351233Y-111164311D01*
X109399614Y-111067549D01*
X109399614Y-110874026D01*
X109351233Y-110777264D01*
X109399614Y-109858026D02*
X108722281Y-109858026D01*
X109399614Y-110293454D02*
X108867424Y-110293454D01*
X108770662Y-110245073D01*
X108722281Y-110148311D01*
X108722281Y-110003169D01*
X108770662Y-109906407D01*
X108819043Y-109858026D01*
X108722281Y-109229073D02*
X108770662Y-109325835D01*
X108867424Y-109374216D01*
X109738281Y-109374216D01*
X108770662Y-108454979D02*
X108722281Y-108551741D01*
X108722281Y-108745264D01*
X108770662Y-108842026D01*
X108867424Y-108890407D01*
X109254471Y-108890407D01*
X109351233Y-108842026D01*
X109399614Y-108745264D01*
X109399614Y-108551741D01*
X109351233Y-108454979D01*
X109254471Y-108406598D01*
X109157710Y-108406598D01*
X109060948Y-108890407D01*
X107147481Y-127130024D02*
X107631290Y-127468690D01*
X107147481Y-127710595D02*
X108163481Y-127710595D01*
X108163481Y-127323548D01*
X108115100Y-127226786D01*
X108066719Y-127178405D01*
X107969957Y-127130024D01*
X107824814Y-127130024D01*
X107728052Y-127178405D01*
X107679671Y-127226786D01*
X107631290Y-127323548D01*
X107631290Y-127710595D01*
X107195862Y-126307548D02*
X107147481Y-126404310D01*
X107147481Y-126597833D01*
X107195862Y-126694595D01*
X107292624Y-126742976D01*
X107679671Y-126742976D01*
X107776433Y-126694595D01*
X107824814Y-126597833D01*
X107824814Y-126404310D01*
X107776433Y-126307548D01*
X107679671Y-126259167D01*
X107582910Y-126259167D01*
X107486148Y-126742976D01*
X107824814Y-125920500D02*
X107147481Y-125678595D01*
X107824814Y-125436691D01*
X107824814Y-123840120D02*
X107147481Y-123840120D01*
X108211862Y-124082024D02*
X107486148Y-124323929D01*
X107486148Y-123694977D01*
X107147481Y-122824120D02*
X107147481Y-123307929D01*
X108163481Y-123307929D01*
X107244243Y-122485453D02*
X107195862Y-122437072D01*
X107147481Y-122485453D01*
X107195862Y-122533834D01*
X107244243Y-122485453D01*
X107147481Y-122485453D01*
X107147481Y-121469453D02*
X107147481Y-122050024D01*
X107147481Y-121759738D02*
X108163481Y-121759738D01*
X108018338Y-121856500D01*
X107921576Y-121953262D01*
X107873195Y-122050024D01*
D13*
X101201790Y-110214023D02*
X101201790Y-111214023D01*
X99501790Y-111214023D02*
X99501790Y-110214023D01*
X98963790Y-110222024D02*
X98963790Y-112222024D01*
X96913790Y-112222024D02*
X96913790Y-110222024D01*
X96423790Y-110222023D02*
X96423790Y-112222023D01*
X94373790Y-112222023D02*
X94373790Y-110222023D01*
X88707406Y-99879313D02*
X89414513Y-99172206D01*
X90616594Y-100374287D02*
X89909487Y-101081394D01*
X91178000Y-97420800D02*
X90178000Y-97420800D01*
X90178000Y-95720800D02*
X91178000Y-95720800D01*
X85971000Y-96023800D02*
X84971000Y-96023800D01*
X84971000Y-94323800D02*
X85971000Y-94323800D01*
X91733000Y-119245000D02*
X91733000Y-118245000D01*
X93433000Y-118245000D02*
X93433000Y-119245000D01*
X84066000Y-132930000D02*
X83066000Y-132930000D01*
X83066000Y-131230000D02*
X84066000Y-131230000D01*
X100369000Y-131818000D02*
X100369000Y-130818000D01*
X102069000Y-130818000D02*
X102069000Y-131818000D01*
X98210000Y-131818000D02*
X98210000Y-130818000D01*
X99910000Y-130818000D02*
X99910000Y-131818000D01*
X86799800Y-126327800D02*
X87799800Y-126327800D01*
X87799800Y-128027800D02*
X86799800Y-128027800D01*
X102792000Y-130413000D02*
X102792000Y-128413000D01*
X105742000Y-128413000D02*
X105742000Y-130413000D01*
X104029000Y-133018000D02*
X106029000Y-133018000D01*
X106029000Y-135968000D02*
X104029000Y-135968000D01*
X92823000Y-83023000D02*
X92823000Y-81823000D01*
X91073000Y-81823000D02*
X91073000Y-83023000D01*
X85866000Y-81823000D02*
X85866000Y-83023000D01*
X87616000Y-83023000D02*
X87616000Y-81823000D01*
X85203000Y-83023000D02*
X85203000Y-81823000D01*
X83453000Y-81823000D02*
X83453000Y-83023000D01*
X96153000Y-81823000D02*
X96153000Y-83023000D01*
X97903000Y-83023000D02*
X97903000Y-81823000D01*
X89549000Y-118272000D02*
X89549000Y-119472000D01*
X91299000Y-119472000D02*
X91299000Y-118272000D01*
X89140000Y-119472000D02*
X89140000Y-118272000D01*
X87390000Y-118272000D02*
X87390000Y-119472000D01*
X86981000Y-119472000D02*
X86981000Y-118272000D01*
X85231000Y-118272000D02*
X85231000Y-119472000D01*
X85612000Y-123733000D02*
X85612000Y-124933000D01*
X87362000Y-124933000D02*
X87362000Y-123733000D01*
X83220000Y-130669000D02*
X84420000Y-130669000D01*
X84420000Y-128919000D02*
X83220000Y-128919000D01*
X93945000Y-122442000D02*
X92745000Y-122442000D01*
X92745000Y-124192000D02*
X93945000Y-124192000D01*
X93945000Y-124728000D02*
X92745000Y-124728000D01*
X92745000Y-126478000D02*
X93945000Y-126478000D01*
X94654000Y-95165800D02*
X94654000Y-94165800D01*
X96354000Y-94165800D02*
X96354000Y-95165800D01*
X102778000Y-83806000D02*
X103978000Y-83806000D01*
X103978000Y-82056000D02*
X102778000Y-82056000D01*
X102778000Y-85965000D02*
X103978000Y-85965000D01*
X103978000Y-84215000D02*
X102778000Y-84215000D01*
X102778000Y-88124000D02*
X103978000Y-88124000D01*
X103978000Y-86374000D02*
X102778000Y-86374000D01*
X102778000Y-90283000D02*
X103978000Y-90283000D01*
X103978000Y-88533000D02*
X102778000Y-88533000D01*
X96765000Y-95157800D02*
X96765000Y-93157800D01*
X98815000Y-93157800D02*
X98815000Y-95157800D01*
X99305000Y-95157800D02*
X99305000Y-93157800D01*
X101355000Y-93157800D02*
X101355000Y-95157800D01*
D11*
X102189643Y-109954786D02*
X102225929Y-109918500D01*
X102262214Y-109809643D01*
X102262214Y-109737072D01*
X102225929Y-109628215D01*
X102153357Y-109555643D01*
X102080786Y-109519358D01*
X101935643Y-109483072D01*
X101826786Y-109483072D01*
X101681643Y-109519358D01*
X101609071Y-109555643D01*
X101536500Y-109628215D01*
X101500214Y-109737072D01*
X101500214Y-109809643D01*
X101536500Y-109918500D01*
X101572786Y-109954786D01*
X102262214Y-110680500D02*
X102262214Y-110245072D01*
X102262214Y-110462786D02*
X101500214Y-110462786D01*
X101609071Y-110390215D01*
X101681643Y-110317643D01*
X101717929Y-110245072D01*
X101500214Y-111152214D02*
X101500214Y-111224786D01*
X101536500Y-111297357D01*
X101572786Y-111333643D01*
X101645357Y-111369929D01*
X101790500Y-111406214D01*
X101971929Y-111406214D01*
X102117071Y-111369929D01*
X102189643Y-111333643D01*
X102225929Y-111297357D01*
X102262214Y-111224786D01*
X102262214Y-111152214D01*
X102225929Y-111079643D01*
X102189643Y-111043357D01*
X102117071Y-111007072D01*
X101971929Y-110970786D01*
X101790500Y-110970786D01*
X101645357Y-111007072D01*
X101572786Y-111043357D01*
X101536500Y-111079643D01*
X101500214Y-111152214D01*
X101500214Y-111660214D02*
X101500214Y-112168214D01*
X102262214Y-111841643D01*
X98833214Y-108603143D02*
X98869500Y-108639429D01*
X98978357Y-108675714D01*
X99050928Y-108675714D01*
X99159785Y-108639429D01*
X99232357Y-108566857D01*
X99268642Y-108494286D01*
X99304928Y-108349143D01*
X99304928Y-108240286D01*
X99268642Y-108095143D01*
X99232357Y-108022571D01*
X99159785Y-107950000D01*
X99050928Y-107913714D01*
X98978357Y-107913714D01*
X98869500Y-107950000D01*
X98833214Y-107986286D01*
X98107500Y-108675714D02*
X98542928Y-108675714D01*
X98325214Y-108675714D02*
X98325214Y-107913714D01*
X98397785Y-108022571D01*
X98470357Y-108095143D01*
X98542928Y-108131429D01*
X97635786Y-107913714D02*
X97563214Y-107913714D01*
X97490643Y-107950000D01*
X97454357Y-107986286D01*
X97418071Y-108058857D01*
X97381786Y-108204000D01*
X97381786Y-108385429D01*
X97418071Y-108530571D01*
X97454357Y-108603143D01*
X97490643Y-108639429D01*
X97563214Y-108675714D01*
X97635786Y-108675714D01*
X97708357Y-108639429D01*
X97744643Y-108603143D01*
X97780928Y-108530571D01*
X97817214Y-108385429D01*
X97817214Y-108204000D01*
X97780928Y-108058857D01*
X97744643Y-107986286D01*
X97708357Y-107950000D01*
X97635786Y-107913714D01*
X96946357Y-108240286D02*
X97018929Y-108204000D01*
X97055214Y-108167714D01*
X97091500Y-108095143D01*
X97091500Y-108058857D01*
X97055214Y-107986286D01*
X97018929Y-107950000D01*
X96946357Y-107913714D01*
X96801214Y-107913714D01*
X96728643Y-107950000D01*
X96692357Y-107986286D01*
X96656072Y-108058857D01*
X96656072Y-108095143D01*
X96692357Y-108167714D01*
X96728643Y-108204000D01*
X96801214Y-108240286D01*
X96946357Y-108240286D01*
X97018929Y-108276571D01*
X97055214Y-108312857D01*
X97091500Y-108385429D01*
X97091500Y-108530571D01*
X97055214Y-108603143D01*
X97018929Y-108639429D01*
X96946357Y-108675714D01*
X96801214Y-108675714D01*
X96728643Y-108639429D01*
X96692357Y-108603143D01*
X96656072Y-108530571D01*
X96656072Y-108385429D01*
X96692357Y-108312857D01*
X96728643Y-108276571D01*
X96801214Y-108240286D01*
X93998143Y-110145286D02*
X94034429Y-110109000D01*
X94070714Y-110000143D01*
X94070714Y-109927572D01*
X94034429Y-109818715D01*
X93961857Y-109746143D01*
X93889286Y-109709858D01*
X93744143Y-109673572D01*
X93635286Y-109673572D01*
X93490143Y-109709858D01*
X93417571Y-109746143D01*
X93345000Y-109818715D01*
X93308714Y-109927572D01*
X93308714Y-110000143D01*
X93345000Y-110109000D01*
X93381286Y-110145286D01*
X94070714Y-110871000D02*
X94070714Y-110435572D01*
X94070714Y-110653286D02*
X93308714Y-110653286D01*
X93417571Y-110580715D01*
X93490143Y-110508143D01*
X93526429Y-110435572D01*
X93308714Y-111342714D02*
X93308714Y-111415286D01*
X93345000Y-111487857D01*
X93381286Y-111524143D01*
X93453857Y-111560429D01*
X93599000Y-111596714D01*
X93780429Y-111596714D01*
X93925571Y-111560429D01*
X93998143Y-111524143D01*
X94034429Y-111487857D01*
X94070714Y-111415286D01*
X94070714Y-111342714D01*
X94034429Y-111270143D01*
X93998143Y-111233857D01*
X93925571Y-111197572D01*
X93780429Y-111161286D01*
X93599000Y-111161286D01*
X93453857Y-111197572D01*
X93381286Y-111233857D01*
X93345000Y-111270143D01*
X93308714Y-111342714D01*
X94070714Y-111959571D02*
X94070714Y-112104714D01*
X94034429Y-112177286D01*
X93998143Y-112213571D01*
X93889286Y-112286143D01*
X93744143Y-112322428D01*
X93453857Y-112322428D01*
X93381286Y-112286143D01*
X93345000Y-112249857D01*
X93308714Y-112177286D01*
X93308714Y-112032143D01*
X93345000Y-111959571D01*
X93381286Y-111923286D01*
X93453857Y-111887000D01*
X93635286Y-111887000D01*
X93707857Y-111923286D01*
X93744143Y-111959571D01*
X93780429Y-112032143D01*
X93780429Y-112177286D01*
X93744143Y-112249857D01*
X93707857Y-112286143D01*
X93635286Y-112322428D01*
X92108394Y-100490974D02*
X92159710Y-100490974D01*
X92262341Y-100439658D01*
X92313657Y-100388343D01*
X92364973Y-100285712D01*
X92364973Y-100183080D01*
X92339315Y-100106107D01*
X92262341Y-99977817D01*
X92185368Y-99900843D01*
X92057078Y-99823870D01*
X91980104Y-99798211D01*
X91877473Y-99798212D01*
X91774841Y-99849527D01*
X91723526Y-99900843D01*
X91672210Y-100003474D01*
X91672210Y-100054791D01*
X91646552Y-101055447D02*
X91954446Y-100747553D01*
X91800499Y-100901500D02*
X91261684Y-100362685D01*
X91389973Y-100388343D01*
X91492605Y-100388343D01*
X91569579Y-100362685D01*
X90774185Y-100850184D02*
X90722868Y-100901500D01*
X90697211Y-100978474D01*
X90697211Y-101029790D01*
X90722868Y-101106763D01*
X90799843Y-101235052D01*
X90928132Y-101363342D01*
X91056421Y-101440315D01*
X91133395Y-101465973D01*
X91184711Y-101465973D01*
X91261684Y-101440315D01*
X91313000Y-101388999D01*
X91338658Y-101312026D01*
X91338658Y-101260710D01*
X91312999Y-101183737D01*
X91236026Y-101055448D01*
X91107737Y-100927158D01*
X90979447Y-100850185D01*
X90902474Y-100824526D01*
X90851158Y-100824526D01*
X90774185Y-100850184D01*
X90620238Y-102081762D02*
X90928132Y-101773868D01*
X90774185Y-101927815D02*
X90235369Y-101388999D01*
X90363658Y-101414657D01*
X90466291Y-101414657D01*
X90543264Y-101389000D01*
X92229214Y-95268143D02*
X92265500Y-95304429D01*
X92374357Y-95340714D01*
X92446928Y-95340714D01*
X92555785Y-95304429D01*
X92628357Y-95231857D01*
X92664642Y-95159286D01*
X92700928Y-95014143D01*
X92700928Y-94905286D01*
X92664642Y-94760143D01*
X92628357Y-94687571D01*
X92555785Y-94615000D01*
X92446928Y-94578714D01*
X92374357Y-94578714D01*
X92265500Y-94615000D01*
X92229214Y-94651286D01*
X91503500Y-95340714D02*
X91938928Y-95340714D01*
X91721214Y-95340714D02*
X91721214Y-94578714D01*
X91793785Y-94687571D01*
X91866357Y-94760143D01*
X91938928Y-94796429D01*
X91031786Y-94578714D02*
X90959214Y-94578714D01*
X90886643Y-94615000D01*
X90850357Y-94651286D01*
X90814071Y-94723857D01*
X90777786Y-94869000D01*
X90777786Y-95050429D01*
X90814071Y-95195571D01*
X90850357Y-95268143D01*
X90886643Y-95304429D01*
X90959214Y-95340714D01*
X91031786Y-95340714D01*
X91104357Y-95304429D01*
X91140643Y-95268143D01*
X91176928Y-95195571D01*
X91213214Y-95050429D01*
X91213214Y-94869000D01*
X91176928Y-94723857D01*
X91140643Y-94651286D01*
X91104357Y-94615000D01*
X91031786Y-94578714D01*
X90487500Y-94651286D02*
X90451214Y-94615000D01*
X90378643Y-94578714D01*
X90197214Y-94578714D01*
X90124643Y-94615000D01*
X90088357Y-94651286D01*
X90052072Y-94723857D01*
X90052072Y-94796429D01*
X90088357Y-94905286D01*
X90523786Y-95340714D01*
X90052072Y-95340714D01*
X86413517Y-93560089D02*
X86449803Y-93596375D01*
X86558660Y-93632660D01*
X86631231Y-93632660D01*
X86740088Y-93596375D01*
X86812660Y-93523803D01*
X86848945Y-93451232D01*
X86885231Y-93306089D01*
X86885231Y-93197232D01*
X86848945Y-93052089D01*
X86812660Y-92979517D01*
X86740088Y-92906946D01*
X86631231Y-92870660D01*
X86558660Y-92870660D01*
X86449803Y-92906946D01*
X86413517Y-92943232D01*
X85687803Y-93632660D02*
X86123231Y-93632660D01*
X85905517Y-93632660D02*
X85905517Y-92870660D01*
X85978088Y-92979517D01*
X86050660Y-93052089D01*
X86123231Y-93088375D01*
X85216089Y-92870660D02*
X85143517Y-92870660D01*
X85070946Y-92906946D01*
X85034660Y-92943232D01*
X84998374Y-93015803D01*
X84962089Y-93160946D01*
X84962089Y-93342375D01*
X84998374Y-93487517D01*
X85034660Y-93560089D01*
X85070946Y-93596375D01*
X85143517Y-93632660D01*
X85216089Y-93632660D01*
X85288660Y-93596375D01*
X85324946Y-93560089D01*
X85361231Y-93487517D01*
X85397517Y-93342375D01*
X85397517Y-93160946D01*
X85361231Y-93015803D01*
X85324946Y-92943232D01*
X85288660Y-92906946D01*
X85216089Y-92870660D01*
X84708089Y-92870660D02*
X84236375Y-92870660D01*
X84490375Y-93160946D01*
X84381517Y-93160946D01*
X84308946Y-93197232D01*
X84272660Y-93233517D01*
X84236375Y-93306089D01*
X84236375Y-93487517D01*
X84272660Y-93560089D01*
X84308946Y-93596375D01*
X84381517Y-93632660D01*
X84599232Y-93632660D01*
X84671803Y-93596375D01*
X84708089Y-93560089D01*
X96665143Y-117892286D02*
X96701429Y-117856000D01*
X96737714Y-117747143D01*
X96737714Y-117674572D01*
X96701429Y-117565715D01*
X96628857Y-117493143D01*
X96556286Y-117456858D01*
X96411143Y-117420572D01*
X96302286Y-117420572D01*
X96157143Y-117456858D01*
X96084571Y-117493143D01*
X96012000Y-117565715D01*
X95975714Y-117674572D01*
X95975714Y-117747143D01*
X96012000Y-117856000D01*
X96048286Y-117892286D01*
X96048286Y-118182572D02*
X96012000Y-118218858D01*
X95975714Y-118291429D01*
X95975714Y-118472858D01*
X96012000Y-118545429D01*
X96048286Y-118581715D01*
X96120857Y-118618000D01*
X96193429Y-118618000D01*
X96302286Y-118581715D01*
X96737714Y-118146286D01*
X96737714Y-118618000D01*
X95975714Y-119089714D02*
X95975714Y-119162286D01*
X96012000Y-119234857D01*
X96048286Y-119271143D01*
X96120857Y-119307429D01*
X96266000Y-119343714D01*
X96447429Y-119343714D01*
X96592571Y-119307429D01*
X96665143Y-119271143D01*
X96701429Y-119234857D01*
X96737714Y-119162286D01*
X96737714Y-119089714D01*
X96701429Y-119017143D01*
X96665143Y-118980857D01*
X96592571Y-118944572D01*
X96447429Y-118908286D01*
X96266000Y-118908286D01*
X96120857Y-118944572D01*
X96048286Y-118980857D01*
X96012000Y-119017143D01*
X95975714Y-119089714D01*
X96737714Y-120069428D02*
X96737714Y-119634000D01*
X96737714Y-119851714D02*
X95975714Y-119851714D01*
X96084571Y-119779143D01*
X96157143Y-119706571D01*
X96193429Y-119634000D01*
X84418714Y-134130143D02*
X84455000Y-134166429D01*
X84563857Y-134202714D01*
X84636428Y-134202714D01*
X84745285Y-134166429D01*
X84817857Y-134093857D01*
X84854142Y-134021286D01*
X84890428Y-133876143D01*
X84890428Y-133767286D01*
X84854142Y-133622143D01*
X84817857Y-133549571D01*
X84745285Y-133477000D01*
X84636428Y-133440714D01*
X84563857Y-133440714D01*
X84455000Y-133477000D01*
X84418714Y-133513286D01*
X84164714Y-133440714D02*
X83693000Y-133440714D01*
X83947000Y-133731000D01*
X83838142Y-133731000D01*
X83765571Y-133767286D01*
X83729285Y-133803571D01*
X83693000Y-133876143D01*
X83693000Y-134057571D01*
X83729285Y-134130143D01*
X83765571Y-134166429D01*
X83838142Y-134202714D01*
X84055857Y-134202714D01*
X84128428Y-134166429D01*
X84164714Y-134130143D01*
X83221286Y-133440714D02*
X83148714Y-133440714D01*
X83076143Y-133477000D01*
X83039857Y-133513286D01*
X83003571Y-133585857D01*
X82967286Y-133731000D01*
X82967286Y-133912429D01*
X83003571Y-134057571D01*
X83039857Y-134130143D01*
X83076143Y-134166429D01*
X83148714Y-134202714D01*
X83221286Y-134202714D01*
X83293857Y-134166429D01*
X83330143Y-134130143D01*
X83366428Y-134057571D01*
X83402714Y-133912429D01*
X83402714Y-133731000D01*
X83366428Y-133585857D01*
X83330143Y-133513286D01*
X83293857Y-133477000D01*
X83221286Y-133440714D01*
X82241572Y-134202714D02*
X82677000Y-134202714D01*
X82459286Y-134202714D02*
X82459286Y-133440714D01*
X82531857Y-133549571D01*
X82604429Y-133622143D01*
X82677000Y-133658429D01*
X97617643Y-130465286D02*
X97653929Y-130429000D01*
X97690214Y-130320143D01*
X97690214Y-130247572D01*
X97653929Y-130138715D01*
X97581357Y-130066143D01*
X97508786Y-130029858D01*
X97363643Y-129993572D01*
X97254786Y-129993572D01*
X97109643Y-130029858D01*
X97037071Y-130066143D01*
X96964500Y-130138715D01*
X96928214Y-130247572D01*
X96928214Y-130320143D01*
X96964500Y-130429000D01*
X97000786Y-130465286D01*
X96928214Y-130719286D02*
X96928214Y-131191000D01*
X97218500Y-130937000D01*
X97218500Y-131045858D01*
X97254786Y-131118429D01*
X97291071Y-131154715D01*
X97363643Y-131191000D01*
X97545071Y-131191000D01*
X97617643Y-131154715D01*
X97653929Y-131118429D01*
X97690214Y-131045858D01*
X97690214Y-130828143D01*
X97653929Y-130755572D01*
X97617643Y-130719286D01*
X96928214Y-131662714D02*
X96928214Y-131735286D01*
X96964500Y-131807857D01*
X97000786Y-131844143D01*
X97073357Y-131880429D01*
X97218500Y-131916714D01*
X97399929Y-131916714D01*
X97545071Y-131880429D01*
X97617643Y-131844143D01*
X97653929Y-131807857D01*
X97690214Y-131735286D01*
X97690214Y-131662714D01*
X97653929Y-131590143D01*
X97617643Y-131553857D01*
X97545071Y-131517572D01*
X97399929Y-131481286D01*
X97218500Y-131481286D01*
X97073357Y-131517572D01*
X97000786Y-131553857D01*
X96964500Y-131590143D01*
X96928214Y-131662714D01*
X97000786Y-132207000D02*
X96964500Y-132243286D01*
X96928214Y-132315857D01*
X96928214Y-132497286D01*
X96964500Y-132569857D01*
X97000786Y-132606143D01*
X97073357Y-132642428D01*
X97145929Y-132642428D01*
X97254786Y-132606143D01*
X97690214Y-132170714D01*
X97690214Y-132642428D01*
X96538143Y-130465286D02*
X96574429Y-130429000D01*
X96610714Y-130320143D01*
X96610714Y-130247572D01*
X96574429Y-130138715D01*
X96501857Y-130066143D01*
X96429286Y-130029858D01*
X96284143Y-129993572D01*
X96175286Y-129993572D01*
X96030143Y-130029858D01*
X95957571Y-130066143D01*
X95885000Y-130138715D01*
X95848714Y-130247572D01*
X95848714Y-130320143D01*
X95885000Y-130429000D01*
X95921286Y-130465286D01*
X95848714Y-130719286D02*
X95848714Y-131191000D01*
X96139000Y-130937000D01*
X96139000Y-131045858D01*
X96175286Y-131118429D01*
X96211571Y-131154715D01*
X96284143Y-131191000D01*
X96465571Y-131191000D01*
X96538143Y-131154715D01*
X96574429Y-131118429D01*
X96610714Y-131045858D01*
X96610714Y-130828143D01*
X96574429Y-130755572D01*
X96538143Y-130719286D01*
X95848714Y-131662714D02*
X95848714Y-131735286D01*
X95885000Y-131807857D01*
X95921286Y-131844143D01*
X95993857Y-131880429D01*
X96139000Y-131916714D01*
X96320429Y-131916714D01*
X96465571Y-131880429D01*
X96538143Y-131844143D01*
X96574429Y-131807857D01*
X96610714Y-131735286D01*
X96610714Y-131662714D01*
X96574429Y-131590143D01*
X96538143Y-131553857D01*
X96465571Y-131517572D01*
X96320429Y-131481286D01*
X96139000Y-131481286D01*
X95993857Y-131517572D01*
X95921286Y-131553857D01*
X95885000Y-131590143D01*
X95848714Y-131662714D01*
X95848714Y-132170714D02*
X95848714Y-132642428D01*
X96139000Y-132388428D01*
X96139000Y-132497286D01*
X96175286Y-132569857D01*
X96211571Y-132606143D01*
X96284143Y-132642428D01*
X96465571Y-132642428D01*
X96538143Y-132606143D01*
X96574429Y-132569857D01*
X96610714Y-132497286D01*
X96610714Y-132279571D01*
X96574429Y-132207000D01*
X96538143Y-132170714D01*
X88165214Y-129177143D02*
X88201500Y-129213429D01*
X88310357Y-129249714D01*
X88382928Y-129249714D01*
X88491785Y-129213429D01*
X88564357Y-129140857D01*
X88600642Y-129068286D01*
X88636928Y-128923143D01*
X88636928Y-128814286D01*
X88600642Y-128669143D01*
X88564357Y-128596571D01*
X88491785Y-128524000D01*
X88382928Y-128487714D01*
X88310357Y-128487714D01*
X88201500Y-128524000D01*
X88165214Y-128560286D01*
X87911214Y-128487714D02*
X87439500Y-128487714D01*
X87693500Y-128778000D01*
X87584642Y-128778000D01*
X87512071Y-128814286D01*
X87475785Y-128850571D01*
X87439500Y-128923143D01*
X87439500Y-129104571D01*
X87475785Y-129177143D01*
X87512071Y-129213429D01*
X87584642Y-129249714D01*
X87802357Y-129249714D01*
X87874928Y-129213429D01*
X87911214Y-129177143D01*
X86967786Y-128487714D02*
X86895214Y-128487714D01*
X86822643Y-128524000D01*
X86786357Y-128560286D01*
X86750071Y-128632857D01*
X86713786Y-128778000D01*
X86713786Y-128959429D01*
X86750071Y-129104571D01*
X86786357Y-129177143D01*
X86822643Y-129213429D01*
X86895214Y-129249714D01*
X86967786Y-129249714D01*
X87040357Y-129213429D01*
X87076643Y-129177143D01*
X87112928Y-129104571D01*
X87149214Y-128959429D01*
X87149214Y-128778000D01*
X87112928Y-128632857D01*
X87076643Y-128560286D01*
X87040357Y-128524000D01*
X86967786Y-128487714D01*
X86060643Y-128741714D02*
X86060643Y-129249714D01*
X86242072Y-128451429D02*
X86423500Y-128995714D01*
X85951786Y-128995714D01*
X106888643Y-128750786D02*
X106924929Y-128714500D01*
X106961214Y-128605643D01*
X106961214Y-128533072D01*
X106924929Y-128424215D01*
X106852357Y-128351643D01*
X106779786Y-128315358D01*
X106634643Y-128279072D01*
X106525786Y-128279072D01*
X106380643Y-128315358D01*
X106308071Y-128351643D01*
X106235500Y-128424215D01*
X106199214Y-128533072D01*
X106199214Y-128605643D01*
X106235500Y-128714500D01*
X106271786Y-128750786D01*
X106199214Y-129004786D02*
X106199214Y-129476500D01*
X106489500Y-129222500D01*
X106489500Y-129331358D01*
X106525786Y-129403929D01*
X106562071Y-129440215D01*
X106634643Y-129476500D01*
X106816071Y-129476500D01*
X106888643Y-129440215D01*
X106924929Y-129403929D01*
X106961214Y-129331358D01*
X106961214Y-129113643D01*
X106924929Y-129041072D01*
X106888643Y-129004786D01*
X106199214Y-129948214D02*
X106199214Y-130020786D01*
X106235500Y-130093357D01*
X106271786Y-130129643D01*
X106344357Y-130165929D01*
X106489500Y-130202214D01*
X106670929Y-130202214D01*
X106816071Y-130165929D01*
X106888643Y-130129643D01*
X106924929Y-130093357D01*
X106961214Y-130020786D01*
X106961214Y-129948214D01*
X106924929Y-129875643D01*
X106888643Y-129839357D01*
X106816071Y-129803072D01*
X106670929Y-129766786D01*
X106489500Y-129766786D01*
X106344357Y-129803072D01*
X106271786Y-129839357D01*
X106235500Y-129875643D01*
X106199214Y-129948214D01*
X106199214Y-130891643D02*
X106199214Y-130528786D01*
X106562071Y-130492500D01*
X106525786Y-130528786D01*
X106489500Y-130601357D01*
X106489500Y-130782786D01*
X106525786Y-130855357D01*
X106562071Y-130891643D01*
X106634643Y-130927928D01*
X106816071Y-130927928D01*
X106888643Y-130891643D01*
X106924929Y-130855357D01*
X106961214Y-130782786D01*
X106961214Y-130601357D01*
X106924929Y-130528786D01*
X106888643Y-130492500D01*
X105881714Y-132479143D02*
X105918000Y-132515429D01*
X106026857Y-132551714D01*
X106099428Y-132551714D01*
X106208285Y-132515429D01*
X106280857Y-132442857D01*
X106317142Y-132370286D01*
X106353428Y-132225143D01*
X106353428Y-132116286D01*
X106317142Y-131971143D01*
X106280857Y-131898571D01*
X106208285Y-131826000D01*
X106099428Y-131789714D01*
X106026857Y-131789714D01*
X105918000Y-131826000D01*
X105881714Y-131862286D01*
X105627714Y-131789714D02*
X105156000Y-131789714D01*
X105410000Y-132080000D01*
X105301142Y-132080000D01*
X105228571Y-132116286D01*
X105192285Y-132152571D01*
X105156000Y-132225143D01*
X105156000Y-132406571D01*
X105192285Y-132479143D01*
X105228571Y-132515429D01*
X105301142Y-132551714D01*
X105518857Y-132551714D01*
X105591428Y-132515429D01*
X105627714Y-132479143D01*
X104684286Y-131789714D02*
X104611714Y-131789714D01*
X104539143Y-131826000D01*
X104502857Y-131862286D01*
X104466571Y-131934857D01*
X104430286Y-132080000D01*
X104430286Y-132261429D01*
X104466571Y-132406571D01*
X104502857Y-132479143D01*
X104539143Y-132515429D01*
X104611714Y-132551714D01*
X104684286Y-132551714D01*
X104756857Y-132515429D01*
X104793143Y-132479143D01*
X104829428Y-132406571D01*
X104865714Y-132261429D01*
X104865714Y-132080000D01*
X104829428Y-131934857D01*
X104793143Y-131862286D01*
X104756857Y-131826000D01*
X104684286Y-131789714D01*
X103777143Y-131789714D02*
X103922286Y-131789714D01*
X103994857Y-131826000D01*
X104031143Y-131862286D01*
X104103714Y-131971143D01*
X104140000Y-132116286D01*
X104140000Y-132406571D01*
X104103714Y-132479143D01*
X104067429Y-132515429D01*
X103994857Y-132551714D01*
X103849714Y-132551714D01*
X103777143Y-132515429D01*
X103740857Y-132479143D01*
X103704572Y-132406571D01*
X103704572Y-132225143D01*
X103740857Y-132152571D01*
X103777143Y-132116286D01*
X103849714Y-132080000D01*
X103994857Y-132080000D01*
X104067429Y-132116286D01*
X104103714Y-132152571D01*
X104140000Y-132225143D01*
X93867514Y-81621086D02*
X93504657Y-81367086D01*
X93867514Y-81185658D02*
X93105514Y-81185658D01*
X93105514Y-81475943D01*
X93141800Y-81548515D01*
X93178086Y-81584800D01*
X93250657Y-81621086D01*
X93359514Y-81621086D01*
X93432086Y-81584800D01*
X93468371Y-81548515D01*
X93504657Y-81475943D01*
X93504657Y-81185658D01*
X93178086Y-81911372D02*
X93141800Y-81947658D01*
X93105514Y-82020229D01*
X93105514Y-82201658D01*
X93141800Y-82274229D01*
X93178086Y-82310515D01*
X93250657Y-82346800D01*
X93323229Y-82346800D01*
X93432086Y-82310515D01*
X93867514Y-81875086D01*
X93867514Y-82346800D01*
X93105514Y-82818514D02*
X93105514Y-82891086D01*
X93141800Y-82963657D01*
X93178086Y-82999943D01*
X93250657Y-83036229D01*
X93395800Y-83072514D01*
X93577229Y-83072514D01*
X93722371Y-83036229D01*
X93794943Y-82999943D01*
X93831229Y-82963657D01*
X93867514Y-82891086D01*
X93867514Y-82818514D01*
X93831229Y-82745943D01*
X93794943Y-82709657D01*
X93722371Y-82673372D01*
X93577229Y-82637086D01*
X93395800Y-82637086D01*
X93250657Y-82673372D01*
X93178086Y-82709657D01*
X93141800Y-82745943D01*
X93105514Y-82818514D01*
X93867514Y-83798228D02*
X93867514Y-83362800D01*
X93867514Y-83580514D02*
X93105514Y-83580514D01*
X93214371Y-83507943D01*
X93286943Y-83435371D01*
X93323229Y-83362800D01*
X88787514Y-81519486D02*
X88424657Y-81265486D01*
X88787514Y-81084058D02*
X88025514Y-81084058D01*
X88025514Y-81374343D01*
X88061800Y-81446915D01*
X88098086Y-81483200D01*
X88170657Y-81519486D01*
X88279514Y-81519486D01*
X88352086Y-81483200D01*
X88388371Y-81446915D01*
X88424657Y-81374343D01*
X88424657Y-81084058D01*
X88098086Y-81809772D02*
X88061800Y-81846058D01*
X88025514Y-81918629D01*
X88025514Y-82100058D01*
X88061800Y-82172629D01*
X88098086Y-82208915D01*
X88170657Y-82245200D01*
X88243229Y-82245200D01*
X88352086Y-82208915D01*
X88787514Y-81773486D01*
X88787514Y-82245200D01*
X88025514Y-82716914D02*
X88025514Y-82789486D01*
X88061800Y-82862057D01*
X88098086Y-82898343D01*
X88170657Y-82934629D01*
X88315800Y-82970914D01*
X88497229Y-82970914D01*
X88642371Y-82934629D01*
X88714943Y-82898343D01*
X88751229Y-82862057D01*
X88787514Y-82789486D01*
X88787514Y-82716914D01*
X88751229Y-82644343D01*
X88714943Y-82608057D01*
X88642371Y-82571772D01*
X88497229Y-82535486D01*
X88315800Y-82535486D01*
X88170657Y-82571772D01*
X88098086Y-82608057D01*
X88061800Y-82644343D01*
X88025514Y-82716914D01*
X88098086Y-83261200D02*
X88061800Y-83297486D01*
X88025514Y-83370057D01*
X88025514Y-83551486D01*
X88061800Y-83624057D01*
X88098086Y-83660343D01*
X88170657Y-83696628D01*
X88243229Y-83696628D01*
X88352086Y-83660343D01*
X88787514Y-83224914D01*
X88787514Y-83696628D01*
X83148714Y-81265486D02*
X82785857Y-81011486D01*
X83148714Y-80830058D02*
X82386714Y-80830058D01*
X82386714Y-81120343D01*
X82423000Y-81192915D01*
X82459286Y-81229200D01*
X82531857Y-81265486D01*
X82640714Y-81265486D01*
X82713286Y-81229200D01*
X82749571Y-81192915D01*
X82785857Y-81120343D01*
X82785857Y-80830058D01*
X82459286Y-81555772D02*
X82423000Y-81592058D01*
X82386714Y-81664629D01*
X82386714Y-81846058D01*
X82423000Y-81918629D01*
X82459286Y-81954915D01*
X82531857Y-81991200D01*
X82604429Y-81991200D01*
X82713286Y-81954915D01*
X83148714Y-81519486D01*
X83148714Y-81991200D01*
X82386714Y-82462914D02*
X82386714Y-82535486D01*
X82423000Y-82608057D01*
X82459286Y-82644343D01*
X82531857Y-82680629D01*
X82677000Y-82716914D01*
X82858429Y-82716914D01*
X83003571Y-82680629D01*
X83076143Y-82644343D01*
X83112429Y-82608057D01*
X83148714Y-82535486D01*
X83148714Y-82462914D01*
X83112429Y-82390343D01*
X83076143Y-82354057D01*
X83003571Y-82317772D01*
X82858429Y-82281486D01*
X82677000Y-82281486D01*
X82531857Y-82317772D01*
X82459286Y-82354057D01*
X82423000Y-82390343D01*
X82386714Y-82462914D01*
X82386714Y-82970914D02*
X82386714Y-83442628D01*
X82677000Y-83188628D01*
X82677000Y-83297486D01*
X82713286Y-83370057D01*
X82749571Y-83406343D01*
X82822143Y-83442628D01*
X83003571Y-83442628D01*
X83076143Y-83406343D01*
X83112429Y-83370057D01*
X83148714Y-83297486D01*
X83148714Y-83079771D01*
X83112429Y-83007200D01*
X83076143Y-82970914D01*
X98972914Y-81595686D02*
X98610057Y-81341686D01*
X98972914Y-81160258D02*
X98210914Y-81160258D01*
X98210914Y-81450543D01*
X98247200Y-81523115D01*
X98283486Y-81559400D01*
X98356057Y-81595686D01*
X98464914Y-81595686D01*
X98537486Y-81559400D01*
X98573771Y-81523115D01*
X98610057Y-81450543D01*
X98610057Y-81160258D01*
X98283486Y-81885972D02*
X98247200Y-81922258D01*
X98210914Y-81994829D01*
X98210914Y-82176258D01*
X98247200Y-82248829D01*
X98283486Y-82285115D01*
X98356057Y-82321400D01*
X98428629Y-82321400D01*
X98537486Y-82285115D01*
X98972914Y-81849686D01*
X98972914Y-82321400D01*
X98210914Y-82793114D02*
X98210914Y-82865686D01*
X98247200Y-82938257D01*
X98283486Y-82974543D01*
X98356057Y-83010829D01*
X98501200Y-83047114D01*
X98682629Y-83047114D01*
X98827771Y-83010829D01*
X98900343Y-82974543D01*
X98936629Y-82938257D01*
X98972914Y-82865686D01*
X98972914Y-82793114D01*
X98936629Y-82720543D01*
X98900343Y-82684257D01*
X98827771Y-82647972D01*
X98682629Y-82611686D01*
X98501200Y-82611686D01*
X98356057Y-82647972D01*
X98283486Y-82684257D01*
X98247200Y-82720543D01*
X98210914Y-82793114D01*
X98464914Y-83700257D02*
X98972914Y-83700257D01*
X98174629Y-83518828D02*
X98718914Y-83337400D01*
X98718914Y-83809114D01*
X95658214Y-117955786D02*
X95295357Y-117701786D01*
X95658214Y-117520358D02*
X94896214Y-117520358D01*
X94896214Y-117810643D01*
X94932500Y-117883215D01*
X94968786Y-117919500D01*
X95041357Y-117955786D01*
X95150214Y-117955786D01*
X95222786Y-117919500D01*
X95259071Y-117883215D01*
X95295357Y-117810643D01*
X95295357Y-117520358D01*
X94896214Y-118209786D02*
X94896214Y-118681500D01*
X95186500Y-118427500D01*
X95186500Y-118536358D01*
X95222786Y-118608929D01*
X95259071Y-118645215D01*
X95331643Y-118681500D01*
X95513071Y-118681500D01*
X95585643Y-118645215D01*
X95621929Y-118608929D01*
X95658214Y-118536358D01*
X95658214Y-118318643D01*
X95621929Y-118246072D01*
X95585643Y-118209786D01*
X94896214Y-119153214D02*
X94896214Y-119225786D01*
X94932500Y-119298357D01*
X94968786Y-119334643D01*
X95041357Y-119370929D01*
X95186500Y-119407214D01*
X95367929Y-119407214D01*
X95513071Y-119370929D01*
X95585643Y-119334643D01*
X95621929Y-119298357D01*
X95658214Y-119225786D01*
X95658214Y-119153214D01*
X95621929Y-119080643D01*
X95585643Y-119044357D01*
X95513071Y-119008072D01*
X95367929Y-118971786D01*
X95186500Y-118971786D01*
X95041357Y-119008072D01*
X94968786Y-119044357D01*
X94932500Y-119080643D01*
X94896214Y-119153214D01*
X95658214Y-120132928D02*
X95658214Y-119697500D01*
X95658214Y-119915214D02*
X94896214Y-119915214D01*
X95005071Y-119842643D01*
X95077643Y-119770071D01*
X95113929Y-119697500D01*
X84672714Y-118019286D02*
X84309857Y-117765286D01*
X84672714Y-117583858D02*
X83910714Y-117583858D01*
X83910714Y-117874143D01*
X83947000Y-117946715D01*
X83983286Y-117983000D01*
X84055857Y-118019286D01*
X84164714Y-118019286D01*
X84237286Y-117983000D01*
X84273571Y-117946715D01*
X84309857Y-117874143D01*
X84309857Y-117583858D01*
X83910714Y-118273286D02*
X83910714Y-118745000D01*
X84201000Y-118491000D01*
X84201000Y-118599858D01*
X84237286Y-118672429D01*
X84273571Y-118708715D01*
X84346143Y-118745000D01*
X84527571Y-118745000D01*
X84600143Y-118708715D01*
X84636429Y-118672429D01*
X84672714Y-118599858D01*
X84672714Y-118382143D01*
X84636429Y-118309572D01*
X84600143Y-118273286D01*
X83910714Y-119216714D02*
X83910714Y-119289286D01*
X83947000Y-119361857D01*
X83983286Y-119398143D01*
X84055857Y-119434429D01*
X84201000Y-119470714D01*
X84382429Y-119470714D01*
X84527571Y-119434429D01*
X84600143Y-119398143D01*
X84636429Y-119361857D01*
X84672714Y-119289286D01*
X84672714Y-119216714D01*
X84636429Y-119144143D01*
X84600143Y-119107857D01*
X84527571Y-119071572D01*
X84382429Y-119035286D01*
X84201000Y-119035286D01*
X84055857Y-119071572D01*
X83983286Y-119107857D01*
X83947000Y-119144143D01*
X83910714Y-119216714D01*
X83983286Y-119761000D02*
X83947000Y-119797286D01*
X83910714Y-119869857D01*
X83910714Y-120051286D01*
X83947000Y-120123857D01*
X83983286Y-120160143D01*
X84055857Y-120196428D01*
X84128429Y-120196428D01*
X84237286Y-120160143D01*
X84672714Y-119724714D01*
X84672714Y-120196428D01*
X83466214Y-118082786D02*
X83103357Y-117828786D01*
X83466214Y-117647358D02*
X82704214Y-117647358D01*
X82704214Y-117937643D01*
X82740500Y-118010215D01*
X82776786Y-118046500D01*
X82849357Y-118082786D01*
X82958214Y-118082786D01*
X83030786Y-118046500D01*
X83067071Y-118010215D01*
X83103357Y-117937643D01*
X83103357Y-117647358D01*
X82704214Y-118336786D02*
X82704214Y-118808500D01*
X82994500Y-118554500D01*
X82994500Y-118663358D01*
X83030786Y-118735929D01*
X83067071Y-118772215D01*
X83139643Y-118808500D01*
X83321071Y-118808500D01*
X83393643Y-118772215D01*
X83429929Y-118735929D01*
X83466214Y-118663358D01*
X83466214Y-118445643D01*
X83429929Y-118373072D01*
X83393643Y-118336786D01*
X82704214Y-119280214D02*
X82704214Y-119352786D01*
X82740500Y-119425357D01*
X82776786Y-119461643D01*
X82849357Y-119497929D01*
X82994500Y-119534214D01*
X83175929Y-119534214D01*
X83321071Y-119497929D01*
X83393643Y-119461643D01*
X83429929Y-119425357D01*
X83466214Y-119352786D01*
X83466214Y-119280214D01*
X83429929Y-119207643D01*
X83393643Y-119171357D01*
X83321071Y-119135072D01*
X83175929Y-119098786D01*
X82994500Y-119098786D01*
X82849357Y-119135072D01*
X82776786Y-119171357D01*
X82740500Y-119207643D01*
X82704214Y-119280214D01*
X82704214Y-119788214D02*
X82704214Y-120259928D01*
X82994500Y-120005928D01*
X82994500Y-120114786D01*
X83030786Y-120187357D01*
X83067071Y-120223643D01*
X83139643Y-120259928D01*
X83321071Y-120259928D01*
X83393643Y-120223643D01*
X83429929Y-120187357D01*
X83466214Y-120114786D01*
X83466214Y-119897071D01*
X83429929Y-119824500D01*
X83393643Y-119788214D01*
X88931714Y-123480286D02*
X88568857Y-123226286D01*
X88931714Y-123044858D02*
X88169714Y-123044858D01*
X88169714Y-123335143D01*
X88206000Y-123407715D01*
X88242286Y-123444000D01*
X88314857Y-123480286D01*
X88423714Y-123480286D01*
X88496286Y-123444000D01*
X88532571Y-123407715D01*
X88568857Y-123335143D01*
X88568857Y-123044858D01*
X88169714Y-123734286D02*
X88169714Y-124206000D01*
X88460000Y-123952000D01*
X88460000Y-124060858D01*
X88496286Y-124133429D01*
X88532571Y-124169715D01*
X88605143Y-124206000D01*
X88786571Y-124206000D01*
X88859143Y-124169715D01*
X88895429Y-124133429D01*
X88931714Y-124060858D01*
X88931714Y-123843143D01*
X88895429Y-123770572D01*
X88859143Y-123734286D01*
X88169714Y-124677714D02*
X88169714Y-124750286D01*
X88206000Y-124822857D01*
X88242286Y-124859143D01*
X88314857Y-124895429D01*
X88460000Y-124931714D01*
X88641429Y-124931714D01*
X88786571Y-124895429D01*
X88859143Y-124859143D01*
X88895429Y-124822857D01*
X88931714Y-124750286D01*
X88931714Y-124677714D01*
X88895429Y-124605143D01*
X88859143Y-124568857D01*
X88786571Y-124532572D01*
X88641429Y-124496286D01*
X88460000Y-124496286D01*
X88314857Y-124532572D01*
X88242286Y-124568857D01*
X88206000Y-124605143D01*
X88169714Y-124677714D01*
X88423714Y-125584857D02*
X88931714Y-125584857D01*
X88133429Y-125403428D02*
X88677714Y-125222000D01*
X88677714Y-125693714D01*
X83656714Y-128614714D02*
X83910714Y-128251857D01*
X84092142Y-128614714D02*
X84092142Y-127852714D01*
X83801857Y-127852714D01*
X83729285Y-127889000D01*
X83693000Y-127925286D01*
X83656714Y-127997857D01*
X83656714Y-128106714D01*
X83693000Y-128179286D01*
X83729285Y-128215571D01*
X83801857Y-128251857D01*
X84092142Y-128251857D01*
X83402714Y-127852714D02*
X82931000Y-127852714D01*
X83185000Y-128143000D01*
X83076142Y-128143000D01*
X83003571Y-128179286D01*
X82967285Y-128215571D01*
X82931000Y-128288143D01*
X82931000Y-128469571D01*
X82967285Y-128542143D01*
X83003571Y-128578429D01*
X83076142Y-128614714D01*
X83293857Y-128614714D01*
X83366428Y-128578429D01*
X83402714Y-128542143D01*
X82459286Y-127852714D02*
X82386714Y-127852714D01*
X82314143Y-127889000D01*
X82277857Y-127925286D01*
X82241571Y-127997857D01*
X82205286Y-128143000D01*
X82205286Y-128324429D01*
X82241571Y-128469571D01*
X82277857Y-128542143D01*
X82314143Y-128578429D01*
X82386714Y-128614714D01*
X82459286Y-128614714D01*
X82531857Y-128578429D01*
X82568143Y-128542143D01*
X82604428Y-128469571D01*
X82640714Y-128324429D01*
X82640714Y-128143000D01*
X82604428Y-127997857D01*
X82568143Y-127925286D01*
X82531857Y-127889000D01*
X82459286Y-127852714D01*
X81515857Y-127852714D02*
X81878714Y-127852714D01*
X81915000Y-128215571D01*
X81878714Y-128179286D01*
X81806143Y-128143000D01*
X81624714Y-128143000D01*
X81552143Y-128179286D01*
X81515857Y-128215571D01*
X81479572Y-128288143D01*
X81479572Y-128469571D01*
X81515857Y-128542143D01*
X81552143Y-128578429D01*
X81624714Y-128614714D01*
X81806143Y-128614714D01*
X81878714Y-128578429D01*
X81915000Y-128542143D01*
X94197714Y-122074214D02*
X94451714Y-121711357D01*
X94633142Y-122074214D02*
X94633142Y-121312214D01*
X94342857Y-121312214D01*
X94270285Y-121348500D01*
X94234000Y-121384786D01*
X94197714Y-121457357D01*
X94197714Y-121566214D01*
X94234000Y-121638786D01*
X94270285Y-121675071D01*
X94342857Y-121711357D01*
X94633142Y-121711357D01*
X93943714Y-121312214D02*
X93472000Y-121312214D01*
X93726000Y-121602500D01*
X93617142Y-121602500D01*
X93544571Y-121638786D01*
X93508285Y-121675071D01*
X93472000Y-121747643D01*
X93472000Y-121929071D01*
X93508285Y-122001643D01*
X93544571Y-122037929D01*
X93617142Y-122074214D01*
X93834857Y-122074214D01*
X93907428Y-122037929D01*
X93943714Y-122001643D01*
X93000286Y-121312214D02*
X92927714Y-121312214D01*
X92855143Y-121348500D01*
X92818857Y-121384786D01*
X92782571Y-121457357D01*
X92746286Y-121602500D01*
X92746286Y-121783929D01*
X92782571Y-121929071D01*
X92818857Y-122001643D01*
X92855143Y-122037929D01*
X92927714Y-122074214D01*
X93000286Y-122074214D01*
X93072857Y-122037929D01*
X93109143Y-122001643D01*
X93145428Y-121929071D01*
X93181714Y-121783929D01*
X93181714Y-121602500D01*
X93145428Y-121457357D01*
X93109143Y-121384786D01*
X93072857Y-121348500D01*
X93000286Y-121312214D01*
X92093143Y-121312214D02*
X92238286Y-121312214D01*
X92310857Y-121348500D01*
X92347143Y-121384786D01*
X92419714Y-121493643D01*
X92456000Y-121638786D01*
X92456000Y-121929071D01*
X92419714Y-122001643D01*
X92383429Y-122037929D01*
X92310857Y-122074214D01*
X92165714Y-122074214D01*
X92093143Y-122037929D01*
X92056857Y-122001643D01*
X92020572Y-121929071D01*
X92020572Y-121747643D01*
X92056857Y-121675071D01*
X92093143Y-121638786D01*
X92165714Y-121602500D01*
X92310857Y-121602500D01*
X92383429Y-121638786D01*
X92419714Y-121675071D01*
X92456000Y-121747643D01*
X94261214Y-127725714D02*
X94515214Y-127362857D01*
X94696642Y-127725714D02*
X94696642Y-126963714D01*
X94406357Y-126963714D01*
X94333785Y-127000000D01*
X94297500Y-127036286D01*
X94261214Y-127108857D01*
X94261214Y-127217714D01*
X94297500Y-127290286D01*
X94333785Y-127326571D01*
X94406357Y-127362857D01*
X94696642Y-127362857D01*
X94007214Y-126963714D02*
X93535500Y-126963714D01*
X93789500Y-127254000D01*
X93680642Y-127254000D01*
X93608071Y-127290286D01*
X93571785Y-127326571D01*
X93535500Y-127399143D01*
X93535500Y-127580571D01*
X93571785Y-127653143D01*
X93608071Y-127689429D01*
X93680642Y-127725714D01*
X93898357Y-127725714D01*
X93970928Y-127689429D01*
X94007214Y-127653143D01*
X93063786Y-126963714D02*
X92991214Y-126963714D01*
X92918643Y-127000000D01*
X92882357Y-127036286D01*
X92846071Y-127108857D01*
X92809786Y-127254000D01*
X92809786Y-127435429D01*
X92846071Y-127580571D01*
X92882357Y-127653143D01*
X92918643Y-127689429D01*
X92991214Y-127725714D01*
X93063786Y-127725714D01*
X93136357Y-127689429D01*
X93172643Y-127653143D01*
X93208928Y-127580571D01*
X93245214Y-127435429D01*
X93245214Y-127254000D01*
X93208928Y-127108857D01*
X93172643Y-127036286D01*
X93136357Y-127000000D01*
X93063786Y-126963714D01*
X92555786Y-126963714D02*
X92047786Y-126963714D01*
X92374357Y-127725714D01*
X94061643Y-93381286D02*
X94097929Y-93345000D01*
X94134214Y-93236143D01*
X94134214Y-93163572D01*
X94097929Y-93054715D01*
X94025357Y-92982143D01*
X93952786Y-92945858D01*
X93807643Y-92909572D01*
X93698786Y-92909572D01*
X93553643Y-92945858D01*
X93481071Y-92982143D01*
X93408500Y-93054715D01*
X93372214Y-93163572D01*
X93372214Y-93236143D01*
X93408500Y-93345000D01*
X93444786Y-93381286D01*
X94134214Y-94107000D02*
X94134214Y-93671572D01*
X94134214Y-93889286D02*
X93372214Y-93889286D01*
X93481071Y-93816715D01*
X93553643Y-93744143D01*
X93589929Y-93671572D01*
X93372214Y-94578714D02*
X93372214Y-94651286D01*
X93408500Y-94723857D01*
X93444786Y-94760143D01*
X93517357Y-94796429D01*
X93662500Y-94832714D01*
X93843929Y-94832714D01*
X93989071Y-94796429D01*
X94061643Y-94760143D01*
X94097929Y-94723857D01*
X94134214Y-94651286D01*
X94134214Y-94578714D01*
X94097929Y-94506143D01*
X94061643Y-94469857D01*
X93989071Y-94433572D01*
X93843929Y-94397286D01*
X93662500Y-94397286D01*
X93517357Y-94433572D01*
X93444786Y-94469857D01*
X93408500Y-94506143D01*
X93372214Y-94578714D01*
X93626214Y-95485857D02*
X94134214Y-95485857D01*
X93335929Y-95304428D02*
X93880214Y-95123000D01*
X93880214Y-95594714D01*
X104357714Y-81751714D02*
X104611714Y-81388857D01*
X104793142Y-81751714D02*
X104793142Y-80989714D01*
X104502857Y-80989714D01*
X104430285Y-81026000D01*
X104394000Y-81062286D01*
X104357714Y-81134857D01*
X104357714Y-81243714D01*
X104394000Y-81316286D01*
X104430285Y-81352571D01*
X104502857Y-81388857D01*
X104793142Y-81388857D01*
X104067428Y-81062286D02*
X104031142Y-81026000D01*
X103958571Y-80989714D01*
X103777142Y-80989714D01*
X103704571Y-81026000D01*
X103668285Y-81062286D01*
X103632000Y-81134857D01*
X103632000Y-81207429D01*
X103668285Y-81316286D01*
X104103714Y-81751714D01*
X103632000Y-81751714D01*
X103160286Y-80989714D02*
X103087714Y-80989714D01*
X103015143Y-81026000D01*
X102978857Y-81062286D01*
X102942571Y-81134857D01*
X102906286Y-81280000D01*
X102906286Y-81461429D01*
X102942571Y-81606571D01*
X102978857Y-81679143D01*
X103015143Y-81715429D01*
X103087714Y-81751714D01*
X103160286Y-81751714D01*
X103232857Y-81715429D01*
X103269143Y-81679143D01*
X103305428Y-81606571D01*
X103341714Y-81461429D01*
X103341714Y-81280000D01*
X103305428Y-81134857D01*
X103269143Y-81062286D01*
X103232857Y-81026000D01*
X103160286Y-80989714D01*
X102253143Y-80989714D02*
X102398286Y-80989714D01*
X102470857Y-81026000D01*
X102507143Y-81062286D01*
X102579714Y-81171143D01*
X102616000Y-81316286D01*
X102616000Y-81606571D01*
X102579714Y-81679143D01*
X102543429Y-81715429D01*
X102470857Y-81751714D01*
X102325714Y-81751714D01*
X102253143Y-81715429D01*
X102216857Y-81679143D01*
X102180572Y-81606571D01*
X102180572Y-81425143D01*
X102216857Y-81352571D01*
X102253143Y-81316286D01*
X102325714Y-81280000D01*
X102470857Y-81280000D01*
X102543429Y-81316286D01*
X102579714Y-81352571D01*
X102616000Y-81425143D01*
X107596214Y-85434714D02*
X107850214Y-85071857D01*
X108031642Y-85434714D02*
X108031642Y-84672714D01*
X107741357Y-84672714D01*
X107668785Y-84709000D01*
X107632500Y-84745286D01*
X107596214Y-84817857D01*
X107596214Y-84926714D01*
X107632500Y-84999286D01*
X107668785Y-85035571D01*
X107741357Y-85071857D01*
X108031642Y-85071857D01*
X107305928Y-84745286D02*
X107269642Y-84709000D01*
X107197071Y-84672714D01*
X107015642Y-84672714D01*
X106943071Y-84709000D01*
X106906785Y-84745286D01*
X106870500Y-84817857D01*
X106870500Y-84890429D01*
X106906785Y-84999286D01*
X107342214Y-85434714D01*
X106870500Y-85434714D01*
X106398786Y-84672714D02*
X106326214Y-84672714D01*
X106253643Y-84709000D01*
X106217357Y-84745286D01*
X106181071Y-84817857D01*
X106144786Y-84963000D01*
X106144786Y-85144429D01*
X106181071Y-85289571D01*
X106217357Y-85362143D01*
X106253643Y-85398429D01*
X106326214Y-85434714D01*
X106398786Y-85434714D01*
X106471357Y-85398429D01*
X106507643Y-85362143D01*
X106543928Y-85289571D01*
X106580214Y-85144429D01*
X106580214Y-84963000D01*
X106543928Y-84817857D01*
X106507643Y-84745286D01*
X106471357Y-84709000D01*
X106398786Y-84672714D01*
X105890786Y-84672714D02*
X105382786Y-84672714D01*
X105709357Y-85434714D01*
X107596214Y-87593714D02*
X107850214Y-87230857D01*
X108031642Y-87593714D02*
X108031642Y-86831714D01*
X107741357Y-86831714D01*
X107668785Y-86868000D01*
X107632500Y-86904286D01*
X107596214Y-86976857D01*
X107596214Y-87085714D01*
X107632500Y-87158286D01*
X107668785Y-87194571D01*
X107741357Y-87230857D01*
X108031642Y-87230857D01*
X107305928Y-86904286D02*
X107269642Y-86868000D01*
X107197071Y-86831714D01*
X107015642Y-86831714D01*
X106943071Y-86868000D01*
X106906785Y-86904286D01*
X106870500Y-86976857D01*
X106870500Y-87049429D01*
X106906785Y-87158286D01*
X107342214Y-87593714D01*
X106870500Y-87593714D01*
X106398786Y-86831714D02*
X106326214Y-86831714D01*
X106253643Y-86868000D01*
X106217357Y-86904286D01*
X106181071Y-86976857D01*
X106144786Y-87122000D01*
X106144786Y-87303429D01*
X106181071Y-87448571D01*
X106217357Y-87521143D01*
X106253643Y-87557429D01*
X106326214Y-87593714D01*
X106398786Y-87593714D01*
X106471357Y-87557429D01*
X106507643Y-87521143D01*
X106543928Y-87448571D01*
X106580214Y-87303429D01*
X106580214Y-87122000D01*
X106543928Y-86976857D01*
X106507643Y-86904286D01*
X106471357Y-86868000D01*
X106398786Y-86831714D01*
X105709357Y-87158286D02*
X105781929Y-87122000D01*
X105818214Y-87085714D01*
X105854500Y-87013143D01*
X105854500Y-86976857D01*
X105818214Y-86904286D01*
X105781929Y-86868000D01*
X105709357Y-86831714D01*
X105564214Y-86831714D01*
X105491643Y-86868000D01*
X105455357Y-86904286D01*
X105419072Y-86976857D01*
X105419072Y-87013143D01*
X105455357Y-87085714D01*
X105491643Y-87122000D01*
X105564214Y-87158286D01*
X105709357Y-87158286D01*
X105781929Y-87194571D01*
X105818214Y-87230857D01*
X105854500Y-87303429D01*
X105854500Y-87448571D01*
X105818214Y-87521143D01*
X105781929Y-87557429D01*
X105709357Y-87593714D01*
X105564214Y-87593714D01*
X105491643Y-87557429D01*
X105455357Y-87521143D01*
X105419072Y-87448571D01*
X105419072Y-87303429D01*
X105455357Y-87230857D01*
X105491643Y-87194571D01*
X105564214Y-87158286D01*
X104230714Y-91403714D02*
X104484714Y-91040857D01*
X104666142Y-91403714D02*
X104666142Y-90641714D01*
X104375857Y-90641714D01*
X104303285Y-90678000D01*
X104267000Y-90714286D01*
X104230714Y-90786857D01*
X104230714Y-90895714D01*
X104267000Y-90968286D01*
X104303285Y-91004571D01*
X104375857Y-91040857D01*
X104666142Y-91040857D01*
X103940428Y-90714286D02*
X103904142Y-90678000D01*
X103831571Y-90641714D01*
X103650142Y-90641714D01*
X103577571Y-90678000D01*
X103541285Y-90714286D01*
X103505000Y-90786857D01*
X103505000Y-90859429D01*
X103541285Y-90968286D01*
X103976714Y-91403714D01*
X103505000Y-91403714D01*
X103033286Y-90641714D02*
X102960714Y-90641714D01*
X102888143Y-90678000D01*
X102851857Y-90714286D01*
X102815571Y-90786857D01*
X102779286Y-90932000D01*
X102779286Y-91113429D01*
X102815571Y-91258571D01*
X102851857Y-91331143D01*
X102888143Y-91367429D01*
X102960714Y-91403714D01*
X103033286Y-91403714D01*
X103105857Y-91367429D01*
X103142143Y-91331143D01*
X103178428Y-91258571D01*
X103214714Y-91113429D01*
X103214714Y-90932000D01*
X103178428Y-90786857D01*
X103142143Y-90714286D01*
X103105857Y-90678000D01*
X103033286Y-90641714D01*
X102416429Y-91403714D02*
X102271286Y-91403714D01*
X102198714Y-91367429D01*
X102162429Y-91331143D01*
X102089857Y-91222286D01*
X102053572Y-91077143D01*
X102053572Y-90786857D01*
X102089857Y-90714286D01*
X102126143Y-90678000D01*
X102198714Y-90641714D01*
X102343857Y-90641714D01*
X102416429Y-90678000D01*
X102452714Y-90714286D01*
X102489000Y-90786857D01*
X102489000Y-90968286D01*
X102452714Y-91040857D01*
X102416429Y-91077143D01*
X102343857Y-91113429D01*
X102198714Y-91113429D01*
X102126143Y-91077143D01*
X102089857Y-91040857D01*
X102053572Y-90968286D01*
X98960214Y-97427143D02*
X98996500Y-97463429D01*
X99105357Y-97499714D01*
X99177928Y-97499714D01*
X99286785Y-97463429D01*
X99359357Y-97390857D01*
X99395642Y-97318286D01*
X99431928Y-97173143D01*
X99431928Y-97064286D01*
X99395642Y-96919143D01*
X99359357Y-96846571D01*
X99286785Y-96774000D01*
X99177928Y-96737714D01*
X99105357Y-96737714D01*
X98996500Y-96774000D01*
X98960214Y-96810286D01*
X98234500Y-97499714D02*
X98669928Y-97499714D01*
X98452214Y-97499714D02*
X98452214Y-96737714D01*
X98524785Y-96846571D01*
X98597357Y-96919143D01*
X98669928Y-96955429D01*
X97762786Y-96737714D02*
X97690214Y-96737714D01*
X97617643Y-96774000D01*
X97581357Y-96810286D01*
X97545071Y-96882857D01*
X97508786Y-97028000D01*
X97508786Y-97209429D01*
X97545071Y-97354571D01*
X97581357Y-97427143D01*
X97617643Y-97463429D01*
X97690214Y-97499714D01*
X97762786Y-97499714D01*
X97835357Y-97463429D01*
X97871643Y-97427143D01*
X97907928Y-97354571D01*
X97944214Y-97209429D01*
X97944214Y-97028000D01*
X97907928Y-96882857D01*
X97871643Y-96810286D01*
X97835357Y-96774000D01*
X97762786Y-96737714D01*
X96819357Y-96737714D02*
X97182214Y-96737714D01*
X97218500Y-97100571D01*
X97182214Y-97064286D01*
X97109643Y-97028000D01*
X96928214Y-97028000D01*
X96855643Y-97064286D01*
X96819357Y-97100571D01*
X96783072Y-97173143D01*
X96783072Y-97354571D01*
X96819357Y-97427143D01*
X96855643Y-97463429D01*
X96928214Y-97499714D01*
X97109643Y-97499714D01*
X97182214Y-97463429D01*
X97218500Y-97427143D01*
X102380143Y-93190786D02*
X102416429Y-93154500D01*
X102452714Y-93045643D01*
X102452714Y-92973072D01*
X102416429Y-92864215D01*
X102343857Y-92791643D01*
X102271286Y-92755358D01*
X102126143Y-92719072D01*
X102017286Y-92719072D01*
X101872143Y-92755358D01*
X101799571Y-92791643D01*
X101727000Y-92864215D01*
X101690714Y-92973072D01*
X101690714Y-93045643D01*
X101727000Y-93154500D01*
X101763286Y-93190786D01*
X102452714Y-93916500D02*
X102452714Y-93481072D01*
X102452714Y-93698786D02*
X101690714Y-93698786D01*
X101799571Y-93626215D01*
X101872143Y-93553643D01*
X101908429Y-93481072D01*
X101690714Y-94388214D02*
X101690714Y-94460786D01*
X101727000Y-94533357D01*
X101763286Y-94569643D01*
X101835857Y-94605929D01*
X101981000Y-94642214D01*
X102162429Y-94642214D01*
X102307571Y-94605929D01*
X102380143Y-94569643D01*
X102416429Y-94533357D01*
X102452714Y-94460786D01*
X102452714Y-94388214D01*
X102416429Y-94315643D01*
X102380143Y-94279357D01*
X102307571Y-94243072D01*
X102162429Y-94206786D01*
X101981000Y-94206786D01*
X101835857Y-94243072D01*
X101763286Y-94279357D01*
X101727000Y-94315643D01*
X101690714Y-94388214D01*
X101690714Y-95295357D02*
X101690714Y-95150214D01*
X101727000Y-95077643D01*
X101763286Y-95041357D01*
X101872143Y-94968786D01*
X102017286Y-94932500D01*
X102307571Y-94932500D01*
X102380143Y-94968786D01*
X102416429Y-95005071D01*
X102452714Y-95077643D01*
X102452714Y-95222786D01*
X102416429Y-95295357D01*
X102380143Y-95331643D01*
X102307571Y-95367928D01*
X102126143Y-95367928D01*
X102053571Y-95331643D01*
X102017286Y-95295357D01*
X101981000Y-95222786D01*
X101981000Y-95077643D01*
X102017286Y-95005071D01*
X102053571Y-94968786D01*
X102126143Y-94932500D01*
M02*
