G04 #@! TF.FileFunction,Copper,L2,Inr,Signal*
%FSLAX46Y46*%
G04 Gerber Fmt 4.6, Leading zero omitted, Abs format (unit mm)*
G04 Created by KiCad (PCBNEW 4.0.1-2.201512121406+6195~38~ubuntu14.04.1-stable) date Sun 27 Dec 2015 07:04:44 PM CET*
%MOMM*%
G01*
G04 APERTURE LIST*
%ADD10C,0.100000*%
%ADD11R,2.032000X1.727200*%
%ADD12O,2.032000X1.727200*%
%ADD13R,2.032000X2.032000*%
%ADD14O,2.032000X2.032000*%
%ADD15R,1.727200X2.032000*%
%ADD16O,1.727200X2.032000*%
%ADD17C,1.500000*%
%ADD18C,1.600000*%
%ADD19O,1.600000X1.600000*%
%ADD20C,1.501140*%
%ADD21C,2.032000*%
%ADD22C,0.685800*%
%ADD23C,0.254000*%
G04 APERTURE END LIST*
D10*
D11*
X112014000Y-129921000D03*
D12*
X112014000Y-127381000D03*
X112014000Y-124841000D03*
X112014000Y-122301000D03*
X112014000Y-119761000D03*
X112014000Y-117221000D03*
X112014000Y-114681000D03*
X112014000Y-112141000D03*
X112014000Y-109601000D03*
X112014000Y-107061000D03*
D11*
X78740000Y-94615000D03*
D12*
X78740000Y-97155000D03*
X78740000Y-99695000D03*
X78740000Y-102235000D03*
X78740000Y-104775000D03*
X78740000Y-107315000D03*
X78740000Y-109855000D03*
X78740000Y-112395000D03*
X78740000Y-114935000D03*
X78740000Y-117475000D03*
D11*
X107746800Y-104165400D03*
D12*
X107746800Y-101625400D03*
X107746800Y-99085400D03*
X107746800Y-96545400D03*
D13*
X112014000Y-100711000D03*
D14*
X112014000Y-103251000D03*
D11*
X78740000Y-128905000D03*
D12*
X78740000Y-126365000D03*
X78740000Y-123825000D03*
X78740000Y-121285000D03*
D13*
X112014000Y-97028000D03*
D14*
X112014000Y-94488000D03*
D15*
X84328000Y-78740000D03*
D16*
X86868000Y-78740000D03*
X89408000Y-78740000D03*
X91948000Y-78740000D03*
X94488000Y-78740000D03*
X97028000Y-78740000D03*
D17*
X111379000Y-90501000D03*
X111379000Y-88501000D03*
X111379000Y-86501000D03*
X111379000Y-84501000D03*
X79883000Y-84505000D03*
X79883000Y-86505000D03*
X79883000Y-88505000D03*
X79883000Y-90505000D03*
D15*
X100965000Y-78740000D03*
D16*
X103505000Y-78740000D03*
X106045000Y-78740000D03*
D18*
X84330000Y-138176000D03*
D19*
X90930000Y-138176000D03*
D13*
X97282000Y-137287000D03*
D14*
X99822000Y-137287000D03*
D20*
X89610005Y-94082795D03*
X86157995Y-97534805D03*
D10*
G36*
X87009441Y-106349800D02*
X85572600Y-107786641D01*
X84135759Y-106349800D01*
X85572600Y-104912959D01*
X87009441Y-106349800D01*
X87009441Y-106349800D01*
G37*
D21*
X87368651Y-104553749D02*
X87368651Y-104553749D01*
D22*
X89281000Y-98221800D03*
X86741000Y-84709000D03*
X87198200Y-90601800D03*
X105003600Y-134264400D03*
X84455000Y-125171200D03*
X97028000Y-106222800D03*
X87884000Y-101286492D03*
X95275400Y-101676200D03*
X100177600Y-94005400D03*
X92979107Y-94672303D03*
X97282000Y-120142000D03*
X103124000Y-136906000D03*
X94488000Y-119761000D03*
X100330000Y-113588800D03*
X87884000Y-95173800D03*
X100330000Y-97205800D03*
X89154000Y-121793000D03*
X84201000Y-128143000D03*
X88773000Y-134112000D03*
X82804000Y-135636000D03*
X92837000Y-135636000D03*
X93929200Y-98018600D03*
X96418400Y-101879400D03*
X94361000Y-117094000D03*
X86360000Y-133858000D03*
X89687400Y-128803400D03*
X103251000Y-126111000D03*
X106426000Y-128778000D03*
X93472000Y-83439000D03*
X84328000Y-84709000D03*
X87731600Y-88595200D03*
X97663000Y-97002600D03*
X95859600Y-111252000D03*
X97866200Y-99085400D03*
X97891600Y-106705400D03*
X105791000Y-136906000D03*
X107823000Y-133604000D03*
X97409000Y-94157800D03*
X96037400Y-123317000D03*
X96062800Y-125450600D03*
X101701600Y-107391200D03*
X102539800Y-106984800D03*
X102540060Y-97284977D03*
X96291400Y-100431600D03*
X94386400Y-102616000D03*
X91105819Y-102429532D03*
X96113600Y-104267000D03*
X93700600Y-107518200D03*
X93853000Y-89408000D03*
X93853000Y-88392000D03*
X100050600Y-104241600D03*
X100025200Y-103378000D03*
X98120200Y-101523800D03*
X91567000Y-127127000D03*
X92005848Y-102429532D03*
X87376000Y-121412000D03*
X91866663Y-103256107D03*
X83439000Y-123952000D03*
X86487000Y-121412000D03*
X82804000Y-128143000D03*
X84251800Y-123444000D03*
X100711000Y-127000000D03*
X91313000Y-125984000D03*
X95250000Y-127254000D03*
X103987600Y-102946200D03*
D23*
G36*
X113590000Y-93948341D02*
X113571670Y-93856190D01*
X113213778Y-93320567D01*
X112678155Y-92962675D01*
X112046345Y-92837000D01*
X111981655Y-92837000D01*
X111349845Y-92962675D01*
X110814222Y-93320567D01*
X110456330Y-93856190D01*
X110330655Y-94488000D01*
X110456330Y-95119810D01*
X110683499Y-95459792D01*
X110546559Y-95547910D01*
X110401569Y-95760110D01*
X110350560Y-96012000D01*
X110350560Y-98044000D01*
X110394838Y-98279317D01*
X110533910Y-98495441D01*
X110746110Y-98640431D01*
X110998000Y-98691440D01*
X113030000Y-98691440D01*
X113265317Y-98647162D01*
X113481441Y-98508090D01*
X113590000Y-98349209D01*
X113590000Y-99392607D01*
X113494090Y-99243559D01*
X113281890Y-99098569D01*
X113030000Y-99047560D01*
X110998000Y-99047560D01*
X110762683Y-99091838D01*
X110546559Y-99230910D01*
X110401569Y-99443110D01*
X110350560Y-99695000D01*
X110350560Y-101727000D01*
X110394838Y-101962317D01*
X110533910Y-102178441D01*
X110682837Y-102280198D01*
X110456330Y-102619190D01*
X110330655Y-103251000D01*
X110456330Y-103882810D01*
X110814222Y-104418433D01*
X111349845Y-104776325D01*
X111981655Y-104902000D01*
X112046345Y-104902000D01*
X112678155Y-104776325D01*
X113213778Y-104418433D01*
X113571670Y-103882810D01*
X113590000Y-103790659D01*
X113590000Y-106521340D01*
X113583271Y-106487511D01*
X113258415Y-106001330D01*
X112772234Y-105676474D01*
X112198745Y-105562400D01*
X111829255Y-105562400D01*
X111255766Y-105676474D01*
X110769585Y-106001330D01*
X110444729Y-106487511D01*
X110330655Y-107061000D01*
X110444729Y-107634489D01*
X110769585Y-108120670D01*
X111084366Y-108331000D01*
X110769585Y-108541330D01*
X110444729Y-109027511D01*
X110330655Y-109601000D01*
X110444729Y-110174489D01*
X110769585Y-110660670D01*
X111084366Y-110871000D01*
X110769585Y-111081330D01*
X110444729Y-111567511D01*
X110330655Y-112141000D01*
X110444729Y-112714489D01*
X110769585Y-113200670D01*
X111084366Y-113411000D01*
X110769585Y-113621330D01*
X110444729Y-114107511D01*
X110330655Y-114681000D01*
X110444729Y-115254489D01*
X110769585Y-115740670D01*
X111084366Y-115951000D01*
X110769585Y-116161330D01*
X110444729Y-116647511D01*
X110330655Y-117221000D01*
X110444729Y-117794489D01*
X110769585Y-118280670D01*
X111084366Y-118491000D01*
X110769585Y-118701330D01*
X110444729Y-119187511D01*
X110330655Y-119761000D01*
X110444729Y-120334489D01*
X110769585Y-120820670D01*
X111084366Y-121031000D01*
X110769585Y-121241330D01*
X110444729Y-121727511D01*
X110330655Y-122301000D01*
X110444729Y-122874489D01*
X110769585Y-123360670D01*
X111084366Y-123571000D01*
X110769585Y-123781330D01*
X110444729Y-124267511D01*
X110330655Y-124841000D01*
X110444729Y-125414489D01*
X110769585Y-125900670D01*
X111084366Y-126111000D01*
X110769585Y-126321330D01*
X110444729Y-126807511D01*
X110330655Y-127381000D01*
X110444729Y-127954489D01*
X110769585Y-128440670D01*
X110783913Y-128450243D01*
X110762683Y-128454238D01*
X110546559Y-128593310D01*
X110401569Y-128805510D01*
X110350560Y-129057400D01*
X110350560Y-130784600D01*
X110394838Y-131019917D01*
X110533910Y-131236041D01*
X110746110Y-131381031D01*
X110998000Y-131432040D01*
X113030000Y-131432040D01*
X113265317Y-131387762D01*
X113481441Y-131248690D01*
X113590000Y-131089809D01*
X113590000Y-138990000D01*
X92106913Y-138990000D01*
X92283880Y-138725151D01*
X92393113Y-138176000D01*
X92283880Y-137626849D01*
X91972811Y-137161302D01*
X91507264Y-136850233D01*
X90958113Y-136741000D01*
X90901887Y-136741000D01*
X90352736Y-136850233D01*
X89887189Y-137161302D01*
X89576120Y-137626849D01*
X89466887Y-138176000D01*
X89576120Y-138725151D01*
X89753087Y-138990000D01*
X85545747Y-138990000D01*
X85545824Y-138989923D01*
X85764750Y-138462691D01*
X85765248Y-137891813D01*
X85547243Y-137364200D01*
X85143923Y-136960176D01*
X84616691Y-136741250D01*
X84045813Y-136740752D01*
X83518200Y-136958757D01*
X83114176Y-137362077D01*
X82895250Y-137889309D01*
X82894752Y-138460187D01*
X83112757Y-138987800D01*
X83114953Y-138990000D01*
X76910000Y-138990000D01*
X76910000Y-136820815D01*
X77366630Y-136820815D01*
X77690980Y-137605800D01*
X78291041Y-138206909D01*
X79075459Y-138532628D01*
X79924815Y-138533370D01*
X80709800Y-138209020D01*
X81310909Y-137608959D01*
X81636628Y-136824541D01*
X81637111Y-136271000D01*
X95618560Y-136271000D01*
X95618560Y-138303000D01*
X95662838Y-138538317D01*
X95801910Y-138754441D01*
X96014110Y-138899431D01*
X96266000Y-138950440D01*
X98298000Y-138950440D01*
X98533317Y-138906162D01*
X98749441Y-138767090D01*
X98860840Y-138604052D01*
X98957182Y-138693385D01*
X99439056Y-138892975D01*
X99695000Y-138773836D01*
X99695000Y-137414000D01*
X99949000Y-137414000D01*
X99949000Y-138773836D01*
X100204944Y-138892975D01*
X100686818Y-138693385D01*
X101159188Y-138255379D01*
X101427983Y-137669946D01*
X101309367Y-137414000D01*
X99949000Y-137414000D01*
X99695000Y-137414000D01*
X99675000Y-137414000D01*
X99675000Y-137160000D01*
X99695000Y-137160000D01*
X99695000Y-135800164D01*
X99949000Y-135800164D01*
X99949000Y-137160000D01*
X101309367Y-137160000D01*
X101337329Y-137099663D01*
X104812931Y-137099663D01*
X104961493Y-137459212D01*
X105236341Y-137734540D01*
X105595630Y-137883730D01*
X105984663Y-137884069D01*
X106344212Y-137735507D01*
X106619540Y-137460659D01*
X106768730Y-137101370D01*
X106768974Y-136820815D01*
X108862630Y-136820815D01*
X109186980Y-137605800D01*
X109787041Y-138206909D01*
X110571459Y-138532628D01*
X111420815Y-138533370D01*
X112205800Y-138209020D01*
X112806909Y-137608959D01*
X113132628Y-136824541D01*
X113133370Y-135975185D01*
X112809020Y-135190200D01*
X112208959Y-134589091D01*
X111424541Y-134263372D01*
X110575185Y-134262630D01*
X109790200Y-134586980D01*
X109189091Y-135187041D01*
X108863372Y-135971459D01*
X108862630Y-136820815D01*
X106768974Y-136820815D01*
X106769069Y-136712337D01*
X106620507Y-136352788D01*
X106345659Y-136077460D01*
X105986370Y-135928270D01*
X105597337Y-135927931D01*
X105237788Y-136076493D01*
X104962460Y-136351341D01*
X104813270Y-136710630D01*
X104812931Y-137099663D01*
X101337329Y-137099663D01*
X101427983Y-136904054D01*
X101159188Y-136318621D01*
X100686818Y-135880615D01*
X100204944Y-135681025D01*
X99949000Y-135800164D01*
X99695000Y-135800164D01*
X99439056Y-135681025D01*
X98957182Y-135880615D01*
X98859602Y-135971097D01*
X98762090Y-135819559D01*
X98549890Y-135674569D01*
X98298000Y-135623560D01*
X96266000Y-135623560D01*
X96030683Y-135667838D01*
X95814559Y-135806910D01*
X95669569Y-136019110D01*
X95618560Y-136271000D01*
X81637111Y-136271000D01*
X81637370Y-135975185D01*
X81313020Y-135190200D01*
X80712959Y-134589091D01*
X79928541Y-134263372D01*
X79079185Y-134262630D01*
X78294200Y-134586980D01*
X77693091Y-135187041D01*
X77367372Y-135971459D01*
X77366630Y-136820815D01*
X76910000Y-136820815D01*
X76910000Y-134051663D01*
X85381931Y-134051663D01*
X85530493Y-134411212D01*
X85805341Y-134686540D01*
X86164630Y-134835730D01*
X86553663Y-134836069D01*
X86913212Y-134687507D01*
X87188540Y-134412659D01*
X87337730Y-134053370D01*
X87337952Y-133797663D01*
X106844931Y-133797663D01*
X106993493Y-134157212D01*
X107268341Y-134432540D01*
X107627630Y-134581730D01*
X108016663Y-134582069D01*
X108376212Y-134433507D01*
X108651540Y-134158659D01*
X108800730Y-133799370D01*
X108801069Y-133410337D01*
X108652507Y-133050788D01*
X108377659Y-132775460D01*
X108018370Y-132626270D01*
X107629337Y-132625931D01*
X107269788Y-132774493D01*
X106994460Y-133049341D01*
X106845270Y-133408630D01*
X106844931Y-133797663D01*
X87337952Y-133797663D01*
X87338069Y-133664337D01*
X87189507Y-133304788D01*
X86914659Y-133029460D01*
X86555370Y-132880270D01*
X86166337Y-132879931D01*
X85806788Y-133028493D01*
X85531460Y-133303341D01*
X85382270Y-133662630D01*
X85381931Y-134051663D01*
X76910000Y-134051663D01*
X76910000Y-123825000D01*
X77056655Y-123825000D01*
X77170729Y-124398489D01*
X77495585Y-124884670D01*
X77810366Y-125095000D01*
X77495585Y-125305330D01*
X77170729Y-125791511D01*
X77056655Y-126365000D01*
X77170729Y-126938489D01*
X77495585Y-127424670D01*
X77509913Y-127434243D01*
X77488683Y-127438238D01*
X77272559Y-127577310D01*
X77127569Y-127789510D01*
X77076560Y-128041400D01*
X77076560Y-129768600D01*
X77120838Y-130003917D01*
X77259910Y-130220041D01*
X77472110Y-130365031D01*
X77724000Y-130416040D01*
X79756000Y-130416040D01*
X79991317Y-130371762D01*
X80207441Y-130232690D01*
X80352431Y-130020490D01*
X80403440Y-129768600D01*
X80403440Y-128336663D01*
X81825931Y-128336663D01*
X81974493Y-128696212D01*
X82249341Y-128971540D01*
X82608630Y-129120730D01*
X82997663Y-129121069D01*
X83297781Y-128997063D01*
X88709331Y-128997063D01*
X88857893Y-129356612D01*
X89132741Y-129631940D01*
X89492030Y-129781130D01*
X89881063Y-129781469D01*
X90240612Y-129632907D01*
X90515940Y-129358059D01*
X90665130Y-128998770D01*
X90665153Y-128971663D01*
X105447931Y-128971663D01*
X105596493Y-129331212D01*
X105871341Y-129606540D01*
X106230630Y-129755730D01*
X106619663Y-129756069D01*
X106979212Y-129607507D01*
X107254540Y-129332659D01*
X107403730Y-128973370D01*
X107404069Y-128584337D01*
X107255507Y-128224788D01*
X106980659Y-127949460D01*
X106621370Y-127800270D01*
X106232337Y-127799931D01*
X105872788Y-127948493D01*
X105597460Y-128223341D01*
X105448270Y-128582630D01*
X105447931Y-128971663D01*
X90665153Y-128971663D01*
X90665469Y-128609737D01*
X90516907Y-128250188D01*
X90242059Y-127974860D01*
X89882770Y-127825670D01*
X89493737Y-127825331D01*
X89134188Y-127973893D01*
X88858860Y-128248741D01*
X88709670Y-128608030D01*
X88709331Y-128997063D01*
X83297781Y-128997063D01*
X83357212Y-128972507D01*
X83632540Y-128697659D01*
X83781730Y-128338370D01*
X83782069Y-127949337D01*
X83633507Y-127589788D01*
X83358659Y-127314460D01*
X82999370Y-127165270D01*
X82610337Y-127164931D01*
X82250788Y-127313493D01*
X81975460Y-127588341D01*
X81826270Y-127947630D01*
X81825931Y-128336663D01*
X80403440Y-128336663D01*
X80403440Y-128041400D01*
X80359162Y-127806083D01*
X80220090Y-127589959D01*
X80007890Y-127444969D01*
X79966561Y-127436600D01*
X79984415Y-127424670D01*
X80309271Y-126938489D01*
X80423345Y-126365000D01*
X80386082Y-126177663D01*
X90334931Y-126177663D01*
X90483493Y-126537212D01*
X90673861Y-126727912D01*
X90589270Y-126931630D01*
X90588931Y-127320663D01*
X90737493Y-127680212D01*
X91012341Y-127955540D01*
X91371630Y-128104730D01*
X91760663Y-128105069D01*
X92120212Y-127956507D01*
X92395540Y-127681659D01*
X92492703Y-127447663D01*
X94271931Y-127447663D01*
X94420493Y-127807212D01*
X94695341Y-128082540D01*
X95054630Y-128231730D01*
X95443663Y-128232069D01*
X95803212Y-128083507D01*
X96078540Y-127808659D01*
X96227730Y-127449370D01*
X96227952Y-127193663D01*
X99732931Y-127193663D01*
X99881493Y-127553212D01*
X100156341Y-127828540D01*
X100515630Y-127977730D01*
X100904663Y-127978069D01*
X101264212Y-127829507D01*
X101539540Y-127554659D01*
X101688730Y-127195370D01*
X101689069Y-126806337D01*
X101540507Y-126446788D01*
X101398630Y-126304663D01*
X102272931Y-126304663D01*
X102421493Y-126664212D01*
X102696341Y-126939540D01*
X103055630Y-127088730D01*
X103444663Y-127089069D01*
X103804212Y-126940507D01*
X104079540Y-126665659D01*
X104228730Y-126306370D01*
X104229069Y-125917337D01*
X104080507Y-125557788D01*
X103805659Y-125282460D01*
X103446370Y-125133270D01*
X103057337Y-125132931D01*
X102697788Y-125281493D01*
X102422460Y-125556341D01*
X102273270Y-125915630D01*
X102272931Y-126304663D01*
X101398630Y-126304663D01*
X101265659Y-126171460D01*
X100906370Y-126022270D01*
X100517337Y-126021931D01*
X100157788Y-126170493D01*
X99882460Y-126445341D01*
X99733270Y-126804630D01*
X99732931Y-127193663D01*
X96227952Y-127193663D01*
X96228069Y-127060337D01*
X96079507Y-126700788D01*
X95804659Y-126425460D01*
X95445370Y-126276270D01*
X95056337Y-126275931D01*
X94696788Y-126424493D01*
X94421460Y-126699341D01*
X94272270Y-127058630D01*
X94271931Y-127447663D01*
X92492703Y-127447663D01*
X92544730Y-127322370D01*
X92545069Y-126933337D01*
X92396507Y-126573788D01*
X92206139Y-126383088D01*
X92290730Y-126179370D01*
X92291069Y-125790337D01*
X92230713Y-125644263D01*
X95084731Y-125644263D01*
X95233293Y-126003812D01*
X95508141Y-126279140D01*
X95867430Y-126428330D01*
X96256463Y-126428669D01*
X96616012Y-126280107D01*
X96891340Y-126005259D01*
X97040530Y-125645970D01*
X97040869Y-125256937D01*
X96892307Y-124897388D01*
X96617459Y-124622060D01*
X96258170Y-124472870D01*
X95869137Y-124472531D01*
X95509588Y-124621093D01*
X95234260Y-124895941D01*
X95085070Y-125255230D01*
X95084731Y-125644263D01*
X92230713Y-125644263D01*
X92142507Y-125430788D01*
X91867659Y-125155460D01*
X91508370Y-125006270D01*
X91119337Y-125005931D01*
X90759788Y-125154493D01*
X90484460Y-125429341D01*
X90335270Y-125788630D01*
X90334931Y-126177663D01*
X80386082Y-126177663D01*
X80309271Y-125791511D01*
X79984415Y-125305330D01*
X79669634Y-125095000D01*
X79984415Y-124884670D01*
X80309271Y-124398489D01*
X80359561Y-124145663D01*
X82460931Y-124145663D01*
X82609493Y-124505212D01*
X82884341Y-124780540D01*
X83243630Y-124929730D01*
X83632663Y-124930069D01*
X83992212Y-124781507D01*
X84267540Y-124506659D01*
X84302717Y-124421945D01*
X84445463Y-124422069D01*
X84805012Y-124273507D01*
X85080340Y-123998659D01*
X85229530Y-123639370D01*
X85229642Y-123510663D01*
X95059331Y-123510663D01*
X95207893Y-123870212D01*
X95482741Y-124145540D01*
X95842030Y-124294730D01*
X96231063Y-124295069D01*
X96590612Y-124146507D01*
X96865940Y-123871659D01*
X97015130Y-123512370D01*
X97015469Y-123123337D01*
X96866907Y-122763788D01*
X96592059Y-122488460D01*
X96232770Y-122339270D01*
X95843737Y-122338931D01*
X95484188Y-122487493D01*
X95208860Y-122762341D01*
X95059670Y-123121630D01*
X95059331Y-123510663D01*
X85229642Y-123510663D01*
X85229869Y-123250337D01*
X85081307Y-122890788D01*
X84806459Y-122615460D01*
X84447170Y-122466270D01*
X84058137Y-122465931D01*
X83698588Y-122614493D01*
X83423260Y-122889341D01*
X83388083Y-122974055D01*
X83245337Y-122973931D01*
X82885788Y-123122493D01*
X82610460Y-123397341D01*
X82461270Y-123756630D01*
X82460931Y-124145663D01*
X80359561Y-124145663D01*
X80423345Y-123825000D01*
X80309271Y-123251511D01*
X79984415Y-122765330D01*
X79674931Y-122558539D01*
X80090732Y-122187036D01*
X80344709Y-121659791D01*
X80347358Y-121644026D01*
X80327329Y-121605663D01*
X85508931Y-121605663D01*
X85657493Y-121965212D01*
X85932341Y-122240540D01*
X86291630Y-122389730D01*
X86680663Y-122390069D01*
X86931673Y-122286354D01*
X87180630Y-122389730D01*
X87569663Y-122390069D01*
X87929212Y-122241507D01*
X88204540Y-121966659D01*
X88353730Y-121607370D01*
X88354069Y-121218337D01*
X88205507Y-120858788D01*
X87930659Y-120583460D01*
X87571370Y-120434270D01*
X87182337Y-120433931D01*
X86931327Y-120537646D01*
X86682370Y-120434270D01*
X86293337Y-120433931D01*
X85933788Y-120582493D01*
X85658460Y-120857341D01*
X85509270Y-121216630D01*
X85508931Y-121605663D01*
X80327329Y-121605663D01*
X80226217Y-121412000D01*
X78867000Y-121412000D01*
X78867000Y-121432000D01*
X78613000Y-121432000D01*
X78613000Y-121412000D01*
X77253783Y-121412000D01*
X77132642Y-121644026D01*
X77135291Y-121659791D01*
X77389268Y-122187036D01*
X77805069Y-122558539D01*
X77495585Y-122765330D01*
X77170729Y-123251511D01*
X77056655Y-123825000D01*
X76910000Y-123825000D01*
X76910000Y-120925974D01*
X77132642Y-120925974D01*
X77253783Y-121158000D01*
X78613000Y-121158000D01*
X78613000Y-119944076D01*
X78867000Y-119944076D01*
X78867000Y-121158000D01*
X80226217Y-121158000D01*
X80347358Y-120925974D01*
X80344709Y-120910209D01*
X80090732Y-120382964D01*
X79654320Y-119993046D01*
X79101913Y-119799816D01*
X78867000Y-119944076D01*
X78613000Y-119944076D01*
X78378087Y-119799816D01*
X77825680Y-119993046D01*
X77389268Y-120382964D01*
X77135291Y-120910209D01*
X77132642Y-120925974D01*
X76910000Y-120925974D01*
X76910000Y-97155000D01*
X77056655Y-97155000D01*
X77170729Y-97728489D01*
X77495585Y-98214670D01*
X77810366Y-98425000D01*
X77495585Y-98635330D01*
X77170729Y-99121511D01*
X77056655Y-99695000D01*
X77170729Y-100268489D01*
X77495585Y-100754670D01*
X77810366Y-100965000D01*
X77495585Y-101175330D01*
X77170729Y-101661511D01*
X77056655Y-102235000D01*
X77170729Y-102808489D01*
X77495585Y-103294670D01*
X77810366Y-103505000D01*
X77495585Y-103715330D01*
X77170729Y-104201511D01*
X77056655Y-104775000D01*
X77170729Y-105348489D01*
X77495585Y-105834670D01*
X77810366Y-106045000D01*
X77495585Y-106255330D01*
X77170729Y-106741511D01*
X77056655Y-107315000D01*
X77170729Y-107888489D01*
X77495585Y-108374670D01*
X77810366Y-108585000D01*
X77495585Y-108795330D01*
X77170729Y-109281511D01*
X77056655Y-109855000D01*
X77170729Y-110428489D01*
X77495585Y-110914670D01*
X77810366Y-111125000D01*
X77495585Y-111335330D01*
X77170729Y-111821511D01*
X77056655Y-112395000D01*
X77170729Y-112968489D01*
X77495585Y-113454670D01*
X77810366Y-113665000D01*
X77495585Y-113875330D01*
X77170729Y-114361511D01*
X77056655Y-114935000D01*
X77170729Y-115508489D01*
X77495585Y-115994670D01*
X77810366Y-116205000D01*
X77495585Y-116415330D01*
X77170729Y-116901511D01*
X77056655Y-117475000D01*
X77170729Y-118048489D01*
X77495585Y-118534670D01*
X77981766Y-118859526D01*
X78555255Y-118973600D01*
X78924745Y-118973600D01*
X79498234Y-118859526D01*
X79984415Y-118534670D01*
X80309271Y-118048489D01*
X80423345Y-117475000D01*
X80386082Y-117287663D01*
X93382931Y-117287663D01*
X93531493Y-117647212D01*
X93806341Y-117922540D01*
X94165630Y-118071730D01*
X94554663Y-118072069D01*
X94914212Y-117923507D01*
X95189540Y-117648659D01*
X95338730Y-117289370D01*
X95339069Y-116900337D01*
X95190507Y-116540788D01*
X94915659Y-116265460D01*
X94556370Y-116116270D01*
X94167337Y-116115931D01*
X93807788Y-116264493D01*
X93532460Y-116539341D01*
X93383270Y-116898630D01*
X93382931Y-117287663D01*
X80386082Y-117287663D01*
X80309271Y-116901511D01*
X79984415Y-116415330D01*
X79669634Y-116205000D01*
X79984415Y-115994670D01*
X80309271Y-115508489D01*
X80423345Y-114935000D01*
X80309271Y-114361511D01*
X79984415Y-113875330D01*
X79669634Y-113665000D01*
X79984415Y-113454670D01*
X80309271Y-112968489D01*
X80423345Y-112395000D01*
X80309271Y-111821511D01*
X80058138Y-111445663D01*
X94881531Y-111445663D01*
X95030093Y-111805212D01*
X95304941Y-112080540D01*
X95664230Y-112229730D01*
X96053263Y-112230069D01*
X96412812Y-112081507D01*
X96688140Y-111806659D01*
X96837330Y-111447370D01*
X96837669Y-111058337D01*
X96689107Y-110698788D01*
X96414259Y-110423460D01*
X96054970Y-110274270D01*
X95665937Y-110273931D01*
X95306388Y-110422493D01*
X95031060Y-110697341D01*
X94881870Y-111056630D01*
X94881531Y-111445663D01*
X80058138Y-111445663D01*
X79984415Y-111335330D01*
X79669634Y-111125000D01*
X79984415Y-110914670D01*
X80309271Y-110428489D01*
X80423345Y-109855000D01*
X80309271Y-109281511D01*
X79984415Y-108795330D01*
X79669634Y-108585000D01*
X79984415Y-108374670D01*
X80309271Y-107888489D01*
X80423345Y-107315000D01*
X80309271Y-106741511D01*
X80041562Y-106340856D01*
X83488381Y-106340856D01*
X83535905Y-106593427D01*
X83677950Y-106807609D01*
X85114791Y-108244450D01*
X85312494Y-108379535D01*
X85563656Y-108434019D01*
X85816227Y-108386495D01*
X86030409Y-108244450D01*
X86562996Y-107711863D01*
X92722531Y-107711863D01*
X92871093Y-108071412D01*
X93145941Y-108346740D01*
X93505230Y-108495930D01*
X93894263Y-108496269D01*
X94253812Y-108347707D01*
X94529140Y-108072859D01*
X94678330Y-107713570D01*
X94678669Y-107324537D01*
X94530107Y-106964988D01*
X94464297Y-106899063D01*
X96913531Y-106899063D01*
X97062093Y-107258612D01*
X97336941Y-107533940D01*
X97696230Y-107683130D01*
X98085263Y-107683469D01*
X98323908Y-107584863D01*
X100723531Y-107584863D01*
X100872093Y-107944412D01*
X101146941Y-108219740D01*
X101506230Y-108368930D01*
X101895263Y-108369269D01*
X102254812Y-108220707D01*
X102513292Y-107962677D01*
X102733463Y-107962869D01*
X103093012Y-107814307D01*
X103368340Y-107539459D01*
X103517530Y-107180170D01*
X103517869Y-106791137D01*
X103369307Y-106431588D01*
X103094459Y-106156260D01*
X102735170Y-106007070D01*
X102346137Y-106006731D01*
X101986588Y-106155293D01*
X101728108Y-106413323D01*
X101507937Y-106413131D01*
X101148388Y-106561693D01*
X100873060Y-106836541D01*
X100723870Y-107195830D01*
X100723531Y-107584863D01*
X98323908Y-107584863D01*
X98444812Y-107534907D01*
X98720140Y-107260059D01*
X98869330Y-106900770D01*
X98869669Y-106511737D01*
X98721107Y-106152188D01*
X98446259Y-105876860D01*
X98086970Y-105727670D01*
X97697937Y-105727331D01*
X97338388Y-105875893D01*
X97063060Y-106150741D01*
X96913870Y-106510030D01*
X96913531Y-106899063D01*
X94464297Y-106899063D01*
X94255259Y-106689660D01*
X93895970Y-106540470D01*
X93506937Y-106540131D01*
X93147388Y-106688693D01*
X92872060Y-106963541D01*
X92722870Y-107322830D01*
X92722531Y-107711863D01*
X86562996Y-107711863D01*
X87467250Y-106807609D01*
X87602335Y-106609906D01*
X87656819Y-106358744D01*
X87620305Y-106164688D01*
X87751597Y-106159732D01*
X88233465Y-105960127D01*
X88330200Y-105694903D01*
X87368651Y-104733354D01*
X87354509Y-104747497D01*
X87174904Y-104567892D01*
X87189046Y-104553749D01*
X87548256Y-104553749D01*
X88509805Y-105515298D01*
X88775029Y-105418563D01*
X88974634Y-104936695D01*
X88992602Y-104460663D01*
X95135531Y-104460663D01*
X95284093Y-104820212D01*
X95558941Y-105095540D01*
X95918230Y-105244730D01*
X96307263Y-105245069D01*
X96666812Y-105096507D01*
X96942140Y-104821659D01*
X97091330Y-104462370D01*
X97091669Y-104073337D01*
X96943107Y-103713788D01*
X96801230Y-103571663D01*
X99047131Y-103571663D01*
X99158254Y-103840603D01*
X99072870Y-104046230D01*
X99072531Y-104435263D01*
X99221093Y-104794812D01*
X99495941Y-105070140D01*
X99855230Y-105219330D01*
X100244263Y-105219669D01*
X100603812Y-105071107D01*
X100879140Y-104796259D01*
X101028330Y-104436970D01*
X101028669Y-104047937D01*
X100917546Y-103778997D01*
X101002930Y-103573370D01*
X101003269Y-103184337D01*
X100984893Y-103139863D01*
X103009531Y-103139863D01*
X103158093Y-103499412D01*
X103432941Y-103774740D01*
X103792230Y-103923930D01*
X104181263Y-103924269D01*
X104540812Y-103775707D01*
X104816140Y-103500859D01*
X104965330Y-103141570D01*
X104965669Y-102752537D01*
X104817107Y-102392988D01*
X104542259Y-102117660D01*
X104182970Y-101968470D01*
X103793937Y-101968131D01*
X103434388Y-102116693D01*
X103159060Y-102391541D01*
X103009870Y-102750830D01*
X103009531Y-103139863D01*
X100984893Y-103139863D01*
X100854707Y-102824788D01*
X100579859Y-102549460D01*
X100220570Y-102400270D01*
X99831537Y-102399931D01*
X99471988Y-102548493D01*
X99196660Y-102823341D01*
X99047470Y-103182630D01*
X99047131Y-103571663D01*
X96801230Y-103571663D01*
X96668259Y-103438460D01*
X96308970Y-103289270D01*
X95919937Y-103288931D01*
X95560388Y-103437493D01*
X95285060Y-103712341D01*
X95135870Y-104071630D01*
X95135531Y-104460663D01*
X88992602Y-104460663D01*
X88998933Y-104292962D01*
X88775036Y-103688931D01*
X88510181Y-103591824D01*
X87548256Y-104553749D01*
X87189046Y-104553749D01*
X86227497Y-103592200D01*
X85962273Y-103688935D01*
X85762668Y-104170803D01*
X85757648Y-104303783D01*
X85581544Y-104265581D01*
X85328973Y-104313105D01*
X85114791Y-104455150D01*
X83677950Y-105891991D01*
X83542865Y-106089694D01*
X83488381Y-106340856D01*
X80041562Y-106340856D01*
X79984415Y-106255330D01*
X79669634Y-106045000D01*
X79984415Y-105834670D01*
X80309271Y-105348489D01*
X80423345Y-104775000D01*
X80309271Y-104201511D01*
X79984415Y-103715330D01*
X79669634Y-103505000D01*
X79807927Y-103412595D01*
X86407102Y-103412595D01*
X87368651Y-104374144D01*
X88330576Y-103412219D01*
X88233469Y-103147364D01*
X87629438Y-102923467D01*
X86985705Y-102947766D01*
X86503837Y-103147371D01*
X86407102Y-103412595D01*
X79807927Y-103412595D01*
X79984415Y-103294670D01*
X80309271Y-102808489D01*
X80346128Y-102623195D01*
X90127750Y-102623195D01*
X90276312Y-102982744D01*
X90551160Y-103258072D01*
X90888639Y-103398206D01*
X90888594Y-103449770D01*
X91037156Y-103809319D01*
X91312004Y-104084647D01*
X91671293Y-104233837D01*
X92060326Y-104234176D01*
X92419875Y-104085614D01*
X92695203Y-103810766D01*
X92844393Y-103451477D01*
X92844732Y-103062444D01*
X92818820Y-102999732D01*
X92834388Y-102984191D01*
X92906858Y-102809663D01*
X93408331Y-102809663D01*
X93556893Y-103169212D01*
X93831741Y-103444540D01*
X94191030Y-103593730D01*
X94580063Y-103594069D01*
X94939612Y-103445507D01*
X95214940Y-103170659D01*
X95364130Y-102811370D01*
X95364469Y-102422337D01*
X95215907Y-102062788D01*
X94941059Y-101787460D01*
X94581770Y-101638270D01*
X94192737Y-101637931D01*
X93833188Y-101786493D01*
X93557860Y-102061341D01*
X93408670Y-102420630D01*
X93408331Y-102809663D01*
X92906858Y-102809663D01*
X92983578Y-102624902D01*
X92983917Y-102235869D01*
X92835355Y-101876320D01*
X92560507Y-101600992D01*
X92201218Y-101451802D01*
X91812185Y-101451463D01*
X91555646Y-101557462D01*
X91301189Y-101451802D01*
X90912156Y-101451463D01*
X90552607Y-101600025D01*
X90277279Y-101874873D01*
X90128089Y-102234162D01*
X90127750Y-102623195D01*
X80346128Y-102623195D01*
X80423345Y-102235000D01*
X80309271Y-101661511D01*
X79984415Y-101175330D01*
X79669634Y-100965000D01*
X79984415Y-100754670D01*
X80070882Y-100625263D01*
X95313331Y-100625263D01*
X95461893Y-100984812D01*
X95695729Y-101219056D01*
X95589860Y-101324741D01*
X95440670Y-101684030D01*
X95440331Y-102073063D01*
X95588893Y-102432612D01*
X95863741Y-102707940D01*
X96223030Y-102857130D01*
X96612063Y-102857469D01*
X96971612Y-102708907D01*
X97246940Y-102434059D01*
X97364499Y-102150947D01*
X97565541Y-102352340D01*
X97924830Y-102501530D01*
X98313863Y-102501869D01*
X98673412Y-102353307D01*
X98948740Y-102078459D01*
X99097930Y-101719170D01*
X99098269Y-101330137D01*
X98949707Y-100970588D01*
X98674859Y-100695260D01*
X98315570Y-100546070D01*
X97926537Y-100545731D01*
X97566988Y-100694293D01*
X97291660Y-100969141D01*
X97174101Y-101252253D01*
X97014071Y-101091944D01*
X97119940Y-100986259D01*
X97269130Y-100626970D01*
X97269469Y-100237937D01*
X97120907Y-99878388D01*
X96846059Y-99603060D01*
X96486770Y-99453870D01*
X96097737Y-99453531D01*
X95738188Y-99602093D01*
X95462860Y-99876941D01*
X95313670Y-100236230D01*
X95313331Y-100625263D01*
X80070882Y-100625263D01*
X80309271Y-100268489D01*
X80423345Y-99695000D01*
X80340611Y-99279063D01*
X96888131Y-99279063D01*
X97036693Y-99638612D01*
X97311541Y-99913940D01*
X97670830Y-100063130D01*
X98059863Y-100063469D01*
X98419412Y-99914907D01*
X98694740Y-99640059D01*
X98843930Y-99280770D01*
X98844269Y-98891737D01*
X98695707Y-98532188D01*
X98420859Y-98256860D01*
X98061570Y-98107670D01*
X97672537Y-98107331D01*
X97312988Y-98255893D01*
X97037660Y-98530741D01*
X96888470Y-98890030D01*
X96888131Y-99279063D01*
X80340611Y-99279063D01*
X80309271Y-99121511D01*
X79984415Y-98635330D01*
X79669634Y-98425000D01*
X79984415Y-98214670D01*
X80255339Y-97809203D01*
X84772185Y-97809203D01*
X84982681Y-98318642D01*
X85372108Y-98708749D01*
X85881179Y-98920134D01*
X86432393Y-98920615D01*
X86941832Y-98710119D01*
X87237002Y-98415463D01*
X88302931Y-98415463D01*
X88451493Y-98775012D01*
X88726341Y-99050340D01*
X89085630Y-99199530D01*
X89474663Y-99199869D01*
X89834212Y-99051307D01*
X90109540Y-98776459D01*
X90258730Y-98417170D01*
X90258908Y-98212263D01*
X92951131Y-98212263D01*
X93099693Y-98571812D01*
X93374541Y-98847140D01*
X93733830Y-98996330D01*
X94122863Y-98996669D01*
X94482412Y-98848107D01*
X94757740Y-98573259D01*
X94906930Y-98213970D01*
X94907269Y-97824937D01*
X94758707Y-97465388D01*
X94490052Y-97196263D01*
X96684931Y-97196263D01*
X96833493Y-97555812D01*
X97108341Y-97831140D01*
X97467630Y-97980330D01*
X97856663Y-97980669D01*
X98216212Y-97832107D01*
X98491540Y-97557259D01*
X98524185Y-97478640D01*
X101561991Y-97478640D01*
X101710553Y-97838189D01*
X101985401Y-98113517D01*
X102344690Y-98262707D01*
X102733723Y-98263046D01*
X103093272Y-98114484D01*
X103368600Y-97839636D01*
X103517790Y-97480347D01*
X103518129Y-97091314D01*
X103369567Y-96731765D01*
X103183527Y-96545400D01*
X106063455Y-96545400D01*
X106177529Y-97118889D01*
X106502385Y-97605070D01*
X106817166Y-97815400D01*
X106502385Y-98025730D01*
X106177529Y-98511911D01*
X106063455Y-99085400D01*
X106177529Y-99658889D01*
X106502385Y-100145070D01*
X106817166Y-100355400D01*
X106502385Y-100565730D01*
X106177529Y-101051911D01*
X106063455Y-101625400D01*
X106177529Y-102198889D01*
X106502385Y-102685070D01*
X106516713Y-102694643D01*
X106495483Y-102698638D01*
X106279359Y-102837710D01*
X106134369Y-103049910D01*
X106083360Y-103301800D01*
X106083360Y-105029000D01*
X106127638Y-105264317D01*
X106266710Y-105480441D01*
X106478910Y-105625431D01*
X106730800Y-105676440D01*
X108762800Y-105676440D01*
X108998117Y-105632162D01*
X109214241Y-105493090D01*
X109359231Y-105280890D01*
X109410240Y-105029000D01*
X109410240Y-103301800D01*
X109365962Y-103066483D01*
X109226890Y-102850359D01*
X109014690Y-102705369D01*
X108973361Y-102697000D01*
X108991215Y-102685070D01*
X109316071Y-102198889D01*
X109430145Y-101625400D01*
X109316071Y-101051911D01*
X108991215Y-100565730D01*
X108676434Y-100355400D01*
X108991215Y-100145070D01*
X109316071Y-99658889D01*
X109430145Y-99085400D01*
X109316071Y-98511911D01*
X108991215Y-98025730D01*
X108676434Y-97815400D01*
X108991215Y-97605070D01*
X109316071Y-97118889D01*
X109430145Y-96545400D01*
X109316071Y-95971911D01*
X108991215Y-95485730D01*
X108505034Y-95160874D01*
X107931545Y-95046800D01*
X107562055Y-95046800D01*
X106988566Y-95160874D01*
X106502385Y-95485730D01*
X106177529Y-95971911D01*
X106063455Y-96545400D01*
X103183527Y-96545400D01*
X103094719Y-96456437D01*
X102735430Y-96307247D01*
X102346397Y-96306908D01*
X101986848Y-96455470D01*
X101711520Y-96730318D01*
X101562330Y-97089607D01*
X101561991Y-97478640D01*
X98524185Y-97478640D01*
X98640730Y-97197970D01*
X98641069Y-96808937D01*
X98492507Y-96449388D01*
X98217659Y-96174060D01*
X97858370Y-96024870D01*
X97469337Y-96024531D01*
X97109788Y-96173093D01*
X96834460Y-96447941D01*
X96685270Y-96807230D01*
X96684931Y-97196263D01*
X94490052Y-97196263D01*
X94483859Y-97190060D01*
X94124570Y-97040870D01*
X93735537Y-97040531D01*
X93375988Y-97189093D01*
X93100660Y-97463941D01*
X92951470Y-97823230D01*
X92951131Y-98212263D01*
X90258908Y-98212263D01*
X90259069Y-98028137D01*
X90110507Y-97668588D01*
X89835659Y-97393260D01*
X89476370Y-97244070D01*
X89087337Y-97243731D01*
X88727788Y-97392293D01*
X88452460Y-97667141D01*
X88303270Y-98026430D01*
X88302931Y-98415463D01*
X87237002Y-98415463D01*
X87331939Y-98320692D01*
X87543324Y-97811621D01*
X87543805Y-97260407D01*
X87333309Y-96750968D01*
X86943882Y-96360861D01*
X86434811Y-96149476D01*
X85883597Y-96148995D01*
X85374158Y-96359491D01*
X84984051Y-96748918D01*
X84772666Y-97257989D01*
X84772185Y-97809203D01*
X80255339Y-97809203D01*
X80309271Y-97728489D01*
X80423345Y-97155000D01*
X80309271Y-96581511D01*
X79984415Y-96095330D01*
X79970087Y-96085757D01*
X79991317Y-96081762D01*
X80207441Y-95942690D01*
X80352431Y-95730490D01*
X80403440Y-95478600D01*
X80403440Y-94357193D01*
X88224195Y-94357193D01*
X88434691Y-94866632D01*
X88824118Y-95256739D01*
X89333189Y-95468124D01*
X89884403Y-95468605D01*
X90393842Y-95258109D01*
X90783949Y-94868682D01*
X90995334Y-94359611D01*
X90995341Y-94351463D01*
X96430931Y-94351463D01*
X96579493Y-94711012D01*
X96854341Y-94986340D01*
X97213630Y-95135530D01*
X97602663Y-95135869D01*
X97962212Y-94987307D01*
X98237540Y-94712459D01*
X98386730Y-94353170D01*
X98387069Y-93964137D01*
X98238507Y-93604588D01*
X97963659Y-93329260D01*
X97604370Y-93180070D01*
X97215337Y-93179731D01*
X96855788Y-93328293D01*
X96580460Y-93603141D01*
X96431270Y-93962430D01*
X96430931Y-94351463D01*
X90995341Y-94351463D01*
X90995815Y-93808397D01*
X90785319Y-93298958D01*
X90395892Y-92908851D01*
X89886821Y-92697466D01*
X89335607Y-92696985D01*
X88826168Y-92907481D01*
X88436061Y-93296908D01*
X88224676Y-93805979D01*
X88224195Y-94357193D01*
X80403440Y-94357193D01*
X80403440Y-93751400D01*
X80359162Y-93516083D01*
X80220090Y-93299959D01*
X80007890Y-93154969D01*
X79756000Y-93103960D01*
X77724000Y-93103960D01*
X77488683Y-93148238D01*
X77272559Y-93287310D01*
X77127569Y-93499510D01*
X77076560Y-93751400D01*
X77076560Y-95478600D01*
X77120838Y-95713917D01*
X77259910Y-95930041D01*
X77472110Y-96075031D01*
X77513439Y-96083400D01*
X77495585Y-96095330D01*
X77170729Y-96581511D01*
X77056655Y-97155000D01*
X76910000Y-97155000D01*
X76910000Y-84779285D01*
X78497760Y-84779285D01*
X78708169Y-85288515D01*
X78924313Y-85505036D01*
X78709539Y-85719436D01*
X78498241Y-86228298D01*
X78497760Y-86779285D01*
X78708169Y-87288515D01*
X78924313Y-87505036D01*
X78709539Y-87719436D01*
X78498241Y-88228298D01*
X78497760Y-88779285D01*
X78708169Y-89288515D01*
X78924313Y-89505036D01*
X78709539Y-89719436D01*
X78498241Y-90228298D01*
X78497760Y-90779285D01*
X78708169Y-91288515D01*
X79097436Y-91678461D01*
X79606298Y-91889759D01*
X80157285Y-91890240D01*
X80666515Y-91679831D01*
X80874190Y-91472517D01*
X110587088Y-91472517D01*
X110655077Y-91713460D01*
X111174171Y-91898201D01*
X111724448Y-91870230D01*
X112102923Y-91713460D01*
X112170912Y-91472517D01*
X111379000Y-90680605D01*
X110587088Y-91472517D01*
X80874190Y-91472517D01*
X81056461Y-91290564D01*
X81267759Y-90781702D01*
X81268240Y-90230715D01*
X81057831Y-89721485D01*
X80841687Y-89504964D01*
X81056461Y-89290564D01*
X81264785Y-88788863D01*
X86753531Y-88788863D01*
X86902093Y-89148412D01*
X87176941Y-89423740D01*
X87536230Y-89572930D01*
X87925263Y-89573269D01*
X88284812Y-89424707D01*
X88560140Y-89149859D01*
X88709330Y-88790570D01*
X88709508Y-88585663D01*
X92874931Y-88585663D01*
X93004948Y-88900330D01*
X92875270Y-89212630D01*
X92874931Y-89601663D01*
X93023493Y-89961212D01*
X93298341Y-90236540D01*
X93657630Y-90385730D01*
X94046663Y-90386069D01*
X94264233Y-90296171D01*
X109981799Y-90296171D01*
X110009770Y-90846448D01*
X110166540Y-91224923D01*
X110407483Y-91292912D01*
X111199395Y-90501000D01*
X111558605Y-90501000D01*
X112350517Y-91292912D01*
X112591460Y-91224923D01*
X112776201Y-90705829D01*
X112748230Y-90155552D01*
X112591460Y-89777077D01*
X112350517Y-89709088D01*
X111558605Y-90501000D01*
X111199395Y-90501000D01*
X110407483Y-89709088D01*
X110166540Y-89777077D01*
X109981799Y-90296171D01*
X94264233Y-90296171D01*
X94406212Y-90237507D01*
X94681540Y-89962659D01*
X94830730Y-89603370D01*
X94831069Y-89214337D01*
X94701052Y-88899670D01*
X94830730Y-88587370D01*
X94831069Y-88198337D01*
X94682507Y-87838788D01*
X94407659Y-87563460D01*
X94048370Y-87414270D01*
X93659337Y-87413931D01*
X93299788Y-87562493D01*
X93024460Y-87837341D01*
X92875270Y-88196630D01*
X92874931Y-88585663D01*
X88709508Y-88585663D01*
X88709669Y-88401537D01*
X88561107Y-88041988D01*
X88286259Y-87766660D01*
X87926970Y-87617470D01*
X87537937Y-87617131D01*
X87178388Y-87765693D01*
X86903060Y-88040541D01*
X86753870Y-88399830D01*
X86753531Y-88788863D01*
X81264785Y-88788863D01*
X81267759Y-88781702D01*
X81268240Y-88230715D01*
X81057831Y-87721485D01*
X80841687Y-87504964D01*
X81056461Y-87290564D01*
X81267759Y-86781702D01*
X81268240Y-86230715D01*
X81057831Y-85721485D01*
X80841687Y-85504964D01*
X81056461Y-85290564D01*
X81217531Y-84902663D01*
X83349931Y-84902663D01*
X83498493Y-85262212D01*
X83773341Y-85537540D01*
X84132630Y-85686730D01*
X84521663Y-85687069D01*
X84881212Y-85538507D01*
X85156540Y-85263659D01*
X85305730Y-84904370D01*
X85305842Y-84775285D01*
X109993760Y-84775285D01*
X110204169Y-85284515D01*
X110420313Y-85501036D01*
X110205539Y-85715436D01*
X109994241Y-86224298D01*
X109993760Y-86775285D01*
X110204169Y-87284515D01*
X110420313Y-87501036D01*
X110205539Y-87715436D01*
X109994241Y-88224298D01*
X109993760Y-88775285D01*
X110204169Y-89284515D01*
X110593436Y-89674461D01*
X110830506Y-89772901D01*
X111379000Y-90321395D01*
X111927428Y-89772967D01*
X112162515Y-89675831D01*
X112552461Y-89286564D01*
X112763759Y-88777702D01*
X112764240Y-88226715D01*
X112553831Y-87717485D01*
X112337687Y-87500964D01*
X112552461Y-87286564D01*
X112763759Y-86777702D01*
X112764240Y-86226715D01*
X112553831Y-85717485D01*
X112337687Y-85500964D01*
X112552461Y-85286564D01*
X112763759Y-84777702D01*
X112764240Y-84226715D01*
X112553831Y-83717485D01*
X112164564Y-83327539D01*
X111655702Y-83116241D01*
X111104715Y-83115760D01*
X110595485Y-83326169D01*
X110205539Y-83715436D01*
X109994241Y-84224298D01*
X109993760Y-84775285D01*
X85305842Y-84775285D01*
X85306069Y-84515337D01*
X85157507Y-84155788D01*
X84882659Y-83880460D01*
X84523370Y-83731270D01*
X84134337Y-83730931D01*
X83774788Y-83879493D01*
X83499460Y-84154341D01*
X83350270Y-84513630D01*
X83349931Y-84902663D01*
X81217531Y-84902663D01*
X81267759Y-84781702D01*
X81268240Y-84230715D01*
X81057831Y-83721485D01*
X80969164Y-83632663D01*
X92493931Y-83632663D01*
X92642493Y-83992212D01*
X92917341Y-84267540D01*
X93276630Y-84416730D01*
X93665663Y-84417069D01*
X94025212Y-84268507D01*
X94300540Y-83993659D01*
X94449730Y-83634370D01*
X94450069Y-83245337D01*
X94301507Y-82885788D01*
X94026659Y-82610460D01*
X93667370Y-82461270D01*
X93278337Y-82460931D01*
X92918788Y-82609493D01*
X92643460Y-82884341D01*
X92494270Y-83243630D01*
X92493931Y-83632663D01*
X80969164Y-83632663D01*
X80668564Y-83331539D01*
X80159702Y-83120241D01*
X79608715Y-83119760D01*
X79099485Y-83330169D01*
X78709539Y-83719436D01*
X78498241Y-84228298D01*
X78497760Y-84779285D01*
X76910000Y-84779285D01*
X76910000Y-79924815D01*
X77366630Y-79924815D01*
X77690980Y-80709800D01*
X78291041Y-81310909D01*
X79075459Y-81636628D01*
X79924815Y-81637370D01*
X80709800Y-81313020D01*
X81310909Y-80712959D01*
X81636628Y-79928541D01*
X81637370Y-79079185D01*
X81313020Y-78294200D01*
X80743815Y-77724000D01*
X82816960Y-77724000D01*
X82816960Y-79756000D01*
X82861238Y-79991317D01*
X83000310Y-80207441D01*
X83212510Y-80352431D01*
X83464400Y-80403440D01*
X85191600Y-80403440D01*
X85426917Y-80359162D01*
X85643041Y-80220090D01*
X85788031Y-80007890D01*
X85796400Y-79966561D01*
X85808330Y-79984415D01*
X86294511Y-80309271D01*
X86868000Y-80423345D01*
X87441489Y-80309271D01*
X87927670Y-79984415D01*
X88134461Y-79674931D01*
X88505964Y-80090732D01*
X89033209Y-80344709D01*
X89048974Y-80347358D01*
X89281000Y-80226217D01*
X89281000Y-78867000D01*
X89261000Y-78867000D01*
X89261000Y-78613000D01*
X89281000Y-78613000D01*
X89281000Y-77253783D01*
X89535000Y-77253783D01*
X89535000Y-78613000D01*
X89555000Y-78613000D01*
X89555000Y-78867000D01*
X89535000Y-78867000D01*
X89535000Y-80226217D01*
X89767026Y-80347358D01*
X89782791Y-80344709D01*
X90310036Y-80090732D01*
X90681539Y-79674931D01*
X90888330Y-79984415D01*
X91374511Y-80309271D01*
X91948000Y-80423345D01*
X92521489Y-80309271D01*
X93007670Y-79984415D01*
X93218000Y-79669634D01*
X93428330Y-79984415D01*
X93914511Y-80309271D01*
X94488000Y-80423345D01*
X95061489Y-80309271D01*
X95547670Y-79984415D01*
X95758000Y-79669634D01*
X95968330Y-79984415D01*
X96454511Y-80309271D01*
X97028000Y-80423345D01*
X97601489Y-80309271D01*
X98087670Y-79984415D01*
X98412526Y-79498234D01*
X98526600Y-78924745D01*
X98526600Y-78555255D01*
X98412526Y-77981766D01*
X98240293Y-77724000D01*
X99453960Y-77724000D01*
X99453960Y-79756000D01*
X99498238Y-79991317D01*
X99637310Y-80207441D01*
X99849510Y-80352431D01*
X100101400Y-80403440D01*
X101828600Y-80403440D01*
X102063917Y-80359162D01*
X102280041Y-80220090D01*
X102425031Y-80007890D01*
X102433400Y-79966561D01*
X102445330Y-79984415D01*
X102931511Y-80309271D01*
X103505000Y-80423345D01*
X104078489Y-80309271D01*
X104564670Y-79984415D01*
X104771461Y-79674931D01*
X105142964Y-80090732D01*
X105670209Y-80344709D01*
X105685974Y-80347358D01*
X105918000Y-80226217D01*
X105918000Y-78867000D01*
X106172000Y-78867000D01*
X106172000Y-80226217D01*
X106404026Y-80347358D01*
X106419791Y-80344709D01*
X106947036Y-80090732D01*
X107095276Y-79924815D01*
X108862630Y-79924815D01*
X109186980Y-80709800D01*
X109787041Y-81310909D01*
X110571459Y-81636628D01*
X111420815Y-81637370D01*
X112205800Y-81313020D01*
X112806909Y-80712959D01*
X113132628Y-79928541D01*
X113133370Y-79079185D01*
X112809020Y-78294200D01*
X112208959Y-77693091D01*
X111424541Y-77367372D01*
X110575185Y-77366630D01*
X109790200Y-77690980D01*
X109189091Y-78291041D01*
X108863372Y-79075459D01*
X108862630Y-79924815D01*
X107095276Y-79924815D01*
X107336954Y-79654320D01*
X107530184Y-79101913D01*
X107385924Y-78867000D01*
X106172000Y-78867000D01*
X105918000Y-78867000D01*
X105898000Y-78867000D01*
X105898000Y-78613000D01*
X105918000Y-78613000D01*
X105918000Y-77253783D01*
X106172000Y-77253783D01*
X106172000Y-78613000D01*
X107385924Y-78613000D01*
X107530184Y-78378087D01*
X107336954Y-77825680D01*
X106947036Y-77389268D01*
X106419791Y-77135291D01*
X106404026Y-77132642D01*
X106172000Y-77253783D01*
X105918000Y-77253783D01*
X105685974Y-77132642D01*
X105670209Y-77135291D01*
X105142964Y-77389268D01*
X104771461Y-77805069D01*
X104564670Y-77495585D01*
X104078489Y-77170729D01*
X103505000Y-77056655D01*
X102931511Y-77170729D01*
X102445330Y-77495585D01*
X102435757Y-77509913D01*
X102431762Y-77488683D01*
X102292690Y-77272559D01*
X102080490Y-77127569D01*
X101828600Y-77076560D01*
X100101400Y-77076560D01*
X99866083Y-77120838D01*
X99649959Y-77259910D01*
X99504969Y-77472110D01*
X99453960Y-77724000D01*
X98240293Y-77724000D01*
X98087670Y-77495585D01*
X97601489Y-77170729D01*
X97028000Y-77056655D01*
X96454511Y-77170729D01*
X95968330Y-77495585D01*
X95758000Y-77810366D01*
X95547670Y-77495585D01*
X95061489Y-77170729D01*
X94488000Y-77056655D01*
X93914511Y-77170729D01*
X93428330Y-77495585D01*
X93218000Y-77810366D01*
X93007670Y-77495585D01*
X92521489Y-77170729D01*
X91948000Y-77056655D01*
X91374511Y-77170729D01*
X90888330Y-77495585D01*
X90681539Y-77805069D01*
X90310036Y-77389268D01*
X89782791Y-77135291D01*
X89767026Y-77132642D01*
X89535000Y-77253783D01*
X89281000Y-77253783D01*
X89048974Y-77132642D01*
X89033209Y-77135291D01*
X88505964Y-77389268D01*
X88134461Y-77805069D01*
X87927670Y-77495585D01*
X87441489Y-77170729D01*
X86868000Y-77056655D01*
X86294511Y-77170729D01*
X85808330Y-77495585D01*
X85798757Y-77509913D01*
X85794762Y-77488683D01*
X85655690Y-77272559D01*
X85443490Y-77127569D01*
X85191600Y-77076560D01*
X83464400Y-77076560D01*
X83229083Y-77120838D01*
X83012959Y-77259910D01*
X82867969Y-77472110D01*
X82816960Y-77724000D01*
X80743815Y-77724000D01*
X80712959Y-77693091D01*
X79928541Y-77367372D01*
X79079185Y-77366630D01*
X78294200Y-77690980D01*
X77693091Y-78291041D01*
X77367372Y-79075459D01*
X77366630Y-79924815D01*
X76910000Y-79924815D01*
X76910000Y-76910000D01*
X113590000Y-76910000D01*
X113590000Y-93948341D01*
X113590000Y-93948341D01*
G37*
X113590000Y-93948341D02*
X113571670Y-93856190D01*
X113213778Y-93320567D01*
X112678155Y-92962675D01*
X112046345Y-92837000D01*
X111981655Y-92837000D01*
X111349845Y-92962675D01*
X110814222Y-93320567D01*
X110456330Y-93856190D01*
X110330655Y-94488000D01*
X110456330Y-95119810D01*
X110683499Y-95459792D01*
X110546559Y-95547910D01*
X110401569Y-95760110D01*
X110350560Y-96012000D01*
X110350560Y-98044000D01*
X110394838Y-98279317D01*
X110533910Y-98495441D01*
X110746110Y-98640431D01*
X110998000Y-98691440D01*
X113030000Y-98691440D01*
X113265317Y-98647162D01*
X113481441Y-98508090D01*
X113590000Y-98349209D01*
X113590000Y-99392607D01*
X113494090Y-99243559D01*
X113281890Y-99098569D01*
X113030000Y-99047560D01*
X110998000Y-99047560D01*
X110762683Y-99091838D01*
X110546559Y-99230910D01*
X110401569Y-99443110D01*
X110350560Y-99695000D01*
X110350560Y-101727000D01*
X110394838Y-101962317D01*
X110533910Y-102178441D01*
X110682837Y-102280198D01*
X110456330Y-102619190D01*
X110330655Y-103251000D01*
X110456330Y-103882810D01*
X110814222Y-104418433D01*
X111349845Y-104776325D01*
X111981655Y-104902000D01*
X112046345Y-104902000D01*
X112678155Y-104776325D01*
X113213778Y-104418433D01*
X113571670Y-103882810D01*
X113590000Y-103790659D01*
X113590000Y-106521340D01*
X113583271Y-106487511D01*
X113258415Y-106001330D01*
X112772234Y-105676474D01*
X112198745Y-105562400D01*
X111829255Y-105562400D01*
X111255766Y-105676474D01*
X110769585Y-106001330D01*
X110444729Y-106487511D01*
X110330655Y-107061000D01*
X110444729Y-107634489D01*
X110769585Y-108120670D01*
X111084366Y-108331000D01*
X110769585Y-108541330D01*
X110444729Y-109027511D01*
X110330655Y-109601000D01*
X110444729Y-110174489D01*
X110769585Y-110660670D01*
X111084366Y-110871000D01*
X110769585Y-111081330D01*
X110444729Y-111567511D01*
X110330655Y-112141000D01*
X110444729Y-112714489D01*
X110769585Y-113200670D01*
X111084366Y-113411000D01*
X110769585Y-113621330D01*
X110444729Y-114107511D01*
X110330655Y-114681000D01*
X110444729Y-115254489D01*
X110769585Y-115740670D01*
X111084366Y-115951000D01*
X110769585Y-116161330D01*
X110444729Y-116647511D01*
X110330655Y-117221000D01*
X110444729Y-117794489D01*
X110769585Y-118280670D01*
X111084366Y-118491000D01*
X110769585Y-118701330D01*
X110444729Y-119187511D01*
X110330655Y-119761000D01*
X110444729Y-120334489D01*
X110769585Y-120820670D01*
X111084366Y-121031000D01*
X110769585Y-121241330D01*
X110444729Y-121727511D01*
X110330655Y-122301000D01*
X110444729Y-122874489D01*
X110769585Y-123360670D01*
X111084366Y-123571000D01*
X110769585Y-123781330D01*
X110444729Y-124267511D01*
X110330655Y-124841000D01*
X110444729Y-125414489D01*
X110769585Y-125900670D01*
X111084366Y-126111000D01*
X110769585Y-126321330D01*
X110444729Y-126807511D01*
X110330655Y-127381000D01*
X110444729Y-127954489D01*
X110769585Y-128440670D01*
X110783913Y-128450243D01*
X110762683Y-128454238D01*
X110546559Y-128593310D01*
X110401569Y-128805510D01*
X110350560Y-129057400D01*
X110350560Y-130784600D01*
X110394838Y-131019917D01*
X110533910Y-131236041D01*
X110746110Y-131381031D01*
X110998000Y-131432040D01*
X113030000Y-131432040D01*
X113265317Y-131387762D01*
X113481441Y-131248690D01*
X113590000Y-131089809D01*
X113590000Y-138990000D01*
X92106913Y-138990000D01*
X92283880Y-138725151D01*
X92393113Y-138176000D01*
X92283880Y-137626849D01*
X91972811Y-137161302D01*
X91507264Y-136850233D01*
X90958113Y-136741000D01*
X90901887Y-136741000D01*
X90352736Y-136850233D01*
X89887189Y-137161302D01*
X89576120Y-137626849D01*
X89466887Y-138176000D01*
X89576120Y-138725151D01*
X89753087Y-138990000D01*
X85545747Y-138990000D01*
X85545824Y-138989923D01*
X85764750Y-138462691D01*
X85765248Y-137891813D01*
X85547243Y-137364200D01*
X85143923Y-136960176D01*
X84616691Y-136741250D01*
X84045813Y-136740752D01*
X83518200Y-136958757D01*
X83114176Y-137362077D01*
X82895250Y-137889309D01*
X82894752Y-138460187D01*
X83112757Y-138987800D01*
X83114953Y-138990000D01*
X76910000Y-138990000D01*
X76910000Y-136820815D01*
X77366630Y-136820815D01*
X77690980Y-137605800D01*
X78291041Y-138206909D01*
X79075459Y-138532628D01*
X79924815Y-138533370D01*
X80709800Y-138209020D01*
X81310909Y-137608959D01*
X81636628Y-136824541D01*
X81637111Y-136271000D01*
X95618560Y-136271000D01*
X95618560Y-138303000D01*
X95662838Y-138538317D01*
X95801910Y-138754441D01*
X96014110Y-138899431D01*
X96266000Y-138950440D01*
X98298000Y-138950440D01*
X98533317Y-138906162D01*
X98749441Y-138767090D01*
X98860840Y-138604052D01*
X98957182Y-138693385D01*
X99439056Y-138892975D01*
X99695000Y-138773836D01*
X99695000Y-137414000D01*
X99949000Y-137414000D01*
X99949000Y-138773836D01*
X100204944Y-138892975D01*
X100686818Y-138693385D01*
X101159188Y-138255379D01*
X101427983Y-137669946D01*
X101309367Y-137414000D01*
X99949000Y-137414000D01*
X99695000Y-137414000D01*
X99675000Y-137414000D01*
X99675000Y-137160000D01*
X99695000Y-137160000D01*
X99695000Y-135800164D01*
X99949000Y-135800164D01*
X99949000Y-137160000D01*
X101309367Y-137160000D01*
X101337329Y-137099663D01*
X104812931Y-137099663D01*
X104961493Y-137459212D01*
X105236341Y-137734540D01*
X105595630Y-137883730D01*
X105984663Y-137884069D01*
X106344212Y-137735507D01*
X106619540Y-137460659D01*
X106768730Y-137101370D01*
X106768974Y-136820815D01*
X108862630Y-136820815D01*
X109186980Y-137605800D01*
X109787041Y-138206909D01*
X110571459Y-138532628D01*
X111420815Y-138533370D01*
X112205800Y-138209020D01*
X112806909Y-137608959D01*
X113132628Y-136824541D01*
X113133370Y-135975185D01*
X112809020Y-135190200D01*
X112208959Y-134589091D01*
X111424541Y-134263372D01*
X110575185Y-134262630D01*
X109790200Y-134586980D01*
X109189091Y-135187041D01*
X108863372Y-135971459D01*
X108862630Y-136820815D01*
X106768974Y-136820815D01*
X106769069Y-136712337D01*
X106620507Y-136352788D01*
X106345659Y-136077460D01*
X105986370Y-135928270D01*
X105597337Y-135927931D01*
X105237788Y-136076493D01*
X104962460Y-136351341D01*
X104813270Y-136710630D01*
X104812931Y-137099663D01*
X101337329Y-137099663D01*
X101427983Y-136904054D01*
X101159188Y-136318621D01*
X100686818Y-135880615D01*
X100204944Y-135681025D01*
X99949000Y-135800164D01*
X99695000Y-135800164D01*
X99439056Y-135681025D01*
X98957182Y-135880615D01*
X98859602Y-135971097D01*
X98762090Y-135819559D01*
X98549890Y-135674569D01*
X98298000Y-135623560D01*
X96266000Y-135623560D01*
X96030683Y-135667838D01*
X95814559Y-135806910D01*
X95669569Y-136019110D01*
X95618560Y-136271000D01*
X81637111Y-136271000D01*
X81637370Y-135975185D01*
X81313020Y-135190200D01*
X80712959Y-134589091D01*
X79928541Y-134263372D01*
X79079185Y-134262630D01*
X78294200Y-134586980D01*
X77693091Y-135187041D01*
X77367372Y-135971459D01*
X77366630Y-136820815D01*
X76910000Y-136820815D01*
X76910000Y-134051663D01*
X85381931Y-134051663D01*
X85530493Y-134411212D01*
X85805341Y-134686540D01*
X86164630Y-134835730D01*
X86553663Y-134836069D01*
X86913212Y-134687507D01*
X87188540Y-134412659D01*
X87337730Y-134053370D01*
X87337952Y-133797663D01*
X106844931Y-133797663D01*
X106993493Y-134157212D01*
X107268341Y-134432540D01*
X107627630Y-134581730D01*
X108016663Y-134582069D01*
X108376212Y-134433507D01*
X108651540Y-134158659D01*
X108800730Y-133799370D01*
X108801069Y-133410337D01*
X108652507Y-133050788D01*
X108377659Y-132775460D01*
X108018370Y-132626270D01*
X107629337Y-132625931D01*
X107269788Y-132774493D01*
X106994460Y-133049341D01*
X106845270Y-133408630D01*
X106844931Y-133797663D01*
X87337952Y-133797663D01*
X87338069Y-133664337D01*
X87189507Y-133304788D01*
X86914659Y-133029460D01*
X86555370Y-132880270D01*
X86166337Y-132879931D01*
X85806788Y-133028493D01*
X85531460Y-133303341D01*
X85382270Y-133662630D01*
X85381931Y-134051663D01*
X76910000Y-134051663D01*
X76910000Y-123825000D01*
X77056655Y-123825000D01*
X77170729Y-124398489D01*
X77495585Y-124884670D01*
X77810366Y-125095000D01*
X77495585Y-125305330D01*
X77170729Y-125791511D01*
X77056655Y-126365000D01*
X77170729Y-126938489D01*
X77495585Y-127424670D01*
X77509913Y-127434243D01*
X77488683Y-127438238D01*
X77272559Y-127577310D01*
X77127569Y-127789510D01*
X77076560Y-128041400D01*
X77076560Y-129768600D01*
X77120838Y-130003917D01*
X77259910Y-130220041D01*
X77472110Y-130365031D01*
X77724000Y-130416040D01*
X79756000Y-130416040D01*
X79991317Y-130371762D01*
X80207441Y-130232690D01*
X80352431Y-130020490D01*
X80403440Y-129768600D01*
X80403440Y-128336663D01*
X81825931Y-128336663D01*
X81974493Y-128696212D01*
X82249341Y-128971540D01*
X82608630Y-129120730D01*
X82997663Y-129121069D01*
X83297781Y-128997063D01*
X88709331Y-128997063D01*
X88857893Y-129356612D01*
X89132741Y-129631940D01*
X89492030Y-129781130D01*
X89881063Y-129781469D01*
X90240612Y-129632907D01*
X90515940Y-129358059D01*
X90665130Y-128998770D01*
X90665153Y-128971663D01*
X105447931Y-128971663D01*
X105596493Y-129331212D01*
X105871341Y-129606540D01*
X106230630Y-129755730D01*
X106619663Y-129756069D01*
X106979212Y-129607507D01*
X107254540Y-129332659D01*
X107403730Y-128973370D01*
X107404069Y-128584337D01*
X107255507Y-128224788D01*
X106980659Y-127949460D01*
X106621370Y-127800270D01*
X106232337Y-127799931D01*
X105872788Y-127948493D01*
X105597460Y-128223341D01*
X105448270Y-128582630D01*
X105447931Y-128971663D01*
X90665153Y-128971663D01*
X90665469Y-128609737D01*
X90516907Y-128250188D01*
X90242059Y-127974860D01*
X89882770Y-127825670D01*
X89493737Y-127825331D01*
X89134188Y-127973893D01*
X88858860Y-128248741D01*
X88709670Y-128608030D01*
X88709331Y-128997063D01*
X83297781Y-128997063D01*
X83357212Y-128972507D01*
X83632540Y-128697659D01*
X83781730Y-128338370D01*
X83782069Y-127949337D01*
X83633507Y-127589788D01*
X83358659Y-127314460D01*
X82999370Y-127165270D01*
X82610337Y-127164931D01*
X82250788Y-127313493D01*
X81975460Y-127588341D01*
X81826270Y-127947630D01*
X81825931Y-128336663D01*
X80403440Y-128336663D01*
X80403440Y-128041400D01*
X80359162Y-127806083D01*
X80220090Y-127589959D01*
X80007890Y-127444969D01*
X79966561Y-127436600D01*
X79984415Y-127424670D01*
X80309271Y-126938489D01*
X80423345Y-126365000D01*
X80386082Y-126177663D01*
X90334931Y-126177663D01*
X90483493Y-126537212D01*
X90673861Y-126727912D01*
X90589270Y-126931630D01*
X90588931Y-127320663D01*
X90737493Y-127680212D01*
X91012341Y-127955540D01*
X91371630Y-128104730D01*
X91760663Y-128105069D01*
X92120212Y-127956507D01*
X92395540Y-127681659D01*
X92492703Y-127447663D01*
X94271931Y-127447663D01*
X94420493Y-127807212D01*
X94695341Y-128082540D01*
X95054630Y-128231730D01*
X95443663Y-128232069D01*
X95803212Y-128083507D01*
X96078540Y-127808659D01*
X96227730Y-127449370D01*
X96227952Y-127193663D01*
X99732931Y-127193663D01*
X99881493Y-127553212D01*
X100156341Y-127828540D01*
X100515630Y-127977730D01*
X100904663Y-127978069D01*
X101264212Y-127829507D01*
X101539540Y-127554659D01*
X101688730Y-127195370D01*
X101689069Y-126806337D01*
X101540507Y-126446788D01*
X101398630Y-126304663D01*
X102272931Y-126304663D01*
X102421493Y-126664212D01*
X102696341Y-126939540D01*
X103055630Y-127088730D01*
X103444663Y-127089069D01*
X103804212Y-126940507D01*
X104079540Y-126665659D01*
X104228730Y-126306370D01*
X104229069Y-125917337D01*
X104080507Y-125557788D01*
X103805659Y-125282460D01*
X103446370Y-125133270D01*
X103057337Y-125132931D01*
X102697788Y-125281493D01*
X102422460Y-125556341D01*
X102273270Y-125915630D01*
X102272931Y-126304663D01*
X101398630Y-126304663D01*
X101265659Y-126171460D01*
X100906370Y-126022270D01*
X100517337Y-126021931D01*
X100157788Y-126170493D01*
X99882460Y-126445341D01*
X99733270Y-126804630D01*
X99732931Y-127193663D01*
X96227952Y-127193663D01*
X96228069Y-127060337D01*
X96079507Y-126700788D01*
X95804659Y-126425460D01*
X95445370Y-126276270D01*
X95056337Y-126275931D01*
X94696788Y-126424493D01*
X94421460Y-126699341D01*
X94272270Y-127058630D01*
X94271931Y-127447663D01*
X92492703Y-127447663D01*
X92544730Y-127322370D01*
X92545069Y-126933337D01*
X92396507Y-126573788D01*
X92206139Y-126383088D01*
X92290730Y-126179370D01*
X92291069Y-125790337D01*
X92230713Y-125644263D01*
X95084731Y-125644263D01*
X95233293Y-126003812D01*
X95508141Y-126279140D01*
X95867430Y-126428330D01*
X96256463Y-126428669D01*
X96616012Y-126280107D01*
X96891340Y-126005259D01*
X97040530Y-125645970D01*
X97040869Y-125256937D01*
X96892307Y-124897388D01*
X96617459Y-124622060D01*
X96258170Y-124472870D01*
X95869137Y-124472531D01*
X95509588Y-124621093D01*
X95234260Y-124895941D01*
X95085070Y-125255230D01*
X95084731Y-125644263D01*
X92230713Y-125644263D01*
X92142507Y-125430788D01*
X91867659Y-125155460D01*
X91508370Y-125006270D01*
X91119337Y-125005931D01*
X90759788Y-125154493D01*
X90484460Y-125429341D01*
X90335270Y-125788630D01*
X90334931Y-126177663D01*
X80386082Y-126177663D01*
X80309271Y-125791511D01*
X79984415Y-125305330D01*
X79669634Y-125095000D01*
X79984415Y-124884670D01*
X80309271Y-124398489D01*
X80359561Y-124145663D01*
X82460931Y-124145663D01*
X82609493Y-124505212D01*
X82884341Y-124780540D01*
X83243630Y-124929730D01*
X83632663Y-124930069D01*
X83992212Y-124781507D01*
X84267540Y-124506659D01*
X84302717Y-124421945D01*
X84445463Y-124422069D01*
X84805012Y-124273507D01*
X85080340Y-123998659D01*
X85229530Y-123639370D01*
X85229642Y-123510663D01*
X95059331Y-123510663D01*
X95207893Y-123870212D01*
X95482741Y-124145540D01*
X95842030Y-124294730D01*
X96231063Y-124295069D01*
X96590612Y-124146507D01*
X96865940Y-123871659D01*
X97015130Y-123512370D01*
X97015469Y-123123337D01*
X96866907Y-122763788D01*
X96592059Y-122488460D01*
X96232770Y-122339270D01*
X95843737Y-122338931D01*
X95484188Y-122487493D01*
X95208860Y-122762341D01*
X95059670Y-123121630D01*
X95059331Y-123510663D01*
X85229642Y-123510663D01*
X85229869Y-123250337D01*
X85081307Y-122890788D01*
X84806459Y-122615460D01*
X84447170Y-122466270D01*
X84058137Y-122465931D01*
X83698588Y-122614493D01*
X83423260Y-122889341D01*
X83388083Y-122974055D01*
X83245337Y-122973931D01*
X82885788Y-123122493D01*
X82610460Y-123397341D01*
X82461270Y-123756630D01*
X82460931Y-124145663D01*
X80359561Y-124145663D01*
X80423345Y-123825000D01*
X80309271Y-123251511D01*
X79984415Y-122765330D01*
X79674931Y-122558539D01*
X80090732Y-122187036D01*
X80344709Y-121659791D01*
X80347358Y-121644026D01*
X80327329Y-121605663D01*
X85508931Y-121605663D01*
X85657493Y-121965212D01*
X85932341Y-122240540D01*
X86291630Y-122389730D01*
X86680663Y-122390069D01*
X86931673Y-122286354D01*
X87180630Y-122389730D01*
X87569663Y-122390069D01*
X87929212Y-122241507D01*
X88204540Y-121966659D01*
X88353730Y-121607370D01*
X88354069Y-121218337D01*
X88205507Y-120858788D01*
X87930659Y-120583460D01*
X87571370Y-120434270D01*
X87182337Y-120433931D01*
X86931327Y-120537646D01*
X86682370Y-120434270D01*
X86293337Y-120433931D01*
X85933788Y-120582493D01*
X85658460Y-120857341D01*
X85509270Y-121216630D01*
X85508931Y-121605663D01*
X80327329Y-121605663D01*
X80226217Y-121412000D01*
X78867000Y-121412000D01*
X78867000Y-121432000D01*
X78613000Y-121432000D01*
X78613000Y-121412000D01*
X77253783Y-121412000D01*
X77132642Y-121644026D01*
X77135291Y-121659791D01*
X77389268Y-122187036D01*
X77805069Y-122558539D01*
X77495585Y-122765330D01*
X77170729Y-123251511D01*
X77056655Y-123825000D01*
X76910000Y-123825000D01*
X76910000Y-120925974D01*
X77132642Y-120925974D01*
X77253783Y-121158000D01*
X78613000Y-121158000D01*
X78613000Y-119944076D01*
X78867000Y-119944076D01*
X78867000Y-121158000D01*
X80226217Y-121158000D01*
X80347358Y-120925974D01*
X80344709Y-120910209D01*
X80090732Y-120382964D01*
X79654320Y-119993046D01*
X79101913Y-119799816D01*
X78867000Y-119944076D01*
X78613000Y-119944076D01*
X78378087Y-119799816D01*
X77825680Y-119993046D01*
X77389268Y-120382964D01*
X77135291Y-120910209D01*
X77132642Y-120925974D01*
X76910000Y-120925974D01*
X76910000Y-97155000D01*
X77056655Y-97155000D01*
X77170729Y-97728489D01*
X77495585Y-98214670D01*
X77810366Y-98425000D01*
X77495585Y-98635330D01*
X77170729Y-99121511D01*
X77056655Y-99695000D01*
X77170729Y-100268489D01*
X77495585Y-100754670D01*
X77810366Y-100965000D01*
X77495585Y-101175330D01*
X77170729Y-101661511D01*
X77056655Y-102235000D01*
X77170729Y-102808489D01*
X77495585Y-103294670D01*
X77810366Y-103505000D01*
X77495585Y-103715330D01*
X77170729Y-104201511D01*
X77056655Y-104775000D01*
X77170729Y-105348489D01*
X77495585Y-105834670D01*
X77810366Y-106045000D01*
X77495585Y-106255330D01*
X77170729Y-106741511D01*
X77056655Y-107315000D01*
X77170729Y-107888489D01*
X77495585Y-108374670D01*
X77810366Y-108585000D01*
X77495585Y-108795330D01*
X77170729Y-109281511D01*
X77056655Y-109855000D01*
X77170729Y-110428489D01*
X77495585Y-110914670D01*
X77810366Y-111125000D01*
X77495585Y-111335330D01*
X77170729Y-111821511D01*
X77056655Y-112395000D01*
X77170729Y-112968489D01*
X77495585Y-113454670D01*
X77810366Y-113665000D01*
X77495585Y-113875330D01*
X77170729Y-114361511D01*
X77056655Y-114935000D01*
X77170729Y-115508489D01*
X77495585Y-115994670D01*
X77810366Y-116205000D01*
X77495585Y-116415330D01*
X77170729Y-116901511D01*
X77056655Y-117475000D01*
X77170729Y-118048489D01*
X77495585Y-118534670D01*
X77981766Y-118859526D01*
X78555255Y-118973600D01*
X78924745Y-118973600D01*
X79498234Y-118859526D01*
X79984415Y-118534670D01*
X80309271Y-118048489D01*
X80423345Y-117475000D01*
X80386082Y-117287663D01*
X93382931Y-117287663D01*
X93531493Y-117647212D01*
X93806341Y-117922540D01*
X94165630Y-118071730D01*
X94554663Y-118072069D01*
X94914212Y-117923507D01*
X95189540Y-117648659D01*
X95338730Y-117289370D01*
X95339069Y-116900337D01*
X95190507Y-116540788D01*
X94915659Y-116265460D01*
X94556370Y-116116270D01*
X94167337Y-116115931D01*
X93807788Y-116264493D01*
X93532460Y-116539341D01*
X93383270Y-116898630D01*
X93382931Y-117287663D01*
X80386082Y-117287663D01*
X80309271Y-116901511D01*
X79984415Y-116415330D01*
X79669634Y-116205000D01*
X79984415Y-115994670D01*
X80309271Y-115508489D01*
X80423345Y-114935000D01*
X80309271Y-114361511D01*
X79984415Y-113875330D01*
X79669634Y-113665000D01*
X79984415Y-113454670D01*
X80309271Y-112968489D01*
X80423345Y-112395000D01*
X80309271Y-111821511D01*
X80058138Y-111445663D01*
X94881531Y-111445663D01*
X95030093Y-111805212D01*
X95304941Y-112080540D01*
X95664230Y-112229730D01*
X96053263Y-112230069D01*
X96412812Y-112081507D01*
X96688140Y-111806659D01*
X96837330Y-111447370D01*
X96837669Y-111058337D01*
X96689107Y-110698788D01*
X96414259Y-110423460D01*
X96054970Y-110274270D01*
X95665937Y-110273931D01*
X95306388Y-110422493D01*
X95031060Y-110697341D01*
X94881870Y-111056630D01*
X94881531Y-111445663D01*
X80058138Y-111445663D01*
X79984415Y-111335330D01*
X79669634Y-111125000D01*
X79984415Y-110914670D01*
X80309271Y-110428489D01*
X80423345Y-109855000D01*
X80309271Y-109281511D01*
X79984415Y-108795330D01*
X79669634Y-108585000D01*
X79984415Y-108374670D01*
X80309271Y-107888489D01*
X80423345Y-107315000D01*
X80309271Y-106741511D01*
X80041562Y-106340856D01*
X83488381Y-106340856D01*
X83535905Y-106593427D01*
X83677950Y-106807609D01*
X85114791Y-108244450D01*
X85312494Y-108379535D01*
X85563656Y-108434019D01*
X85816227Y-108386495D01*
X86030409Y-108244450D01*
X86562996Y-107711863D01*
X92722531Y-107711863D01*
X92871093Y-108071412D01*
X93145941Y-108346740D01*
X93505230Y-108495930D01*
X93894263Y-108496269D01*
X94253812Y-108347707D01*
X94529140Y-108072859D01*
X94678330Y-107713570D01*
X94678669Y-107324537D01*
X94530107Y-106964988D01*
X94464297Y-106899063D01*
X96913531Y-106899063D01*
X97062093Y-107258612D01*
X97336941Y-107533940D01*
X97696230Y-107683130D01*
X98085263Y-107683469D01*
X98323908Y-107584863D01*
X100723531Y-107584863D01*
X100872093Y-107944412D01*
X101146941Y-108219740D01*
X101506230Y-108368930D01*
X101895263Y-108369269D01*
X102254812Y-108220707D01*
X102513292Y-107962677D01*
X102733463Y-107962869D01*
X103093012Y-107814307D01*
X103368340Y-107539459D01*
X103517530Y-107180170D01*
X103517869Y-106791137D01*
X103369307Y-106431588D01*
X103094459Y-106156260D01*
X102735170Y-106007070D01*
X102346137Y-106006731D01*
X101986588Y-106155293D01*
X101728108Y-106413323D01*
X101507937Y-106413131D01*
X101148388Y-106561693D01*
X100873060Y-106836541D01*
X100723870Y-107195830D01*
X100723531Y-107584863D01*
X98323908Y-107584863D01*
X98444812Y-107534907D01*
X98720140Y-107260059D01*
X98869330Y-106900770D01*
X98869669Y-106511737D01*
X98721107Y-106152188D01*
X98446259Y-105876860D01*
X98086970Y-105727670D01*
X97697937Y-105727331D01*
X97338388Y-105875893D01*
X97063060Y-106150741D01*
X96913870Y-106510030D01*
X96913531Y-106899063D01*
X94464297Y-106899063D01*
X94255259Y-106689660D01*
X93895970Y-106540470D01*
X93506937Y-106540131D01*
X93147388Y-106688693D01*
X92872060Y-106963541D01*
X92722870Y-107322830D01*
X92722531Y-107711863D01*
X86562996Y-107711863D01*
X87467250Y-106807609D01*
X87602335Y-106609906D01*
X87656819Y-106358744D01*
X87620305Y-106164688D01*
X87751597Y-106159732D01*
X88233465Y-105960127D01*
X88330200Y-105694903D01*
X87368651Y-104733354D01*
X87354509Y-104747497D01*
X87174904Y-104567892D01*
X87189046Y-104553749D01*
X87548256Y-104553749D01*
X88509805Y-105515298D01*
X88775029Y-105418563D01*
X88974634Y-104936695D01*
X88992602Y-104460663D01*
X95135531Y-104460663D01*
X95284093Y-104820212D01*
X95558941Y-105095540D01*
X95918230Y-105244730D01*
X96307263Y-105245069D01*
X96666812Y-105096507D01*
X96942140Y-104821659D01*
X97091330Y-104462370D01*
X97091669Y-104073337D01*
X96943107Y-103713788D01*
X96801230Y-103571663D01*
X99047131Y-103571663D01*
X99158254Y-103840603D01*
X99072870Y-104046230D01*
X99072531Y-104435263D01*
X99221093Y-104794812D01*
X99495941Y-105070140D01*
X99855230Y-105219330D01*
X100244263Y-105219669D01*
X100603812Y-105071107D01*
X100879140Y-104796259D01*
X101028330Y-104436970D01*
X101028669Y-104047937D01*
X100917546Y-103778997D01*
X101002930Y-103573370D01*
X101003269Y-103184337D01*
X100984893Y-103139863D01*
X103009531Y-103139863D01*
X103158093Y-103499412D01*
X103432941Y-103774740D01*
X103792230Y-103923930D01*
X104181263Y-103924269D01*
X104540812Y-103775707D01*
X104816140Y-103500859D01*
X104965330Y-103141570D01*
X104965669Y-102752537D01*
X104817107Y-102392988D01*
X104542259Y-102117660D01*
X104182970Y-101968470D01*
X103793937Y-101968131D01*
X103434388Y-102116693D01*
X103159060Y-102391541D01*
X103009870Y-102750830D01*
X103009531Y-103139863D01*
X100984893Y-103139863D01*
X100854707Y-102824788D01*
X100579859Y-102549460D01*
X100220570Y-102400270D01*
X99831537Y-102399931D01*
X99471988Y-102548493D01*
X99196660Y-102823341D01*
X99047470Y-103182630D01*
X99047131Y-103571663D01*
X96801230Y-103571663D01*
X96668259Y-103438460D01*
X96308970Y-103289270D01*
X95919937Y-103288931D01*
X95560388Y-103437493D01*
X95285060Y-103712341D01*
X95135870Y-104071630D01*
X95135531Y-104460663D01*
X88992602Y-104460663D01*
X88998933Y-104292962D01*
X88775036Y-103688931D01*
X88510181Y-103591824D01*
X87548256Y-104553749D01*
X87189046Y-104553749D01*
X86227497Y-103592200D01*
X85962273Y-103688935D01*
X85762668Y-104170803D01*
X85757648Y-104303783D01*
X85581544Y-104265581D01*
X85328973Y-104313105D01*
X85114791Y-104455150D01*
X83677950Y-105891991D01*
X83542865Y-106089694D01*
X83488381Y-106340856D01*
X80041562Y-106340856D01*
X79984415Y-106255330D01*
X79669634Y-106045000D01*
X79984415Y-105834670D01*
X80309271Y-105348489D01*
X80423345Y-104775000D01*
X80309271Y-104201511D01*
X79984415Y-103715330D01*
X79669634Y-103505000D01*
X79807927Y-103412595D01*
X86407102Y-103412595D01*
X87368651Y-104374144D01*
X88330576Y-103412219D01*
X88233469Y-103147364D01*
X87629438Y-102923467D01*
X86985705Y-102947766D01*
X86503837Y-103147371D01*
X86407102Y-103412595D01*
X79807927Y-103412595D01*
X79984415Y-103294670D01*
X80309271Y-102808489D01*
X80346128Y-102623195D01*
X90127750Y-102623195D01*
X90276312Y-102982744D01*
X90551160Y-103258072D01*
X90888639Y-103398206D01*
X90888594Y-103449770D01*
X91037156Y-103809319D01*
X91312004Y-104084647D01*
X91671293Y-104233837D01*
X92060326Y-104234176D01*
X92419875Y-104085614D01*
X92695203Y-103810766D01*
X92844393Y-103451477D01*
X92844732Y-103062444D01*
X92818820Y-102999732D01*
X92834388Y-102984191D01*
X92906858Y-102809663D01*
X93408331Y-102809663D01*
X93556893Y-103169212D01*
X93831741Y-103444540D01*
X94191030Y-103593730D01*
X94580063Y-103594069D01*
X94939612Y-103445507D01*
X95214940Y-103170659D01*
X95364130Y-102811370D01*
X95364469Y-102422337D01*
X95215907Y-102062788D01*
X94941059Y-101787460D01*
X94581770Y-101638270D01*
X94192737Y-101637931D01*
X93833188Y-101786493D01*
X93557860Y-102061341D01*
X93408670Y-102420630D01*
X93408331Y-102809663D01*
X92906858Y-102809663D01*
X92983578Y-102624902D01*
X92983917Y-102235869D01*
X92835355Y-101876320D01*
X92560507Y-101600992D01*
X92201218Y-101451802D01*
X91812185Y-101451463D01*
X91555646Y-101557462D01*
X91301189Y-101451802D01*
X90912156Y-101451463D01*
X90552607Y-101600025D01*
X90277279Y-101874873D01*
X90128089Y-102234162D01*
X90127750Y-102623195D01*
X80346128Y-102623195D01*
X80423345Y-102235000D01*
X80309271Y-101661511D01*
X79984415Y-101175330D01*
X79669634Y-100965000D01*
X79984415Y-100754670D01*
X80070882Y-100625263D01*
X95313331Y-100625263D01*
X95461893Y-100984812D01*
X95695729Y-101219056D01*
X95589860Y-101324741D01*
X95440670Y-101684030D01*
X95440331Y-102073063D01*
X95588893Y-102432612D01*
X95863741Y-102707940D01*
X96223030Y-102857130D01*
X96612063Y-102857469D01*
X96971612Y-102708907D01*
X97246940Y-102434059D01*
X97364499Y-102150947D01*
X97565541Y-102352340D01*
X97924830Y-102501530D01*
X98313863Y-102501869D01*
X98673412Y-102353307D01*
X98948740Y-102078459D01*
X99097930Y-101719170D01*
X99098269Y-101330137D01*
X98949707Y-100970588D01*
X98674859Y-100695260D01*
X98315570Y-100546070D01*
X97926537Y-100545731D01*
X97566988Y-100694293D01*
X97291660Y-100969141D01*
X97174101Y-101252253D01*
X97014071Y-101091944D01*
X97119940Y-100986259D01*
X97269130Y-100626970D01*
X97269469Y-100237937D01*
X97120907Y-99878388D01*
X96846059Y-99603060D01*
X96486770Y-99453870D01*
X96097737Y-99453531D01*
X95738188Y-99602093D01*
X95462860Y-99876941D01*
X95313670Y-100236230D01*
X95313331Y-100625263D01*
X80070882Y-100625263D01*
X80309271Y-100268489D01*
X80423345Y-99695000D01*
X80340611Y-99279063D01*
X96888131Y-99279063D01*
X97036693Y-99638612D01*
X97311541Y-99913940D01*
X97670830Y-100063130D01*
X98059863Y-100063469D01*
X98419412Y-99914907D01*
X98694740Y-99640059D01*
X98843930Y-99280770D01*
X98844269Y-98891737D01*
X98695707Y-98532188D01*
X98420859Y-98256860D01*
X98061570Y-98107670D01*
X97672537Y-98107331D01*
X97312988Y-98255893D01*
X97037660Y-98530741D01*
X96888470Y-98890030D01*
X96888131Y-99279063D01*
X80340611Y-99279063D01*
X80309271Y-99121511D01*
X79984415Y-98635330D01*
X79669634Y-98425000D01*
X79984415Y-98214670D01*
X80255339Y-97809203D01*
X84772185Y-97809203D01*
X84982681Y-98318642D01*
X85372108Y-98708749D01*
X85881179Y-98920134D01*
X86432393Y-98920615D01*
X86941832Y-98710119D01*
X87237002Y-98415463D01*
X88302931Y-98415463D01*
X88451493Y-98775012D01*
X88726341Y-99050340D01*
X89085630Y-99199530D01*
X89474663Y-99199869D01*
X89834212Y-99051307D01*
X90109540Y-98776459D01*
X90258730Y-98417170D01*
X90258908Y-98212263D01*
X92951131Y-98212263D01*
X93099693Y-98571812D01*
X93374541Y-98847140D01*
X93733830Y-98996330D01*
X94122863Y-98996669D01*
X94482412Y-98848107D01*
X94757740Y-98573259D01*
X94906930Y-98213970D01*
X94907269Y-97824937D01*
X94758707Y-97465388D01*
X94490052Y-97196263D01*
X96684931Y-97196263D01*
X96833493Y-97555812D01*
X97108341Y-97831140D01*
X97467630Y-97980330D01*
X97856663Y-97980669D01*
X98216212Y-97832107D01*
X98491540Y-97557259D01*
X98524185Y-97478640D01*
X101561991Y-97478640D01*
X101710553Y-97838189D01*
X101985401Y-98113517D01*
X102344690Y-98262707D01*
X102733723Y-98263046D01*
X103093272Y-98114484D01*
X103368600Y-97839636D01*
X103517790Y-97480347D01*
X103518129Y-97091314D01*
X103369567Y-96731765D01*
X103183527Y-96545400D01*
X106063455Y-96545400D01*
X106177529Y-97118889D01*
X106502385Y-97605070D01*
X106817166Y-97815400D01*
X106502385Y-98025730D01*
X106177529Y-98511911D01*
X106063455Y-99085400D01*
X106177529Y-99658889D01*
X106502385Y-100145070D01*
X106817166Y-100355400D01*
X106502385Y-100565730D01*
X106177529Y-101051911D01*
X106063455Y-101625400D01*
X106177529Y-102198889D01*
X106502385Y-102685070D01*
X106516713Y-102694643D01*
X106495483Y-102698638D01*
X106279359Y-102837710D01*
X106134369Y-103049910D01*
X106083360Y-103301800D01*
X106083360Y-105029000D01*
X106127638Y-105264317D01*
X106266710Y-105480441D01*
X106478910Y-105625431D01*
X106730800Y-105676440D01*
X108762800Y-105676440D01*
X108998117Y-105632162D01*
X109214241Y-105493090D01*
X109359231Y-105280890D01*
X109410240Y-105029000D01*
X109410240Y-103301800D01*
X109365962Y-103066483D01*
X109226890Y-102850359D01*
X109014690Y-102705369D01*
X108973361Y-102697000D01*
X108991215Y-102685070D01*
X109316071Y-102198889D01*
X109430145Y-101625400D01*
X109316071Y-101051911D01*
X108991215Y-100565730D01*
X108676434Y-100355400D01*
X108991215Y-100145070D01*
X109316071Y-99658889D01*
X109430145Y-99085400D01*
X109316071Y-98511911D01*
X108991215Y-98025730D01*
X108676434Y-97815400D01*
X108991215Y-97605070D01*
X109316071Y-97118889D01*
X109430145Y-96545400D01*
X109316071Y-95971911D01*
X108991215Y-95485730D01*
X108505034Y-95160874D01*
X107931545Y-95046800D01*
X107562055Y-95046800D01*
X106988566Y-95160874D01*
X106502385Y-95485730D01*
X106177529Y-95971911D01*
X106063455Y-96545400D01*
X103183527Y-96545400D01*
X103094719Y-96456437D01*
X102735430Y-96307247D01*
X102346397Y-96306908D01*
X101986848Y-96455470D01*
X101711520Y-96730318D01*
X101562330Y-97089607D01*
X101561991Y-97478640D01*
X98524185Y-97478640D01*
X98640730Y-97197970D01*
X98641069Y-96808937D01*
X98492507Y-96449388D01*
X98217659Y-96174060D01*
X97858370Y-96024870D01*
X97469337Y-96024531D01*
X97109788Y-96173093D01*
X96834460Y-96447941D01*
X96685270Y-96807230D01*
X96684931Y-97196263D01*
X94490052Y-97196263D01*
X94483859Y-97190060D01*
X94124570Y-97040870D01*
X93735537Y-97040531D01*
X93375988Y-97189093D01*
X93100660Y-97463941D01*
X92951470Y-97823230D01*
X92951131Y-98212263D01*
X90258908Y-98212263D01*
X90259069Y-98028137D01*
X90110507Y-97668588D01*
X89835659Y-97393260D01*
X89476370Y-97244070D01*
X89087337Y-97243731D01*
X88727788Y-97392293D01*
X88452460Y-97667141D01*
X88303270Y-98026430D01*
X88302931Y-98415463D01*
X87237002Y-98415463D01*
X87331939Y-98320692D01*
X87543324Y-97811621D01*
X87543805Y-97260407D01*
X87333309Y-96750968D01*
X86943882Y-96360861D01*
X86434811Y-96149476D01*
X85883597Y-96148995D01*
X85374158Y-96359491D01*
X84984051Y-96748918D01*
X84772666Y-97257989D01*
X84772185Y-97809203D01*
X80255339Y-97809203D01*
X80309271Y-97728489D01*
X80423345Y-97155000D01*
X80309271Y-96581511D01*
X79984415Y-96095330D01*
X79970087Y-96085757D01*
X79991317Y-96081762D01*
X80207441Y-95942690D01*
X80352431Y-95730490D01*
X80403440Y-95478600D01*
X80403440Y-94357193D01*
X88224195Y-94357193D01*
X88434691Y-94866632D01*
X88824118Y-95256739D01*
X89333189Y-95468124D01*
X89884403Y-95468605D01*
X90393842Y-95258109D01*
X90783949Y-94868682D01*
X90995334Y-94359611D01*
X90995341Y-94351463D01*
X96430931Y-94351463D01*
X96579493Y-94711012D01*
X96854341Y-94986340D01*
X97213630Y-95135530D01*
X97602663Y-95135869D01*
X97962212Y-94987307D01*
X98237540Y-94712459D01*
X98386730Y-94353170D01*
X98387069Y-93964137D01*
X98238507Y-93604588D01*
X97963659Y-93329260D01*
X97604370Y-93180070D01*
X97215337Y-93179731D01*
X96855788Y-93328293D01*
X96580460Y-93603141D01*
X96431270Y-93962430D01*
X96430931Y-94351463D01*
X90995341Y-94351463D01*
X90995815Y-93808397D01*
X90785319Y-93298958D01*
X90395892Y-92908851D01*
X89886821Y-92697466D01*
X89335607Y-92696985D01*
X88826168Y-92907481D01*
X88436061Y-93296908D01*
X88224676Y-93805979D01*
X88224195Y-94357193D01*
X80403440Y-94357193D01*
X80403440Y-93751400D01*
X80359162Y-93516083D01*
X80220090Y-93299959D01*
X80007890Y-93154969D01*
X79756000Y-93103960D01*
X77724000Y-93103960D01*
X77488683Y-93148238D01*
X77272559Y-93287310D01*
X77127569Y-93499510D01*
X77076560Y-93751400D01*
X77076560Y-95478600D01*
X77120838Y-95713917D01*
X77259910Y-95930041D01*
X77472110Y-96075031D01*
X77513439Y-96083400D01*
X77495585Y-96095330D01*
X77170729Y-96581511D01*
X77056655Y-97155000D01*
X76910000Y-97155000D01*
X76910000Y-84779285D01*
X78497760Y-84779285D01*
X78708169Y-85288515D01*
X78924313Y-85505036D01*
X78709539Y-85719436D01*
X78498241Y-86228298D01*
X78497760Y-86779285D01*
X78708169Y-87288515D01*
X78924313Y-87505036D01*
X78709539Y-87719436D01*
X78498241Y-88228298D01*
X78497760Y-88779285D01*
X78708169Y-89288515D01*
X78924313Y-89505036D01*
X78709539Y-89719436D01*
X78498241Y-90228298D01*
X78497760Y-90779285D01*
X78708169Y-91288515D01*
X79097436Y-91678461D01*
X79606298Y-91889759D01*
X80157285Y-91890240D01*
X80666515Y-91679831D01*
X80874190Y-91472517D01*
X110587088Y-91472517D01*
X110655077Y-91713460D01*
X111174171Y-91898201D01*
X111724448Y-91870230D01*
X112102923Y-91713460D01*
X112170912Y-91472517D01*
X111379000Y-90680605D01*
X110587088Y-91472517D01*
X80874190Y-91472517D01*
X81056461Y-91290564D01*
X81267759Y-90781702D01*
X81268240Y-90230715D01*
X81057831Y-89721485D01*
X80841687Y-89504964D01*
X81056461Y-89290564D01*
X81264785Y-88788863D01*
X86753531Y-88788863D01*
X86902093Y-89148412D01*
X87176941Y-89423740D01*
X87536230Y-89572930D01*
X87925263Y-89573269D01*
X88284812Y-89424707D01*
X88560140Y-89149859D01*
X88709330Y-88790570D01*
X88709508Y-88585663D01*
X92874931Y-88585663D01*
X93004948Y-88900330D01*
X92875270Y-89212630D01*
X92874931Y-89601663D01*
X93023493Y-89961212D01*
X93298341Y-90236540D01*
X93657630Y-90385730D01*
X94046663Y-90386069D01*
X94264233Y-90296171D01*
X109981799Y-90296171D01*
X110009770Y-90846448D01*
X110166540Y-91224923D01*
X110407483Y-91292912D01*
X111199395Y-90501000D01*
X111558605Y-90501000D01*
X112350517Y-91292912D01*
X112591460Y-91224923D01*
X112776201Y-90705829D01*
X112748230Y-90155552D01*
X112591460Y-89777077D01*
X112350517Y-89709088D01*
X111558605Y-90501000D01*
X111199395Y-90501000D01*
X110407483Y-89709088D01*
X110166540Y-89777077D01*
X109981799Y-90296171D01*
X94264233Y-90296171D01*
X94406212Y-90237507D01*
X94681540Y-89962659D01*
X94830730Y-89603370D01*
X94831069Y-89214337D01*
X94701052Y-88899670D01*
X94830730Y-88587370D01*
X94831069Y-88198337D01*
X94682507Y-87838788D01*
X94407659Y-87563460D01*
X94048370Y-87414270D01*
X93659337Y-87413931D01*
X93299788Y-87562493D01*
X93024460Y-87837341D01*
X92875270Y-88196630D01*
X92874931Y-88585663D01*
X88709508Y-88585663D01*
X88709669Y-88401537D01*
X88561107Y-88041988D01*
X88286259Y-87766660D01*
X87926970Y-87617470D01*
X87537937Y-87617131D01*
X87178388Y-87765693D01*
X86903060Y-88040541D01*
X86753870Y-88399830D01*
X86753531Y-88788863D01*
X81264785Y-88788863D01*
X81267759Y-88781702D01*
X81268240Y-88230715D01*
X81057831Y-87721485D01*
X80841687Y-87504964D01*
X81056461Y-87290564D01*
X81267759Y-86781702D01*
X81268240Y-86230715D01*
X81057831Y-85721485D01*
X80841687Y-85504964D01*
X81056461Y-85290564D01*
X81217531Y-84902663D01*
X83349931Y-84902663D01*
X83498493Y-85262212D01*
X83773341Y-85537540D01*
X84132630Y-85686730D01*
X84521663Y-85687069D01*
X84881212Y-85538507D01*
X85156540Y-85263659D01*
X85305730Y-84904370D01*
X85305842Y-84775285D01*
X109993760Y-84775285D01*
X110204169Y-85284515D01*
X110420313Y-85501036D01*
X110205539Y-85715436D01*
X109994241Y-86224298D01*
X109993760Y-86775285D01*
X110204169Y-87284515D01*
X110420313Y-87501036D01*
X110205539Y-87715436D01*
X109994241Y-88224298D01*
X109993760Y-88775285D01*
X110204169Y-89284515D01*
X110593436Y-89674461D01*
X110830506Y-89772901D01*
X111379000Y-90321395D01*
X111927428Y-89772967D01*
X112162515Y-89675831D01*
X112552461Y-89286564D01*
X112763759Y-88777702D01*
X112764240Y-88226715D01*
X112553831Y-87717485D01*
X112337687Y-87500964D01*
X112552461Y-87286564D01*
X112763759Y-86777702D01*
X112764240Y-86226715D01*
X112553831Y-85717485D01*
X112337687Y-85500964D01*
X112552461Y-85286564D01*
X112763759Y-84777702D01*
X112764240Y-84226715D01*
X112553831Y-83717485D01*
X112164564Y-83327539D01*
X111655702Y-83116241D01*
X111104715Y-83115760D01*
X110595485Y-83326169D01*
X110205539Y-83715436D01*
X109994241Y-84224298D01*
X109993760Y-84775285D01*
X85305842Y-84775285D01*
X85306069Y-84515337D01*
X85157507Y-84155788D01*
X84882659Y-83880460D01*
X84523370Y-83731270D01*
X84134337Y-83730931D01*
X83774788Y-83879493D01*
X83499460Y-84154341D01*
X83350270Y-84513630D01*
X83349931Y-84902663D01*
X81217531Y-84902663D01*
X81267759Y-84781702D01*
X81268240Y-84230715D01*
X81057831Y-83721485D01*
X80969164Y-83632663D01*
X92493931Y-83632663D01*
X92642493Y-83992212D01*
X92917341Y-84267540D01*
X93276630Y-84416730D01*
X93665663Y-84417069D01*
X94025212Y-84268507D01*
X94300540Y-83993659D01*
X94449730Y-83634370D01*
X94450069Y-83245337D01*
X94301507Y-82885788D01*
X94026659Y-82610460D01*
X93667370Y-82461270D01*
X93278337Y-82460931D01*
X92918788Y-82609493D01*
X92643460Y-82884341D01*
X92494270Y-83243630D01*
X92493931Y-83632663D01*
X80969164Y-83632663D01*
X80668564Y-83331539D01*
X80159702Y-83120241D01*
X79608715Y-83119760D01*
X79099485Y-83330169D01*
X78709539Y-83719436D01*
X78498241Y-84228298D01*
X78497760Y-84779285D01*
X76910000Y-84779285D01*
X76910000Y-79924815D01*
X77366630Y-79924815D01*
X77690980Y-80709800D01*
X78291041Y-81310909D01*
X79075459Y-81636628D01*
X79924815Y-81637370D01*
X80709800Y-81313020D01*
X81310909Y-80712959D01*
X81636628Y-79928541D01*
X81637370Y-79079185D01*
X81313020Y-78294200D01*
X80743815Y-77724000D01*
X82816960Y-77724000D01*
X82816960Y-79756000D01*
X82861238Y-79991317D01*
X83000310Y-80207441D01*
X83212510Y-80352431D01*
X83464400Y-80403440D01*
X85191600Y-80403440D01*
X85426917Y-80359162D01*
X85643041Y-80220090D01*
X85788031Y-80007890D01*
X85796400Y-79966561D01*
X85808330Y-79984415D01*
X86294511Y-80309271D01*
X86868000Y-80423345D01*
X87441489Y-80309271D01*
X87927670Y-79984415D01*
X88134461Y-79674931D01*
X88505964Y-80090732D01*
X89033209Y-80344709D01*
X89048974Y-80347358D01*
X89281000Y-80226217D01*
X89281000Y-78867000D01*
X89261000Y-78867000D01*
X89261000Y-78613000D01*
X89281000Y-78613000D01*
X89281000Y-77253783D01*
X89535000Y-77253783D01*
X89535000Y-78613000D01*
X89555000Y-78613000D01*
X89555000Y-78867000D01*
X89535000Y-78867000D01*
X89535000Y-80226217D01*
X89767026Y-80347358D01*
X89782791Y-80344709D01*
X90310036Y-80090732D01*
X90681539Y-79674931D01*
X90888330Y-79984415D01*
X91374511Y-80309271D01*
X91948000Y-80423345D01*
X92521489Y-80309271D01*
X93007670Y-79984415D01*
X93218000Y-79669634D01*
X93428330Y-79984415D01*
X93914511Y-80309271D01*
X94488000Y-80423345D01*
X95061489Y-80309271D01*
X95547670Y-79984415D01*
X95758000Y-79669634D01*
X95968330Y-79984415D01*
X96454511Y-80309271D01*
X97028000Y-80423345D01*
X97601489Y-80309271D01*
X98087670Y-79984415D01*
X98412526Y-79498234D01*
X98526600Y-78924745D01*
X98526600Y-78555255D01*
X98412526Y-77981766D01*
X98240293Y-77724000D01*
X99453960Y-77724000D01*
X99453960Y-79756000D01*
X99498238Y-79991317D01*
X99637310Y-80207441D01*
X99849510Y-80352431D01*
X100101400Y-80403440D01*
X101828600Y-80403440D01*
X102063917Y-80359162D01*
X102280041Y-80220090D01*
X102425031Y-80007890D01*
X102433400Y-79966561D01*
X102445330Y-79984415D01*
X102931511Y-80309271D01*
X103505000Y-80423345D01*
X104078489Y-80309271D01*
X104564670Y-79984415D01*
X104771461Y-79674931D01*
X105142964Y-80090732D01*
X105670209Y-80344709D01*
X105685974Y-80347358D01*
X105918000Y-80226217D01*
X105918000Y-78867000D01*
X106172000Y-78867000D01*
X106172000Y-80226217D01*
X106404026Y-80347358D01*
X106419791Y-80344709D01*
X106947036Y-80090732D01*
X107095276Y-79924815D01*
X108862630Y-79924815D01*
X109186980Y-80709800D01*
X109787041Y-81310909D01*
X110571459Y-81636628D01*
X111420815Y-81637370D01*
X112205800Y-81313020D01*
X112806909Y-80712959D01*
X113132628Y-79928541D01*
X113133370Y-79079185D01*
X112809020Y-78294200D01*
X112208959Y-77693091D01*
X111424541Y-77367372D01*
X110575185Y-77366630D01*
X109790200Y-77690980D01*
X109189091Y-78291041D01*
X108863372Y-79075459D01*
X108862630Y-79924815D01*
X107095276Y-79924815D01*
X107336954Y-79654320D01*
X107530184Y-79101913D01*
X107385924Y-78867000D01*
X106172000Y-78867000D01*
X105918000Y-78867000D01*
X105898000Y-78867000D01*
X105898000Y-78613000D01*
X105918000Y-78613000D01*
X105918000Y-77253783D01*
X106172000Y-77253783D01*
X106172000Y-78613000D01*
X107385924Y-78613000D01*
X107530184Y-78378087D01*
X107336954Y-77825680D01*
X106947036Y-77389268D01*
X106419791Y-77135291D01*
X106404026Y-77132642D01*
X106172000Y-77253783D01*
X105918000Y-77253783D01*
X105685974Y-77132642D01*
X105670209Y-77135291D01*
X105142964Y-77389268D01*
X104771461Y-77805069D01*
X104564670Y-77495585D01*
X104078489Y-77170729D01*
X103505000Y-77056655D01*
X102931511Y-77170729D01*
X102445330Y-77495585D01*
X102435757Y-77509913D01*
X102431762Y-77488683D01*
X102292690Y-77272559D01*
X102080490Y-77127569D01*
X101828600Y-77076560D01*
X100101400Y-77076560D01*
X99866083Y-77120838D01*
X99649959Y-77259910D01*
X99504969Y-77472110D01*
X99453960Y-77724000D01*
X98240293Y-77724000D01*
X98087670Y-77495585D01*
X97601489Y-77170729D01*
X97028000Y-77056655D01*
X96454511Y-77170729D01*
X95968330Y-77495585D01*
X95758000Y-77810366D01*
X95547670Y-77495585D01*
X95061489Y-77170729D01*
X94488000Y-77056655D01*
X93914511Y-77170729D01*
X93428330Y-77495585D01*
X93218000Y-77810366D01*
X93007670Y-77495585D01*
X92521489Y-77170729D01*
X91948000Y-77056655D01*
X91374511Y-77170729D01*
X90888330Y-77495585D01*
X90681539Y-77805069D01*
X90310036Y-77389268D01*
X89782791Y-77135291D01*
X89767026Y-77132642D01*
X89535000Y-77253783D01*
X89281000Y-77253783D01*
X89048974Y-77132642D01*
X89033209Y-77135291D01*
X88505964Y-77389268D01*
X88134461Y-77805069D01*
X87927670Y-77495585D01*
X87441489Y-77170729D01*
X86868000Y-77056655D01*
X86294511Y-77170729D01*
X85808330Y-77495585D01*
X85798757Y-77509913D01*
X85794762Y-77488683D01*
X85655690Y-77272559D01*
X85443490Y-77127569D01*
X85191600Y-77076560D01*
X83464400Y-77076560D01*
X83229083Y-77120838D01*
X83012959Y-77259910D01*
X82867969Y-77472110D01*
X82816960Y-77724000D01*
X80743815Y-77724000D01*
X80712959Y-77693091D01*
X79928541Y-77367372D01*
X79079185Y-77366630D01*
X78294200Y-77690980D01*
X77693091Y-78291041D01*
X77367372Y-79075459D01*
X77366630Y-79924815D01*
X76910000Y-79924815D01*
X76910000Y-76910000D01*
X113590000Y-76910000D01*
X113590000Y-93948341D01*
M02*
